<svg width="84" height="15" viewBox="0 0 84 15" fill="none" xmlns="http://www.w3.org/2000/svg">
<path d="M2.31641 3.05664L2.48242 2.91992L2.67773 2.93945C2.78841 2.93945 2.88281 2.91016 2.96094 2.85156C3.03906 2.79297 3.10091 2.76042 3.14648 2.75391C3.19857 2.7474 3.25716 2.71484 3.32227 2.65625C3.39388 2.59766 3.49479 2.55859 3.625 2.53906C3.75521 2.51302 3.84961 2.4707 3.9082 2.41211C3.9668 2.35352 4.0319 2.31771 4.10352 2.30469C4.18164 2.28516 4.26953 2.25586 4.36719 2.2168L5.25586 1.94336C5.26888 1.94336 5.30469 1.95638 5.36328 1.98242H5.40234C5.48047 1.98242 5.55534 1.95312 5.62695 1.89453C5.70508 1.82943 5.79622 1.79688 5.90039 1.79688C5.96549 1.79688 6.09245 1.75781 6.28125 1.67969L6.33984 1.73828C6.44401 1.62109 6.5319 1.5625 6.60352 1.5625H6.66211C6.67513 1.5625 6.73372 1.57552 6.83789 1.60156C7.00065 1.54948 7.13411 1.52344 7.23828 1.52344L7.46289 1.50391C7.47591 1.50391 7.49544 1.51042 7.52148 1.52344C7.57357 1.46484 7.64518 1.42904 7.73633 1.41602H7.84375L8.24414 1.31836L8.36133 1.35742C8.43945 1.29232 8.5599 1.25977 8.72266 1.25977H8.82031L8.91797 1.2793C8.93099 1.2793 8.98958 1.25977 9.09375 1.2207C9.20443 1.18164 9.4681 1.16211 9.88477 1.16211L10.1387 1.20117C10.3014 1.13607 10.3893 1.10352 10.4023 1.10352L10.6758 1.16211L10.7832 1.12305H10.8223C10.8353 1.12305 10.8678 1.13607 10.9199 1.16211H10.9395L11.6426 1.06445C11.6556 1.06445 11.6816 1.07096 11.7207 1.08398C11.7728 1.03841 11.8118 1.01562 11.8379 1.01562L12.0234 1.06445C12.0755 1.06445 12.1667 1.02865 12.2969 0.957031L12.3555 1.01562L13.0195 0.9375L13.2637 0.957031L13.4785 0.917969C13.6934 0.917969 13.8529 0.976562 13.957 1.09375C14.0677 1.20443 14.123 1.31836 14.123 1.43555L14.1621 1.73828L14.1035 1.9043L14.084 2.09961C14.0514 2.17773 14.0026 2.22982 13.9375 2.25586C13.9375 2.26888 13.9082 2.28516 13.8496 2.30469C13.791 2.31771 13.7324 2.34375 13.6738 2.38281C13.6152 2.42188 13.4232 2.44141 13.0977 2.44141C12.9349 2.44141 12.8307 2.39258 12.7852 2.29492C12.7396 2.19076 12.6908 2.13216 12.6387 2.11914L12.2188 1.94336C12.2057 1.93034 12.1667 1.92383 12.1016 1.92383H12.0234L11.623 1.96289C11.61 1.96289 11.5742 1.95638 11.5156 1.94336C11.431 1.98242 11.3854 2.00195 11.3789 2.00195L10.6562 1.96289L10.3633 1.98242L10.1582 1.94336C10.1322 1.94336 10.0866 1.95312 10.0215 1.97266C9.95638 1.99219 9.81966 2.00846 9.61133 2.02148C9.40299 2.03451 9.29883 2.09961 9.29883 2.2168C9.29883 2.28841 9.32487 2.36654 9.37695 2.45117C9.43555 2.53581 9.46484 2.60417 9.46484 2.65625C9.36719 2.79297 9.31836 2.88086 9.31836 2.91992C9.29232 2.93945 9.24674 2.98177 9.18164 3.04688C9.11654 3.11198 8.99609 3.21615 8.82031 3.35938C8.64453 3.49609 8.52409 3.62305 8.45898 3.74023C8.39388 3.85742 8.31576 3.91602 8.22461 3.91602C8.10742 4.02669 8.02604 4.1276 7.98047 4.21875L7.90234 4.29688C7.88932 4.3099 7.88281 4.33919 7.88281 4.38477C7.88281 4.42383 7.86328 4.46289 7.82422 4.50195L7.73633 4.73633C7.69076 4.75586 7.55729 4.92513 7.33594 5.24414L7.21875 5.30273L7.10156 5.43945H6.96484C6.90625 5.43945 6.87695 5.47852 6.87695 5.55664L6.91602 5.83984C6.81836 5.92448 6.74023 6.03841 6.68164 6.18164L6.56445 6.37695C6.42773 6.51367 6.35938 6.58854 6.35938 6.60156C6.35938 6.63411 6.29427 6.77409 6.16406 7.02148L6.14453 7.11914C6.14453 7.22982 5.91667 7.54883 5.46094 8.07617C5.39583 8.19987 5.35677 8.38867 5.34375 8.64258C5.14844 9.02669 5.01497 9.21224 4.94336 9.19922C4.93034 9.44661 4.88802 9.64844 4.81641 9.80469C4.7513 9.96094 4.66341 10.1921 4.55273 10.498C4.44857 10.7975 4.33789 11.0124 4.2207 11.1426L4.18164 11.2207C4.1556 11.2728 4.12305 11.3249 4.08398 11.377C4.07096 11.5527 4.00911 11.8327 3.89844 12.2168L3.83984 12.6367L3.64453 13.1836C3.625 13.2227 3.61523 13.2617 3.61523 13.3008C3.61523 13.3268 3.63477 13.3789 3.67383 13.457C3.7194 13.5286 3.74219 13.597 3.74219 13.6621C3.74219 13.7533 3.72591 13.8281 3.69336 13.8867C3.66081 13.9388 3.64453 14.0104 3.64453 14.1016C3.64453 14.3034 3.53711 14.4368 3.32227 14.502H3.24414L3.03906 14.5215C2.76562 14.5215 2.51823 14.3913 2.29688 14.1309C2.07552 13.8704 1.96484 13.5124 1.96484 13.0566C1.96484 13.0306 1.98438 12.9329 2.02344 12.7637C2.0625 12.5879 2.08529 12.474 2.0918 12.4219C2.09831 12.3698 2.11458 12.3177 2.14062 12.2656C2.16667 12.207 2.17969 12.1257 2.17969 12.0215C2.17969 11.7025 2.25781 11.4258 2.41406 11.1914C2.57682 10.957 2.68424 10.7878 2.73633 10.6836C2.74935 10.638 2.77214 10.6087 2.80469 10.5957C2.78516 10.5436 2.77539 10.4785 2.77539 10.4004C2.77539 10.2116 2.85677 10.0586 3.01953 9.94141C3.03255 9.88932 3.05534 9.83073 3.08789 9.76562C3.12044 9.69401 3.1888 9.52799 3.29297 9.26758C3.39714 9.00065 3.53385 8.8444 3.70312 8.79883C3.69661 8.78581 3.73568 8.73372 3.82031 8.64258L3.78125 8.30078C3.78125 8.2487 3.83984 8.16081 3.95703 8.03711L4.12305 7.76367C4.14909 7.65299 4.23372 7.55208 4.37695 7.46094C4.41602 7.39583 4.45833 7.35677 4.50391 7.34375C4.51042 7.31771 4.53646 7.23633 4.58203 7.09961C4.63411 6.96289 4.73828 6.79362 4.89453 6.5918C5.05729 6.38346 5.21029 6.16862 5.35352 5.94727C5.50326 5.72591 5.63672 5.61198 5.75391 5.60547C5.8776 5.59896 5.94596 5.5306 5.95898 5.40039L6.01758 5.03906C6.20638 4.8763 6.32031 4.76237 6.35938 4.69727L6.49609 4.54102C6.52214 4.44987 6.55469 4.39128 6.59375 4.36523C6.63932 4.33268 6.69466 4.27083 6.75977 4.17969C6.82487 4.08854 6.90625 4.00716 7.00391 3.93555C7.08854 3.66862 7.2806 3.4375 7.58008 3.24219L7.73633 3.07617C7.84701 2.91992 7.93815 2.81576 8.00977 2.76367C8.08138 2.70508 8.13346 2.63021 8.16602 2.53906C8.20508 2.44792 8.27669 2.37956 8.38086 2.33398C8.48503 2.28841 8.53711 2.23633 8.53711 2.17773C8.53711 2.15169 8.51107 2.13867 8.45898 2.13867C8.4069 2.13867 8.31901 2.1582 8.19531 2.19727H8.11719L7.94141 2.23633H7.88281L7.7168 2.19727C7.59961 2.23633 7.50846 2.25586 7.44336 2.25586C7.43034 2.26888 7.38802 2.29818 7.31641 2.34375H7.10156L6.98438 2.46094L6.89648 2.48047L6.64258 2.44141C6.56445 2.44141 6.47005 2.48047 6.35938 2.55859C6.35938 2.57161 6.25195 2.5944 6.03711 2.62695C5.82878 2.65951 5.63021 2.72135 5.44141 2.8125C5.2526 2.89714 5.13867 2.93945 5.09961 2.93945L4.92383 2.90039H4.9043C4.81966 2.90039 4.74154 2.94271 4.66992 3.02734C4.59831 3.11198 4.49414 3.16406 4.35742 3.18359H4.24023C4.14258 3.18359 4.00911 3.22266 3.83984 3.30078C3.67708 3.37891 3.58919 3.41797 3.57617 3.41797L3.40039 3.39844C3.32227 3.45052 3.25391 3.48633 3.19531 3.50586C3.14323 3.52539 3.09115 3.55794 3.03906 3.60352C2.98698 3.64258 2.9349 3.67188 2.88281 3.69141C2.83073 3.71094 2.76888 3.74674 2.69727 3.79883C2.63216 3.85091 2.58008 3.87695 2.54102 3.87695H2.50195L2.38477 3.85742C2.33919 3.85742 2.2806 3.89974 2.20898 3.98438C2.13737 4.0625 2.06901 4.11133 2.00391 4.13086C1.94531 4.15039 1.88672 4.18294 1.82812 4.22852C1.77604 4.26758 1.7207 4.29036 1.66211 4.29688C1.62956 4.32943 1.58398 4.40104 1.52539 4.51172C1.4668 4.6224 1.39193 4.72005 1.30078 4.80469C1.20964 4.88281 1.14779 4.94466 1.11523 4.99023C1.08919 5.03581 1.06315 5.05859 1.03711 5.05859C0.718099 5.05859 0.558594 4.86003 0.558594 4.46289L0.753906 4.04297C0.890625 3.71094 1.09896 3.50911 1.37891 3.4375C1.45052 3.4375 1.63607 3.36589 1.93555 3.22266L2.31641 3.05664ZM12.0234 5.95703L11.9648 5.57617V5.51758C11.9648 5.21159 12.069 5.04232 12.2773 5.00977C12.3229 5.00326 12.4596 4.96094 12.6875 4.88281C12.8047 4.90885 12.9251 5.01302 13.0488 5.19531C13.179 5.37109 13.2441 5.52734 13.2441 5.66406C13.2441 5.67708 13.2344 5.70638 13.2148 5.75195C13.1953 5.79753 13.1823 5.88542 13.1758 6.01562C13.1693 6.13932 13.1042 6.25 12.9805 6.34766C12.8633 6.4388 12.7363 6.48438 12.5996 6.48438C12.5085 6.48438 12.3913 6.42253 12.248 6.29883C12.1113 6.16862 12.0365 6.05469 12.0234 5.95703ZM7.80469 10.8398L7.96094 10.7031H8.01953C8.0651 10.7031 8.13346 10.6543 8.22461 10.5566L8.32227 10.5176C8.45247 10.3223 8.56641 10.2083 8.66406 10.1758L8.82031 10.0586C8.84635 10.0326 8.88216 10.0098 8.92773 9.99023C8.97982 9.9707 9.05794 9.90885 9.16211 9.80469C9.27279 9.69401 9.36068 9.63867 9.42578 9.63867C9.49089 9.63867 9.54297 9.64518 9.58203 9.6582C9.62109 9.58008 9.69922 9.50521 9.81641 9.43359C9.93359 9.35547 10.028 9.26432 10.0996 9.16016L10.2266 9.10156C10.3307 9.04948 10.4219 8.98438 10.5 8.90625C10.5846 8.82161 10.6921 8.7793 10.8223 8.7793C11.0111 8.7793 11.2064 8.87695 11.4082 9.07227C11.6165 9.26107 11.7207 9.44336 11.7207 9.61914L11.5547 10.3809C11.444 10.9408 11.3203 11.2337 11.1836 11.2598L11.1445 11.4648C11.0534 11.5299 11.0078 11.582 11.0078 11.6211L11.0664 11.8555C11.0664 11.888 11.0306 11.9368 10.959 12.002C10.946 12.002 10.9395 12.0215 10.9395 12.0605V12.4609C10.9395 12.5326 10.8939 12.5911 10.8027 12.6367C10.8158 12.6497 10.8353 12.6628 10.8613 12.6758C10.9004 12.6367 10.9883 12.6172 11.125 12.6172L11.2812 12.6367L11.4961 12.4219C11.5417 12.4089 11.6035 12.3796 11.6816 12.334C11.7663 12.2819 11.9062 12.2168 12.1016 12.1387L13.3809 11.1621C13.5566 10.9863 13.6901 10.8984 13.7812 10.8984C13.8789 10.8984 13.9277 10.9603 13.9277 11.084C13.9277 11.2272 13.8984 11.3477 13.8398 11.4453C13.7878 11.5365 13.7389 11.6504 13.6934 11.7871C13.6478 11.9173 13.5924 12.0085 13.5273 12.0605C13.4688 12.1126 13.4199 12.1712 13.3809 12.2363C13.3418 12.2949 13.2344 12.3828 13.0586 12.5C12.8893 12.6172 12.7428 12.7376 12.6191 12.8613C12.502 12.9785 12.4043 13.0632 12.3262 13.1152L11.9062 13.418L11.8477 13.5156C11.8346 13.5286 11.7728 13.5579 11.6621 13.6035C11.5579 13.6426 11.4635 13.6947 11.3789 13.7598L11.2031 13.8574C11.1641 13.8835 11.099 13.8997 11.0078 13.9062C10.9232 13.9128 10.8483 13.9518 10.7832 14.0234C10.7181 14.0885 10.666 14.1211 10.627 14.1211L10.4805 14.1016L10.2852 14.1602C10.1745 14.1602 10.0378 14.0951 9.875 13.9648C9.71875 13.8281 9.64062 13.6849 9.64062 13.5352V13.4766L9.66016 13.3398C9.66016 13.3138 9.64062 13.2487 9.60156 13.1445C9.5625 13.0339 9.54297 12.972 9.54297 12.959L9.5625 12.8223L9.54297 12.7637C9.54297 12.5879 9.55599 12.4772 9.58203 12.4316C9.60807 12.3861 9.6276 12.3242 9.64062 12.2461C9.65365 12.1615 9.66667 12.0931 9.67969 12.041L9.72852 11.7969C9.75456 11.7188 9.78711 11.6667 9.82617 11.6406C9.83919 11.5885 9.86523 11.5007 9.9043 11.377L9.94336 11.2012L10.041 11.0645C10.0931 11.0124 10.1224 10.944 10.1289 10.8594C10.1419 10.7682 10.1777 10.6738 10.2363 10.5762C10.2949 10.4785 10.3242 10.4199 10.3242 10.4004C10.3242 10.3223 10.2852 10.2832 10.207 10.2832C10.181 10.2832 10.0996 10.3353 9.96289 10.4395L9.78711 10.3809C9.77409 10.3809 9.73828 10.4134 9.67969 10.4785C9.67969 10.5046 9.65039 10.5241 9.5918 10.5371C9.5332 10.5501 9.47786 10.599 9.42578 10.6836L9.34766 10.7031L9.2207 10.6445H9.18164C9.11654 10.6445 9.07747 10.7161 9.06445 10.8594C8.99284 10.9635 8.89844 11.0319 8.78125 11.0645L8.56641 11.123C8.49479 11.1491 8.44271 11.2077 8.41016 11.2988C8.3776 11.39 8.3125 11.4746 8.21484 11.5527C8.11719 11.6243 8.05208 11.6602 8.01953 11.6602C7.83724 11.6602 7.74609 11.5592 7.74609 11.3574L7.82422 10.8984L7.80469 10.8398ZM17.8633 9.78516L18.1367 9.6582C18.2279 9.59961 18.3158 9.51497 18.4004 9.4043L18.7422 9.16016C18.9375 9.02995 19.0645 8.96484 19.123 8.96484L19.2793 9.02344C19.2923 9.02344 19.3314 8.98438 19.3965 8.90625C19.4681 8.82161 19.5495 8.7793 19.6406 8.7793C19.7578 8.7793 19.9173 8.86719 20.1191 9.04297C20.321 9.21875 20.4219 9.375 20.4219 9.51172L20.3828 9.84375C20.3828 9.89583 20.4089 10.0423 20.4609 10.2832V10.3613L20.4219 10.5957L20.4609 10.8398L20.3535 11.3184C20.3535 11.4421 20.3958 11.5039 20.4805 11.5039C20.5911 11.3997 20.6855 11.3379 20.7637 11.3184L20.9004 11.1816C20.9525 11.1296 20.9915 11.1035 21.0176 11.1035C21.0436 11.1035 21.0762 11.0742 21.1152 11.0156C21.1608 10.9505 21.2161 10.9049 21.2812 10.8789C21.3464 10.8529 21.3919 10.8073 21.418 10.7422C21.7826 10.3451 22.0625 10.1172 22.2578 10.0586C22.2839 10.0586 22.3262 10.026 22.3848 9.96094C22.4499 9.89583 22.502 9.85677 22.541 9.84375L22.7559 9.67773L22.8438 9.7168H22.8633C22.8763 9.7168 22.9284 9.68424 23.0195 9.61914C23.1107 9.55404 23.1758 9.52148 23.2148 9.52148C23.4622 9.52148 23.6641 9.60612 23.8203 9.77539C23.9831 9.93815 24.0645 10.0651 24.0645 10.1562L24.0156 10.3809L24.084 10.6836V10.8789L24.0352 11.084C24.0352 11.123 24.0612 11.1784 24.1133 11.25C24.1719 11.3216 24.2012 11.3704 24.2012 11.3965C24.123 11.4811 24.084 11.5365 24.084 11.5625L24.1035 11.7383L24.0547 12.2754C24.0547 12.321 24.097 12.3958 24.1816 12.5C24.2207 12.474 24.276 12.4512 24.3477 12.4316C24.4193 12.4121 24.4746 12.3926 24.5137 12.373C24.5527 12.347 24.5723 12.334 24.5723 12.334C24.5723 12.3275 24.569 12.3242 24.5625 12.3242C24.5755 12.3242 24.6146 12.3372 24.6797 12.3633H24.7188C24.7708 12.3633 24.8001 12.3145 24.8066 12.2168C24.8132 12.1126 24.8783 12.028 25.002 11.9629L25.2363 11.9824C25.2493 11.9694 25.2754 11.9173 25.3145 11.8262C25.36 11.7285 25.4967 11.5885 25.7246 11.4062C25.959 11.2174 26.138 11.123 26.2617 11.123C26.3659 11.123 26.418 11.1686 26.418 11.2598C26.418 11.2858 26.4049 11.3542 26.3789 11.4648C26.431 11.556 26.457 11.6341 26.457 11.6992C26.457 11.8229 26.3496 11.9564 26.1348 12.0996C25.9264 12.2428 25.7669 12.4219 25.6562 12.6367L25.6172 12.6758L25.4219 12.6562C25.4089 12.6562 25.3763 12.7083 25.3242 12.8125C25.2786 12.9102 25.2233 12.9655 25.1582 12.9785C25.0931 12.9915 25.0475 13.0111 25.0215 13.0371L24.8164 13.1641C24.7773 13.1901 24.6471 13.3236 24.4258 13.5645C24.2109 13.7988 24.0286 13.916 23.8789 13.916C23.8138 13.916 23.6966 13.8835 23.5273 13.8184C23.3581 13.7467 23.2441 13.6751 23.1855 13.6035C23.127 13.5319 23.0423 13.4505 22.9316 13.3594C22.8275 13.2682 22.7754 13.0957 22.7754 12.8418C22.7754 12.8288 22.7917 12.806 22.8242 12.7734C22.8633 12.7409 22.8828 12.7148 22.8828 12.6953C22.7331 12.5 22.6582 12.36 22.6582 12.2754C22.6582 12.2363 22.6647 12.194 22.6777 12.1484C22.6908 12.1029 22.6973 12.0605 22.6973 12.0215L22.6777 11.6797L22.7168 11.5039L22.6973 11.3965L22.7559 10.8984C22.7559 10.8203 22.7103 10.7812 22.6191 10.7812C22.5931 10.7812 22.5573 10.8073 22.5117 10.8594C22.4661 10.9115 22.4076 10.9538 22.3359 10.9863C22.2708 11.0124 22.1992 11.1035 22.1211 11.2598C22.0039 11.3249 21.9225 11.39 21.877 11.4551C21.8379 11.5137 21.8053 11.543 21.7793 11.543C21.7663 11.543 21.7402 11.5365 21.7012 11.5234C21.623 11.5755 21.584 11.6341 21.584 11.6992V11.7383L21.6035 11.8164C21.6035 11.875 21.5547 11.9303 21.457 11.9824C21.3594 12.0345 21.2389 12.168 21.0957 12.3828C21.0306 12.3828 20.985 12.3893 20.959 12.4023L20.8418 12.6367C20.7767 12.6758 20.7148 12.7441 20.6562 12.8418L20.5391 12.9004C20.4935 12.985 20.4479 13.0566 20.4023 13.1152L20.3438 13.2227C20.0638 13.5547 19.8685 13.7207 19.7578 13.7207C19.6471 13.7207 19.5137 13.5742 19.3574 13.2812C19.2012 12.9883 19.123 12.7604 19.123 12.5977L19.1621 12.2363C19.1621 12.2233 19.1361 12.1712 19.084 12.0801V12.041C19.084 12.028 19.11 11.9531 19.1621 11.8164V11.5234C19.1621 11.5104 19.1556 11.4909 19.1426 11.4648V11.416C19.1426 11.403 19.1686 11.3509 19.2207 11.2598L19.1621 10.9766L19.2012 10.8203L19.1816 10.4785L19.2207 10.1758C19.2207 10.1562 19.2012 10.1237 19.1621 10.0781C19.1296 10.026 19.1068 10 19.0938 10C19.0482 10 18.9115 10.0749 18.6836 10.2246C18.4622 10.3743 18.3125 10.4915 18.2344 10.5762C18.1562 10.6608 18.0521 10.7617 17.9219 10.8789C17.7852 10.944 17.6908 11.11 17.6387 11.377C17.6387 11.39 17.6257 11.3965 17.5996 11.3965C17.5996 11.3835 17.5801 11.3704 17.541 11.3574H17.502C17.4694 11.3574 17.3685 11.4974 17.1992 11.7773L17.1602 11.8164L16.9746 11.7773C16.8184 11.7773 16.7402 11.9434 16.7402 12.2754C16.7402 12.334 16.6979 12.373 16.6133 12.3926C16.5352 12.4121 16.4733 12.4674 16.4277 12.5586C16.3822 12.6497 16.3203 12.7441 16.2422 12.8418C16.0924 12.9069 16.0078 12.9557 15.9883 12.9883C15.9883 12.9948 15.9167 13.0924 15.7734 13.2812C15.6302 13.4701 15.5521 13.5807 15.5391 13.6133C15.526 13.6458 15.4805 13.6849 15.4023 13.7305C15.3307 13.7695 15.2949 13.8053 15.2949 13.8379L15.3242 14.0039C15.3242 14.1081 15.2233 14.1602 15.0215 14.1602C14.6309 14.1602 14.4355 13.7533 14.4355 12.9395C14.4355 12.8483 14.4746 12.7474 14.5527 12.6367C14.6374 12.5195 14.7188 12.3796 14.7969 12.2168C14.9206 12.0931 15.0671 11.9141 15.2363 11.6797C15.4056 11.4453 15.5326 11.2858 15.6172 11.2012L15.7441 10.9961C15.7441 10.918 15.7604 10.8594 15.793 10.8203C15.8255 10.7812 15.8418 10.7324 15.8418 10.6738C15.8418 10.5697 15.8158 10.5176 15.7637 10.5176C15.64 10.5176 15.5423 10.5501 15.4707 10.6152C15.3991 10.6738 15.3177 10.7161 15.2266 10.7422C15.1419 10.7682 15.0866 10.8138 15.0605 10.8789C14.9694 10.918 14.8717 11.0026 14.7676 11.1328C14.6699 11.2565 14.6048 11.3346 14.5723 11.3672C14.5397 11.3997 14.5072 11.4453 14.4746 11.5039C14.4486 11.556 14.4128 11.5853 14.3672 11.5918C14.3216 11.5983 14.2793 11.6211 14.2402 11.6602C14.2012 11.6992 14.1393 11.7188 14.0547 11.7188C13.9961 11.7188 13.9408 11.6602 13.8887 11.543C13.8431 11.4193 13.8203 11.3444 13.8203 11.3184C13.8203 10.8431 14.1361 10.4329 14.7676 10.0879C14.8522 10.0423 14.9173 9.99674 14.9629 9.95117C15.015 9.9056 15.0671 9.86979 15.1191 9.84375L15.1582 9.77539C15.2103 9.69727 15.4056 9.58659 15.7441 9.44336H15.8809L16.5352 9.27734C16.8151 9.21224 16.9551 9.52799 16.9551 10.2246L16.9355 10.4004L16.9746 10.4785C17.0853 10.3743 17.196 10.2832 17.3066 10.2051C17.4238 10.1204 17.5085 10.0456 17.5605 9.98047C17.6126 9.91536 17.7135 9.85026 17.8633 9.78516ZM35.1777 6.03516L35.2363 6.01562H35.5C35.5781 6.01562 35.6921 5.92448 35.8418 5.74219C35.8548 5.72917 36.0273 5.66732 36.3594 5.55664L36.3984 5.51758C36.4896 5.43945 36.5547 5.38737 36.5938 5.36133H36.7793C36.7923 5.36133 36.8444 5.33203 36.9355 5.27344C37.0267 5.20833 37.2188 5.13672 37.5117 5.05859C37.8112 4.98047 38.0065 4.91536 38.0977 4.86328C38.1367 4.85026 38.2799 4.83073 38.5273 4.80469L38.8008 4.75586L39.0156 4.77539C39.3607 4.77539 39.6081 5.00326 39.7578 5.45898C39.7578 5.48503 39.7741 5.52734 39.8066 5.58594C39.8392 5.63802 39.8555 5.67708 39.8555 5.70312C39.8555 5.97656 39.722 6.26302 39.4551 6.5625L39.3184 6.92383C39.3184 6.93685 39.2826 6.98568 39.2109 7.07031C39.1458 7.15495 39.0872 7.25586 39.0352 7.37305C38.9831 7.48372 38.8431 7.65299 38.6152 7.88086C38.5762 7.95898 38.5208 8.08268 38.4492 8.25195C38.3776 8.41471 38.3158 8.52214 38.2637 8.57422C38.2181 8.6263 38.0911 8.82161 37.8828 9.16016C37.681 9.4987 37.5801 9.69727 37.5801 9.75586C37.4824 9.82747 37.4141 9.94792 37.375 10.1172C37.3424 10.2865 37.2773 10.446 37.1797 10.5957L37.1602 10.6641C37.3685 10.5924 37.4727 10.4785 37.4727 10.3223C37.4727 10.3027 37.528 10.2539 37.6387 10.1758L37.7168 10.0391C37.7949 9.94792 37.8633 9.89583 37.9219 9.88281C37.9349 9.83073 38.0033 9.75586 38.127 9.6582C38.2507 9.55404 38.332 9.48242 38.3711 9.44336C38.4167 9.4043 38.4883 9.36523 38.5859 9.32617C38.6836 9.2806 38.7943 9.11784 38.918 8.83789C38.931 8.78581 38.9798 8.74349 39.0645 8.71094C39.1556 8.67839 39.2305 8.6263 39.2891 8.55469C39.3477 8.47656 39.3965 8.42448 39.4355 8.39844L39.5137 8.28125C39.5853 8.21615 39.6341 8.17708 39.6602 8.16406L40.1387 7.57812C40.3926 7.41536 40.5326 7.28841 40.5586 7.19727L40.6367 7.17773H40.6953C40.7995 7.0931 40.8678 7.03451 40.9004 7.00195C40.9004 6.80664 40.972 6.67969 41.1152 6.62109C41.265 6.55599 41.3724 6.48112 41.4375 6.39648C41.5026 6.30534 41.5742 6.25977 41.6523 6.25977C41.6719 6.25977 41.7077 6.2793 41.7598 6.31836H41.7793C41.7988 6.31836 41.8184 6.28581 41.8379 6.2207V6.12305C41.8379 6.01237 41.8704 5.92122 41.9355 5.84961C42.0007 5.77799 42.0885 5.73242 42.1992 5.71289C42.3099 5.68685 42.4173 5.60221 42.5215 5.45898C42.6257 5.31576 42.7428 5.24089 42.873 5.23438C43.0098 5.22786 43.1009 5.17578 43.1465 5.07812C43.1921 4.98047 43.332 4.8763 43.5664 4.76562C43.8008 4.64844 43.9473 4.58659 44.0059 4.58008C44.0645 4.56706 44.1165 4.54753 44.1621 4.52148C44.2142 4.49544 44.2663 4.48242 44.3184 4.48242C44.3835 4.48242 44.4779 4.50195 44.6016 4.54102L44.7773 4.58008C44.9271 4.64518 45.0671 4.76562 45.1973 4.94141L45.2949 5.03906V5.07812L45.3145 5.24414V5.32227C45.3991 5.36133 45.4414 5.40039 45.4414 5.43945L45.373 5.56641C45.347 5.61198 45.334 5.66732 45.334 5.73242C45.334 5.79102 45.3307 5.85286 45.3242 5.91797C45.3177 5.97656 45.3079 6.03516 45.2949 6.09375C45.2884 6.14583 45.2754 6.19792 45.2559 6.25C45.2428 6.29557 45.2266 6.34115 45.207 6.38672C45.1875 6.42578 45.1647 6.46484 45.1387 6.50391L45.0605 6.81641C45.0345 6.9401 44.9629 7.08984 44.8457 7.26562C44.735 7.4349 44.6699 7.55534 44.6504 7.62695C44.6309 7.69206 44.5853 7.7832 44.5137 7.90039L44.5332 7.95898V8.0957C44.735 8.06966 44.8359 7.99154 44.8359 7.86133C44.8359 7.72461 44.9173 7.6237 45.0801 7.55859L45.2949 7.38281C45.4642 7.08333 45.6725 6.88802 45.9199 6.79688C45.9199 6.69271 45.9818 6.58529 46.1055 6.47461L46.4766 6.12305L46.7402 5.97656C46.8574 5.73568 46.9909 5.58919 47.1406 5.53711L47.3555 5.40039C47.4857 5.33529 47.5573 5.27344 47.5703 5.21484C47.5898 5.14974 47.6419 5.08464 47.7266 5.01953C47.8112 4.95443 47.9349 4.84701 48.0977 4.69727L48.1758 4.6582L48.2734 4.56055C48.3451 4.52148 48.4264 4.48893 48.5176 4.46289L48.5957 4.42383C48.7585 4.30013 48.9049 4.21875 49.0352 4.17969C49.1654 4.13411 49.3118 4.0625 49.4746 3.96484L49.8164 3.91602C49.8945 3.88997 49.9466 3.87695 49.9727 3.87695C50.5911 3.87695 50.9004 4.22526 50.9004 4.92188L50.8809 5.07812L50.9004 5.64453C50.7376 5.91146 50.6562 6.05143 50.6562 6.06445L50.6758 6.24023C50.6758 6.26628 50.6335 6.3444 50.5488 6.47461C50.4642 6.59831 50.4121 6.67318 50.3926 6.69922C50.3796 6.72526 50.321 6.79362 50.2168 6.9043L50.1191 7.19727C50.0866 7.26237 50.0312 7.32422 49.9531 7.38281V7.5C49.9531 7.59766 49.8262 7.74414 49.5723 7.93945C49.5397 8.10872 49.4811 8.23568 49.3965 8.32031C49.3184 8.39844 49.2565 8.48307 49.2109 8.57422C49.1719 8.65885 49.1068 8.74023 49.0156 8.81836C49.0156 8.90299 48.9603 9.04622 48.8496 9.24805C48.7389 9.44987 48.651 9.58008 48.5859 9.63867C48.5273 9.69076 48.4655 9.78516 48.4004 9.92188L48.3125 9.96094C48.2734 10.2083 48.2279 10.3483 48.1758 10.3809L48.0195 10.3613V10.4004C48.0195 10.4134 48.0326 10.4362 48.0586 10.4688C48.0846 10.5013 48.0977 10.5371 48.0977 10.5762C48.0977 10.6217 48.0781 10.6608 48.0391 10.6934C48 10.7259 47.9772 10.7585 47.9707 10.791C47.9642 10.8236 47.9479 10.8561 47.9219 10.8887C47.9023 10.9212 47.8893 10.9863 47.8828 11.084C47.8763 11.1751 47.8275 11.3021 47.7363 11.4648C47.6452 11.6276 47.5964 11.7383 47.5898 11.7969C47.5833 11.8555 47.5736 11.9043 47.5605 11.9434C47.5475 11.9824 47.541 12.0215 47.541 12.0605C47.541 12.0996 47.5247 12.2005 47.4922 12.3633C47.6159 12.6562 47.7038 12.8548 47.7559 12.959C47.8079 13.0632 47.834 13.1315 47.834 13.1641C47.834 13.4245 47.8014 13.6003 47.7363 13.6914C47.6712 13.776 47.5117 13.8184 47.2578 13.8184C47.0951 13.8184 46.9518 13.763 46.8281 13.6523C46.7109 13.5352 46.6068 13.4766 46.5156 13.4766V13.3008L46.4961 13.2812H46.3398C46.3268 13.2682 46.2975 13.2454 46.252 13.2129C46.2129 13.1803 46.1738 13.1348 46.1348 13.0762L46.0762 13.0176C46.0241 12.9525 45.9785 12.8451 45.9395 12.6953L45.8809 12.5L45.9004 12.3438L45.8809 12.0996C45.8809 12.0345 45.8874 11.9824 45.9004 11.9434L45.9199 11.6797C45.9199 11.6536 45.9329 11.5983 45.959 11.5137C45.985 11.4225 46.0013 11.3184 46.0078 11.2012C46.0143 11.0775 46.0436 10.9831 46.0957 10.918C46.1478 10.8529 46.1771 10.7975 46.1836 10.752C46.1901 10.7064 46.2064 10.6706 46.2324 10.6445C46.265 10.612 46.291 10.5371 46.3105 10.4199C46.3301 10.3027 46.3984 10.2083 46.5156 10.1367C46.5807 10.0195 46.6361 9.90885 46.6816 9.80469C46.8184 9.61589 46.89 9.52148 46.8965 9.52148H47.0332C46.9681 9.44336 46.9355 9.39779 46.9355 9.38477C46.9355 9.20898 47.0039 9.12109 47.1406 9.12109C47.1667 9.12109 47.1992 9.1276 47.2383 9.14062L47.2773 9.0625L47.2383 8.89648C47.2383 8.78581 47.3229 8.67513 47.4922 8.56445C47.4922 8.37565 47.5801 8.20638 47.7559 8.05664L47.7363 7.90039C47.7754 7.86133 47.8307 7.77669 47.9023 7.64648C47.974 7.50977 48.0651 7.37305 48.1758 7.23633L48.4785 6.77734L48.6152 6.62109C48.6152 6.6276 48.6152 6.63086 48.6152 6.63086C48.6217 6.62435 48.6283 6.61133 48.6348 6.5918C48.6478 6.56576 48.6608 6.52995 48.6738 6.48438L48.7324 6.33789L48.8008 6.25977C48.9701 6.21419 49.0547 6.1556 49.0547 6.08398C49.0547 6.07096 49.0286 6.02865 48.9766 5.95703V5.91797C48.9766 5.86589 49.0156 5.80078 49.0938 5.72266C49.1719 5.64453 49.2435 5.53711 49.3086 5.40039C49.3802 5.25716 49.416 5.16927 49.416 5.13672C49.416 5.11068 49.403 5.09766 49.377 5.09766C49.1686 5.09766 49.0286 5.17253 48.957 5.32227C48.957 5.36133 48.8301 5.43945 48.5762 5.55664L48.4785 5.70312C48.4004 5.77474 48.332 5.81055 48.2734 5.81055C48.2148 5.81055 48.1367 5.84961 48.0391 5.92773C47.9479 5.99935 47.7428 6.16862 47.4238 6.43555C47.1048 6.69596 46.8704 6.91081 46.7207 7.08008L46.4961 7.23633C46.4049 7.2819 46.3594 7.31771 46.3594 7.34375C46.3594 7.40885 46.304 7.49349 46.1934 7.59766L46.0762 7.74414C45.985 7.71159 45.9329 7.69531 45.9199 7.69531C45.8483 7.69531 45.7865 7.73112 45.7344 7.80273C45.7865 7.85482 45.8125 7.88737 45.8125 7.90039C45.8125 8.00456 45.7148 8.11198 45.5195 8.22266L45.0996 8.66211C45.0866 8.67513 45.0378 8.71094 44.9531 8.76953C44.8685 8.82812 44.8034 8.90299 44.7578 8.99414C44.7188 9.07878 44.6048 9.23177 44.416 9.45312C44.2272 9.66797 44.1165 9.78516 44.084 9.80469C44.0514 9.81771 44.0124 9.86003 43.9668 9.93164C43.9212 10.0033 43.8268 10.1042 43.6836 10.2344C43.5404 10.3646 43.459 10.5078 43.4395 10.6641C43.3158 10.7096 43.2539 10.7487 43.2539 10.7812L43.1953 10.8789L43.1172 10.918C43.1042 10.944 43.0944 10.9896 43.0879 11.0547C43.0814 11.1133 42.9512 11.224 42.6973 11.3867C42.4434 11.543 42.2839 11.6211 42.2188 11.6211C42.1992 11.6211 42.1699 11.6341 42.1309 11.6602C42.0918 11.6862 42.0658 11.6992 42.0527 11.6992C42.0332 11.6992 41.9453 11.6602 41.7891 11.582C41.6393 11.5039 41.5286 11.3216 41.457 11.0352L41.5352 10.7812L41.4961 10.5762C41.4961 10.5371 41.5254 10.485 41.584 10.4199C41.6491 10.3548 41.6816 10.2734 41.6816 10.1758C41.7858 9.94141 41.8639 9.77539 41.916 9.67773L41.9355 9.52148C41.9616 9.45638 42.0039 9.38477 42.0625 9.30664C42.1276 9.22201 42.1667 9.13086 42.1797 9.0332C42.1927 8.92904 42.235 8.86393 42.3066 8.83789C42.3783 8.81185 42.6419 8.41797 43.0977 7.65625V7.51953L43.3809 7.03125C43.4655 6.88802 43.5697 6.72526 43.6934 6.54297L43.7812 6.31836C43.5794 6.24023 43.472 6.20117 43.459 6.20117C43.4199 6.20117 43.3711 6.22721 43.3125 6.2793C43.3125 6.38997 43.1204 6.50391 42.7363 6.62109C42.6582 6.66016 42.5573 6.75456 42.4336 6.9043L42.1602 7.06055C42.1211 7.08659 42.0592 7.13867 41.9746 7.2168L41.8379 7.34375C41.6751 7.38281 41.5352 7.47396 41.418 7.61719L41.1543 7.80273C41.0762 7.86784 41.0241 7.91667 40.998 7.94922C40.972 7.98177 40.8516 8.05339 40.6367 8.16406L40.4805 8.32031L40.334 8.39844C40.2298 8.50911 40.1517 8.60352 40.0996 8.68164C40.0475 8.75977 39.9792 8.80534 39.8945 8.81836L39.6797 8.89648C39.6406 9.06576 39.5202 9.22852 39.3184 9.38477L39.0352 9.73633C38.9831 9.7819 38.9375 9.81771 38.8984 9.84375C38.8724 9.90885 38.8268 9.95443 38.7617 9.98047C38.6771 10.0846 38.6217 10.1562 38.5957 10.1953L38.4785 10.2832C38.3027 10.3483 38.2148 10.4004 38.2148 10.4395L38.2344 10.6152C38.2344 10.6868 38.1562 10.7552 38 10.8203C37.9349 10.8529 37.8958 10.9049 37.8828 10.9766C37.8763 11.0482 37.8535 11.123 37.8145 11.2012H37.6387C37.6191 11.2012 37.5573 11.2337 37.4531 11.2988C37.4401 11.2988 37.4271 11.3053 37.4141 11.3184L37.4531 11.543C37.4531 11.6211 37.401 11.7122 37.2969 11.8164C37.1927 11.9141 37.1113 12.002 37.0527 12.0801C37.0007 12.1582 36.9616 12.1973 36.9355 12.1973H36.877L36.8184 12.2363C36.8249 12.36 36.7435 12.4935 36.5742 12.6367L36.457 12.7832C36.418 12.8158 36.3073 12.9785 36.125 13.2715C35.9427 13.5645 35.7702 13.8021 35.6074 13.9844C35.4447 14.1667 35.2949 14.2904 35.1582 14.3555C35.0215 14.4141 34.875 14.4759 34.7188 14.541L34.3184 14.4629C34.2793 14.3913 34.2207 14.3327 34.1426 14.2871C34.071 14.2415 34.0352 14.1927 34.0352 14.1406L33.918 13.7988C33.918 13.7077 33.9538 13.597 34.0254 13.4668C34.097 13.3301 34.1393 13.2259 34.1523 13.1543C34.1719 13.0762 34.2109 12.9753 34.2695 12.8516C34.3281 12.7214 34.3574 12.6497 34.3574 12.6367C34.3574 12.4609 34.3835 12.3535 34.4355 12.3145C34.4941 12.2689 34.6211 12.1712 34.8164 12.0215C34.8294 12.0215 34.8359 12.0085 34.8359 11.9824V11.9629L34.8164 11.7969C34.9661 11.543 35.0605 11.416 35.0996 11.416C35.1126 11.416 35.1387 11.4225 35.1777 11.4355L35.1191 11.2207C35.1191 11.1947 35.1549 11.1523 35.2266 11.0938C35.2982 11.0352 35.3535 10.9701 35.3926 10.8984L35.3535 10.7812V10.7422C35.3535 10.6185 35.4349 10.4915 35.5977 10.3613C35.6237 10.3092 35.6758 10.1758 35.7539 9.96094L36.0078 9.51172C36.0729 9.38802 36.1413 9.30664 36.2129 9.26758C36.2845 9.22201 36.3236 9.16992 36.3301 9.11133C36.3366 9.05273 36.3594 8.98763 36.3984 8.91602C36.3984 8.94857 36.4017 8.95182 36.4082 8.92578C36.4212 8.89323 36.4375 8.82812 36.457 8.73047C36.4831 8.63281 36.5579 8.55469 36.6816 8.49609C36.8314 8.11198 36.9486 7.91992 37.0332 7.91992C37.0592 7.91992 37.0951 7.93294 37.1406 7.95898H37.1797C37.2839 7.95898 37.3359 7.91992 37.3359 7.8418C37.3359 7.81576 37.3229 7.80273 37.2969 7.80273C37.2383 7.86784 37.1862 7.90039 37.1406 7.90039C37.0951 7.90039 37.0723 7.88737 37.0723 7.86133C37.0723 7.84831 37.082 7.83529 37.1016 7.82227L37.3164 7.38281L37.3359 7.19727C37.362 7.1582 37.4141 7.09961 37.4922 7.02148L37.6582 6.79688V6.69922C37.6582 6.6862 37.6875 6.62109 37.7461 6.50391C37.8047 6.38021 37.847 6.25977 37.873 6.14258L38.0391 5.89844C38.0651 5.82031 38.0781 5.7487 38.0781 5.68359C38.0781 5.58594 38.0651 5.53711 38.0391 5.53711L37.4727 5.64453C37.1667 5.80078 36.9486 5.92448 36.8184 6.01562L36.5938 6.06445C36.5807 6.06445 36.4928 6.11003 36.3301 6.20117C36.1738 6.28581 36.0339 6.33464 35.9102 6.34766C35.793 6.35417 35.6888 6.39974 35.5977 6.48438L35.5586 6.50391H35.373C35.3014 6.58854 35.2526 6.65365 35.2266 6.69922C35.2005 6.73828 35.1777 6.75781 35.1582 6.75781C34.5007 7.19401 34.084 7.45768 33.9082 7.54883C33.7324 7.63997 33.599 7.72461 33.5078 7.80273C33.4167 7.87435 33.3385 7.92643 33.2734 7.95898V8.07617C33.2734 8.18685 33.1921 8.3138 33.0293 8.45703C32.873 8.59375 32.7363 8.66211 32.6191 8.66211C32.5801 8.66211 32.5182 8.64258 32.4336 8.60352C32.3555 8.55794 32.2643 8.52865 32.1602 8.51562C32.0625 8.5026 32.0137 8.37891 32.0137 8.14453C32.0137 7.8125 32.2871 7.50977 32.834 7.23633C32.9186 7.19727 32.9967 7.15169 33.0684 7.09961C33.14 7.04753 33.4297 6.92057 33.9375 6.71875L34.2207 6.58203C34.2858 6.51693 34.3932 6.45833 34.543 6.40625C34.6992 6.34766 34.8197 6.29883 34.9043 6.25977C34.9954 6.2207 35.0671 6.19466 35.1191 6.18164L35.1777 6.03516ZM44.3379 8.39844L44.4355 8.22266V8.20312C44.4355 8.1901 44.4225 8.18359 44.3965 8.18359C44.3314 8.18359 44.2793 8.2487 44.2402 8.37891C44.2533 8.41797 44.2663 8.4375 44.2793 8.4375C44.3053 8.4375 44.3249 8.42448 44.3379 8.39844ZM54.9531 13.2031L54.4941 13.6035C54.4681 13.5775 54.4421 13.5645 54.416 13.5645C54.3509 13.5645 54.2695 13.623 54.1719 13.7402C54.0807 13.8574 54.0156 13.916 53.9766 13.916L53.8789 13.8965C53.7161 14.0202 53.599 14.0918 53.5273 14.1113C53.4557 14.1309 53.3678 14.1667 53.2637 14.2188C53.166 14.2708 53.0749 14.3001 52.9902 14.3066C52.9121 14.3132 52.847 14.3424 52.7949 14.3945C52.7428 14.4401 52.6159 14.4629 52.4141 14.4629L52.2578 14.4434C52.1732 14.4824 52.1178 14.502 52.0918 14.502C52.0397 14.502 51.9844 14.4759 51.9258 14.4238C51.8672 14.3652 51.8021 14.3327 51.7305 14.3262C51.6654 14.3197 51.597 14.2741 51.5254 14.1895C51.4538 14.1048 51.3854 14.0462 51.3203 14.0137C51.2617 13.9811 51.2129 13.9355 51.1738 13.877L51.0371 13.7598C50.9264 13.6816 50.819 13.5384 50.7148 13.3301C50.6107 13.1217 50.5586 12.959 50.5586 12.8418V12.8027L50.5781 12.6172L50.5586 12.4023C50.5846 12.3763 50.6172 12.321 50.6562 12.2363V11.9238L50.8906 11.1426C50.9036 11.11 50.8776 11.0677 50.8125 11.0156C50.7474 11.1133 50.6823 11.1719 50.6172 11.1914C50.5521 11.2109 50.5065 11.2565 50.4805 11.3281C50.4609 11.3997 50.4251 11.4355 50.373 11.4355L50.2559 11.3965C50.2428 11.4095 50.2135 11.4779 50.168 11.6016C50.1224 11.7188 50.0443 11.7773 49.9336 11.7773C49.8164 11.7773 49.7578 11.7318 49.7578 11.6406L49.7773 11.4648L49.7188 11.2207C49.7188 11.1686 49.7708 11.0677 49.875 10.918C49.9792 10.7617 50.0736 10.6738 50.1582 10.6543C50.2493 10.6283 50.3242 10.5664 50.3828 10.4688C50.4479 10.3646 50.5846 10.2409 50.793 10.0977C50.9102 10.0716 51.0111 9.98698 51.0957 9.84375C51.1868 9.77214 51.304 9.71354 51.4473 9.66797C51.597 9.6224 51.7077 9.55729 51.7793 9.47266C51.8574 9.38151 52.0788 9.24479 52.4434 9.0625C52.8145 8.8737 53.0846 8.7793 53.2539 8.7793C53.306 8.7793 53.3776 8.76628 53.4688 8.74023C53.5599 8.70768 53.6445 8.68164 53.7227 8.66211C53.8008 8.63607 53.8822 8.60026 53.9668 8.55469C54.0514 8.5026 54.1198 8.47656 54.1719 8.47656L54.4551 8.57422C54.6634 8.63281 54.7904 8.67513 54.8359 8.70117C54.849 8.71419 54.9141 8.74349 55.0312 8.78906C55.1549 8.82812 55.2786 8.88346 55.4023 8.95508C55.5326 9.02669 55.5977 9.16016 55.5977 9.35547C55.487 9.51823 55.4316 9.60612 55.4316 9.61914C55.4316 9.64518 55.5065 9.68424 55.6562 9.73633C55.7083 9.83398 55.7865 9.96094 55.8906 10.1172L55.998 10.459L56.0176 11.2598L55.998 11.3379C55.9264 11.403 55.8906 11.4453 55.8906 11.4648L55.9199 11.6602L55.8418 11.9336C55.8223 12.0182 55.7897 12.0736 55.7441 12.0996C55.6986 12.1257 55.6693 12.1582 55.6562 12.1973L55.5977 12.2754C55.5846 12.2949 55.5553 12.3535 55.5098 12.4512C55.4707 12.5423 55.4251 12.6139 55.373 12.666C55.321 12.7181 55.2884 12.7799 55.2754 12.8516C55.2624 12.9232 55.2298 12.9753 55.1777 13.0078C55.1257 13.0404 55.0866 13.0762 55.0605 13.1152C55.041 13.1478 55.0052 13.1771 54.9531 13.2031ZM51.916 13.457L51.9551 13.6816L51.9746 13.7012H52.1309L52.1797 13.7207C52.3099 13.7467 52.4076 13.7598 52.4727 13.7598C52.6745 13.7598 52.834 13.7109 52.9512 13.6133C53.0749 13.5091 53.1725 13.457 53.2441 13.457C53.3158 13.457 53.3743 13.4082 53.4199 13.3105C53.472 13.2129 53.5046 13.1641 53.5176 13.1641H53.6543L53.6934 13.1445C53.6934 12.9948 53.7585 12.8874 53.8887 12.8223C54.0254 12.7572 54.1198 12.6725 54.1719 12.5684C54.2305 12.4577 54.2956 12.3763 54.3672 12.3242C54.4388 12.2656 54.4876 12.1908 54.5137 12.0996L54.5918 11.9824C54.6178 11.9564 54.6309 11.9076 54.6309 11.8359L54.8164 11.4844C54.8555 11.3216 54.875 11.1947 54.875 11.1035C54.875 10.9668 54.8034 10.8594 54.6602 10.7812C54.5234 10.7031 54.4551 10.5501 54.4551 10.3223C54.4551 10.1725 54.5299 10.0358 54.6797 9.91211C54.8359 9.7819 54.9141 9.70378 54.9141 9.67773C54.9141 9.63867 54.8945 9.61914 54.8555 9.61914C54.8359 9.61914 54.7611 9.64518 54.6309 9.69727C54.5853 9.78841 54.3542 9.90885 53.9375 10.0586C53.8008 9.99349 53.7259 9.96094 53.7129 9.96094C53.6738 9.96094 53.6348 10 53.5957 10.0781C53.5566 10.1562 53.5176 10.2116 53.4785 10.2441H53.3516C53.3385 10.2441 53.2962 10.2865 53.2246 10.3711C53.153 10.4557 53.0618 10.498 52.9512 10.498L52.834 10.6152C52.8405 10.7194 52.7754 10.8268 52.6387 10.9375L52.5312 11.0645C52.4661 11.1426 52.3815 11.2337 52.2773 11.3379L52.1016 11.7773C52.0299 11.9466 51.9941 12.0736 51.9941 12.1582C51.9746 12.1973 51.929 12.2396 51.8574 12.2852C51.7923 12.3242 51.7598 12.3763 51.7598 12.4414C51.7598 12.4544 51.7826 12.487 51.8281 12.5391C51.8737 12.5911 51.8965 12.6302 51.8965 12.6562L51.8574 12.7832L51.8184 13.1445L51.916 13.457ZM59.9434 5.40039L60.0801 5.36133L60.1777 5.26367H60.1973L60.2852 5.30273H60.3047C60.4609 5.30273 60.5977 5.27344 60.7148 5.21484C60.8385 5.14974 60.9395 5.10417 61.0176 5.07812C61.1022 5.05208 61.1543 5.03255 61.1738 5.01953C61.1934 5.00651 61.2096 5 61.2227 5L61.3789 5.01953C61.431 5.01953 61.4993 4.92839 61.584 4.74609C61.6751 4.55729 61.776 4.42057 61.8867 4.33594C61.9974 4.2513 62.1081 4.0918 62.2188 3.85742C62.2448 3.82487 62.2741 3.77604 62.3066 3.71094C62.3392 3.63932 62.3652 3.60352 62.3848 3.60352C62.4824 3.60352 62.5605 3.54167 62.6191 3.41797C62.8145 3.1901 62.974 3.07617 63.0977 3.07617C63.2604 3.07617 63.3743 3.23242 63.4395 3.54492L63.5371 3.91602C63.5371 3.92253 63.5208 3.97135 63.4883 4.0625C63.4557 4.14714 63.4395 4.23503 63.4395 4.32617C63.446 4.41081 63.4427 4.4694 63.4297 4.50195C63.4232 4.52799 63.4199 4.56055 63.4199 4.59961C63.4199 4.65169 63.4753 4.67773 63.5859 4.67773C63.625 4.67773 63.6966 4.65169 63.8008 4.59961L63.8594 4.58008C63.9245 4.61914 63.9798 4.63867 64.0254 4.63867C64.0384 4.63867 64.1296 4.60612 64.2988 4.54102C64.4746 4.47591 64.5853 4.4401 64.6309 4.43359C64.6764 4.42708 64.7546 4.40104 64.8652 4.35547H64.9824L65.0605 4.38477C65.0866 4.38477 65.1387 4.35872 65.2168 4.30664C65.3014 4.24805 65.4577 4.21224 65.6855 4.19922L65.8223 4.14062H65.8613C66.0762 4.14062 66.1836 4.23503 66.1836 4.42383C66.1836 4.46289 66.151 4.53125 66.0859 4.62891C66.0273 4.72656 65.9785 4.83724 65.9395 4.96094L65.4902 5.52734C65.3405 5.72266 65.1908 5.82031 65.041 5.82031C65.015 5.82031 64.9336 5.73242 64.7969 5.55664C64.7969 5.54362 64.7839 5.53711 64.7578 5.53711C64.6927 5.53711 64.6243 5.55013 64.5527 5.57617C64.4811 5.60221 64.4225 5.61523 64.377 5.61523C64.3574 5.61523 64.1849 5.66406 63.8594 5.76172L63.625 5.80078C63.599 5.80078 63.5371 5.8138 63.4395 5.83984L62.9414 5.9375C62.7721 6.02214 62.6387 6.18164 62.541 6.41602C62.541 6.42904 62.5085 6.45833 62.4434 6.50391L62.0039 7.30469C61.8607 7.34375 61.7663 7.42839 61.7207 7.55859L61.6816 7.61719C61.61 7.63021 61.5449 7.67253 61.4863 7.74414C61.4277 7.80924 61.3724 7.86133 61.3203 7.90039L61.1445 8.16406C61.0729 8.25521 61.0013 8.35612 60.9297 8.4668C60.8581 8.57096 60.806 8.6849 60.7734 8.80859C60.7409 8.92578 60.7148 8.99414 60.6953 9.01367C60.6758 9.0332 60.666 9.06901 60.666 9.12109L60.6367 9.19922C60.5586 9.27734 60.5195 9.36523 60.5195 9.46289L60.5586 9.61914C60.4674 9.93164 60.4219 10.0977 60.4219 10.1172C60.4219 10.1302 60.4284 10.166 60.4414 10.2246V10.2832C60.4414 10.4264 60.3893 10.6055 60.2852 10.8203L60.3047 10.9766L60.2461 11.416C60.2461 11.4746 60.2656 11.582 60.3047 11.7383C60.2786 11.7643 60.2656 11.7839 60.2656 11.7969C60.2656 11.9792 60.36 12.181 60.5488 12.4023C60.7441 12.6172 60.8418 12.9557 60.8418 13.418C60.8418 13.457 60.832 13.5156 60.8125 13.5938C60.793 13.6654 60.7799 13.7467 60.7734 13.8379C60.7669 13.9225 60.7148 14.0072 60.6172 14.0918C60.526 14.1764 60.4479 14.2188 60.3828 14.2188C60.0378 14.2188 59.7806 13.9681 59.6113 13.4668C59.4421 12.9655 59.3574 12.6432 59.3574 12.5L59.377 12.1191L59.3184 11.9238L59.377 11.0645L59.3379 10.8594L59.5625 10.0195V9.7168C59.5625 9.70378 59.6081 9.65169 59.6992 9.56055C59.6992 9.54753 59.6862 9.54102 59.6602 9.54102C59.6211 9.54102 59.569 9.58008 59.5039 9.6582C59.4388 9.73633 59.3574 9.8112 59.2598 9.88281L59.1816 10.0195C59.1686 10.0065 59.1426 9.99349 59.1035 9.98047C59.071 9.99349 58.9635 10.1465 58.7812 10.4395C58.6445 10.459 58.5371 10.5371 58.459 10.6738C58.3809 10.8105 58.2734 10.8789 58.1367 10.8789L58.0977 10.8984C58.0716 11.0872 57.9805 11.1816 57.8242 11.1816L57.7852 11.2012C57.6875 11.4225 57.5866 11.5299 57.4824 11.5234C57.4173 11.7188 57.2578 11.8522 57.0039 11.9238C56.9648 12.002 56.9095 12.0605 56.8379 12.0996C56.7598 12.1387 56.7044 12.1745 56.6719 12.207C56.6393 12.2396 56.61 12.2559 56.584 12.2559C56.4993 12.2559 56.457 12.1647 56.457 11.9824C56.457 11.9303 56.4798 11.875 56.5254 11.8164C56.5645 11.7513 56.584 11.7057 56.584 11.6797C56.584 11.6667 56.5514 11.6276 56.4863 11.5625C56.4863 11.3607 56.5384 11.2337 56.6426 11.1816C56.7467 11.1296 56.8249 11.0547 56.877 10.957C56.9095 10.8789 56.9746 10.8236 57.0723 10.791C57.1699 10.7585 57.2188 10.7161 57.2188 10.6641C57.2188 10.6185 57.3034 10.5273 57.4727 10.3906C57.6419 10.2539 57.7656 10.1367 57.8438 10.0391C57.9219 9.9349 57.987 9.88281 58.0391 9.88281L58.0781 9.84375C58.0911 9.68099 58.153 9.59961 58.2637 9.59961L58.3613 9.54102L58.3809 9.46289L58.4395 9.42383H58.5176L58.5664 9.38477C58.5794 9.22201 58.6543 9.09505 58.791 9.00391C58.9342 8.91276 59.1914 8.65885 59.5625 8.24219C59.9336 7.81901 60.1419 7.54883 60.1875 7.43164C60.2331 7.31445 60.3145 7.1582 60.4316 6.96289C60.5553 6.76107 60.6237 6.57227 60.6367 6.39648C60.6237 6.37044 60.6042 6.3444 60.5781 6.31836L60.1582 6.52344C60.1582 6.50391 60.0931 6.47461 59.9629 6.43555C59.8652 6.49414 59.7936 6.55273 59.748 6.61133C59.7025 6.66992 59.6667 6.69922 59.6406 6.69922L59.5039 6.67969L59.0742 6.72852C58.6901 6.76107 58.4004 6.83919 58.2051 6.96289L57.8047 7.08008H57.7168C57.6647 7.08008 57.5866 7.11263 57.4824 7.17773L57.2578 7.1582C57.0495 7.26888 56.8965 7.32422 56.7988 7.32422C56.7858 7.32422 56.7467 7.31771 56.6816 7.30469L55.6855 7.57812C55.6074 7.60417 55.4316 7.73763 55.1582 7.97852L55.0801 7.99805C55.015 7.99805 54.9401 7.92643 54.8555 7.7832C54.7643 7.63346 54.7188 7.5 54.7188 7.38281C54.7188 6.73828 55.2721 6.36393 56.3789 6.25977L56.7793 6.10352H56.7988L56.9062 6.14258H56.9453C56.9844 6.14258 57.0462 6.11979 57.1309 6.07422C57.2155 6.02214 57.4043 5.96029 57.6973 5.88867L58.0977 5.78125L58.2246 5.80078C58.2897 5.80078 58.3613 5.77474 58.4395 5.72266C58.5241 5.67057 58.6478 5.63477 58.8105 5.61523C58.9798 5.58919 59.097 5.56315 59.1621 5.53711L59.3184 5.49805C59.3444 5.49805 59.3965 5.47526 59.4746 5.42969C59.5592 5.38411 59.6667 5.36133 59.7969 5.36133C59.8164 5.36133 59.8652 5.37435 59.9434 5.40039ZM67.7461 13.2031L67.2871 13.6035C67.2611 13.5775 67.235 13.5645 67.209 13.5645C67.1439 13.5645 67.0625 13.623 66.9648 13.7402C66.8737 13.8574 66.8086 13.916 66.7695 13.916L66.6719 13.8965C66.5091 14.0202 66.3919 14.0918 66.3203 14.1113C66.2487 14.1309 66.1608 14.1667 66.0566 14.2188C65.959 14.2708 65.8678 14.3001 65.7832 14.3066C65.7051 14.3132 65.64 14.3424 65.5879 14.3945C65.5358 14.4401 65.4089 14.4629 65.207 14.4629L65.0508 14.4434C64.9661 14.4824 64.9108 14.502 64.8848 14.502C64.8327 14.502 64.7773 14.4759 64.7188 14.4238C64.6602 14.3652 64.5951 14.3327 64.5234 14.3262C64.4583 14.3197 64.39 14.2741 64.3184 14.1895C64.2467 14.1048 64.1784 14.0462 64.1133 14.0137C64.0547 13.9811 64.0059 13.9355 63.9668 13.877L63.8301 13.7598C63.7194 13.6816 63.612 13.5384 63.5078 13.3301C63.4036 13.1217 63.3516 12.959 63.3516 12.8418V12.8027L63.3711 12.6172L63.3516 12.4023C63.3776 12.3763 63.4102 12.321 63.4492 12.2363V11.9238L63.6836 11.1426C63.6966 11.11 63.6706 11.0677 63.6055 11.0156C63.5404 11.1133 63.4753 11.1719 63.4102 11.1914C63.3451 11.2109 63.2995 11.2565 63.2734 11.3281C63.2539 11.3997 63.2181 11.4355 63.166 11.4355L63.0488 11.3965C63.0358 11.4095 63.0065 11.4779 62.9609 11.6016C62.9154 11.7188 62.8372 11.7773 62.7266 11.7773C62.6094 11.7773 62.5508 11.7318 62.5508 11.6406L62.5703 11.4648L62.5117 11.2207C62.5117 11.1686 62.5638 11.0677 62.668 10.918C62.7721 10.7617 62.8665 10.6738 62.9512 10.6543C63.0423 10.6283 63.1172 10.5664 63.1758 10.4688C63.2409 10.3646 63.3776 10.2409 63.5859 10.0977C63.7031 10.0716 63.804 9.98698 63.8887 9.84375C63.9798 9.77214 64.097 9.71354 64.2402 9.66797C64.39 9.6224 64.5007 9.55729 64.5723 9.47266C64.6504 9.38151 64.8717 9.24479 65.2363 9.0625C65.6074 8.8737 65.8776 8.7793 66.0469 8.7793C66.099 8.7793 66.1706 8.76628 66.2617 8.74023C66.3529 8.70768 66.4375 8.68164 66.5156 8.66211C66.5938 8.63607 66.6751 8.60026 66.7598 8.55469C66.8444 8.5026 66.9128 8.47656 66.9648 8.47656L67.248 8.57422C67.4564 8.63281 67.5833 8.67513 67.6289 8.70117C67.6419 8.71419 67.707 8.74349 67.8242 8.78906C67.9479 8.82812 68.0716 8.88346 68.1953 8.95508C68.3255 9.02669 68.3906 9.16016 68.3906 9.35547C68.2799 9.51823 68.2246 9.60612 68.2246 9.61914C68.2246 9.64518 68.2995 9.68424 68.4492 9.73633C68.5013 9.83398 68.5794 9.96094 68.6836 10.1172L68.791 10.459L68.8105 11.2598L68.791 11.3379C68.7194 11.403 68.6836 11.4453 68.6836 11.4648L68.7129 11.6602L68.6348 11.9336C68.6152 12.0182 68.5827 12.0736 68.5371 12.0996C68.4915 12.1257 68.4622 12.1582 68.4492 12.1973L68.3906 12.2754C68.3776 12.2949 68.3483 12.3535 68.3027 12.4512C68.2637 12.5423 68.2181 12.6139 68.166 12.666C68.1139 12.7181 68.0814 12.7799 68.0684 12.8516C68.0553 12.9232 68.0228 12.9753 67.9707 13.0078C67.9186 13.0404 67.8796 13.0762 67.8535 13.1152C67.834 13.1478 67.7982 13.1771 67.7461 13.2031ZM64.709 13.457L64.748 13.6816L64.7676 13.7012H64.9238L64.9727 13.7207C65.1029 13.7467 65.2005 13.7598 65.2656 13.7598C65.4674 13.7598 65.627 13.7109 65.7441 13.6133C65.8678 13.5091 65.9655 13.457 66.0371 13.457C66.1087 13.457 66.1673 13.4082 66.2129 13.3105C66.265 13.2129 66.2975 13.1641 66.3105 13.1641H66.4473L66.4863 13.1445C66.4863 12.9948 66.5514 12.8874 66.6816 12.8223C66.8184 12.7572 66.9128 12.6725 66.9648 12.5684C67.0234 12.4577 67.0885 12.3763 67.1602 12.3242C67.2318 12.2656 67.2806 12.1908 67.3066 12.0996L67.3848 11.9824C67.4108 11.9564 67.4238 11.9076 67.4238 11.8359L67.6094 11.4844C67.6484 11.3216 67.668 11.1947 67.668 11.1035C67.668 10.9668 67.5964 10.8594 67.4531 10.7812C67.3164 10.7031 67.248 10.5501 67.248 10.3223C67.248 10.1725 67.3229 10.0358 67.4727 9.91211C67.6289 9.7819 67.707 9.70378 67.707 9.67773C67.707 9.63867 67.6875 9.61914 67.6484 9.61914C67.6289 9.61914 67.554 9.64518 67.4238 9.69727C67.3783 9.78841 67.1471 9.90885 66.7305 10.0586C66.5938 9.99349 66.5189 9.96094 66.5059 9.96094C66.4668 9.96094 66.4277 10 66.3887 10.0781C66.3496 10.1562 66.3105 10.2116 66.2715 10.2441H66.1445C66.1315 10.2441 66.0892 10.2865 66.0176 10.3711C65.946 10.4557 65.8548 10.498 65.7441 10.498L65.627 10.6152C65.6335 10.7194 65.5684 10.8268 65.4316 10.9375L65.3242 11.0645C65.2591 11.1426 65.1745 11.2337 65.0703 11.3379L64.8945 11.7773C64.8229 11.9466 64.7871 12.0736 64.7871 12.1582C64.7676 12.1973 64.722 12.2396 64.6504 12.2852C64.5853 12.3242 64.5527 12.3763 64.5527 12.4414C64.5527 12.4544 64.5755 12.487 64.6211 12.5391C64.6667 12.5911 64.6895 12.6302 64.6895 12.6562L64.6504 12.7832L64.6113 13.1445L64.709 13.457ZM71.75 9.48242L71.8965 9.44336L71.9551 9.31641C72.2741 9.1276 72.502 8.94857 72.6387 8.7793C72.6517 8.75326 72.681 8.72721 72.7266 8.70117C72.7721 8.67513 72.821 8.62956 72.873 8.56445C73.1139 8.32357 73.4004 8.20312 73.7324 8.20312C74.123 8.20312 74.3314 8.44076 74.3574 8.91602L74.416 9.0625C74.4681 9.15365 74.5397 9.33919 74.6309 9.61914C74.7285 9.89909 74.7773 10.0716 74.7773 10.1367C74.7773 10.3125 74.722 10.4883 74.6113 10.6641C74.5202 10.7096 74.3021 10.9538 73.957 11.3965L73.8594 11.4648C73.8073 11.582 73.7389 11.6992 73.6543 11.8164C73.5241 11.862 73.459 11.9108 73.459 11.9629V12.1387C73.459 12.1517 73.4427 12.1777 73.4102 12.2168C73.3841 12.2559 73.3451 12.3307 73.293 12.4414L73.2148 12.5586C73.1888 12.5846 73.1628 12.64 73.1367 12.7246C73.1107 12.8027 73.0716 12.8743 73.0195 12.9395C72.974 13.0046 72.9512 13.0566 72.9512 13.0957C72.9512 13.1934 73.0781 13.2422 73.332 13.2422C73.3451 13.2422 73.3939 13.2227 73.4785 13.1836L73.6152 13.2227C73.6283 13.2227 73.6608 13.2031 73.7129 13.1641C73.765 13.1185 73.8431 13.0827 73.9473 13.0566C74.0579 13.0306 74.1523 12.9915 74.2305 12.9395C74.3151 12.8874 74.4128 12.8418 74.5234 12.8027C74.6406 12.7637 74.7513 12.7018 74.8555 12.6172C74.9596 12.526 75.0605 12.4609 75.1582 12.4219C75.2624 12.3828 75.3568 12.3242 75.4414 12.2461C75.5326 12.1615 75.6335 12.0833 75.7441 12.0117C75.8548 11.9401 76.0306 11.7839 76.2715 11.543C76.4277 11.4193 76.5352 11.3509 76.5938 11.3379C76.6068 11.3379 76.6621 11.2533 76.7598 11.084C76.8639 10.9082 76.9811 10.8203 77.1113 10.8203C77.248 10.8203 77.3164 10.8854 77.3164 11.0156C77.3164 11.0872 77.2839 11.1556 77.2188 11.2207V11.2793L77.2383 11.4355C77.2513 11.4551 77.2578 11.4844 77.2578 11.5234C77.2578 11.5495 77.2318 11.5885 77.1797 11.6406C77.1341 11.6927 77.1016 11.7611 77.082 11.8457C77.0625 11.9238 77.0007 11.9759 76.8965 12.002C76.8574 12.1452 76.8053 12.2266 76.7402 12.2461C76.6816 12.2656 76.597 12.3307 76.4863 12.4414C76.3757 12.5521 76.2194 12.6823 76.0176 12.832C75.8158 12.9818 75.6758 13.099 75.5977 13.1836C75.526 13.2617 75.4772 13.3008 75.4512 13.3008C75.4382 13.3008 75.4121 13.2878 75.373 13.2617C75.334 13.2357 75.3079 13.2227 75.2949 13.2227C75.2559 13.2227 75.2298 13.2682 75.2168 13.3594L75.1777 13.457C75.0931 13.5091 75.0443 13.5352 75.0312 13.5352L74.9727 13.5156H74.9336C74.8555 13.5156 74.8164 13.5449 74.8164 13.6035L74.875 13.7012V13.7207C74.875 13.8118 74.8229 13.8574 74.7188 13.8574C74.6471 13.8574 74.4388 13.9779 74.0938 14.2188L73.8105 14.2773L73.5762 14.4043C73.498 14.3587 73.4492 14.3359 73.4297 14.3359L73.2734 14.3848L72.9902 14.4043C72.9837 14.4043 72.8633 14.3392 72.6289 14.209C72.401 14.0788 72.2643 13.9486 72.2188 13.8184C72.1732 13.6882 72.1146 13.5579 72.043 13.4277C71.9714 13.291 71.9355 13.1966 71.9355 13.1445C71.9355 12.832 71.9616 12.6107 72.0137 12.4805C72.0658 12.3438 72.0983 12.2428 72.1113 12.1777C72.1243 12.1126 72.1602 12.0443 72.2188 11.9727C72.2839 11.8945 72.3359 11.7708 72.375 11.6016C72.5638 11.224 72.694 10.9928 72.7656 10.9082C72.8372 10.8236 72.8926 10.7194 72.9316 10.5957L73.0586 10.4199C73.0716 10.4069 73.0911 10.3581 73.1172 10.2734C73.1432 10.1823 73.1758 10.1302 73.2148 10.1172C73.2669 10.026 73.293 9.96745 73.293 9.94141C73.293 9.7526 73.2083 9.6582 73.0391 9.6582C73.0065 9.6582 72.9707 9.69401 72.9316 9.76562C72.8926 9.83073 72.8014 9.89583 72.6582 9.96094C72.5215 10.026 72.4368 10.0749 72.4043 10.1074C72.3717 10.14 72.3001 10.1823 72.1895 10.2344C72.0853 10.2799 71.9941 10.3548 71.916 10.459L71.75 10.5371C71.6979 10.6608 71.6523 10.7292 71.6133 10.7422C71.5742 10.7552 71.4538 10.7878 71.252 10.8398C71.2389 10.8464 71.2064 10.8854 71.1543 10.957C71.1022 11.0286 71.0273 11.0645 70.9297 11.0645C70.8516 11.1426 70.7734 11.2337 70.6953 11.3379C70.6693 11.3379 70.6009 11.3639 70.4902 11.416L70.2949 11.4648C70.2428 11.5039 70.1842 11.5658 70.1191 11.6504C70.0605 11.735 69.9466 11.7773 69.7773 11.7773C69.6797 11.7773 69.6309 11.6992 69.6309 11.543C69.6309 11.224 69.7415 10.9701 69.9629 10.7812C70.1908 10.5924 70.3568 10.4915 70.4609 10.4785C70.5651 10.4655 70.6302 10.4264 70.6562 10.3613C70.6823 10.2962 70.7441 10.2441 70.8418 10.2051C70.946 10.1595 71.0632 10.0651 71.1934 9.92188C71.3301 9.77214 71.4766 9.67122 71.6328 9.61914L71.75 9.48242ZM78.6445 9.56055L78.7812 9.31641C78.8203 9.25781 78.8691 9.19922 78.9277 9.14062C78.9928 9.07552 79.0612 8.91602 79.1328 8.66211C79.2044 8.40169 79.2826 8.22266 79.3672 8.125C79.4583 8.02734 79.5885 7.97852 79.7578 7.97852C79.8555 7.97852 79.9824 8.02734 80.1387 8.125C80.3014 8.21615 80.4577 8.49935 80.6074 8.97461C80.7637 9.44987 80.8418 9.78516 80.8418 9.98047C80.8418 10.0586 80.8646 10.1595 80.9102 10.2832C80.9557 10.4004 80.985 10.4915 80.998 10.5566C80.946 10.6673 80.9199 10.7292 80.9199 10.7422L80.9395 11.1426L80.8223 11.4648V11.6992C80.7441 11.8294 80.7051 11.9108 80.7051 11.9434C80.7051 11.9824 80.7181 12.0215 80.7441 12.0605C81.0501 11.9303 81.2357 11.8262 81.3008 11.748C81.3659 11.6634 81.4277 11.6113 81.4863 11.5918C81.5514 11.5723 81.6556 11.4876 81.7988 11.3379L81.9844 11.2402C82.0495 11.1621 82.1048 11.0938 82.1504 11.0352C82.196 10.9701 82.248 10.9245 82.3066 10.8984C82.3717 10.8724 82.4466 10.8268 82.5312 10.7617C82.6159 10.6966 82.7396 10.6217 82.9023 10.5371L83 10.4199C83.0977 10.3092 83.2116 10.2214 83.3418 10.1562C83.4785 10.0911 83.5534 10.0586 83.5664 10.0586C83.612 10.0586 83.6576 10.1204 83.7031 10.2441C83.7552 10.3613 83.7812 10.4785 83.7812 10.5957C83.7812 10.7064 83.7161 10.8171 83.5859 10.9277C83.4622 11.0319 83.3776 11.11 83.332 11.1621C83.2865 11.2142 83.1823 11.2598 83.0195 11.2988C83.0065 11.3053 82.8991 11.4388 82.6973 11.6992L82.502 11.8164L82.4043 11.9434C82.3913 11.9694 82.3034 11.9954 82.1406 12.0215C82.1341 12.0215 82.1178 12.054 82.0918 12.1191C82.0723 12.1842 82.0039 12.2298 81.8867 12.2559C81.6523 12.4707 81.5319 12.5911 81.5254 12.6172L81.3203 12.6562C81.2812 12.7799 81.2487 12.8548 81.2227 12.8809C81.0664 12.9199 80.9785 12.985 80.959 13.0762C80.9395 13.0892 80.9069 13.1022 80.8613 13.1152L80.8223 13.1445C80.6725 13.2617 80.526 13.3333 80.3828 13.3594L80.1582 13.418L80.0801 13.5352C80.0801 13.5677 79.9987 13.61 79.8359 13.6621C79.6797 13.7142 79.5625 13.7793 79.4844 13.8574L79.3184 13.9844C79.1165 14.0625 78.9896 14.1341 78.9375 14.1992H78.8008C78.7096 14.1992 78.5664 14.2676 78.3711 14.4043C78.1758 14.5345 78.0195 14.5996 77.9023 14.5996C77.5247 14.5996 77.2643 14.554 77.1211 14.4629C76.9844 14.3652 76.8704 14.248 76.7793 14.1113C76.6882 13.9681 76.6068 13.8542 76.5352 13.7695C76.457 13.6849 76.418 13.6165 76.418 13.5645C76.418 13.5189 76.4505 13.4733 76.5156 13.4277C76.5742 13.3822 76.6393 13.291 76.7109 13.1543C76.7826 13.0111 76.9648 12.9199 77.2578 12.8809C77.2708 12.8809 77.3164 12.8613 77.3945 12.8223C77.4792 12.7832 77.5475 12.7637 77.5996 12.7637C77.6647 12.7637 77.7461 12.8223 77.8438 12.9395C77.8438 12.9525 77.8568 12.959 77.8828 12.959L78.0391 12.9395C78.1107 12.9915 78.1595 13.0176 78.1855 13.0176C78.3418 13.0176 78.5078 12.9395 78.6836 12.7832L78.7227 12.7637H78.8008C78.8203 12.7637 78.8529 12.7083 78.8984 12.5977L79.0645 12.2559L79.4062 11.8164V11.7188C79.4062 11.6992 79.4258 11.6406 79.4648 11.543V11.3965C79.4648 11.3379 79.5039 11.3021 79.582 11.2891C79.6602 11.2695 79.6992 11.2272 79.6992 11.1621L79.6797 11.084C79.6276 11.0124 79.6016 10.957 79.6016 10.918L79.6992 10.7227L79.6797 10.5176L79.7188 10.4395C79.6927 10.3483 79.6797 10.2962 79.6797 10.2832L79.7188 10.0391C79.7188 10.0326 79.6992 9.9707 79.6602 9.85352C79.6276 9.73633 79.6016 9.67773 79.582 9.67773C79.543 9.67773 79.4193 9.77865 79.2109 9.98047C79.0026 10.1823 78.8789 10.3255 78.8398 10.4102C78.8008 10.4948 78.7161 10.5729 78.5859 10.6445C78.4622 10.7096 78.3776 10.7845 78.332 10.8691C78.2865 10.9538 78.2311 11.0026 78.166 11.0156L77.5117 11.543L76.7988 12.0703C76.7467 12.1289 76.7142 12.1582 76.7012 12.1582C76.4603 12.1582 76.3398 12.0247 76.3398 11.7578C76.3398 11.6732 76.3887 11.5202 76.4863 11.2988C76.5319 11.2728 76.5677 11.2533 76.5938 11.2402C76.6133 11.2272 76.623 11.2174 76.623 11.2109C76.623 11.2044 76.6165 11.2012 76.6035 11.2012L76.6621 11.2402H76.6816C76.9225 11.0775 77.0788 10.9831 77.1504 10.957C77.222 10.931 77.2871 10.8594 77.3457 10.7422L77.7559 10.4492C77.86 10.3711 78.0195 10.2279 78.2344 10.0195C78.4492 9.8112 78.5859 9.6582 78.6445 9.56055Z" fill="#092B5B"/>
</svg>
