<svg width="29" height="29" viewBox="0 0 29 29" fill="none" xmlns="http://www.w3.org/2000/svg">
<path d="M14.5006 2.41662C7.83057 2.41662 2.41724 7.82995 2.41724 14.5C2.41724 21.17 7.83057 26.5833 14.5006 26.5833C21.1706 26.5833 26.5839 21.17 26.5839 14.5C26.5839 7.82995 21.1827 2.41662 14.5006 2.41662Z" fill="#90A3BF"/>
<rect x="4.83398" y="4.83331" width="19.3333" height="19.3333" rx="9.66667" fill="#F1F5F9"/>
<path d="M14.5002 7.25018C10.4982 7.25018 7.25024 10.4982 7.25024 14.5002C7.25024 18.5022 10.4982 21.7502 14.5002 21.7502C18.5022 21.7502 21.7502 18.5022 21.7502 14.5002C21.7502 10.4982 18.5095 7.25018 14.5002 7.25018Z" fill="#90A3BF"/>
<rect x="9.66699" y="9.66657" width="9.66667" height="9.66667" rx="4.83333" fill="#F1F5F9"/>
<rect x="13.2922" y="20.5417" width="2.41667" height="4.83333" fill="#90A3BF"/>
<rect x="20.5417" y="13.2913" width="4.83333" height="2.41667" fill="#90A3BF"/>
<rect x="3.625" y="13.2914" width="4.83333" height="2.41667" fill="#90A3BF"/>
</svg>
