<svg width="25" height="25" viewBox="0 0 25 25" fill="none" xmlns="http://www.w3.org/2000/svg">
<path d="M23.2707 9.71874L21.1874 8.67708C20.802 8.48958 20.3228 8.63541 20.1353 9.02083C19.9374 9.41666 20.0937 9.88541 20.4791 10.0729L22.1353 10.8958V15.8854L18.2291 15.8958V5.20833C18.2291 3.12499 16.8333 2.08333 15.1041 2.08333L6.77075 2.08333C5.04158 2.08333 3.64575 3.12499 3.64575 5.20833L3.64575 22.1354H2.08325C1.65617 22.1354 1.302 22.4896 1.302 22.9167C1.302 23.3437 1.65617 23.6979 2.08325 23.6979H19.7916C20.2187 23.6979 20.5728 23.3437 20.5728 22.9167C20.5728 22.4896 20.2187 22.1354 19.7916 22.1354H18.2291V17.4583L22.9166 17.4479C23.3541 17.4479 23.6978 17.0937 23.6978 16.6667V10.4167C23.6978 10.125 23.5312 9.85416 23.2707 9.71874ZM6.24992 7.17708C6.24992 5.72916 7.13533 5.20833 8.21867 5.20833H13.6666C14.7395 5.20833 15.6249 5.72916 15.6249 7.17708V8.45833C15.6249 9.89583 14.7395 10.4167 13.6562 10.4167H8.21867C7.13533 10.4167 6.24992 9.89583 6.24992 8.44791V7.17708ZM6.77075 12.7604H9.89575C10.3228 12.7604 10.677 13.1146 10.677 13.5417C10.677 13.9687 10.3228 14.3229 9.89575 14.3229H6.77075C6.34367 14.3229 5.9895 13.9687 5.9895 13.5417C5.9895 13.1146 6.34367 12.7604 6.77075 12.7604Z" fill="#90A3BF"/>
</svg>
