<svg width="25" height="25" viewBox="0 0 25 25" fill="none" xmlns="http://www.w3.org/2000/svg">
<g clip-path="url(#clip0_29_2309)">
<path d="M12.5 2.08333C7.89762 2.08333 4.16666 5.81429 4.16666 10.4167C4.16666 16.8958 9.42707 16.8437 10.6875 20.6042L11.2187 22.2083C11.3677 22.6514 11.7936 22.941 12.2604 22.9167H12.8437C13.3106 22.941 13.7365 22.6514 13.8854 22.2083L14.4167 20.6042C15.625 16.8437 20.8333 16.8958 20.8333 10.4167C20.8333 5.81429 17.1024 2.08333 12.5 2.08333ZM12.5 13.5417C10.7741 13.5417 9.37499 12.1426 9.37499 10.4167C9.37499 8.69077 10.7741 7.29166 12.5 7.29166C14.2259 7.29166 15.625 8.69077 15.625 10.4167C15.625 11.2455 15.2957 12.0403 14.7097 12.6264C14.1236 13.2124 13.3288 13.5417 12.5 13.5417Z" fill="#333333"/>
</g>
<defs>
<clipPath id="clip0_29_2309">
<rect width="25" height="25" fill="white"/>
</clipPath>
</defs>
</svg>
