<svg width="138" height="24" viewBox="0 0 138 24" fill="none" xmlns="http://www.w3.org/2000/svg">
<path d="M3.44824 4.29346L3.72217 4.06787L4.04443 4.1001C4.22705 4.1001 4.38281 4.05176 4.51172 3.95508C4.64062 3.8584 4.74268 3.80469 4.81787 3.79395C4.90381 3.7832 5.00049 3.72949 5.10791 3.63281C5.22607 3.53613 5.39258 3.47168 5.60742 3.43945C5.82227 3.39648 5.97803 3.32666 6.07471 3.22998C6.17139 3.1333 6.27881 3.07422 6.39697 3.05273C6.52588 3.02051 6.6709 2.97217 6.83203 2.90771L8.29834 2.45654C8.31982 2.45654 8.37891 2.47803 8.47559 2.521H8.54004C8.66895 2.521 8.79248 2.47266 8.91064 2.37598C9.03955 2.26855 9.18994 2.21484 9.36182 2.21484C9.46924 2.21484 9.67871 2.15039 9.99023 2.02148L10.0869 2.11816C10.2588 1.9248 10.4038 1.82812 10.522 1.82812H10.6187C10.6401 1.82812 10.7368 1.84961 10.9087 1.89258C11.1772 1.80664 11.3975 1.76367 11.5693 1.76367L11.9399 1.73145C11.9614 1.73145 11.9937 1.74219 12.0366 1.76367C12.1226 1.66699 12.2407 1.60791 12.3911 1.58643H12.5684L13.229 1.42529L13.4224 1.48975C13.5513 1.38232 13.75 1.32861 14.0186 1.32861H14.1797L14.3408 1.36084C14.3623 1.36084 14.459 1.32861 14.6309 1.26416C14.8135 1.19971 15.2485 1.16748 15.936 1.16748L16.355 1.23193C16.6235 1.12451 16.7686 1.0708 16.79 1.0708L17.2412 1.16748L17.4185 1.10303H17.4829C17.5044 1.10303 17.5581 1.12451 17.644 1.16748H17.6763L18.8364 1.00635C18.8579 1.00635 18.9009 1.01709 18.9653 1.03857C19.0513 0.963379 19.1157 0.925781 19.1587 0.925781L19.4648 1.00635C19.5508 1.00635 19.7012 0.947266 19.916 0.829102L20.0127 0.925781L21.1084 0.796875L21.5112 0.829102L21.8657 0.764648C22.2202 0.764648 22.4834 0.861328 22.6553 1.05469C22.8379 1.2373 22.9292 1.42529 22.9292 1.61865L22.9937 2.11816L22.897 2.39209L22.8647 2.71436C22.811 2.84326 22.7305 2.9292 22.623 2.97217C22.623 2.99365 22.5747 3.02051 22.478 3.05273C22.3813 3.07422 22.2847 3.11719 22.188 3.18164C22.0913 3.24609 21.7744 3.27832 21.2373 3.27832C20.9688 3.27832 20.7969 3.19775 20.7217 3.03662C20.6465 2.86475 20.5659 2.76807 20.48 2.74658L19.7871 2.45654C19.7656 2.43506 19.7012 2.42432 19.5938 2.42432H19.4648L18.8042 2.48877C18.7827 2.48877 18.7236 2.47803 18.627 2.45654C18.4873 2.521 18.4121 2.55322 18.4014 2.55322L17.209 2.48877L16.7256 2.521L16.3872 2.45654C16.3442 2.45654 16.269 2.47266 16.1616 2.50488C16.0542 2.53711 15.8286 2.56396 15.4849 2.58545C15.1411 2.60693 14.9692 2.71436 14.9692 2.90771C14.9692 3.02588 15.0122 3.15479 15.0981 3.29443C15.1948 3.43408 15.2432 3.54688 15.2432 3.63281C15.082 3.8584 15.0015 4.00342 15.0015 4.06787C14.9585 4.1001 14.8833 4.16992 14.7759 4.27734C14.6685 4.38477 14.4697 4.55664 14.1797 4.79297C13.8896 5.01855 13.6909 5.22803 13.5835 5.42139C13.4761 5.61475 13.3472 5.71143 13.1968 5.71143C13.0034 5.89404 12.8691 6.06055 12.7939 6.21094L12.665 6.33984C12.6436 6.36133 12.6328 6.40967 12.6328 6.48486C12.6328 6.54932 12.6006 6.61377 12.5361 6.67822L12.3911 7.06494C12.3159 7.09717 12.0957 7.37646 11.7305 7.90283L11.5371 7.99951L11.3438 8.2251H11.1182C11.0215 8.2251 10.9731 8.28955 10.9731 8.41846L11.0376 8.88574C10.8765 9.02539 10.7476 9.21338 10.6509 9.44971L10.4575 9.77197C10.2319 9.99756 10.1191 10.1211 10.1191 10.1426C10.1191 10.1963 10.0117 10.4272 9.79688 10.8354L9.76465 10.9966C9.76465 11.1792 9.38867 11.7056 8.63672 12.5757C8.5293 12.7798 8.46484 13.0913 8.44336 13.5103C8.12109 14.144 7.90088 14.4502 7.78271 14.4287C7.76123 14.8369 7.69141 15.1699 7.57324 15.4277C7.46582 15.6855 7.3208 16.0669 7.13818 16.5718C6.96631 17.0659 6.78369 17.4204 6.59033 17.6353L6.52588 17.7642C6.48291 17.8501 6.4292 17.936 6.36475 18.022C6.34326 18.312 6.24121 18.7739 6.05859 19.4077L5.96191 20.1006L5.63965 21.0029C5.60742 21.0674 5.59131 21.1318 5.59131 21.1963C5.59131 21.2393 5.62354 21.3252 5.68799 21.4541C5.76318 21.5723 5.80078 21.6851 5.80078 21.7925C5.80078 21.9429 5.77393 22.0664 5.72021 22.1631C5.6665 22.249 5.63965 22.3672 5.63965 22.5176C5.63965 22.8506 5.4624 23.0708 5.10791 23.1782H4.979L4.64062 23.2104C4.18945 23.2104 3.78125 22.9956 3.41602 22.5659C3.05078 22.1362 2.86816 21.5454 2.86816 20.7935C2.86816 20.7505 2.90039 20.5894 2.96484 20.3101C3.0293 20.02 3.06689 19.832 3.07764 19.7461C3.08838 19.6602 3.11523 19.5742 3.1582 19.4883C3.20117 19.3916 3.22266 19.2573 3.22266 19.0854C3.22266 18.5591 3.35156 18.1025 3.60938 17.7158C3.87793 17.3291 4.05518 17.0498 4.14111 16.8779C4.1626 16.8027 4.2002 16.7544 4.25391 16.7329C4.22168 16.647 4.20557 16.5396 4.20557 16.4106C4.20557 16.0991 4.33984 15.8467 4.6084 15.6533C4.62988 15.5674 4.66748 15.4707 4.72119 15.3633C4.7749 15.2451 4.8877 14.9712 5.05957 14.5415C5.23145 14.1011 5.45703 13.8433 5.73633 13.7681C5.72559 13.7466 5.79004 13.6606 5.92969 13.5103L5.86523 12.9463C5.86523 12.8604 5.96191 12.7153 6.15527 12.5112L6.4292 12.0601C6.47217 11.8774 6.61182 11.7109 6.84814 11.5605C6.9126 11.4531 6.98242 11.3887 7.05762 11.3672C7.06836 11.3242 7.11133 11.1899 7.18652 10.9644C7.27246 10.7388 7.44434 10.4595 7.70215 10.1265C7.9707 9.78271 8.22314 9.42822 8.45947 9.06299C8.70654 8.69775 8.92676 8.50977 9.12012 8.49902C9.32422 8.48828 9.43701 8.37549 9.4585 8.16064L9.55518 7.56445C9.8667 7.2959 10.0547 7.10791 10.1191 7.00049L10.3447 6.74268C10.3877 6.59229 10.4414 6.49561 10.5059 6.45264C10.5811 6.39893 10.6724 6.29687 10.7798 6.14648C10.8872 5.99609 11.0215 5.86182 11.1826 5.74365C11.3223 5.30322 11.6392 4.92188 12.1333 4.59961L12.3911 4.32568C12.5737 4.06787 12.7241 3.896 12.8423 3.81006C12.9604 3.71338 13.0464 3.58984 13.1001 3.43945C13.1646 3.28906 13.2827 3.17627 13.4546 3.10107C13.6265 3.02588 13.7124 2.93994 13.7124 2.84326C13.7124 2.80029 13.6694 2.77881 13.5835 2.77881C13.4976 2.77881 13.3525 2.81104 13.1484 2.87549H13.0195L12.7295 2.93994H12.6328L12.3589 2.87549C12.1655 2.93994 12.0151 2.97217 11.9077 2.97217C11.8862 2.99365 11.8164 3.04199 11.6982 3.11719H11.3438L11.1504 3.31055L11.0054 3.34277L10.5864 3.27832C10.4575 3.27832 10.3018 3.34277 10.1191 3.47168C10.1191 3.49316 9.94189 3.53076 9.5874 3.58447C9.24365 3.63818 8.91602 3.74023 8.60449 3.89062C8.29297 4.03027 8.10498 4.1001 8.04053 4.1001L7.75049 4.03564H7.71826C7.57861 4.03564 7.44971 4.10547 7.33154 4.24512C7.21338 4.38477 7.0415 4.4707 6.81592 4.50293H6.62256C6.46143 4.50293 6.24121 4.56738 5.96191 4.69629C5.69336 4.8252 5.54834 4.88965 5.52686 4.88965L5.23682 4.85742C5.10791 4.94336 4.99512 5.00244 4.89844 5.03467C4.8125 5.06689 4.72656 5.12061 4.64062 5.1958C4.55469 5.26025 4.46875 5.30859 4.38281 5.34082C4.29688 5.37305 4.19482 5.43213 4.07666 5.51807C3.96924 5.604 3.8833 5.64697 3.81885 5.64697H3.75439L3.56104 5.61475C3.48584 5.61475 3.38916 5.68457 3.271 5.82422C3.15283 5.95312 3.04004 6.03369 2.93262 6.06592C2.83594 6.09814 2.73926 6.15186 2.64258 6.22705C2.55664 6.2915 2.46533 6.3291 2.36865 6.33984C2.31494 6.39355 2.23975 6.51172 2.14307 6.69434C2.04639 6.87695 1.92285 7.03809 1.77246 7.17773C1.62207 7.30664 1.52002 7.40869 1.46631 7.48389C1.42334 7.55908 1.38037 7.59668 1.3374 7.59668C0.811035 7.59668 0.547852 7.26904 0.547852 6.61377L0.870117 5.9209C1.0957 5.37305 1.43945 5.04004 1.90137 4.92188C2.01953 4.92188 2.32568 4.80371 2.81982 4.56738L3.44824 4.29346ZM19.4648 9.0791L19.3682 8.45068V8.354C19.3682 7.84912 19.54 7.56982 19.8838 7.51611C19.959 7.50537 20.1846 7.43555 20.5605 7.30664C20.7539 7.34961 20.9526 7.52148 21.1567 7.82227C21.3716 8.1123 21.479 8.37012 21.479 8.5957C21.479 8.61719 21.4629 8.66553 21.4307 8.74072C21.3984 8.81592 21.377 8.96094 21.3662 9.17578C21.3555 9.37988 21.248 9.5625 21.0439 9.72363C20.8506 9.87402 20.6411 9.94922 20.4155 9.94922C20.2651 9.94922 20.0718 9.84717 19.8354 9.64307C19.6099 9.42822 19.4863 9.24023 19.4648 9.0791ZM12.5039 17.1357L12.7617 16.9102H12.8584C12.9336 16.9102 13.0464 16.8296 13.1968 16.6685L13.3579 16.604C13.5728 16.2817 13.7607 16.0938 13.9219 16.04L14.1797 15.8467C14.2227 15.8037 14.2817 15.7661 14.3569 15.7339C14.4429 15.7017 14.5718 15.5996 14.7437 15.4277C14.9263 15.2451 15.0713 15.1538 15.1787 15.1538C15.2861 15.1538 15.3721 15.1646 15.4365 15.186C15.501 15.0571 15.6299 14.9336 15.8232 14.8154C16.0166 14.6865 16.1724 14.5361 16.2905 14.3643L16.5 14.2676C16.6719 14.1816 16.8223 14.0742 16.9512 13.9453C17.0908 13.8057 17.2681 13.7358 17.4829 13.7358C17.7944 13.7358 18.1167 13.897 18.4497 14.2192C18.7935 14.5308 18.9653 14.8315 18.9653 15.1216L18.6914 16.3784C18.5088 17.3022 18.3047 17.7856 18.0791 17.8286L18.0146 18.167C17.8643 18.2744 17.7891 18.3604 17.7891 18.4248L17.8857 18.8115C17.8857 18.8652 17.8267 18.9458 17.7085 19.0532C17.687 19.0532 17.6763 19.0854 17.6763 19.1499V19.8105C17.6763 19.9287 17.6011 20.0254 17.4507 20.1006C17.4722 20.1221 17.5044 20.1436 17.5474 20.165C17.6118 20.1006 17.7568 20.0684 17.9824 20.0684L18.2402 20.1006L18.5947 19.7461C18.6699 19.7246 18.772 19.6763 18.9009 19.6011C19.0405 19.5151 19.2715 19.4077 19.5938 19.2788L21.7046 17.6675C21.9946 17.3774 22.2148 17.2324 22.3652 17.2324C22.5264 17.2324 22.6069 17.3345 22.6069 17.5386C22.6069 17.7749 22.5586 17.9736 22.4619 18.1348C22.376 18.2852 22.2954 18.4731 22.2202 18.6987C22.145 18.9136 22.0537 19.064 21.9463 19.1499C21.8496 19.2358 21.769 19.3325 21.7046 19.4399C21.6401 19.5366 21.4629 19.6816 21.1729 19.875C20.8936 20.0684 20.6519 20.2671 20.4478 20.4712C20.2544 20.6646 20.0933 20.8042 19.9644 20.8901L19.2715 21.3896L19.1748 21.5508C19.1533 21.5723 19.0513 21.6206 18.8687 21.6958C18.6968 21.7603 18.541 21.8462 18.4014 21.9536L18.1113 22.1147C18.0469 22.1577 17.9395 22.1846 17.7891 22.1953C17.6494 22.2061 17.5259 22.2705 17.4185 22.3887C17.311 22.4961 17.2251 22.5498 17.1606 22.5498L16.9189 22.5176L16.5967 22.6143C16.4141 22.6143 16.1885 22.5068 15.9199 22.292C15.6621 22.0664 15.5332 21.8301 15.5332 21.583V21.4863L15.5654 21.2607C15.5654 21.2178 15.5332 21.1104 15.4688 20.9385C15.4043 20.7559 15.3721 20.6538 15.3721 20.6323L15.4043 20.4067L15.3721 20.3101C15.3721 20.02 15.3936 19.8374 15.4365 19.7622C15.4795 19.687 15.5117 19.585 15.5332 19.4561C15.5547 19.3164 15.5762 19.2036 15.5977 19.1177L15.6782 18.7148C15.7212 18.5859 15.7749 18.5 15.8394 18.457C15.8608 18.3711 15.9038 18.2261 15.9683 18.022L16.0327 17.7319L16.1938 17.5063C16.2798 17.4204 16.3281 17.3076 16.3389 17.168C16.3604 17.0176 16.4194 16.8618 16.5161 16.7007C16.6128 16.5396 16.6611 16.4429 16.6611 16.4106C16.6611 16.2817 16.5967 16.2173 16.4678 16.2173C16.4248 16.2173 16.2905 16.3032 16.0649 16.4751L15.7749 16.3784C15.7534 16.3784 15.6943 16.4321 15.5977 16.5396C15.5977 16.5825 15.5493 16.6147 15.4526 16.6362C15.356 16.6577 15.2646 16.7383 15.1787 16.8779L15.0498 16.9102L14.8403 16.8135H14.7759C14.6685 16.8135 14.604 16.9316 14.5825 17.168C14.4644 17.3398 14.3086 17.4526 14.1152 17.5063L13.7607 17.603C13.6426 17.646 13.5566 17.7427 13.5029 17.8931C13.4492 18.0435 13.3418 18.1831 13.1807 18.312C13.0195 18.4302 12.9121 18.4893 12.8584 18.4893C12.5576 18.4893 12.4072 18.3228 12.4072 17.9897L12.5361 17.2324L12.5039 17.1357ZM29.1006 15.3955L29.5518 15.186C29.7021 15.0894 29.8472 14.9497 29.9868 14.7671L30.5508 14.3643C30.873 14.1494 31.0825 14.042 31.1792 14.042L31.437 14.1387C31.4585 14.1387 31.5229 14.0742 31.6304 13.9453C31.7485 13.8057 31.8828 13.7358 32.0332 13.7358C32.2266 13.7358 32.4897 13.8809 32.8228 14.1709C33.1558 14.4609 33.3223 14.7188 33.3223 14.9443L33.2578 15.4922C33.2578 15.5781 33.3008 15.8198 33.3867 16.2173V16.3462L33.3223 16.7329L33.3867 17.1357L33.2095 17.9253C33.2095 18.1294 33.2793 18.2314 33.4189 18.2314C33.6016 18.0596 33.7573 17.9575 33.8862 17.9253L34.1118 17.6997C34.1978 17.6138 34.2622 17.5708 34.3052 17.5708C34.3481 17.5708 34.4019 17.5225 34.4663 17.4258C34.5415 17.3184 34.6328 17.2432 34.7402 17.2002C34.8477 17.1572 34.9229 17.082 34.9658 16.9746C35.5674 16.3193 36.0293 15.9434 36.3516 15.8467C36.3945 15.8467 36.4644 15.793 36.561 15.6855C36.6685 15.5781 36.7544 15.5137 36.8188 15.4922L37.1733 15.2183L37.3184 15.2827H37.3506C37.3721 15.2827 37.458 15.229 37.6084 15.1216C37.7588 15.0142 37.8662 14.9604 37.9307 14.9604C38.3389 14.9604 38.6719 15.1001 38.9297 15.3794C39.1982 15.6479 39.3325 15.8574 39.3325 16.0078L39.252 16.3784L39.3647 16.8779V17.2002L39.2842 17.5386C39.2842 17.603 39.3271 17.6943 39.4131 17.8125C39.5098 17.9307 39.5581 18.0112 39.5581 18.0542C39.4292 18.1938 39.3647 18.2852 39.3647 18.3281L39.397 18.6182L39.3164 19.5044C39.3164 19.5796 39.3862 19.7031 39.5259 19.875C39.5903 19.832 39.6816 19.7944 39.7998 19.7622C39.918 19.73 40.0093 19.6978 40.0737 19.6655C40.1382 19.6226 40.1704 19.6011 40.1704 19.6011C40.1704 19.5903 40.165 19.585 40.1543 19.585C40.1758 19.585 40.2402 19.6064 40.3477 19.6494H40.4121C40.498 19.6494 40.5464 19.5688 40.5571 19.4077C40.5679 19.2358 40.6753 19.0962 40.8794 18.9888L41.2661 19.021C41.2876 18.9995 41.3306 18.9136 41.395 18.7632C41.4702 18.6021 41.6958 18.3711 42.0718 18.0703C42.4585 17.7588 42.7539 17.603 42.958 17.603C43.1299 17.603 43.2158 17.6782 43.2158 17.8286C43.2158 17.8716 43.1943 17.9844 43.1514 18.167C43.2373 18.3174 43.2803 18.4463 43.2803 18.5537C43.2803 18.7578 43.103 18.978 42.7485 19.2144C42.4048 19.4507 42.1416 19.7461 41.959 20.1006L41.8945 20.165L41.5723 20.1328C41.5508 20.1328 41.4971 20.2188 41.4111 20.3906C41.3359 20.5518 41.2446 20.6431 41.1372 20.6646C41.0298 20.686 40.9546 20.7183 40.9116 20.7612L40.5732 20.9707C40.5088 21.0137 40.2939 21.2339 39.9287 21.6313C39.5742 22.0181 39.2734 22.2114 39.0264 22.2114C38.9189 22.2114 38.7256 22.1577 38.4463 22.0503C38.167 21.9321 37.979 21.814 37.8823 21.6958C37.7856 21.5776 37.646 21.4434 37.4634 21.293C37.2915 21.1426 37.2056 20.8579 37.2056 20.439C37.2056 20.4175 37.2324 20.3799 37.2861 20.3262C37.3506 20.2725 37.3828 20.2295 37.3828 20.1973C37.1357 19.875 37.0122 19.644 37.0122 19.5044C37.0122 19.4399 37.0229 19.3701 37.0444 19.2949C37.0659 19.2197 37.0767 19.1499 37.0767 19.0854L37.0444 18.5215L37.1089 18.2314L37.0767 18.0542L37.1733 17.2324C37.1733 17.1035 37.0981 17.0391 36.9478 17.0391C36.9048 17.0391 36.8457 17.082 36.7705 17.168C36.6953 17.2539 36.5986 17.3237 36.4805 17.3774C36.373 17.4204 36.2549 17.5708 36.126 17.8286C35.9326 17.936 35.7983 18.0435 35.7231 18.1509C35.6587 18.2476 35.605 18.2959 35.562 18.2959C35.5405 18.2959 35.4976 18.2852 35.4331 18.2637C35.3042 18.3496 35.2397 18.4463 35.2397 18.5537V18.6182L35.272 18.7471C35.272 18.8438 35.1914 18.9351 35.0303 19.021C34.8691 19.1069 34.6704 19.3271 34.4341 19.6816C34.3267 19.6816 34.2515 19.6924 34.2085 19.7139L34.0151 20.1006C33.9077 20.165 33.8057 20.2778 33.709 20.439L33.5156 20.5356C33.4404 20.6753 33.3652 20.7935 33.29 20.8901L33.1934 21.0674C32.7314 21.6152 32.4092 21.8892 32.2266 21.8892C32.0439 21.8892 31.8237 21.6475 31.5659 21.1641C31.3081 20.6807 31.1792 20.3047 31.1792 20.0361L31.2437 19.4399C31.2437 19.4185 31.2007 19.3325 31.1147 19.1821V19.1177C31.1147 19.0962 31.1577 18.9727 31.2437 18.7471V18.2637C31.2437 18.2422 31.2329 18.21 31.2114 18.167V18.0864C31.2114 18.0649 31.2544 17.979 31.3403 17.8286L31.2437 17.3613L31.3081 17.1035L31.2759 16.5396L31.3403 16.04C31.3403 16.0078 31.3081 15.9541 31.2437 15.8789C31.1899 15.793 31.1523 15.75 31.1309 15.75C31.0557 15.75 30.8301 15.8735 30.4541 16.1206C30.0889 16.3677 29.8418 16.561 29.7129 16.7007C29.584 16.8403 29.4121 17.0068 29.1973 17.2002C28.9717 17.3076 28.8159 17.5815 28.73 18.022C28.73 18.0435 28.7085 18.0542 28.6655 18.0542C28.6655 18.0327 28.6333 18.0112 28.5688 17.9897H28.5044C28.4507 17.9897 28.2842 18.2207 28.0049 18.6826L27.9404 18.7471L27.6343 18.6826C27.3765 18.6826 27.2476 18.9565 27.2476 19.5044C27.2476 19.6011 27.1777 19.6655 27.0381 19.6978C26.9092 19.73 26.8071 19.8213 26.7319 19.9717C26.6567 20.1221 26.5547 20.2778 26.4258 20.439C26.1787 20.5464 26.0391 20.627 26.0068 20.6807C26.0068 20.6914 25.8887 20.8525 25.6523 21.1641C25.416 21.4756 25.2871 21.6582 25.2656 21.7119C25.2441 21.7656 25.1689 21.8301 25.04 21.9053C24.9219 21.9697 24.8628 22.0288 24.8628 22.0825L24.9111 22.3564C24.9111 22.5283 24.7446 22.6143 24.4116 22.6143C23.7671 22.6143 23.4448 21.9429 23.4448 20.6001C23.4448 20.4497 23.5093 20.2832 23.6382 20.1006C23.7778 19.9072 23.9121 19.6763 24.041 19.4077C24.2451 19.2036 24.4868 18.9082 24.7661 18.5215C25.0454 18.1348 25.2549 17.8716 25.3945 17.7319L25.604 17.3936C25.604 17.2646 25.6309 17.168 25.6846 17.1035C25.7383 17.0391 25.7651 16.9585 25.7651 16.8618C25.7651 16.6899 25.7222 16.604 25.6362 16.604C25.4321 16.604 25.271 16.6577 25.1528 16.7651C25.0347 16.8618 24.9004 16.9316 24.75 16.9746C24.6104 17.0176 24.519 17.0928 24.4761 17.2002C24.3257 17.2646 24.1646 17.4043 23.9927 17.6191C23.8315 17.8232 23.7241 17.9521 23.6704 18.0059C23.6167 18.0596 23.563 18.1348 23.5093 18.2314C23.4663 18.3174 23.4072 18.3657 23.332 18.3765C23.2568 18.3872 23.187 18.4248 23.1226 18.4893C23.0581 18.5537 22.9561 18.5859 22.8164 18.5859C22.7197 18.5859 22.6284 18.4893 22.5425 18.2959C22.4673 18.0918 22.4297 17.9683 22.4297 17.9253C22.4297 17.1411 22.9507 16.4644 23.9927 15.895C24.1323 15.8198 24.2397 15.7446 24.3149 15.6694C24.4009 15.5942 24.4868 15.5352 24.5728 15.4922L24.6372 15.3794C24.7231 15.2505 25.0454 15.0679 25.604 14.8315H25.8296L26.9092 14.5576C27.3711 14.4502 27.6021 14.9712 27.6021 16.1206L27.5698 16.4106L27.6343 16.5396C27.8169 16.3677 27.9995 16.2173 28.1821 16.0884C28.3755 15.9487 28.5151 15.8252 28.6011 15.7178C28.687 15.6104 28.8535 15.5029 29.1006 15.3955ZM57.6694 9.20801L57.7661 9.17578H58.2012C58.3301 9.17578 58.5181 9.02539 58.7651 8.72461C58.7866 8.70312 59.0713 8.60107 59.6191 8.41846L59.6836 8.354C59.834 8.2251 59.9414 8.13916 60.0059 8.09619H60.312C60.3335 8.09619 60.4194 8.04785 60.5698 7.95117C60.7202 7.84375 61.0371 7.72559 61.5205 7.59668C62.0146 7.46777 62.3369 7.36035 62.4873 7.27441C62.5518 7.25293 62.7881 7.2207 63.1963 7.17773L63.6475 7.09717L64.002 7.12939C64.5713 7.12939 64.9795 7.50537 65.2266 8.25732C65.2266 8.30029 65.2534 8.37012 65.3071 8.4668C65.3608 8.55273 65.3877 8.61719 65.3877 8.66016C65.3877 9.11133 65.1675 9.58398 64.7271 10.0781L64.5015 10.6743C64.5015 10.6958 64.4424 10.7764 64.3242 10.916C64.2168 11.0557 64.1201 11.2222 64.0342 11.4155C63.9482 11.5981 63.7173 11.8774 63.3413 12.2534C63.2769 12.3823 63.1855 12.5864 63.0674 12.8657C62.9492 13.1343 62.8472 13.3115 62.7612 13.3975C62.686 13.4834 62.4766 13.8057 62.1328 14.3643C61.7998 14.9229 61.6333 15.2505 61.6333 15.3472C61.4722 15.4653 61.3594 15.6641 61.2949 15.9434C61.2412 16.2227 61.1338 16.4858 60.9727 16.7329L60.9404 16.8457C61.2842 16.7275 61.4561 16.5396 61.4561 16.2817C61.4561 16.2495 61.5474 16.1689 61.73 16.04L61.8589 15.8145C61.9878 15.6641 62.1006 15.5781 62.1973 15.5566C62.2188 15.4707 62.3315 15.3472 62.5356 15.186C62.7397 15.0142 62.874 14.896 62.9385 14.8315C63.0137 14.7671 63.1318 14.7026 63.293 14.6382C63.4541 14.563 63.6367 14.2944 63.8408 13.8325C63.8623 13.7466 63.9429 13.6768 64.0825 13.623C64.2329 13.5693 64.3564 13.4834 64.4531 13.3652C64.5498 13.2363 64.6304 13.1504 64.6948 13.1074L64.8237 12.9141C64.9419 12.8066 65.0225 12.7422 65.0654 12.7207L65.855 11.7539C66.2739 11.4854 66.5049 11.2759 66.5479 11.1255L66.6768 11.0933H66.7734C66.9453 10.9536 67.0581 10.8569 67.1118 10.8032C67.1118 10.481 67.23 10.2715 67.4663 10.1748C67.7134 10.0674 67.8906 9.94385 67.998 9.8042C68.1055 9.65381 68.2236 9.57861 68.3525 9.57861C68.3848 9.57861 68.4438 9.61084 68.5298 9.67529H68.562C68.5942 9.67529 68.6265 9.62158 68.6587 9.51416V9.35303C68.6587 9.17041 68.7124 9.02002 68.8198 8.90186C68.9272 8.78369 69.0723 8.7085 69.2549 8.67627C69.4375 8.6333 69.6147 8.49365 69.7866 8.25732C69.9585 8.021 70.1519 7.89746 70.3667 7.88672C70.5923 7.87598 70.7427 7.79004 70.8179 7.62891C70.8931 7.46777 71.124 7.2959 71.5107 7.11328C71.8975 6.91992 72.1392 6.81787 72.2358 6.80713C72.3325 6.78564 72.4185 6.75342 72.4937 6.71045C72.5796 6.66748 72.6655 6.646 72.7515 6.646C72.8589 6.646 73.0146 6.67822 73.2188 6.74268L73.5088 6.80713C73.7559 6.91455 73.9868 7.11328 74.2017 7.40332L74.3628 7.56445V7.62891L74.395 7.90283V8.03174C74.5347 8.09619 74.6045 8.16064 74.6045 8.2251L74.4917 8.43457C74.4487 8.50977 74.4272 8.60107 74.4272 8.7085C74.4272 8.80518 74.4219 8.90723 74.4111 9.01465C74.4004 9.11133 74.3843 9.20801 74.3628 9.30469C74.3521 9.39062 74.3306 9.47656 74.2983 9.5625C74.2769 9.6377 74.25 9.71289 74.2178 9.78809C74.1855 9.85254 74.1479 9.91699 74.105 9.98145L73.9761 10.4971C73.9331 10.7012 73.8149 10.9482 73.6216 11.2383C73.439 11.5176 73.3315 11.7163 73.2993 11.8345C73.2671 11.9419 73.1919 12.0923 73.0737 12.2856L73.106 12.3823V12.6079C73.439 12.5649 73.6055 12.436 73.6055 12.2212C73.6055 11.9956 73.7397 11.8291 74.0083 11.7217L74.3628 11.4316C74.6421 10.9375 74.9858 10.6152 75.394 10.4648C75.394 10.293 75.4961 10.1157 75.7002 9.93311L76.3125 9.35303L76.7476 9.11133C76.9409 8.71387 77.1611 8.47217 77.4082 8.38623L77.7627 8.16064C77.9775 8.05322 78.0957 7.95117 78.1172 7.85449C78.1494 7.74707 78.2354 7.63965 78.375 7.53223C78.5146 7.4248 78.7188 7.24756 78.9873 7.00049L79.1162 6.93604L79.2773 6.7749C79.3955 6.71045 79.5298 6.65674 79.6802 6.61377L79.8091 6.54932C80.0776 6.34521 80.3193 6.21094 80.5342 6.14648C80.749 6.07129 80.9907 5.95312 81.2593 5.79199L81.8232 5.71143C81.9521 5.66846 82.0381 5.64697 82.0811 5.64697C83.1016 5.64697 83.6118 6.22168 83.6118 7.37109L83.5796 7.62891L83.6118 8.56348C83.3433 9.00391 83.209 9.23486 83.209 9.25635L83.2412 9.54639C83.2412 9.58936 83.1714 9.71826 83.0317 9.93311C82.8921 10.1372 82.8062 10.2607 82.7739 10.3037C82.7524 10.3467 82.6558 10.4595 82.4839 10.6421L82.3228 11.1255C82.269 11.2329 82.1777 11.335 82.0488 11.4316V11.625C82.0488 11.7861 81.8394 12.0278 81.4204 12.3501C81.3667 12.6294 81.27 12.8389 81.1304 12.9785C81.0015 13.1074 80.8994 13.2471 80.8242 13.3975C80.7598 13.5371 80.6523 13.6714 80.502 13.8003C80.502 13.9399 80.4106 14.1763 80.228 14.5093C80.0454 14.8423 79.9004 15.0571 79.793 15.1538C79.6963 15.2397 79.5942 15.3955 79.4868 15.6211L79.3418 15.6855C79.2773 16.0938 79.2021 16.3247 79.1162 16.3784L78.8584 16.3462V16.4106C78.8584 16.4321 78.8799 16.4697 78.9229 16.5234C78.9658 16.5771 78.9873 16.6362 78.9873 16.7007C78.9873 16.7759 78.9551 16.8403 78.8906 16.894C78.8262 16.9478 78.7886 17.0015 78.7778 17.0552C78.7671 17.1089 78.7402 17.1626 78.6973 17.2163C78.665 17.27 78.6436 17.3774 78.6328 17.5386C78.6221 17.689 78.5415 17.8984 78.3911 18.167C78.2407 18.4355 78.1602 18.6182 78.1494 18.7148C78.1387 18.8115 78.1226 18.8921 78.1011 18.9565C78.0796 19.021 78.0688 19.0854 78.0688 19.1499C78.0688 19.2144 78.042 19.3809 77.9883 19.6494C78.1924 20.1328 78.3374 20.4604 78.4233 20.6323C78.5093 20.8042 78.5522 20.917 78.5522 20.9707C78.5522 21.4004 78.4985 21.6904 78.3911 21.8408C78.2837 21.9805 78.0205 22.0503 77.6016 22.0503C77.333 22.0503 77.0967 21.959 76.8926 21.7764C76.6992 21.583 76.5273 21.4863 76.377 21.4863V21.1963L76.3447 21.1641H76.0869C76.0654 21.1426 76.0171 21.105 75.9419 21.0513C75.8774 20.9976 75.813 20.9224 75.7485 20.8257L75.6519 20.729C75.5659 20.6216 75.4907 20.4443 75.4263 20.1973L75.3296 19.875L75.3618 19.6172L75.3296 19.2144C75.3296 19.1069 75.3403 19.021 75.3618 18.9565L75.394 18.5215C75.394 18.4785 75.4155 18.3872 75.4585 18.2476C75.5015 18.0972 75.5283 17.9253 75.5391 17.7319C75.5498 17.5278 75.5981 17.3721 75.6841 17.2646C75.77 17.1572 75.8184 17.0659 75.8291 16.9907C75.8398 16.9155 75.8667 16.8564 75.9097 16.8135C75.9634 16.7598 76.0063 16.6362 76.0386 16.4429C76.0708 16.2495 76.1836 16.0938 76.377 15.9756C76.4844 15.7822 76.5757 15.5996 76.6509 15.4277C76.8765 15.1162 76.9946 14.9604 77.0054 14.9604H77.231C77.1235 14.8315 77.0698 14.7563 77.0698 14.7349C77.0698 14.4448 77.1826 14.2998 77.4082 14.2998C77.4512 14.2998 77.5049 14.3105 77.5693 14.332L77.6338 14.2031L77.5693 13.9292C77.5693 13.7466 77.709 13.564 77.9883 13.3813C77.9883 13.0698 78.1333 12.7905 78.4233 12.5435L78.3911 12.2856C78.4556 12.2212 78.5469 12.0815 78.665 11.8667C78.7832 11.6411 78.9336 11.4155 79.1162 11.1899L79.6157 10.4326L79.8413 10.1748C79.8413 10.1855 79.8413 10.1909 79.8413 10.1909C79.8521 10.1802 79.8628 10.1587 79.8735 10.1265C79.895 10.0835 79.9165 10.0244 79.938 9.94922L80.0347 9.70752L80.1475 9.57861C80.4268 9.50342 80.5664 9.40674 80.5664 9.28857C80.5664 9.26709 80.5234 9.19727 80.4375 9.0791V9.01465C80.4375 8.92871 80.502 8.82129 80.6309 8.69238C80.7598 8.56348 80.8779 8.38623 80.9854 8.16064C81.1035 7.92432 81.1626 7.7793 81.1626 7.72559C81.1626 7.68262 81.1411 7.66113 81.0981 7.66113C80.7544 7.66113 80.5234 7.78467 80.4053 8.03174C80.4053 8.09619 80.1958 8.2251 79.7769 8.41846L79.6157 8.66016C79.4868 8.77832 79.374 8.8374 79.2773 8.8374C79.1807 8.8374 79.0518 8.90186 78.8906 9.03076C78.7402 9.14893 78.4019 9.42822 77.8755 9.86865C77.3491 10.2983 76.9624 10.6528 76.7153 10.9321L76.3447 11.1899C76.1943 11.2651 76.1191 11.3242 76.1191 11.3672C76.1191 11.4746 76.0278 11.6143 75.8452 11.7861L75.6519 12.0278C75.5015 11.9741 75.4155 11.9473 75.394 11.9473C75.2759 11.9473 75.1738 12.0063 75.0879 12.1245C75.1738 12.2104 75.2168 12.2642 75.2168 12.2856C75.2168 12.4575 75.0557 12.6348 74.7334 12.8174L74.0405 13.5425C74.019 13.564 73.9385 13.623 73.7988 13.7197C73.6592 13.8164 73.5518 13.9399 73.4766 14.0903C73.4121 14.23 73.2241 14.4824 72.9126 14.8477C72.6011 15.2021 72.4185 15.3955 72.3647 15.4277C72.311 15.4492 72.2466 15.519 72.1714 15.6372C72.0962 15.7554 71.9404 15.9219 71.7041 16.1367C71.4678 16.3516 71.3335 16.5879 71.3013 16.8457C71.0972 16.9209 70.9951 16.9854 70.9951 17.0391L70.8984 17.2002L70.7695 17.2646C70.748 17.3076 70.7319 17.3828 70.7212 17.4902C70.7104 17.5869 70.4956 17.7695 70.0767 18.0381C69.6577 18.2959 69.3945 18.4248 69.2871 18.4248C69.2549 18.4248 69.2065 18.4463 69.1421 18.4893C69.0776 18.5322 69.0347 18.5537 69.0132 18.5537C68.981 18.5537 68.8359 18.4893 68.5781 18.3604C68.3311 18.2314 68.1484 17.9307 68.0303 17.458L68.1592 17.0391L68.0947 16.7007C68.0947 16.6362 68.1431 16.5503 68.2397 16.4429C68.3472 16.3354 68.4009 16.2012 68.4009 16.04C68.5728 15.6533 68.7017 15.3794 68.7876 15.2183L68.8198 14.9604C68.8628 14.853 68.9326 14.7349 69.0293 14.606C69.1367 14.4663 69.2012 14.3159 69.2227 14.1548C69.2441 13.9829 69.314 13.8755 69.4321 13.8325C69.5503 13.7896 69.9854 13.1396 70.7373 11.8828V11.6572L71.2046 10.8516C71.3442 10.6152 71.5161 10.3467 71.7202 10.0459L71.8652 9.67529C71.5322 9.54639 71.355 9.48193 71.3335 9.48193C71.269 9.48193 71.1885 9.5249 71.0918 9.61084C71.0918 9.79346 70.7749 9.98145 70.1411 10.1748C70.0122 10.2393 69.8457 10.395 69.6416 10.6421L69.1904 10.8999C69.126 10.9429 69.0239 11.0288 68.8843 11.1577L68.6587 11.3672C68.3901 11.4316 68.1592 11.582 67.9658 11.8184L67.5308 12.1245C67.4019 12.2319 67.3159 12.3125 67.2729 12.3662C67.23 12.4199 67.0312 12.5381 66.6768 12.7207L66.4189 12.9785L66.1772 13.1074C66.0054 13.29 65.8765 13.4458 65.7905 13.5747C65.7046 13.7036 65.5918 13.7788 65.4521 13.8003L65.0977 13.9292C65.0332 14.2085 64.8345 14.4771 64.5015 14.7349L64.0342 15.3149C63.9482 15.3901 63.873 15.4492 63.8086 15.4922C63.7656 15.5996 63.6904 15.6748 63.583 15.7178C63.4434 15.8896 63.3521 16.0078 63.3091 16.0723L63.1157 16.2173C62.8257 16.3247 62.6807 16.4106 62.6807 16.4751L62.7129 16.7651C62.7129 16.8833 62.584 16.9961 62.3262 17.1035C62.2188 17.1572 62.1543 17.2432 62.1328 17.3613C62.1221 17.4795 62.0845 17.603 62.02 17.7319H61.73C61.6978 17.7319 61.5957 17.7856 61.4238 17.8931C61.4023 17.8931 61.3809 17.9038 61.3594 17.9253L61.4238 18.2959C61.4238 18.4248 61.3379 18.5752 61.166 18.7471C60.9941 18.9082 60.8599 19.0532 60.7632 19.1821C60.6772 19.311 60.6128 19.3755 60.5698 19.3755H60.4731L60.3765 19.4399C60.3872 19.644 60.2529 19.8643 59.9736 20.1006L59.7803 20.3423C59.7158 20.396 59.5332 20.6646 59.2324 21.1479C58.9316 21.6313 58.647 22.0234 58.3784 22.3242C58.1099 22.625 57.8628 22.8291 57.6372 22.9365C57.4116 23.0332 57.1699 23.1353 56.9121 23.2427L56.2515 23.1138C56.187 22.9956 56.0903 22.8989 55.9614 22.8237C55.8433 22.7485 55.7842 22.668 55.7842 22.582L55.5908 22.0181C55.5908 21.8677 55.6499 21.6851 55.7681 21.4702C55.8862 21.2446 55.9561 21.0728 55.9775 20.9546C56.0098 20.8257 56.0742 20.6592 56.1709 20.4551C56.2676 20.2402 56.3159 20.1221 56.3159 20.1006C56.3159 19.8105 56.3589 19.6333 56.4448 19.5688C56.5415 19.4937 56.751 19.3325 57.0732 19.0854C57.0947 19.0854 57.1055 19.064 57.1055 19.021V18.9888L57.0732 18.7148C57.3203 18.2959 57.4761 18.0864 57.5405 18.0864C57.562 18.0864 57.605 18.0972 57.6694 18.1187L57.5728 17.7642C57.5728 17.7212 57.6318 17.6514 57.75 17.5547C57.8682 17.458 57.9595 17.3506 58.0239 17.2324L57.9595 17.0391V16.9746C57.9595 16.7705 58.0938 16.561 58.3623 16.3462C58.4053 16.2603 58.4912 16.04 58.6201 15.6855L59.0391 14.9443C59.1465 14.7402 59.2593 14.606 59.3774 14.5415C59.4956 14.4663 59.5601 14.3804 59.5708 14.2837C59.5815 14.187 59.6191 14.0796 59.6836 13.9614C59.6836 14.0151 59.689 14.0205 59.6997 13.9775C59.7212 13.9238 59.748 13.8164 59.7803 13.6553C59.8232 13.4941 59.9468 13.3652 60.1509 13.2686C60.3979 12.6348 60.5913 12.3179 60.731 12.3179C60.7739 12.3179 60.833 12.3394 60.9082 12.3823H60.9727C61.1445 12.3823 61.2305 12.3179 61.2305 12.189C61.2305 12.146 61.209 12.1245 61.166 12.1245C61.0693 12.2319 60.9834 12.2856 60.9082 12.2856C60.833 12.2856 60.7954 12.2642 60.7954 12.2212C60.7954 12.1997 60.8115 12.1782 60.8438 12.1567L61.1982 11.4316L61.2305 11.1255C61.2734 11.061 61.3594 10.9644 61.4883 10.8354L61.7622 10.4648V10.3037C61.7622 10.2822 61.8105 10.1748 61.9072 9.98145C62.0039 9.77734 62.0737 9.57861 62.1167 9.38525L62.3906 8.98242C62.4336 8.85352 62.4551 8.73535 62.4551 8.62793C62.4551 8.4668 62.4336 8.38623 62.3906 8.38623L61.4561 8.56348C60.9512 8.82129 60.5913 9.02539 60.3765 9.17578L60.0059 9.25635C59.9844 9.25635 59.8394 9.33154 59.5708 9.48193C59.313 9.62158 59.082 9.70215 58.8779 9.72363C58.6846 9.73438 58.5127 9.80957 58.3623 9.94922L58.2979 9.98145H57.9917C57.8735 10.1211 57.793 10.2285 57.75 10.3037C57.707 10.3682 57.6694 10.4004 57.6372 10.4004C56.5522 11.1201 55.8647 11.5552 55.5747 11.7056C55.2847 11.856 55.0645 11.9956 54.9141 12.1245C54.7637 12.2427 54.6348 12.3286 54.5273 12.3823V12.5757C54.5273 12.7583 54.3931 12.9678 54.1245 13.2041C53.8667 13.4297 53.6411 13.5425 53.4478 13.5425C53.3833 13.5425 53.2812 13.5103 53.1416 13.4458C53.0127 13.3706 52.8623 13.3223 52.6904 13.3008C52.5293 13.2793 52.4487 13.0752 52.4487 12.6885C52.4487 12.1406 52.8999 11.6411 53.8022 11.1899C53.9419 11.1255 54.0708 11.0503 54.189 10.9644C54.3071 10.8784 54.7852 10.6689 55.623 10.3359L56.0903 10.1104C56.1978 10.0029 56.375 9.90625 56.6221 9.82031C56.8799 9.72363 57.0786 9.64307 57.2183 9.57861C57.3687 9.51416 57.4868 9.47119 57.5728 9.44971L57.6694 9.20801ZM72.7837 13.1074L72.9448 12.8174V12.7852C72.9448 12.7637 72.9233 12.7529 72.8804 12.7529C72.7729 12.7529 72.687 12.8604 72.6226 13.0752C72.644 13.1396 72.6655 13.1719 72.687 13.1719C72.73 13.1719 72.7622 13.1504 72.7837 13.1074ZM90.2988 21.0352L89.5415 21.6958C89.4985 21.6528 89.4556 21.6313 89.4126 21.6313C89.3052 21.6313 89.1709 21.728 89.0098 21.9214C88.8594 22.1147 88.752 22.2114 88.6875 22.2114L88.5264 22.1792C88.2578 22.3833 88.0645 22.5015 87.9463 22.5337C87.8281 22.5659 87.6831 22.625 87.5112 22.7109C87.3501 22.7969 87.1997 22.8452 87.0601 22.856C86.9312 22.8667 86.8237 22.915 86.7378 23.001C86.6519 23.0762 86.4424 23.1138 86.1094 23.1138L85.8516 23.0815C85.7119 23.146 85.6206 23.1782 85.5776 23.1782C85.4917 23.1782 85.4004 23.1353 85.3037 23.0493C85.207 22.9526 85.0996 22.8989 84.9814 22.8882C84.874 22.8774 84.7612 22.8022 84.6431 22.6626C84.5249 22.5229 84.4121 22.4263 84.3047 22.3726C84.208 22.3188 84.1274 22.2437 84.063 22.147L83.8374 21.9536C83.6548 21.8247 83.4775 21.5884 83.3057 21.2446C83.1338 20.9009 83.0479 20.6323 83.0479 20.439V20.3745L83.0801 20.0684L83.0479 19.7139C83.0908 19.6709 83.1445 19.5796 83.209 19.4399V18.9243L83.5957 17.6353C83.6172 17.5815 83.5742 17.5117 83.4668 17.4258C83.3594 17.5869 83.252 17.6836 83.1445 17.7158C83.0371 17.748 82.9619 17.8232 82.9189 17.9414C82.8867 18.0596 82.8276 18.1187 82.7417 18.1187L82.5483 18.0542C82.5269 18.0757 82.4785 18.1885 82.4033 18.3926C82.3281 18.5859 82.1992 18.6826 82.0166 18.6826C81.8232 18.6826 81.7266 18.6074 81.7266 18.457L81.7588 18.167L81.6621 17.7642C81.6621 17.6782 81.748 17.5117 81.9199 17.2646C82.0918 17.0068 82.2476 16.8618 82.3872 16.8296C82.5376 16.7866 82.6611 16.6846 82.7578 16.5234C82.8652 16.3516 83.0908 16.1475 83.4346 15.9111C83.6279 15.8682 83.7944 15.7285 83.9341 15.4922C84.0845 15.374 84.2778 15.2773 84.5142 15.2021C84.7612 15.127 84.9438 15.0195 85.062 14.8799C85.1909 14.7295 85.5562 14.5039 86.1577 14.2031C86.77 13.8916 87.2158 13.7358 87.4951 13.7358C87.5811 13.7358 87.6992 13.7144 87.8496 13.6714C88 13.6177 88.1396 13.5747 88.2686 13.5425C88.3975 13.4995 88.5317 13.4404 88.6714 13.3652C88.811 13.2793 88.9238 13.2363 89.0098 13.2363L89.4771 13.3975C89.8208 13.4941 90.0303 13.564 90.1055 13.6069C90.127 13.6284 90.2344 13.6768 90.4277 13.752C90.6318 13.8164 90.8359 13.9077 91.04 14.0259C91.2549 14.144 91.3623 14.3643 91.3623 14.6865C91.1797 14.9551 91.0884 15.1001 91.0884 15.1216C91.0884 15.1646 91.2119 15.229 91.459 15.3149C91.5449 15.4761 91.6738 15.6855 91.8457 15.9434L92.0229 16.5073L92.0552 17.8286L92.0229 17.9575C91.9048 18.0649 91.8457 18.1348 91.8457 18.167L91.894 18.4893L91.7651 18.9404C91.7329 19.0801 91.6792 19.1714 91.604 19.2144C91.5288 19.2573 91.4805 19.311 91.459 19.3755L91.3623 19.5044C91.3408 19.5366 91.2925 19.6333 91.2173 19.7944C91.1528 19.9448 91.0776 20.063 90.9917 20.1489C90.9058 20.2349 90.8521 20.3369 90.8306 20.4551C90.8091 20.5732 90.7554 20.6592 90.6694 20.7129C90.5835 20.7666 90.519 20.8257 90.4761 20.8901C90.4438 20.9438 90.3848 20.9922 90.2988 21.0352ZM85.2876 21.4541L85.3521 21.8247L85.3843 21.8569H85.6421L85.7227 21.8892C85.9375 21.9321 86.0986 21.9536 86.2061 21.9536C86.5391 21.9536 86.8022 21.873 86.9956 21.7119C87.1997 21.54 87.3608 21.4541 87.479 21.4541C87.5972 21.4541 87.6938 21.3735 87.769 21.2124C87.855 21.0513 87.9087 20.9707 87.9302 20.9707H88.1558L88.2202 20.9385C88.2202 20.6914 88.3276 20.5142 88.5425 20.4067C88.7681 20.2993 88.9238 20.1597 89.0098 19.9878C89.1064 19.8052 89.2139 19.6709 89.332 19.585C89.4502 19.4883 89.5308 19.3647 89.5737 19.2144L89.7026 19.021C89.7456 18.978 89.7671 18.8975 89.7671 18.7793L90.0732 18.1992C90.1377 17.9307 90.1699 17.7212 90.1699 17.5708C90.1699 17.3452 90.0518 17.168 89.8154 17.0391C89.5898 16.9102 89.4771 16.6577 89.4771 16.2817C89.4771 16.0347 89.6006 15.8091 89.8477 15.605C90.1055 15.3901 90.2344 15.2612 90.2344 15.2183C90.2344 15.1538 90.2021 15.1216 90.1377 15.1216C90.1055 15.1216 89.9819 15.1646 89.7671 15.2505C89.6919 15.4009 89.3105 15.5996 88.623 15.8467C88.3975 15.7393 88.2739 15.6855 88.2524 15.6855C88.188 15.6855 88.1235 15.75 88.0591 15.8789C87.9946 16.0078 87.9302 16.0991 87.8657 16.1528H87.6562C87.6348 16.1528 87.5649 16.2227 87.4468 16.3623C87.3286 16.502 87.1782 16.5718 86.9956 16.5718L86.8022 16.7651C86.813 16.937 86.7056 17.1143 86.48 17.2969L86.3027 17.5063C86.1953 17.6353 86.0557 17.7856 85.8838 17.9575L85.5938 18.6826C85.4756 18.9619 85.4165 19.1714 85.4165 19.311C85.3843 19.3755 85.3091 19.4453 85.1909 19.5205C85.0835 19.585 85.0298 19.6709 85.0298 19.7783C85.0298 19.7998 85.0674 19.8535 85.1426 19.9395C85.2178 20.0254 85.2554 20.0898 85.2554 20.1328L85.1909 20.3423L85.1265 20.9385L85.2876 21.4541ZM98.5327 8.16064L98.7583 8.09619L98.9194 7.93506H98.9517L99.0967 7.99951H99.1289C99.3867 7.99951 99.6123 7.95117 99.8057 7.85449C100.01 7.74707 100.176 7.67188 100.305 7.62891C100.445 7.58594 100.531 7.55371 100.563 7.53223C100.595 7.51074 100.622 7.5 100.644 7.5L100.901 7.53223C100.987 7.53223 101.1 7.38184 101.24 7.08105C101.39 6.76953 101.557 6.54395 101.739 6.4043C101.922 6.26465 102.104 6.00146 102.287 5.61475C102.33 5.56104 102.378 5.48047 102.432 5.37305C102.486 5.25488 102.529 5.1958 102.561 5.1958C102.722 5.1958 102.851 5.09375 102.948 4.88965C103.27 4.51367 103.533 4.32568 103.737 4.32568C104.006 4.32568 104.194 4.5835 104.301 5.09912L104.462 5.71143C104.462 5.72217 104.436 5.80273 104.382 5.95312C104.328 6.09277 104.301 6.23779 104.301 6.38818C104.312 6.52783 104.307 6.62451 104.285 6.67822C104.274 6.72119 104.269 6.7749 104.269 6.83936C104.269 6.92529 104.36 6.96826 104.543 6.96826C104.607 6.96826 104.726 6.92529 104.897 6.83936L104.994 6.80713C105.102 6.87158 105.193 6.90381 105.268 6.90381C105.29 6.90381 105.44 6.8501 105.719 6.74268C106.009 6.63525 106.192 6.57617 106.267 6.56543C106.342 6.55469 106.471 6.51172 106.654 6.43652H106.847L106.976 6.48486C107.019 6.48486 107.105 6.44189 107.234 6.35596C107.374 6.25928 107.631 6.2002 108.007 6.17871L108.233 6.08203H108.297C108.652 6.08203 108.829 6.23779 108.829 6.54932C108.829 6.61377 108.775 6.72656 108.668 6.8877C108.571 7.04883 108.491 7.23145 108.426 7.43555L107.685 8.37012C107.438 8.69238 107.191 8.85352 106.944 8.85352C106.901 8.85352 106.767 8.7085 106.541 8.41846C106.541 8.39697 106.52 8.38623 106.477 8.38623C106.369 8.38623 106.256 8.40771 106.138 8.45068C106.02 8.49365 105.923 8.51514 105.848 8.51514C105.816 8.51514 105.531 8.5957 104.994 8.75684L104.607 8.82129C104.564 8.82129 104.462 8.84277 104.301 8.88574L103.479 9.04688C103.2 9.18652 102.98 9.44971 102.819 9.83643C102.819 9.85791 102.765 9.90625 102.658 9.98145L101.933 11.3027C101.696 11.3672 101.541 11.5068 101.465 11.7217L101.401 11.8184C101.283 11.8398 101.175 11.9097 101.079 12.0278C100.982 12.1353 100.891 12.2212 100.805 12.2856L100.515 12.7207C100.396 12.8711 100.278 13.0376 100.16 13.2202C100.042 13.3921 99.9561 13.5801 99.9023 13.7842C99.8486 13.9775 99.8057 14.0903 99.7734 14.1226C99.7412 14.1548 99.7251 14.2139 99.7251 14.2998L99.6768 14.4287C99.5479 14.5576 99.4834 14.7026 99.4834 14.8638L99.5479 15.1216C99.3975 15.6372 99.3223 15.9111 99.3223 15.9434C99.3223 15.9648 99.333 16.0239 99.3545 16.1206V16.2173C99.3545 16.4536 99.2686 16.749 99.0967 17.1035L99.1289 17.3613L99.0322 18.0864C99.0322 18.1831 99.0645 18.3604 99.1289 18.6182C99.0859 18.6611 99.0645 18.6934 99.0645 18.7148C99.0645 19.0156 99.2202 19.3486 99.5317 19.7139C99.854 20.0684 100.015 20.627 100.015 21.3896C100.015 21.4541 99.999 21.5508 99.9668 21.6797C99.9346 21.7979 99.9131 21.9321 99.9023 22.0825C99.8916 22.2222 99.8057 22.3618 99.6445 22.5015C99.4941 22.6411 99.3652 22.7109 99.2578 22.7109C98.6885 22.7109 98.2642 22.2974 97.9849 21.4702C97.7056 20.6431 97.5659 20.1113 97.5659 19.875L97.5981 19.2466L97.5015 18.9243L97.5981 17.5063L97.5337 17.168L97.9043 15.7822V15.2827C97.9043 15.2612 97.9795 15.1753 98.1299 15.0249C98.1299 15.0034 98.1084 14.9927 98.0654 14.9927C98.001 14.9927 97.915 15.0571 97.8076 15.186C97.7002 15.3149 97.5659 15.4385 97.4048 15.5566L97.2759 15.7822C97.2544 15.7607 97.2114 15.7393 97.147 15.7178C97.0933 15.7393 96.916 15.9917 96.6152 16.4751C96.3896 16.5073 96.2124 16.6362 96.0835 16.8618C95.9546 17.0874 95.7773 17.2002 95.5518 17.2002L95.4873 17.2324C95.4443 17.5439 95.2939 17.6997 95.0361 17.6997L94.9717 17.7319C94.8105 18.0972 94.644 18.2744 94.4722 18.2637C94.3647 18.5859 94.1016 18.8062 93.6826 18.9243C93.6182 19.0532 93.5269 19.1499 93.4087 19.2144C93.2798 19.2788 93.1885 19.3379 93.1348 19.3916C93.0811 19.4453 93.0327 19.4722 92.9897 19.4722C92.8501 19.4722 92.7803 19.3218 92.7803 19.021C92.7803 18.9351 92.8179 18.8438 92.8931 18.7471C92.9575 18.6396 92.9897 18.5645 92.9897 18.5215C92.9897 18.5 92.936 18.4355 92.8286 18.3281C92.8286 17.9951 92.9146 17.7856 93.0864 17.6997C93.2583 17.6138 93.3872 17.4902 93.4731 17.3291C93.5269 17.2002 93.6343 17.1089 93.7954 17.0552C93.9565 17.0015 94.0371 16.9316 94.0371 16.8457C94.0371 16.7705 94.1768 16.6201 94.4561 16.3945C94.7354 16.1689 94.9395 15.9756 95.0684 15.8145C95.1973 15.6426 95.3047 15.5566 95.3906 15.5566L95.4551 15.4922C95.4766 15.2236 95.5786 15.0894 95.7612 15.0894L95.9224 14.9927L95.9546 14.8638L96.0513 14.7993H96.1802L96.2607 14.7349C96.2822 14.4663 96.4058 14.2568 96.6313 14.1064C96.8677 13.9561 97.292 13.5371 97.9043 12.8496C98.5166 12.1514 98.8604 11.7056 98.9355 11.5122C99.0107 11.3188 99.145 11.061 99.3384 10.7388C99.5425 10.4058 99.6553 10.0942 99.6768 9.8042C99.6553 9.76123 99.623 9.71826 99.5801 9.67529L98.8872 10.0137C98.8872 9.98145 98.7798 9.93311 98.5649 9.86865C98.4038 9.96533 98.2856 10.062 98.2104 10.1587C98.1353 10.2554 98.0762 10.3037 98.0332 10.3037L97.8076 10.2715L97.0986 10.3521C96.4648 10.4058 95.9868 10.5347 95.6646 10.7388L95.0039 10.9321H94.8589C94.7729 10.9321 94.644 10.9858 94.4722 11.0933L94.1016 11.061C93.7578 11.2437 93.5054 11.335 93.3442 11.335C93.3228 11.335 93.2583 11.3242 93.1509 11.3027L91.5073 11.7539C91.3784 11.7969 91.0884 12.0171 90.6372 12.4146L90.5083 12.4468C90.4009 12.4468 90.2773 12.3286 90.1377 12.0923C89.9873 11.8452 89.9121 11.625 89.9121 11.4316C89.9121 10.3682 90.8252 9.75049 92.6514 9.57861L93.312 9.3208H93.3442L93.5215 9.38525H93.5859C93.6504 9.38525 93.7524 9.34766 93.8921 9.27246C94.0317 9.18652 94.3433 9.08447 94.8267 8.96631L95.4873 8.78906L95.6968 8.82129C95.8042 8.82129 95.9224 8.77832 96.0513 8.69238C96.1909 8.60645 96.395 8.54736 96.6636 8.51514C96.9429 8.47217 97.1362 8.4292 97.2437 8.38623L97.5015 8.32178C97.5444 8.32178 97.6304 8.28418 97.7593 8.20898C97.8989 8.13379 98.0762 8.09619 98.291 8.09619C98.3232 8.09619 98.4038 8.11768 98.5327 8.16064ZM111.407 21.0352L110.65 21.6958C110.607 21.6528 110.564 21.6313 110.521 21.6313C110.414 21.6313 110.279 21.728 110.118 21.9214C109.968 22.1147 109.86 22.2114 109.796 22.2114L109.635 22.1792C109.366 22.3833 109.173 22.5015 109.055 22.5337C108.937 22.5659 108.792 22.625 108.62 22.7109C108.458 22.7969 108.308 22.8452 108.168 22.856C108.04 22.8667 107.932 22.915 107.846 23.001C107.76 23.0762 107.551 23.1138 107.218 23.1138L106.96 23.0815C106.82 23.146 106.729 23.1782 106.686 23.1782C106.6 23.1782 106.509 23.1353 106.412 23.0493C106.315 22.9526 106.208 22.8989 106.09 22.8882C105.982 22.8774 105.87 22.8022 105.751 22.6626C105.633 22.5229 105.521 22.4263 105.413 22.3726C105.316 22.3188 105.236 22.2437 105.171 22.147L104.946 21.9536C104.763 21.8247 104.586 21.5884 104.414 21.2446C104.242 20.9009 104.156 20.6323 104.156 20.439V20.3745L104.188 20.0684L104.156 19.7139C104.199 19.6709 104.253 19.5796 104.317 19.4399V18.9243L104.704 17.6353C104.726 17.5815 104.683 17.5117 104.575 17.4258C104.468 17.5869 104.36 17.6836 104.253 17.7158C104.146 17.748 104.07 17.8232 104.027 17.9414C103.995 18.0596 103.936 18.1187 103.85 18.1187L103.657 18.0542C103.635 18.0757 103.587 18.1885 103.512 18.3926C103.437 18.5859 103.308 18.6826 103.125 18.6826C102.932 18.6826 102.835 18.6074 102.835 18.457L102.867 18.167L102.771 17.7642C102.771 17.6782 102.856 17.5117 103.028 17.2646C103.2 17.0068 103.356 16.8618 103.496 16.8296C103.646 16.7866 103.77 16.6846 103.866 16.5234C103.974 16.3516 104.199 16.1475 104.543 15.9111C104.736 15.8682 104.903 15.7285 105.042 15.4922C105.193 15.374 105.386 15.2773 105.623 15.2021C105.87 15.127 106.052 15.0195 106.17 14.8799C106.299 14.7295 106.665 14.5039 107.266 14.2031C107.878 13.8916 108.324 13.7358 108.604 13.7358C108.689 13.7358 108.808 13.7144 108.958 13.6714C109.108 13.6177 109.248 13.5747 109.377 13.5425C109.506 13.4995 109.64 13.4404 109.78 13.3652C109.919 13.2793 110.032 13.2363 110.118 13.2363L110.585 13.3975C110.929 13.4941 111.139 13.564 111.214 13.6069C111.235 13.6284 111.343 13.6768 111.536 13.752C111.74 13.8164 111.944 13.9077 112.148 14.0259C112.363 14.144 112.471 14.3643 112.471 14.6865C112.288 14.9551 112.197 15.1001 112.197 15.1216C112.197 15.1646 112.32 15.229 112.567 15.3149C112.653 15.4761 112.782 15.6855 112.954 15.9434L113.131 16.5073L113.164 17.8286L113.131 17.9575C113.013 18.0649 112.954 18.1348 112.954 18.167L113.002 18.4893L112.874 18.9404C112.841 19.0801 112.788 19.1714 112.712 19.2144C112.637 19.2573 112.589 19.311 112.567 19.3755L112.471 19.5044C112.449 19.5366 112.401 19.6333 112.326 19.7944C112.261 19.9448 112.186 20.063 112.1 20.1489C112.014 20.2349 111.96 20.3369 111.939 20.4551C111.917 20.5732 111.864 20.6592 111.778 20.7129C111.692 20.7666 111.627 20.8257 111.584 20.8901C111.552 20.9438 111.493 20.9922 111.407 21.0352ZM106.396 21.4541L106.46 21.8247L106.493 21.8569H106.75L106.831 21.8892C107.046 21.9321 107.207 21.9536 107.314 21.9536C107.647 21.9536 107.911 21.873 108.104 21.7119C108.308 21.54 108.469 21.4541 108.587 21.4541C108.706 21.4541 108.802 21.3735 108.877 21.2124C108.963 21.0513 109.017 20.9707 109.039 20.9707H109.264L109.329 20.9385C109.329 20.6914 109.436 20.5142 109.651 20.4067C109.876 20.2993 110.032 20.1597 110.118 19.9878C110.215 19.8052 110.322 19.6709 110.44 19.585C110.559 19.4883 110.639 19.3647 110.682 19.2144L110.811 19.021C110.854 18.978 110.875 18.8975 110.875 18.7793L111.182 18.1992C111.246 17.9307 111.278 17.7212 111.278 17.5708C111.278 17.3452 111.16 17.168 110.924 17.0391C110.698 16.9102 110.585 16.6577 110.585 16.2817C110.585 16.0347 110.709 15.8091 110.956 15.605C111.214 15.3901 111.343 15.2612 111.343 15.2183C111.343 15.1538 111.311 15.1216 111.246 15.1216C111.214 15.1216 111.09 15.1646 110.875 15.2505C110.8 15.4009 110.419 15.5996 109.731 15.8467C109.506 15.7393 109.382 15.6855 109.361 15.6855C109.296 15.6855 109.232 15.75 109.167 15.8789C109.103 16.0078 109.039 16.0991 108.974 16.1528H108.765C108.743 16.1528 108.673 16.2227 108.555 16.3623C108.437 16.502 108.287 16.5718 108.104 16.5718L107.911 16.7651C107.921 16.937 107.814 17.1143 107.588 17.2969L107.411 17.5063C107.304 17.6353 107.164 17.7856 106.992 17.9575L106.702 18.6826C106.584 18.9619 106.525 19.1714 106.525 19.311C106.493 19.3755 106.417 19.4453 106.299 19.5205C106.192 19.585 106.138 19.6709 106.138 19.7783C106.138 19.7998 106.176 19.8535 106.251 19.9395C106.326 20.0254 106.364 20.0898 106.364 20.1328L106.299 20.3423L106.235 20.9385L106.396 21.4541ZM118.014 14.896L118.255 14.8315L118.352 14.6221C118.878 14.3105 119.254 14.0151 119.48 13.7358C119.501 13.6929 119.55 13.6499 119.625 13.6069C119.7 13.564 119.781 13.4888 119.867 13.3813C120.264 12.9839 120.737 12.7852 121.285 12.7852C121.929 12.7852 122.273 13.1772 122.316 13.9614L122.413 14.2031C122.499 14.3535 122.617 14.6597 122.767 15.1216C122.928 15.5835 123.009 15.8682 123.009 15.9756C123.009 16.2656 122.917 16.5557 122.735 16.8457C122.584 16.9209 122.225 17.3237 121.655 18.0542L121.494 18.167C121.408 18.3604 121.295 18.5537 121.156 18.7471C120.941 18.8223 120.833 18.9028 120.833 18.9888V19.2788C120.833 19.3003 120.807 19.3433 120.753 19.4077C120.71 19.4722 120.646 19.5957 120.56 19.7783L120.431 19.9717C120.388 20.0146 120.345 20.106 120.302 20.2456C120.259 20.3745 120.194 20.4927 120.108 20.6001C120.033 20.7075 119.996 20.7935 119.996 20.8579C119.996 21.019 120.205 21.0996 120.624 21.0996C120.646 21.0996 120.726 21.0674 120.866 21.0029L121.091 21.0674C121.113 21.0674 121.167 21.0352 121.252 20.9707C121.338 20.8955 121.467 20.8364 121.639 20.7935C121.822 20.7505 121.978 20.686 122.106 20.6001C122.246 20.5142 122.407 20.439 122.59 20.3745C122.783 20.3101 122.966 20.208 123.138 20.0684C123.31 19.918 123.476 19.8105 123.637 19.7461C123.809 19.6816 123.965 19.585 124.104 19.4561C124.255 19.3164 124.421 19.1875 124.604 19.0693C124.787 18.9512 125.077 18.6934 125.474 18.2959C125.732 18.0918 125.909 17.979 126.006 17.9575C126.027 17.9575 126.119 17.8179 126.28 17.5386C126.452 17.2485 126.645 17.1035 126.86 17.1035C127.085 17.1035 127.198 17.2109 127.198 17.4258C127.198 17.5439 127.145 17.6567 127.037 17.7642V17.8608L127.069 18.1187C127.091 18.1509 127.102 18.1992 127.102 18.2637C127.102 18.3066 127.059 18.3711 126.973 18.457C126.897 18.543 126.844 18.6558 126.812 18.7954C126.779 18.9243 126.677 19.0103 126.505 19.0532C126.441 19.2896 126.355 19.4238 126.248 19.4561C126.151 19.4883 126.011 19.5957 125.829 19.7783C125.646 19.9609 125.388 20.1758 125.055 20.4229C124.722 20.6699 124.491 20.8633 124.362 21.0029C124.244 21.1318 124.164 21.1963 124.121 21.1963C124.099 21.1963 124.056 21.1748 123.992 21.1318C123.927 21.0889 123.884 21.0674 123.863 21.0674C123.798 21.0674 123.755 21.1426 123.734 21.293L123.669 21.4541C123.53 21.54 123.449 21.583 123.428 21.583L123.331 21.5508H123.267C123.138 21.5508 123.073 21.5991 123.073 21.6958L123.17 21.8569V21.8892C123.17 22.0396 123.084 22.1147 122.912 22.1147C122.794 22.1147 122.45 22.3135 121.881 22.7109L121.414 22.8076L121.027 23.0171C120.898 22.9419 120.817 22.9043 120.785 22.9043L120.527 22.9849L120.06 23.0171C120.049 23.0171 119.851 22.9097 119.464 22.6948C119.088 22.48 118.862 22.2651 118.787 22.0503C118.712 21.8354 118.615 21.6206 118.497 21.4058C118.379 21.1802 118.32 21.0244 118.32 20.9385C118.32 20.4229 118.363 20.0576 118.449 19.8428C118.535 19.6172 118.588 19.4507 118.61 19.3433C118.631 19.2358 118.69 19.123 118.787 19.0049C118.895 18.876 118.98 18.6719 119.045 18.3926C119.356 17.7695 119.571 17.3882 119.689 17.2485C119.808 17.1089 119.899 16.937 119.963 16.7329L120.173 16.4429C120.194 16.4214 120.227 16.3408 120.27 16.2012C120.312 16.0508 120.366 15.9648 120.431 15.9434C120.517 15.793 120.56 15.6963 120.56 15.6533C120.56 15.3418 120.42 15.186 120.141 15.186C120.087 15.186 120.028 15.2451 119.963 15.3633C119.899 15.4707 119.749 15.5781 119.512 15.6855C119.287 15.793 119.147 15.8735 119.093 15.9272C119.04 15.981 118.921 16.0508 118.739 16.1367C118.567 16.2119 118.417 16.3354 118.288 16.5073L118.014 16.6362C117.928 16.8403 117.853 16.9531 117.788 16.9746C117.724 16.9961 117.525 17.0498 117.192 17.1357C117.17 17.1465 117.117 17.2109 117.031 17.3291C116.945 17.4473 116.821 17.5063 116.66 17.5063C116.531 17.6353 116.402 17.7856 116.273 17.9575C116.23 17.9575 116.118 18.0005 115.935 18.0864L115.613 18.167C115.527 18.2314 115.43 18.3335 115.323 18.4731C115.226 18.6128 115.038 18.6826 114.759 18.6826C114.598 18.6826 114.517 18.5537 114.517 18.2959C114.517 17.7695 114.7 17.3506 115.065 17.0391C115.441 16.7275 115.715 16.561 115.887 16.5396C116.059 16.5181 116.166 16.4536 116.209 16.3462C116.252 16.2388 116.354 16.1528 116.515 16.0884C116.687 16.0132 116.88 15.8574 117.095 15.6211C117.321 15.374 117.562 15.2075 117.82 15.1216L118.014 14.896ZM129.39 15.0249L129.615 14.6221C129.68 14.5254 129.76 14.4287 129.857 14.332C129.964 14.2246 130.077 13.9614 130.195 13.5425C130.313 13.1128 130.442 12.8174 130.582 12.6562C130.732 12.4951 130.947 12.4146 131.227 12.4146C131.388 12.4146 131.597 12.4951 131.855 12.6562C132.124 12.8066 132.381 13.2739 132.628 14.0581C132.886 14.8423 133.015 15.3955 133.015 15.7178C133.015 15.8467 133.053 16.0132 133.128 16.2173C133.203 16.4106 133.251 16.561 133.273 16.6685C133.187 16.8511 133.144 16.9531 133.144 16.9746L133.176 17.6353L132.983 18.167V18.5537C132.854 18.7686 132.79 18.9028 132.79 18.9565C132.79 19.021 132.811 19.0854 132.854 19.1499C133.359 18.9351 133.665 18.7632 133.772 18.6343C133.88 18.4946 133.982 18.4087 134.079 18.3765C134.186 18.3442 134.358 18.2046 134.594 17.9575L134.9 17.7964C135.008 17.6675 135.099 17.5547 135.174 17.458C135.25 17.3506 135.335 17.2754 135.432 17.2324C135.54 17.1895 135.663 17.1143 135.803 17.0068C135.942 16.8994 136.146 16.7759 136.415 16.6362L136.576 16.4429C136.737 16.2603 136.925 16.1152 137.14 16.0078C137.366 15.9004 137.489 15.8467 137.511 15.8467C137.586 15.8467 137.661 15.9487 137.736 16.1528C137.822 16.3462 137.865 16.5396 137.865 16.7329C137.865 16.9155 137.758 17.0981 137.543 17.2808C137.339 17.4526 137.199 17.5815 137.124 17.6675C137.049 17.7534 136.877 17.8286 136.608 17.8931C136.587 17.9038 136.41 18.124 136.077 18.5537L135.754 18.7471L135.593 18.9565C135.572 18.9995 135.427 19.0425 135.158 19.0854C135.147 19.0854 135.121 19.1392 135.078 19.2466C135.045 19.354 134.933 19.4292 134.739 19.4722C134.353 19.8267 134.154 20.0254 134.143 20.0684L133.805 20.1328C133.74 20.3369 133.687 20.4604 133.644 20.5034C133.386 20.5679 133.241 20.6753 133.208 20.8257C133.176 20.8472 133.123 20.8687 133.047 20.8901L132.983 20.9385C132.736 21.1318 132.494 21.25 132.258 21.293L131.887 21.3896L131.758 21.583C131.758 21.6367 131.624 21.7065 131.355 21.7925C131.098 21.8784 130.904 21.9858 130.775 22.1147L130.501 22.3242C130.168 22.4531 129.959 22.5713 129.873 22.6787H129.647C129.497 22.6787 129.261 22.7915 128.938 23.0171C128.616 23.2319 128.358 23.3394 128.165 23.3394C127.542 23.3394 127.112 23.2642 126.876 23.1138C126.65 22.9526 126.462 22.7593 126.312 22.5337C126.162 22.2974 126.027 22.1094 125.909 21.9697C125.78 21.8301 125.716 21.7173 125.716 21.6313C125.716 21.5562 125.77 21.481 125.877 21.4058C125.974 21.3306 126.081 21.1802 126.199 20.9546C126.317 20.7183 126.618 20.5679 127.102 20.5034C127.123 20.5034 127.198 20.4712 127.327 20.4067C127.467 20.3423 127.58 20.3101 127.666 20.3101C127.773 20.3101 127.907 20.4067 128.068 20.6001C128.068 20.6216 128.09 20.6323 128.133 20.6323L128.391 20.6001C128.509 20.686 128.589 20.729 128.632 20.729C128.89 20.729 129.164 20.6001 129.454 20.3423L129.519 20.3101H129.647C129.68 20.3101 129.733 20.2188 129.809 20.0361L130.083 19.4722L130.646 18.7471V18.5859C130.646 18.5537 130.679 18.457 130.743 18.2959V18.0542C130.743 17.9575 130.808 17.8984 130.937 17.877C131.065 17.8447 131.13 17.7749 131.13 17.6675L131.098 17.5386C131.012 17.4204 130.969 17.3291 130.969 17.2646L131.13 16.9424L131.098 16.604L131.162 16.4751C131.119 16.3247 131.098 16.2388 131.098 16.2173L131.162 15.8145C131.162 15.8037 131.13 15.7017 131.065 15.5083C131.012 15.3149 130.969 15.2183 130.937 15.2183C130.872 15.2183 130.668 15.3848 130.324 15.7178C129.98 16.0508 129.776 16.2871 129.712 16.4268C129.647 16.5664 129.508 16.6953 129.293 16.8135C129.089 16.9209 128.949 17.0444 128.874 17.1841C128.799 17.3237 128.708 17.4043 128.6 17.4258L127.521 18.2959L126.344 19.166C126.258 19.2627 126.205 19.311 126.183 19.311C125.786 19.311 125.587 19.0908 125.587 18.6504C125.587 18.5107 125.667 18.2583 125.829 17.8931C125.904 17.8501 125.963 17.8179 126.006 17.7964C126.038 17.7749 126.054 17.7588 126.054 17.748C126.054 17.7373 126.043 17.7319 126.022 17.7319L126.119 17.7964H126.151C126.548 17.5278 126.806 17.3721 126.924 17.3291C127.042 17.2861 127.15 17.168 127.247 16.9746L127.923 16.4912C128.095 16.3623 128.358 16.126 128.713 15.7822C129.067 15.4385 129.293 15.186 129.39 15.0249Z" fill="white"/>
</svg>
