<svg width="501" height="83" viewBox="0 0 501 83" fill="none" xmlns="http://www.w3.org/2000/svg">
<path d="M11.5391 13.3398L12.5352 12.5195L13.707 12.6367C14.3711 12.6367 14.9375 12.4609 15.4062 12.1094C15.875 11.7578 16.2461 11.5625 16.5195 11.5234C16.832 11.4844 17.1836 11.2891 17.5742 10.9375C18.0039 10.5859 18.6094 10.3516 19.3906 10.2344C20.1719 10.0781 20.7383 9.82422 21.0898 9.47266C21.4414 9.12109 21.832 8.90625 22.2617 8.82812C22.7305 8.71094 23.2578 8.53516 23.8438 8.30078L29.1758 6.66016C29.2539 6.66016 29.4688 6.73828 29.8203 6.89453H30.0547C30.5234 6.89453 30.9727 6.71875 31.4023 6.36719C31.8711 5.97656 32.418 5.78125 33.043 5.78125C33.4336 5.78125 34.1953 5.54688 35.3281 5.07812L35.6797 5.42969C36.3047 4.72656 36.832 4.375 37.2617 4.375H37.6133C37.6914 4.375 38.043 4.45312 38.668 4.60938C39.6445 4.29688 40.4453 4.14062 41.0703 4.14062L42.418 4.02344C42.4961 4.02344 42.6133 4.0625 42.7695 4.14062C43.082 3.78906 43.5117 3.57422 44.0586 3.49609H44.7031L47.1055 2.91016L47.8086 3.14453C48.2773 2.75391 49 2.55859 49.9766 2.55859H50.5625L51.1484 2.67578C51.2266 2.67578 51.5781 2.55859 52.2031 2.32422C52.8672 2.08984 54.4492 1.97266 56.9492 1.97266L58.4727 2.20703C59.4492 1.81641 59.9766 1.62109 60.0547 1.62109L61.6953 1.97266L62.3398 1.73828H62.5742C62.6523 1.73828 62.8477 1.81641 63.1602 1.97266H63.2773L67.4961 1.38672C67.5742 1.38672 67.7305 1.42578 67.9648 1.50391C68.2773 1.23047 68.5117 1.09375 68.668 1.09375L69.7812 1.38672C70.0938 1.38672 70.6406 1.17187 71.4219 0.742188L71.7734 1.09375L75.7578 0.625L77.2227 0.742188L78.5117 0.507812C79.8008 0.507812 80.7578 0.859375 81.3828 1.5625C82.0469 2.22656 82.3789 2.91016 82.3789 3.61328L82.6133 5.42969L82.2617 6.42578L82.1445 7.59766C81.9492 8.06641 81.6562 8.37891 81.2656 8.53516C81.2656 8.61328 81.0898 8.71094 80.7383 8.82812C80.3867 8.90625 80.0352 9.0625 79.6836 9.29688C79.332 9.53125 78.1797 9.64844 76.2266 9.64844C75.25 9.64844 74.625 9.35547 74.3516 8.76953C74.0781 8.14453 73.7852 7.79297 73.4727 7.71484L70.9531 6.66016C70.875 6.58203 70.6406 6.54297 70.25 6.54297H69.7812L67.3789 6.77734C67.3008 6.77734 67.0859 6.73828 66.7344 6.66016C66.2266 6.89453 65.9531 7.01172 65.9141 7.01172L61.5781 6.77734L59.8203 6.89453L58.5898 6.66016C58.4336 6.66016 58.1602 6.71875 57.7695 6.83594C57.3789 6.95312 56.5586 7.05078 55.3086 7.12891C54.0586 7.20703 53.4336 7.59766 53.4336 8.30078C53.4336 8.73047 53.5898 9.19922 53.9023 9.70703C54.2539 10.2148 54.4297 10.625 54.4297 10.9375C53.8438 11.7578 53.5508 12.2852 53.5508 12.5195C53.3945 12.6367 53.1211 12.8906 52.7305 13.2812C52.3398 13.6719 51.6172 14.2969 50.5625 15.1562C49.5078 15.9766 48.7852 16.7383 48.3945 17.4414C48.0039 18.1445 47.5352 18.4961 46.9883 18.4961C46.2852 19.1602 45.7969 19.7656 45.5234 20.3125L45.0547 20.7812C44.9766 20.8594 44.9375 21.0352 44.9375 21.3086C44.9375 21.543 44.8203 21.7773 44.5859 22.0117L44.0586 23.418C43.7852 23.5352 42.9844 24.5508 41.6562 26.4648L40.9531 26.8164L40.25 27.6367H39.4297C39.0781 27.6367 38.9023 27.8711 38.9023 28.3398L39.1367 30.0391C38.5508 30.5469 38.082 31.2305 37.7305 32.0898L37.0273 33.2617C36.207 34.082 35.7969 34.5312 35.7969 34.6094C35.7969 34.8047 35.4062 35.6445 34.625 37.1289L34.5078 37.7148C34.5078 38.3789 33.1406 40.293 30.4062 43.457C30.0156 44.1992 29.7812 45.332 29.7031 46.8555C28.5312 49.1602 27.7305 50.2734 27.3008 50.1953C27.2227 51.6797 26.9688 52.8906 26.5391 53.8281C26.1484 54.7656 25.6211 56.1523 24.957 57.9883C24.332 59.7852 23.668 61.0742 22.9648 61.8555L22.7305 62.3242C22.5742 62.6367 22.3789 62.9492 22.1445 63.2617C22.0664 64.3164 21.6953 65.9961 21.0312 68.3008L20.6797 70.8203L19.5078 74.1016C19.3906 74.3359 19.332 74.5703 19.332 74.8047C19.332 74.9609 19.4492 75.2734 19.6836 75.7422C19.957 76.1719 20.0938 76.582 20.0938 76.9727C20.0938 77.5195 19.9961 77.9688 19.8008 78.3203C19.6055 78.6328 19.5078 79.0625 19.5078 79.6094C19.5078 80.8203 18.8633 81.6211 17.5742 82.0117H17.1055L15.875 82.1289C14.2344 82.1289 12.75 81.3477 11.4219 79.7852C10.0938 78.2227 9.42969 76.0742 9.42969 73.3398C9.42969 73.1836 9.54688 72.5977 9.78125 71.582C10.0156 70.5273 10.1523 69.8438 10.1914 69.5312C10.2305 69.2188 10.3281 68.9062 10.4844 68.5938C10.6406 68.2422 10.7188 67.7539 10.7188 67.1289C10.7188 65.2148 11.1875 63.5547 12.125 62.1484C13.1016 60.7422 13.7461 59.7266 14.0586 59.1016C14.1367 58.8281 14.2734 58.6523 14.4688 58.5742C14.3516 58.2617 14.293 57.8711 14.293 57.4023C14.293 56.2695 14.7812 55.3516 15.7578 54.6484C15.8359 54.3359 15.9727 53.9844 16.168 53.5938C16.3633 53.1641 16.7734 52.168 17.3984 50.6055C18.0234 49.0039 18.8438 48.0664 19.8594 47.793C19.8203 47.7148 20.0547 47.4023 20.5625 46.8555L20.3281 44.8047C20.3281 44.4922 20.6797 43.9648 21.3828 43.2227L22.3789 41.582C22.5352 40.918 23.043 40.3125 23.9023 39.7656C24.1367 39.375 24.3906 39.1406 24.6641 39.0625C24.7031 38.9062 24.8594 38.418 25.1328 37.5977C25.4453 36.7773 26.0703 35.7617 27.0078 34.5508C27.9844 33.3008 28.9023 32.0117 29.7617 30.6836C30.6602 29.3555 31.4609 28.6719 32.1641 28.6328C32.9062 28.5938 33.3164 28.1836 33.3945 27.4023L33.7461 25.2344C34.8789 24.2578 35.5625 23.5742 35.7969 23.1836L36.6172 22.2461C36.7734 21.6992 36.9688 21.3477 37.2031 21.1914C37.4766 20.9961 37.8086 20.625 38.1992 20.0781C38.5898 19.5313 39.0781 19.043 39.6641 18.6133C40.1719 17.0117 41.3242 15.625 43.1211 14.4531L44.0586 13.457C44.7227 12.5195 45.2695 11.8945 45.6992 11.582C46.1289 11.2305 46.4414 10.7812 46.6367 10.2344C46.8711 9.6875 47.3008 9.27734 47.9258 9.00391C48.5508 8.73047 48.8633 8.41797 48.8633 8.06641C48.8633 7.91016 48.707 7.83203 48.3945 7.83203C48.082 7.83203 47.5547 7.94922 46.8125 8.18359H46.3438L45.2891 8.41797H44.9375L43.9414 8.18359C43.2383 8.41797 42.6914 8.53516 42.3008 8.53516C42.2227 8.61328 41.9688 8.78906 41.5391 9.0625H40.25L39.5469 9.76562L39.0195 9.88281L37.4961 9.64844C37.0273 9.64844 36.4609 9.88281 35.7969 10.3516C35.7969 10.4297 35.1523 10.5664 33.8633 10.7617C32.6133 10.957 31.4219 11.3281 30.2891 11.875C29.1562 12.3828 28.4727 12.6367 28.2383 12.6367L27.1836 12.4023H27.0664C26.5586 12.4023 26.0898 12.6562 25.6602 13.1641C25.2305 13.6719 24.6055 13.9844 23.7852 14.1016H23.082C22.4961 14.1016 21.6953 14.3359 20.6797 14.8047C19.7031 15.2734 19.1758 15.5078 19.0977 15.5078L18.043 15.3906C17.5742 15.7031 17.1641 15.918 16.8125 16.0352C16.5 16.1523 16.1875 16.3477 15.875 16.6211C15.5625 16.8555 15.25 17.0312 14.9375 17.1484C14.625 17.2656 14.2539 17.4805 13.8242 17.793C13.4336 18.1055 13.1211 18.2617 12.8867 18.2617H12.6523L11.9492 18.1445C11.6758 18.1445 11.3242 18.3984 10.8945 18.9062C10.4648 19.375 10.0547 19.668 9.66406 19.7852C9.3125 19.9023 8.96094 20.0977 8.60938 20.3711C8.29688 20.6055 7.96484 20.7422 7.61328 20.7812C7.41797 20.9766 7.14453 21.4063 6.79297 22.0703C6.44141 22.7344 5.99219 23.3203 5.44531 23.8281C4.89844 24.2969 4.52734 24.668 4.33203 24.9414C4.17578 25.2148 4.01953 25.3516 3.86328 25.3516C1.94922 25.3516 0.992188 24.1602 0.992188 21.7773L2.16406 19.2578C2.98438 17.2656 4.23438 16.0547 5.91406 15.625C6.34375 15.625 7.45703 15.1953 9.25391 14.3359L11.5391 13.3398ZM69.7812 30.7422L69.4297 28.457V28.1055C69.4297 26.2695 70.0547 25.2539 71.3047 25.0586C71.5781 25.0195 72.3984 24.7656 73.7656 24.2969C74.4688 24.4531 75.1914 25.0781 75.9336 26.1719C76.7148 27.2266 77.1055 28.1641 77.1055 28.9844C77.1055 29.0625 77.0469 29.2383 76.9297 29.5117C76.8125 29.7852 76.7344 30.3125 76.6953 31.0938C76.6562 31.8359 76.2656 32.5 75.5234 33.0859C74.8203 33.6328 74.0586 33.9062 73.2383 33.9062C72.6914 33.9062 71.9883 33.5352 71.1289 32.793C70.3086 32.0117 69.8594 31.3281 69.7812 30.7422ZM44.4688 60.0391L45.4062 59.2188H45.7578C46.0312 59.2188 46.4414 58.9258 46.9883 58.3398L47.5742 58.1055C48.3555 56.9336 49.0391 56.25 49.625 56.0547L50.5625 55.3516C50.7188 55.1953 50.9336 55.0586 51.207 54.9414C51.5195 54.8242 51.9883 54.4531 52.6133 53.8281C53.2773 53.1641 53.8047 52.832 54.1953 52.832C54.5859 52.832 54.8984 52.8711 55.1328 52.9492C55.3672 52.4805 55.8359 52.0312 56.5391 51.6016C57.2422 51.1328 57.8086 50.5859 58.2383 49.9609L59 49.6094C59.625 49.2969 60.1719 48.9062 60.6406 48.4375C61.1484 47.9297 61.793 47.6758 62.5742 47.6758C63.707 47.6758 64.8789 48.2617 66.0898 49.4336C67.3398 50.5664 67.9648 51.6602 67.9648 52.7148L66.9688 57.2852C66.3047 60.6445 65.5625 62.4023 64.7422 62.5586L64.5078 63.7891C63.9609 64.1797 63.6875 64.4922 63.6875 64.7266L64.0391 66.1328C64.0391 66.3281 63.8242 66.6211 63.3945 67.0117C63.3164 67.0117 63.2773 67.1289 63.2773 67.3633V69.7656C63.2773 70.1953 63.0039 70.5469 62.457 70.8203C62.5352 70.8984 62.6523 70.9766 62.8086 71.0547C63.043 70.8203 63.5703 70.7031 64.3906 70.7031L65.3281 70.8203L66.6172 69.5312C66.8906 69.4531 67.2617 69.2773 67.7305 69.0039C68.2383 68.6914 69.0781 68.3008 70.25 67.832L77.9258 61.9727C78.9805 60.918 79.7812 60.3906 80.3281 60.3906C80.9141 60.3906 81.207 60.7617 81.207 61.5039C81.207 62.3633 81.0312 63.0859 80.6797 63.6719C80.3672 64.2188 80.0742 64.9023 79.8008 65.7227C79.5273 66.5039 79.1953 67.0508 78.8047 67.3633C78.4531 67.6758 78.1602 68.0273 77.9258 68.418C77.6914 68.7695 77.0469 69.2969 75.9922 70C74.9766 70.7031 74.0977 71.4258 73.3555 72.168C72.6523 72.8711 72.0664 73.3789 71.5977 73.6914L69.0781 75.5078L68.7266 76.0938C68.6484 76.1719 68.2773 76.3477 67.6133 76.6211C66.9883 76.8555 66.4219 77.168 65.9141 77.5586L64.8594 78.1445C64.625 78.3008 64.2344 78.3984 63.6875 78.4375C63.1797 78.4766 62.7305 78.7109 62.3398 79.1406C61.9492 79.5312 61.6367 79.7266 61.4023 79.7266L60.5234 79.6094L59.3516 79.9609C58.6875 79.9609 57.8672 79.5703 56.8906 78.7891C55.9531 77.9688 55.4844 77.1094 55.4844 76.2109V75.8594L55.6016 75.0391C55.6016 74.8828 55.4844 74.4922 55.25 73.8672C55.0156 73.2031 54.8984 72.832 54.8984 72.7539L55.0156 71.9336L54.8984 71.582C54.8984 70.5273 54.9766 69.8633 55.1328 69.5898C55.2891 69.3164 55.4062 68.9453 55.4844 68.4766C55.5625 67.9688 55.6406 67.5586 55.7188 67.2461L56.0117 65.7812C56.168 65.3125 56.3633 65 56.5977 64.8438C56.6758 64.5312 56.832 64.0039 57.0664 63.2617L57.3008 62.207L57.8867 61.3867C58.1992 61.0742 58.375 60.6641 58.4141 60.1562C58.4922 59.6094 58.707 59.043 59.0586 58.457C59.4102 57.8711 59.5859 57.5195 59.5859 57.4023C59.5859 56.9336 59.3516 56.6992 58.8828 56.6992C58.7266 56.6992 58.2383 57.0117 57.418 57.6367L56.3633 57.2852C56.2852 57.2852 56.0703 57.4805 55.7188 57.8711C55.7188 58.0273 55.543 58.1445 55.1914 58.2227C54.8398 58.3008 54.5078 58.5938 54.1953 59.1016L53.7266 59.2188L52.9648 58.8672H52.7305C52.3398 58.8672 52.1055 59.2969 52.0273 60.1562C51.5977 60.7812 51.0312 61.1914 50.3281 61.3867L49.0391 61.7383C48.6094 61.8945 48.2969 62.2461 48.1016 62.793C47.9062 63.3398 47.5156 63.8477 46.9297 64.3164C46.3438 64.7461 45.9531 64.9609 45.7578 64.9609C44.6641 64.9609 44.1172 64.3555 44.1172 63.1445L44.5859 60.3906L44.4688 60.0391ZM104.82 53.7109L106.461 52.9492C107.008 52.5977 107.535 52.0898 108.043 51.4258L110.094 49.9609C111.266 49.1797 112.027 48.7891 112.379 48.7891L113.316 49.1406C113.395 49.1406 113.629 48.9062 114.02 48.4375C114.449 47.9297 114.938 47.6758 115.484 47.6758C116.188 47.6758 117.145 48.2031 118.355 49.2578C119.566 50.3125 120.172 51.25 120.172 52.0703L119.938 54.0625C119.938 54.375 120.094 55.2539 120.406 56.6992V57.168L120.172 58.5742L120.406 60.0391L119.762 62.9102C119.762 63.6523 120.016 64.0234 120.523 64.0234C121.188 63.3984 121.754 63.0273 122.223 62.9102L123.043 62.0898C123.355 61.7773 123.59 61.6211 123.746 61.6211C123.902 61.6211 124.098 61.4453 124.332 61.0938C124.605 60.7031 124.938 60.4297 125.328 60.2734C125.719 60.1172 125.992 59.8438 126.148 59.4531C128.336 57.0703 130.016 55.7031 131.188 55.3516C131.344 55.3516 131.598 55.1562 131.949 54.7656C132.34 54.375 132.652 54.1406 132.887 54.0625L134.176 53.0664L134.703 53.3008H134.82C134.898 53.3008 135.211 53.1055 135.758 52.7148C136.305 52.3242 136.695 52.1289 136.93 52.1289C138.414 52.1289 139.625 52.6367 140.562 53.6523C141.539 54.6289 142.027 55.3906 142.027 55.9375L141.734 57.2852L142.145 59.1016V60.2734L141.852 61.5039C141.852 61.7383 142.008 62.0703 142.32 62.5C142.672 62.9297 142.848 63.2227 142.848 63.3789C142.379 63.8867 142.145 64.2188 142.145 64.375L142.262 65.4297L141.969 68.6523C141.969 68.9258 142.223 69.375 142.73 70C142.965 69.8438 143.297 69.707 143.727 69.5898C144.156 69.4727 144.488 69.3555 144.723 69.2383C144.957 69.082 145.074 69.0039 145.074 69.0039C145.074 68.9648 145.055 68.9453 145.016 68.9453C145.094 68.9453 145.328 69.0234 145.719 69.1797H145.953C146.266 69.1797 146.441 68.8867 146.48 68.3008C146.52 67.6758 146.91 67.168 147.652 66.7773L149.059 66.8945C149.137 66.8164 149.293 66.5039 149.527 65.957C149.801 65.3711 150.621 64.5312 151.988 63.4375C153.395 62.3047 154.469 61.7383 155.211 61.7383C155.836 61.7383 156.148 62.0117 156.148 62.5586C156.148 62.7148 156.07 63.125 155.914 63.7891C156.227 64.3359 156.383 64.8047 156.383 65.1953C156.383 65.9375 155.738 66.7383 154.449 67.5977C153.199 68.457 152.242 69.5312 151.578 70.8203L151.344 71.0547L150.172 70.9375C150.094 70.9375 149.898 71.25 149.586 71.875C149.312 72.4609 148.98 72.793 148.59 72.8711C148.199 72.9492 147.926 73.0664 147.77 73.2227L146.539 73.9844C146.305 74.1406 145.523 74.9414 144.195 76.3867C142.906 77.793 141.812 78.4961 140.914 78.4961C140.523 78.4961 139.82 78.3008 138.805 77.9102C137.789 77.4805 137.105 77.0508 136.754 76.6211C136.402 76.1914 135.895 75.7031 135.23 75.1562C134.605 74.6094 134.293 73.5742 134.293 72.0508C134.293 71.9727 134.391 71.8359 134.586 71.6406C134.82 71.4453 134.938 71.2891 134.938 71.1719C134.039 70 133.59 69.1602 133.59 68.6523C133.59 68.418 133.629 68.1641 133.707 67.8906C133.785 67.6172 133.824 67.3633 133.824 67.1289L133.707 65.0781L133.941 64.0234L133.824 63.3789L134.176 60.3906C134.176 59.9219 133.902 59.6875 133.355 59.6875C133.199 59.6875 132.984 59.8438 132.711 60.1562C132.438 60.4688 132.086 60.7227 131.656 60.918C131.266 61.0742 130.836 61.6211 130.367 62.5586C129.664 62.9492 129.176 63.3398 128.902 63.7305C128.668 64.082 128.473 64.2578 128.316 64.2578C128.238 64.2578 128.082 64.2188 127.848 64.1406C127.379 64.4531 127.145 64.8047 127.145 65.1953V65.4297L127.262 65.8984C127.262 66.25 126.969 66.582 126.383 66.8945C125.797 67.207 125.074 68.0078 124.215 69.2969C123.824 69.2969 123.551 69.3359 123.395 69.4141L122.691 70.8203C122.301 71.0547 121.93 71.4648 121.578 72.0508L120.875 72.4023C120.602 72.9102 120.328 73.3398 120.055 73.6914L119.703 74.3359C118.023 76.3281 116.852 77.3242 116.188 77.3242C115.523 77.3242 114.723 76.4453 113.785 74.6875C112.848 72.9297 112.379 71.5625 112.379 70.5859L112.613 68.418C112.613 68.3398 112.457 68.0273 112.145 67.4805V67.2461C112.145 67.168 112.301 66.7188 112.613 65.8984V64.1406C112.613 64.0625 112.574 63.9453 112.496 63.7891V63.4961C112.496 63.418 112.652 63.1055 112.965 62.5586L112.613 60.8594L112.848 59.9219L112.73 57.8711L112.965 56.0547C112.965 55.9375 112.848 55.7422 112.613 55.4688C112.418 55.1562 112.281 55 112.203 55C111.93 55 111.109 55.4492 109.742 56.3477C108.414 57.2461 107.516 57.9492 107.047 58.457C106.578 58.9648 105.953 59.5703 105.172 60.2734C104.352 60.6641 103.785 61.6602 103.473 63.2617C103.473 63.3398 103.395 63.3789 103.238 63.3789C103.238 63.3008 103.121 63.2227 102.887 63.1445H102.652C102.457 63.1445 101.852 63.9844 100.836 65.6641L100.602 65.8984L99.4883 65.6641C98.5508 65.6641 98.082 66.6602 98.082 68.6523C98.082 69.0039 97.8281 69.2383 97.3203 69.3555C96.8516 69.4727 96.4805 69.8047 96.207 70.3516C95.9336 70.8984 95.5625 71.4648 95.0938 72.0508C94.1953 72.4414 93.6875 72.7344 93.5703 72.9297C93.5703 72.9688 93.1406 73.5547 92.2812 74.6875C91.4219 75.8203 90.9531 76.4844 90.875 76.6797C90.7969 76.875 90.5234 77.1094 90.0547 77.3828C89.625 77.6172 89.4102 77.832 89.4102 78.0273L89.5859 79.0234C89.5859 79.6484 88.9805 79.9609 87.7695 79.9609C85.4258 79.9609 84.2539 77.5195 84.2539 72.6367C84.2539 72.0898 84.4883 71.4844 84.957 70.8203C85.4648 70.1172 85.9531 69.2773 86.4219 68.3008C87.1641 67.5586 88.043 66.4844 89.0586 65.0781C90.0742 63.6719 90.8359 62.7148 91.3438 62.207L92.1055 60.9766C92.1055 60.5078 92.2031 60.1562 92.3984 59.9219C92.5938 59.6875 92.6914 59.3945 92.6914 59.043C92.6914 58.418 92.5352 58.1055 92.2227 58.1055C91.4805 58.1055 90.8945 58.3008 90.4648 58.6914C90.0352 59.043 89.5469 59.2969 89 59.4531C88.4922 59.6094 88.1602 59.8828 88.0039 60.2734C87.457 60.5078 86.8711 61.0156 86.2461 61.7969C85.6602 62.5391 85.2695 63.0078 85.0742 63.2031C84.8789 63.3984 84.6836 63.6719 84.4883 64.0234C84.332 64.3359 84.1172 64.5117 83.8438 64.5508C83.5703 64.5898 83.3164 64.7266 83.082 64.9609C82.8477 65.1953 82.4766 65.3125 81.9688 65.3125C81.6172 65.3125 81.2852 64.9609 80.9727 64.2578C80.6992 63.5156 80.5625 63.0664 80.5625 62.9102C80.5625 60.0586 82.457 57.5977 86.2461 55.5273C86.7539 55.2539 87.1445 54.9805 87.418 54.707C87.7305 54.4336 88.043 54.2188 88.3555 54.0625L88.5898 53.6523C88.9023 53.1836 90.0742 52.5195 92.1055 51.6602H92.9258L96.8516 50.6641C98.5312 50.2734 99.3711 52.168 99.3711 56.3477L99.2539 57.4023L99.4883 57.8711C100.152 57.2461 100.816 56.6992 101.48 56.2305C102.184 55.7227 102.691 55.2734 103.004 54.8828C103.316 54.4922 103.922 54.1016 104.82 53.7109ZM208.707 31.2109L209.059 31.0938H210.641C211.109 31.0938 211.793 30.5469 212.691 29.4531C212.77 29.375 213.805 29.0039 215.797 28.3398L216.031 28.1055C216.578 27.6367 216.969 27.3242 217.203 27.168H218.316C218.395 27.168 218.707 26.9922 219.254 26.6406C219.801 26.25 220.953 25.8203 222.711 25.3516C224.508 24.8828 225.68 24.4922 226.227 24.1797C226.461 24.1016 227.32 23.9844 228.805 23.8281L230.445 23.5352L231.734 23.6523C233.805 23.6523 235.289 25.0195 236.188 27.7539C236.188 27.9102 236.285 28.1641 236.48 28.5156C236.676 28.8281 236.773 29.0625 236.773 29.2188C236.773 30.8594 235.973 32.5781 234.371 34.375L233.551 36.543C233.551 36.6211 233.336 36.9141 232.906 37.4219C232.516 37.9297 232.164 38.5352 231.852 39.2383C231.539 39.9023 230.699 40.918 229.332 42.2852C229.098 42.7539 228.766 43.4961 228.336 44.5117C227.906 45.4883 227.535 46.1328 227.223 46.4453C226.949 46.7578 226.188 47.9297 224.938 49.9609C223.727 51.9922 223.121 53.1836 223.121 53.5352C222.535 53.9648 222.125 54.6875 221.891 55.7031C221.695 56.7188 221.305 57.6758 220.719 58.5742L220.602 58.9844C221.852 58.5547 222.477 57.8711 222.477 56.9336C222.477 56.8164 222.809 56.5234 223.473 56.0547L223.941 55.2344C224.41 54.6875 224.82 54.375 225.172 54.2969C225.25 53.9844 225.66 53.5352 226.402 52.9492C227.145 52.3242 227.633 51.8945 227.867 51.6602C228.141 51.4258 228.57 51.1914 229.156 50.957C229.742 50.6836 230.406 49.707 231.148 48.0273C231.227 47.7148 231.52 47.4609 232.027 47.2656C232.574 47.0703 233.023 46.7578 233.375 46.3281C233.727 45.8594 234.02 45.5469 234.254 45.3906L234.723 44.6875C235.152 44.2969 235.445 44.0625 235.602 43.9844L238.473 40.4688C239.996 39.4922 240.836 38.7305 240.992 38.1836L241.461 38.0664H241.812C242.438 37.5586 242.848 37.207 243.043 37.0117C243.043 35.8398 243.473 35.0781 244.332 34.7266C245.23 34.3359 245.875 33.8867 246.266 33.3789C246.656 32.832 247.086 32.5586 247.555 32.5586C247.672 32.5586 247.887 32.6758 248.199 32.9102H248.316C248.434 32.9102 248.551 32.7148 248.668 32.3242V31.7383C248.668 31.0742 248.863 30.5273 249.254 30.0977C249.645 29.668 250.172 29.3945 250.836 29.2773C251.5 29.1211 252.145 28.6133 252.77 27.7539C253.395 26.8945 254.098 26.4453 254.879 26.4062C255.699 26.3672 256.246 26.0547 256.52 25.4688C256.793 24.8828 257.633 24.2578 259.039 23.5938C260.445 22.8906 261.324 22.5195 261.676 22.4805C262.027 22.4023 262.34 22.2852 262.613 22.1289C262.926 21.9727 263.238 21.8945 263.551 21.8945C263.941 21.8945 264.508 22.0117 265.25 22.2461L266.305 22.4805C267.203 22.8711 268.043 23.5938 268.824 24.6484L269.41 25.2344V25.4688L269.527 26.4648V26.9336C270.035 27.168 270.289 27.4023 270.289 27.6367L269.879 28.3984C269.723 28.6719 269.645 29.0039 269.645 29.3945C269.645 29.7461 269.625 30.1172 269.586 30.5078C269.547 30.8594 269.488 31.2109 269.41 31.5625C269.371 31.875 269.293 32.1875 269.176 32.5C269.098 32.7734 269 33.0469 268.883 33.3203C268.766 33.5547 268.629 33.7891 268.473 34.0234L268.004 35.8984C267.848 36.6406 267.418 37.5391 266.715 38.5938C266.051 39.6094 265.66 40.332 265.543 40.7617C265.426 41.1523 265.152 41.6992 264.723 42.4023L264.84 42.7539V43.5742C266.051 43.418 266.656 42.9492 266.656 42.168C266.656 41.3477 267.145 40.7422 268.121 40.3516L269.41 39.2969C270.426 37.5 271.676 36.3281 273.16 35.7812C273.16 35.1562 273.531 34.5117 274.273 33.8477L276.5 31.7383L278.082 30.8594C278.785 29.4141 279.586 28.5352 280.484 28.2227L281.773 27.4023C282.555 27.0117 282.984 26.6406 283.062 26.2891C283.18 25.8984 283.492 25.5078 284 25.1172C284.508 24.7266 285.25 24.082 286.227 23.1836L286.695 22.9492L287.281 22.3633C287.711 22.1289 288.199 21.9336 288.746 21.7773L289.215 21.543C290.191 20.8008 291.07 20.3125 291.852 20.0781C292.633 19.8047 293.512 19.375 294.488 18.7891L296.539 18.4961C297.008 18.3398 297.32 18.2617 297.477 18.2617C301.188 18.2617 303.043 20.3516 303.043 24.5312L302.926 25.4688L303.043 28.8672C302.066 30.4688 301.578 31.3086 301.578 31.3867L301.695 32.4414C301.695 32.5977 301.441 33.0664 300.934 33.8477C300.426 34.5898 300.113 35.0391 299.996 35.1953C299.918 35.3516 299.566 35.7617 298.941 36.4258L298.355 38.1836C298.16 38.5742 297.828 38.9453 297.359 39.2969V40C297.359 40.5859 296.598 41.4648 295.074 42.6367C294.879 43.6523 294.527 44.4141 294.02 44.9219C293.551 45.3906 293.18 45.8984 292.906 46.4453C292.672 46.9531 292.281 47.4414 291.734 47.9102C291.734 48.418 291.402 49.2773 290.738 50.4883C290.074 51.6992 289.547 52.4805 289.156 52.832C288.805 53.1445 288.434 53.7109 288.043 54.5312L287.516 54.7656C287.281 56.25 287.008 57.0898 286.695 57.2852L285.758 57.168V57.4023C285.758 57.4805 285.836 57.6172 285.992 57.8125C286.148 58.0078 286.227 58.2227 286.227 58.457C286.227 58.7305 286.109 58.9648 285.875 59.1602C285.641 59.3555 285.504 59.5508 285.465 59.7461C285.426 59.9414 285.328 60.1367 285.172 60.332C285.055 60.5273 284.977 60.918 284.938 61.5039C284.898 62.0508 284.605 62.8125 284.059 63.7891C283.512 64.7656 283.219 65.4297 283.18 65.7812C283.141 66.1328 283.082 66.4258 283.004 66.6602C282.926 66.8945 282.887 67.1289 282.887 67.3633C282.887 67.5977 282.789 68.2031 282.594 69.1797C283.336 70.9375 283.863 72.1289 284.176 72.7539C284.488 73.3789 284.645 73.7891 284.645 73.9844C284.645 75.5469 284.449 76.6016 284.059 77.1484C283.668 77.6562 282.711 77.9102 281.188 77.9102C280.211 77.9102 279.352 77.5781 278.609 76.9141C277.906 76.2109 277.281 75.8594 276.734 75.8594V74.8047L276.617 74.6875H275.68C275.602 74.6094 275.426 74.4727 275.152 74.2773C274.918 74.082 274.684 73.8086 274.449 73.457L274.098 73.1055C273.785 72.7148 273.512 72.0703 273.277 71.1719L272.926 70L273.043 69.0625L272.926 67.5977C272.926 67.207 272.965 66.8945 273.043 66.6602L273.16 65.0781C273.16 64.9219 273.238 64.5898 273.395 64.082C273.551 63.5352 273.648 62.9102 273.688 62.207C273.727 61.4648 273.902 60.8984 274.215 60.5078C274.527 60.1172 274.703 59.7852 274.742 59.5117C274.781 59.2383 274.879 59.0234 275.035 58.8672C275.23 58.6719 275.387 58.2227 275.504 57.5195C275.621 56.8164 276.031 56.25 276.734 55.8203C277.125 55.1172 277.457 54.4531 277.73 53.8281C278.551 52.6953 278.98 52.1289 279.02 52.1289H279.84C279.449 51.6602 279.254 51.3867 279.254 51.3086C279.254 50.2539 279.664 49.7266 280.484 49.7266C280.641 49.7266 280.836 49.7656 281.07 49.8438L281.305 49.375L281.07 48.3789C281.07 47.7148 281.578 47.0508 282.594 46.3867C282.594 45.2539 283.121 44.2383 284.176 43.3398L284.059 42.4023C284.293 42.168 284.625 41.6602 285.055 40.8789C285.484 40.0586 286.031 39.2383 286.695 38.418L288.512 35.6641L289.332 34.7266C289.332 34.7656 289.332 34.7852 289.332 34.7852C289.371 34.7461 289.41 34.668 289.449 34.5508C289.527 34.3945 289.605 34.1797 289.684 33.9062L290.035 33.0273L290.445 32.5586C291.461 32.2852 291.969 31.9336 291.969 31.5039C291.969 31.4258 291.812 31.1719 291.5 30.7422V30.5078C291.5 30.1953 291.734 29.8047 292.203 29.3359C292.672 28.8672 293.102 28.2227 293.492 27.4023C293.922 26.543 294.137 26.0156 294.137 25.8203C294.137 25.6641 294.059 25.5859 293.902 25.5859C292.652 25.5859 291.812 26.0352 291.383 26.9336C291.383 27.168 290.621 27.6367 289.098 28.3398L288.512 29.2188C288.043 29.6484 287.633 29.8633 287.281 29.8633C286.93 29.8633 286.461 30.0977 285.875 30.5664C285.328 30.9961 284.098 32.0117 282.184 33.6133C280.27 35.1758 278.863 36.4648 277.965 37.4805L276.617 38.418C276.07 38.6914 275.797 38.9062 275.797 39.0625C275.797 39.4531 275.465 39.9609 274.801 40.5859L274.098 41.4648C273.551 41.2695 273.238 41.1719 273.16 41.1719C272.73 41.1719 272.359 41.3867 272.047 41.8164C272.359 42.1289 272.516 42.3242 272.516 42.4023C272.516 43.0273 271.93 43.6719 270.758 44.3359L268.238 46.9727C268.16 47.0508 267.867 47.2656 267.359 47.6172C266.852 47.9688 266.461 48.418 266.188 48.9648C265.953 49.4727 265.27 50.3906 264.137 51.7188C263.004 53.0078 262.34 53.7109 262.145 53.8281C261.949 53.9062 261.715 54.1602 261.441 54.5898C261.168 55.0195 260.602 55.625 259.742 56.4062C258.883 57.1875 258.395 58.0469 258.277 58.9844C257.535 59.2578 257.164 59.4922 257.164 59.6875L256.812 60.2734L256.344 60.5078C256.266 60.6641 256.207 60.9375 256.168 61.3281C256.129 61.6797 255.348 62.3438 253.824 63.3203C252.301 64.2578 251.344 64.7266 250.953 64.7266C250.836 64.7266 250.66 64.8047 250.426 64.9609C250.191 65.1172 250.035 65.1953 249.957 65.1953C249.84 65.1953 249.312 64.9609 248.375 64.4922C247.477 64.0234 246.812 62.9297 246.383 61.2109L246.852 59.6875L246.617 58.457C246.617 58.2227 246.793 57.9102 247.145 57.5195C247.535 57.1289 247.73 56.6406 247.73 56.0547C248.355 54.6484 248.824 53.6523 249.137 53.0664L249.254 52.1289C249.41 51.7383 249.664 51.3086 250.016 50.8398C250.406 50.332 250.641 49.7852 250.719 49.1992C250.797 48.5742 251.051 48.1836 251.48 48.0273C251.91 47.8711 253.492 45.5078 256.227 40.9375V40.1172L257.926 37.1875C258.434 36.3281 259.059 35.3516 259.801 34.2578L260.328 32.9102C259.117 32.4414 258.473 32.207 258.395 32.207C258.16 32.207 257.867 32.3633 257.516 32.6758C257.516 33.3398 256.363 34.0234 254.059 34.7266C253.59 34.9609 252.984 35.5273 252.242 36.4258L250.602 37.3633C250.367 37.5195 249.996 37.832 249.488 38.3008L248.668 39.0625C247.691 39.2969 246.852 39.8438 246.148 40.7031L244.566 41.8164C244.098 42.207 243.785 42.5 243.629 42.6953C243.473 42.8906 242.75 43.3203 241.461 43.9844L240.523 44.9219L239.645 45.3906C239.02 46.0547 238.551 46.6211 238.238 47.0898C237.926 47.5586 237.516 47.832 237.008 47.9102L235.719 48.3789C235.484 49.3945 234.762 50.3711 233.551 51.3086L231.852 53.418C231.539 53.6914 231.266 53.9062 231.031 54.0625C230.875 54.4531 230.602 54.7266 230.211 54.8828C229.703 55.5078 229.371 55.9375 229.215 56.1719L228.512 56.6992C227.457 57.0898 226.93 57.4023 226.93 57.6367L227.047 58.6914C227.047 59.1211 226.578 59.5312 225.641 59.9219C225.25 60.1172 225.016 60.4297 224.938 60.8594C224.898 61.2891 224.762 61.7383 224.527 62.207H223.473C223.355 62.207 222.984 62.4023 222.359 62.793C222.281 62.793 222.203 62.832 222.125 62.9102L222.359 64.2578C222.359 64.7266 222.047 65.2734 221.422 65.8984C220.797 66.4844 220.309 67.0117 219.957 67.4805C219.645 67.9492 219.41 68.1836 219.254 68.1836H218.902L218.551 68.418C218.59 69.1602 218.102 69.9609 217.086 70.8203L216.383 71.6992C216.148 71.8945 215.484 72.8711 214.391 74.6289C213.297 76.3867 212.262 77.8125 211.285 78.9062C210.309 80 209.41 80.7422 208.59 81.1328C207.77 81.4844 206.891 81.8555 205.953 82.2461L203.551 81.7773C203.316 81.3477 202.965 80.9961 202.496 80.7227C202.066 80.4492 201.852 80.1562 201.852 79.8438L201.148 77.793C201.148 77.2461 201.363 76.582 201.793 75.8008C202.223 74.9805 202.477 74.3555 202.555 73.9258C202.672 73.457 202.906 72.8516 203.258 72.1094C203.609 71.3281 203.785 70.8984 203.785 70.8203C203.785 69.7656 203.941 69.1211 204.254 68.8867C204.605 68.6133 205.367 68.0273 206.539 67.1289C206.617 67.1289 206.656 67.0508 206.656 66.8945V66.7773L206.539 65.7812C207.438 64.2578 208.004 63.4961 208.238 63.4961C208.316 63.4961 208.473 63.5352 208.707 63.6133L208.355 62.3242C208.355 62.168 208.57 61.9141 209 61.5625C209.43 61.2109 209.762 60.8203 209.996 60.3906L209.762 59.6875V59.4531C209.762 58.7109 210.25 57.9492 211.227 57.168C211.383 56.8555 211.695 56.0547 212.164 54.7656L213.688 52.0703C214.078 51.3281 214.488 50.8398 214.918 50.6055C215.348 50.332 215.582 50.0195 215.621 49.668C215.66 49.3164 215.797 48.9258 216.031 48.4961C216.031 48.6914 216.051 48.7109 216.09 48.5547C216.168 48.3594 216.266 47.9688 216.383 47.3828C216.539 46.7969 216.988 46.3281 217.73 45.9766C218.629 43.6719 219.332 42.5195 219.84 42.5195C219.996 42.5195 220.211 42.5977 220.484 42.7539H220.719C221.344 42.7539 221.656 42.5195 221.656 42.0508C221.656 41.8945 221.578 41.8164 221.422 41.8164C221.07 42.207 220.758 42.4023 220.484 42.4023C220.211 42.4023 220.074 42.3242 220.074 42.168C220.074 42.0898 220.133 42.0117 220.25 41.9336L221.539 39.2969L221.656 38.1836C221.812 37.9492 222.125 37.5977 222.594 37.1289L223.59 35.7812V35.1953C223.59 35.1172 223.766 34.7266 224.117 34.0234C224.469 33.2812 224.723 32.5586 224.879 31.8555L225.875 30.3906C226.031 29.9219 226.109 29.4922 226.109 29.1016C226.109 28.5156 226.031 28.2227 225.875 28.2227L222.477 28.8672C220.641 29.8047 219.332 30.5469 218.551 31.0938L217.203 31.3867C217.125 31.3867 216.598 31.6602 215.621 32.207C214.684 32.7148 213.844 33.0078 213.102 33.0859C212.398 33.125 211.773 33.3984 211.227 33.9062L210.992 34.0234H209.879C209.449 34.5312 209.156 34.9219 209 35.1953C208.844 35.4297 208.707 35.5469 208.59 35.5469C204.645 38.1641 202.145 39.7461 201.09 40.293C200.035 40.8398 199.234 41.3477 198.688 41.8164C198.141 42.2461 197.672 42.5586 197.281 42.7539V43.457C197.281 44.1211 196.793 44.8828 195.816 45.7422C194.879 46.5625 194.059 46.9727 193.355 46.9727C193.121 46.9727 192.75 46.8555 192.242 46.6211C191.773 46.3477 191.227 46.1719 190.602 46.0938C190.016 46.0156 189.723 45.2734 189.723 43.8672C189.723 41.875 191.363 40.0586 194.645 38.418C195.152 38.1836 195.621 37.9102 196.051 37.5977C196.48 37.2852 198.219 36.5234 201.266 35.3125L202.965 34.4922C203.355 34.1016 204 33.75 204.898 33.4375C205.836 33.0859 206.559 32.793 207.066 32.5586C207.613 32.3242 208.043 32.168 208.355 32.0898L208.707 31.2109ZM263.668 45.3906L264.254 44.3359V44.2188C264.254 44.1406 264.176 44.1016 264.02 44.1016C263.629 44.1016 263.316 44.4922 263.082 45.2734C263.16 45.5078 263.238 45.625 263.316 45.625C263.473 45.625 263.59 45.5469 263.668 45.3906ZM327.359 74.2188L324.605 76.6211C324.449 76.4648 324.293 76.3867 324.137 76.3867C323.746 76.3867 323.258 76.7383 322.672 77.4414C322.125 78.1445 321.734 78.4961 321.5 78.4961L320.914 78.3789C319.938 79.1211 319.234 79.5508 318.805 79.668C318.375 79.7852 317.848 80 317.223 80.3125C316.637 80.625 316.09 80.8008 315.582 80.8398C315.113 80.8789 314.723 81.0547 314.41 81.3672C314.098 81.6406 313.336 81.7773 312.125 81.7773L311.188 81.6602C310.68 81.8945 310.348 82.0117 310.191 82.0117C309.879 82.0117 309.547 81.8555 309.195 81.543C308.844 81.1914 308.453 80.9961 308.023 80.957C307.633 80.918 307.223 80.6445 306.793 80.1367C306.363 79.6289 305.953 79.2773 305.562 79.082C305.211 78.8867 304.918 78.6133 304.684 78.2617L303.863 77.5586C303.199 77.0898 302.555 76.2305 301.93 74.9805C301.305 73.7305 300.992 72.7539 300.992 72.0508V71.8164L301.109 70.7031L300.992 69.4141C301.148 69.2578 301.344 68.9258 301.578 68.418V66.543L302.984 61.8555C303.062 61.6602 302.906 61.4062 302.516 61.0938C302.125 61.6797 301.734 62.0312 301.344 62.1484C300.953 62.2656 300.68 62.5391 300.523 62.9688C300.406 63.3984 300.191 63.6133 299.879 63.6133L299.176 63.3789C299.098 63.457 298.922 63.8672 298.648 64.6094C298.375 65.3125 297.906 65.6641 297.242 65.6641C296.539 65.6641 296.188 65.3906 296.188 64.8438L296.305 63.7891L295.953 62.3242C295.953 62.0117 296.266 61.4062 296.891 60.5078C297.516 59.5703 298.082 59.043 298.59 58.9258C299.137 58.7695 299.586 58.3984 299.938 57.8125C300.328 57.1875 301.148 56.4453 302.398 55.5859C303.102 55.4297 303.707 54.9219 304.215 54.0625C304.762 53.6328 305.465 53.2812 306.324 53.0078C307.223 52.7344 307.887 52.3438 308.316 51.8359C308.785 51.2891 310.113 50.4688 312.301 49.375C314.527 48.2422 316.148 47.6758 317.164 47.6758C317.477 47.6758 317.906 47.5977 318.453 47.4414C319 47.2461 319.508 47.0898 319.977 46.9727C320.445 46.8164 320.934 46.6016 321.441 46.3281C321.949 46.0156 322.359 45.8594 322.672 45.8594L324.371 46.4453C325.621 46.7969 326.383 47.0508 326.656 47.207C326.734 47.2852 327.125 47.4609 327.828 47.7344C328.57 47.9688 329.312 48.3008 330.055 48.7305C330.836 49.1602 331.227 49.9609 331.227 51.1328C330.562 52.1094 330.23 52.6367 330.23 52.7148C330.23 52.8711 330.68 53.1055 331.578 53.418C331.891 54.0039 332.359 54.7656 332.984 55.7031L333.629 57.7539L333.746 62.5586L333.629 63.0273C333.199 63.418 332.984 63.6719 332.984 63.7891L333.16 64.9609L332.691 66.6016C332.574 67.1094 332.379 67.4414 332.105 67.5977C331.832 67.7539 331.656 67.9492 331.578 68.1836L331.227 68.6523C331.148 68.7695 330.973 69.1211 330.699 69.707C330.465 70.2539 330.191 70.6836 329.879 70.9961C329.566 71.3086 329.371 71.6797 329.293 72.1094C329.215 72.5391 329.02 72.8516 328.707 73.0469C328.395 73.2422 328.16 73.457 328.004 73.6914C327.887 73.8867 327.672 74.0625 327.359 74.2188ZM309.137 75.7422L309.371 77.0898L309.488 77.207H310.426L310.719 77.3242C311.5 77.4805 312.086 77.5586 312.477 77.5586C313.688 77.5586 314.645 77.2656 315.348 76.6797C316.09 76.0547 316.676 75.7422 317.105 75.7422C317.535 75.7422 317.887 75.4492 318.16 74.8633C318.473 74.2773 318.668 73.9844 318.746 73.9844H319.566L319.801 73.8672C319.801 72.9688 320.191 72.3242 320.973 71.9336C321.793 71.543 322.359 71.0352 322.672 70.4102C323.023 69.7461 323.414 69.2578 323.844 68.9453C324.273 68.5938 324.566 68.1445 324.723 67.5977L325.191 66.8945C325.348 66.7383 325.426 66.4453 325.426 66.0156L326.539 63.9062C326.773 62.9297 326.891 62.168 326.891 61.6211C326.891 60.8008 326.461 60.1562 325.602 59.6875C324.781 59.2188 324.371 58.3008 324.371 56.9336C324.371 56.0352 324.82 55.2148 325.719 54.4727C326.656 53.6914 327.125 53.2227 327.125 53.0664C327.125 52.832 327.008 52.7148 326.773 52.7148C326.656 52.7148 326.207 52.8711 325.426 53.1836C325.152 53.7305 323.766 54.4531 321.266 55.3516C320.445 54.9609 319.996 54.7656 319.918 54.7656C319.684 54.7656 319.449 55 319.215 55.4688C318.98 55.9375 318.746 56.2695 318.512 56.4648H317.75C317.672 56.4648 317.418 56.7188 316.988 57.2266C316.559 57.7344 316.012 57.9883 315.348 57.9883L314.645 58.6914C314.684 59.3164 314.293 59.9609 313.473 60.625L312.828 61.3867C312.438 61.8555 311.93 62.4023 311.305 63.0273L310.25 65.6641C309.82 66.6797 309.605 67.4414 309.605 67.9492C309.488 68.1836 309.215 68.4375 308.785 68.7109C308.395 68.9453 308.199 69.2578 308.199 69.6484C308.199 69.7266 308.336 69.9219 308.609 70.2344C308.883 70.5469 309.02 70.7812 309.02 70.9375L308.785 71.6992L308.551 73.8672L309.137 75.7422ZM357.301 27.4023L358.121 27.168L358.707 26.582H358.824L359.352 26.8164H359.469C360.406 26.8164 361.227 26.6406 361.93 26.2891C362.672 25.8984 363.277 25.625 363.746 25.4688C364.254 25.3125 364.566 25.1953 364.684 25.1172C364.801 25.0391 364.898 25 364.977 25L365.914 25.1172C366.227 25.1172 366.637 24.5703 367.145 23.4766C367.691 22.3438 368.297 21.5234 368.961 21.0156C369.625 20.5078 370.289 19.5508 370.953 18.1445C371.109 17.9492 371.285 17.6563 371.48 17.2656C371.676 16.8359 371.832 16.6211 371.949 16.6211C372.535 16.6211 373.004 16.25 373.355 15.5078C374.527 14.1406 375.484 13.457 376.227 13.457C377.203 13.457 377.887 14.3945 378.277 16.2695L378.863 18.4961C378.863 18.5352 378.766 18.8281 378.57 19.375C378.375 19.8828 378.277 20.4102 378.277 20.957C378.316 21.4648 378.297 21.8164 378.219 22.0117C378.18 22.168 378.16 22.3633 378.16 22.5977C378.16 22.9102 378.492 23.0664 379.156 23.0664C379.391 23.0664 379.82 22.9102 380.445 22.5977L380.797 22.4805C381.188 22.7148 381.52 22.832 381.793 22.832C381.871 22.832 382.418 22.6367 383.434 22.2461C384.488 21.8555 385.152 21.6406 385.426 21.6016C385.699 21.5625 386.168 21.4063 386.832 21.1328H387.535L388.004 21.3086C388.16 21.3086 388.473 21.1523 388.941 20.8398C389.449 20.4883 390.387 20.2734 391.754 20.1953L392.574 19.8438H392.809C394.098 19.8438 394.742 20.4102 394.742 21.543C394.742 21.7773 394.547 22.1875 394.156 22.7734C393.805 23.3594 393.512 24.0234 393.277 24.7656L390.582 28.1641C389.684 29.3359 388.785 29.9219 387.887 29.9219C387.73 29.9219 387.242 29.3945 386.422 28.3398C386.422 28.2617 386.344 28.2227 386.188 28.2227C385.797 28.2227 385.387 28.3008 384.957 28.457C384.527 28.6133 384.176 28.6914 383.902 28.6914C383.785 28.6914 382.75 28.9844 380.797 29.5703L379.391 29.8047C379.234 29.8047 378.863 29.8828 378.277 30.0391L375.289 30.625C374.273 31.1328 373.473 32.0898 372.887 33.4961C372.887 33.5742 372.691 33.75 372.301 34.0234L369.664 38.8281C368.805 39.0625 368.238 39.5703 367.965 40.3516L367.73 40.7031C367.301 40.7812 366.91 41.0352 366.559 41.4648C366.207 41.8555 365.875 42.168 365.562 42.4023L364.508 43.9844C364.078 44.5312 363.648 45.1367 363.219 45.8008C362.789 46.4258 362.477 47.1094 362.281 47.8516C362.086 48.5547 361.93 48.9648 361.812 49.082C361.695 49.1992 361.637 49.4141 361.637 49.7266L361.461 50.1953C360.992 50.6641 360.758 51.1914 360.758 51.7773L360.992 52.7148C360.445 54.5898 360.172 55.5859 360.172 55.7031C360.172 55.7812 360.211 55.9961 360.289 56.3477V56.6992C360.289 57.5586 359.977 58.6328 359.352 59.9219L359.469 60.8594L359.117 63.4961C359.117 63.8477 359.234 64.4922 359.469 65.4297C359.312 65.5859 359.234 65.7031 359.234 65.7812C359.234 66.875 359.801 68.0859 360.934 69.4141C362.105 70.7031 362.691 72.7344 362.691 75.5078C362.691 75.7422 362.633 76.0938 362.516 76.5625C362.398 76.9922 362.32 77.4805 362.281 78.0273C362.242 78.5352 361.93 79.043 361.344 79.5508C360.797 80.0586 360.328 80.3125 359.938 80.3125C357.867 80.3125 356.324 78.8086 355.309 75.8008C354.293 72.793 353.785 70.8594 353.785 70L353.902 67.7148L353.551 66.543L353.902 61.3867L353.668 60.1562L355.016 55.1172V53.3008C355.016 53.2227 355.289 52.9102 355.836 52.3633C355.836 52.2852 355.758 52.2461 355.602 52.2461C355.367 52.2461 355.055 52.4805 354.664 52.9492C354.273 53.418 353.785 53.8672 353.199 54.2969L352.73 55.1172C352.652 55.0391 352.496 54.9609 352.262 54.8828C352.066 54.9609 351.422 55.8789 350.328 57.6367C349.508 57.7539 348.863 58.2227 348.395 59.043C347.926 59.8633 347.281 60.2734 346.461 60.2734L346.227 60.3906C346.07 61.5234 345.523 62.0898 344.586 62.0898L344.352 62.207C343.766 63.5352 343.16 64.1797 342.535 64.1406C342.145 65.3125 341.188 66.1133 339.664 66.543C339.43 67.0117 339.098 67.3633 338.668 67.5977C338.199 67.832 337.867 68.0469 337.672 68.2422C337.477 68.4375 337.301 68.5352 337.145 68.5352C336.637 68.5352 336.383 67.9883 336.383 66.8945C336.383 66.582 336.52 66.25 336.793 65.8984C337.027 65.5078 337.145 65.2344 337.145 65.0781C337.145 65 336.949 64.7656 336.559 64.375C336.559 63.1641 336.871 62.4023 337.496 62.0898C338.121 61.7773 338.59 61.3281 338.902 60.7422C339.098 60.2734 339.488 59.9414 340.074 59.7461C340.66 59.5508 340.953 59.2969 340.953 58.9844C340.953 58.7109 341.461 58.1641 342.477 57.3438C343.492 56.5234 344.234 55.8203 344.703 55.2344C345.172 54.6094 345.562 54.2969 345.875 54.2969L346.109 54.0625C346.188 53.0859 346.559 52.5977 347.223 52.5977L347.809 52.2461L347.926 51.7773L348.277 51.543H348.746L349.039 51.3086C349.117 50.332 349.566 49.5703 350.387 49.0234C351.246 48.4766 352.789 46.9531 355.016 44.4531C357.242 41.9141 358.492 40.293 358.766 39.5898C359.039 38.8867 359.527 37.9492 360.23 36.7773C360.973 35.5664 361.383 34.4336 361.461 33.3789C361.383 33.2227 361.266 33.0664 361.109 32.9102L358.59 34.1406C358.59 34.0234 358.199 33.8477 357.418 33.6133C356.832 33.9648 356.402 34.3164 356.129 34.668C355.855 35.0195 355.641 35.1953 355.484 35.1953L354.664 35.0781L352.086 35.3711C349.781 35.5664 348.043 36.0352 346.871 36.7773L344.469 37.4805H343.941C343.629 37.4805 343.16 37.6758 342.535 38.0664L341.188 37.9492C339.938 38.6133 339.02 38.9453 338.434 38.9453C338.355 38.9453 338.121 38.9062 337.73 38.8281L331.754 40.4688C331.285 40.625 330.23 41.4258 328.59 42.8711L328.121 42.9883C327.73 42.9883 327.281 42.5586 326.773 41.6992C326.227 40.8008 325.953 40 325.953 39.2969C325.953 35.4297 329.273 33.1836 335.914 32.5586L338.316 31.6211H338.434L339.078 31.8555H339.312C339.547 31.8555 339.918 31.7188 340.426 31.4453C340.934 31.1328 342.066 30.7617 343.824 30.332L346.227 29.6875L346.988 29.8047C347.379 29.8047 347.809 29.6484 348.277 29.3359C348.785 29.0234 349.527 28.8086 350.504 28.6914C351.52 28.5352 352.223 28.3789 352.613 28.2227L353.551 27.9883C353.707 27.9883 354.02 27.8516 354.488 27.5781C354.996 27.3047 355.641 27.168 356.422 27.168C356.539 27.168 356.832 27.2461 357.301 27.4023ZM404.117 74.2188L401.363 76.6211C401.207 76.4648 401.051 76.3867 400.895 76.3867C400.504 76.3867 400.016 76.7383 399.43 77.4414C398.883 78.1445 398.492 78.4961 398.258 78.4961L397.672 78.3789C396.695 79.1211 395.992 79.5508 395.562 79.668C395.133 79.7852 394.605 80 393.98 80.3125C393.395 80.625 392.848 80.8008 392.34 80.8398C391.871 80.8789 391.48 81.0547 391.168 81.3672C390.855 81.6406 390.094 81.7773 388.883 81.7773L387.945 81.6602C387.438 81.8945 387.105 82.0117 386.949 82.0117C386.637 82.0117 386.305 81.8555 385.953 81.543C385.602 81.1914 385.211 80.9961 384.781 80.957C384.391 80.918 383.98 80.6445 383.551 80.1367C383.121 79.6289 382.711 79.2773 382.32 79.082C381.969 78.8867 381.676 78.6133 381.441 78.2617L380.621 77.5586C379.957 77.0898 379.312 76.2305 378.688 74.9805C378.062 73.7305 377.75 72.7539 377.75 72.0508V71.8164L377.867 70.7031L377.75 69.4141C377.906 69.2578 378.102 68.9258 378.336 68.418V66.543L379.742 61.8555C379.82 61.6602 379.664 61.4062 379.273 61.0938C378.883 61.6797 378.492 62.0312 378.102 62.1484C377.711 62.2656 377.438 62.5391 377.281 62.9688C377.164 63.3984 376.949 63.6133 376.637 63.6133L375.934 63.3789C375.855 63.457 375.68 63.8672 375.406 64.6094C375.133 65.3125 374.664 65.6641 374 65.6641C373.297 65.6641 372.945 65.3906 372.945 64.8438L373.062 63.7891L372.711 62.3242C372.711 62.0117 373.023 61.4062 373.648 60.5078C374.273 59.5703 374.84 59.043 375.348 58.9258C375.895 58.7695 376.344 58.3984 376.695 57.8125C377.086 57.1875 377.906 56.4453 379.156 55.5859C379.859 55.4297 380.465 54.9219 380.973 54.0625C381.52 53.6328 382.223 53.2812 383.082 53.0078C383.98 52.7344 384.645 52.3438 385.074 51.8359C385.543 51.2891 386.871 50.4688 389.059 49.375C391.285 48.2422 392.906 47.6758 393.922 47.6758C394.234 47.6758 394.664 47.5977 395.211 47.4414C395.758 47.2461 396.266 47.0898 396.734 46.9727C397.203 46.8164 397.691 46.6016 398.199 46.3281C398.707 46.0156 399.117 45.8594 399.43 45.8594L401.129 46.4453C402.379 46.7969 403.141 47.0508 403.414 47.207C403.492 47.2852 403.883 47.4609 404.586 47.7344C405.328 47.9688 406.07 48.3008 406.812 48.7305C407.594 49.1602 407.984 49.9609 407.984 51.1328C407.32 52.1094 406.988 52.6367 406.988 52.7148C406.988 52.8711 407.438 53.1055 408.336 53.418C408.648 54.0039 409.117 54.7656 409.742 55.7031L410.387 57.7539L410.504 62.5586L410.387 63.0273C409.957 63.418 409.742 63.6719 409.742 63.7891L409.918 64.9609L409.449 66.6016C409.332 67.1094 409.137 67.4414 408.863 67.5977C408.59 67.7539 408.414 67.9492 408.336 68.1836L407.984 68.6523C407.906 68.7695 407.73 69.1211 407.457 69.707C407.223 70.2539 406.949 70.6836 406.637 70.9961C406.324 71.3086 406.129 71.6797 406.051 72.1094C405.973 72.5391 405.777 72.8516 405.465 73.0469C405.152 73.2422 404.918 73.457 404.762 73.6914C404.645 73.8867 404.43 74.0625 404.117 74.2188ZM385.895 75.7422L386.129 77.0898L386.246 77.207H387.184L387.477 77.3242C388.258 77.4805 388.844 77.5586 389.234 77.5586C390.445 77.5586 391.402 77.2656 392.105 76.6797C392.848 76.0547 393.434 75.7422 393.863 75.7422C394.293 75.7422 394.645 75.4492 394.918 74.8633C395.23 74.2773 395.426 73.9844 395.504 73.9844H396.324L396.559 73.8672C396.559 72.9688 396.949 72.3242 397.73 71.9336C398.551 71.543 399.117 71.0352 399.43 70.4102C399.781 69.7461 400.172 69.2578 400.602 68.9453C401.031 68.5938 401.324 68.1445 401.48 67.5977L401.949 66.8945C402.105 66.7383 402.184 66.4453 402.184 66.0156L403.297 63.9062C403.531 62.9297 403.648 62.168 403.648 61.6211C403.648 60.8008 403.219 60.1562 402.359 59.6875C401.539 59.2188 401.129 58.3008 401.129 56.9336C401.129 56.0352 401.578 55.2148 402.477 54.4727C403.414 53.6914 403.883 53.2227 403.883 53.0664C403.883 52.832 403.766 52.7148 403.531 52.7148C403.414 52.7148 402.965 52.8711 402.184 53.1836C401.91 53.7305 400.523 54.4531 398.023 55.3516C397.203 54.9609 396.754 54.7656 396.676 54.7656C396.441 54.7656 396.207 55 395.973 55.4688C395.738 55.9375 395.504 56.2695 395.27 56.4648H394.508C394.43 56.4648 394.176 56.7188 393.746 57.2266C393.316 57.7344 392.77 57.9883 392.105 57.9883L391.402 58.6914C391.441 59.3164 391.051 59.9609 390.23 60.625L389.586 61.3867C389.195 61.8555 388.688 62.4023 388.062 63.0273L387.008 65.6641C386.578 66.6797 386.363 67.4414 386.363 67.9492C386.246 68.1836 385.973 68.4375 385.543 68.7109C385.152 68.9453 384.957 69.2578 384.957 69.6484C384.957 69.7266 385.094 69.9219 385.367 70.2344C385.641 70.5469 385.777 70.7812 385.777 70.9375L385.543 71.6992L385.309 73.8672L385.895 75.7422ZM428.141 51.8945L429.02 51.6602L429.371 50.8984C431.285 49.7656 432.652 48.6914 433.473 47.6758C433.551 47.5195 433.727 47.3633 434 47.207C434.273 47.0508 434.566 46.7773 434.879 46.3867C436.324 44.9414 438.043 44.2188 440.035 44.2188C442.379 44.2188 443.629 45.6445 443.785 48.4961L444.137 49.375C444.449 49.9219 444.879 51.0352 445.426 52.7148C446.012 54.3945 446.305 55.4297 446.305 55.8203C446.305 56.875 445.973 57.9297 445.309 58.9844C444.762 59.2578 443.453 60.7227 441.383 63.3789L440.797 63.7891C440.484 64.4922 440.074 65.1953 439.566 65.8984C438.785 66.1719 438.395 66.4648 438.395 66.7773V67.832C438.395 67.9102 438.297 68.0664 438.102 68.3008C437.945 68.5352 437.711 68.9844 437.398 69.6484L436.93 70.3516C436.773 70.5078 436.617 70.8398 436.461 71.3477C436.305 71.8164 436.07 72.2461 435.758 72.6367C435.484 73.0273 435.348 73.3398 435.348 73.5742C435.348 74.1602 436.109 74.4531 437.633 74.4531C437.711 74.4531 438.004 74.3359 438.512 74.1016L439.332 74.3359C439.41 74.3359 439.605 74.2188 439.918 73.9844C440.23 73.7109 440.699 73.4961 441.324 73.3398C441.988 73.1836 442.555 72.9492 443.023 72.6367C443.531 72.3242 444.117 72.0508 444.781 71.8164C445.484 71.582 446.148 71.2109 446.773 70.7031C447.398 70.1562 448.004 69.7656 448.59 69.5312C449.215 69.2969 449.781 68.9453 450.289 68.4766C450.836 67.9688 451.441 67.5 452.105 67.0703C452.77 66.6406 453.824 65.7031 455.27 64.2578C456.207 63.5156 456.852 63.1055 457.203 63.0273C457.281 63.0273 457.613 62.5195 458.199 61.5039C458.824 60.4492 459.527 59.9219 460.309 59.9219C461.129 59.9219 461.539 60.3125 461.539 61.0938C461.539 61.5234 461.344 61.9336 460.953 62.3242V62.6758L461.07 63.6133C461.148 63.7305 461.188 63.9062 461.188 64.1406C461.188 64.2969 461.031 64.5312 460.719 64.8438C460.445 65.1562 460.25 65.5664 460.133 66.0742C460.016 66.543 459.645 66.8555 459.02 67.0117C458.785 67.8711 458.473 68.3594 458.082 68.4766C457.73 68.5938 457.223 68.9844 456.559 69.6484C455.895 70.3125 454.957 71.0938 453.746 71.9922C452.535 72.8906 451.695 73.5938 451.227 74.1016C450.797 74.5703 450.504 74.8047 450.348 74.8047C450.27 74.8047 450.113 74.7266 449.879 74.5703C449.645 74.4141 449.488 74.3359 449.41 74.3359C449.176 74.3359 449.02 74.6094 448.941 75.1562L448.707 75.7422C448.199 76.0547 447.906 76.2109 447.828 76.2109L447.477 76.0938H447.242C446.773 76.0938 446.539 76.2695 446.539 76.6211L446.891 77.207V77.3242C446.891 77.8711 446.578 78.1445 445.953 78.1445C445.523 78.1445 444.273 78.8672 442.203 80.3125L440.504 80.6641L439.098 81.4258C438.629 81.1523 438.336 81.0156 438.219 81.0156L437.281 81.3086L435.582 81.4258C435.543 81.4258 434.82 81.0352 433.414 80.2539C432.047 79.4727 431.227 78.6914 430.953 77.9102C430.68 77.1289 430.328 76.3477 429.898 75.5664C429.469 74.7461 429.254 74.1797 429.254 73.8672C429.254 71.9922 429.41 70.6641 429.723 69.8828C430.035 69.0625 430.23 68.457 430.309 68.0664C430.387 67.6758 430.602 67.2656 430.953 66.8359C431.344 66.3672 431.656 65.625 431.891 64.6094C433.023 62.3438 433.805 60.957 434.234 60.4492C434.664 59.9414 434.996 59.3164 435.23 58.5742L435.992 57.5195C436.07 57.4414 436.188 57.1484 436.344 56.6406C436.5 56.0938 436.695 55.7812 436.93 55.7031C437.242 55.1562 437.398 54.8047 437.398 54.6484C437.398 53.5156 436.891 52.9492 435.875 52.9492C435.68 52.9492 435.465 53.1641 435.23 53.5938C434.996 53.9844 434.449 54.375 433.59 54.7656C432.77 55.1562 432.262 55.4492 432.066 55.6445C431.871 55.8398 431.441 56.0938 430.777 56.4062C430.152 56.6797 429.605 57.1289 429.137 57.7539L428.141 58.2227C427.828 58.9648 427.555 59.375 427.32 59.4531C427.086 59.5312 426.363 59.7266 425.152 60.0391C425.074 60.0781 424.879 60.3125 424.566 60.7422C424.254 61.1719 423.805 61.3867 423.219 61.3867C422.75 61.8555 422.281 62.4023 421.812 63.0273C421.656 63.0273 421.246 63.1836 420.582 63.4961L419.41 63.7891C419.098 64.0234 418.746 64.3945 418.355 64.9023C418.004 65.4102 417.32 65.6641 416.305 65.6641C415.719 65.6641 415.426 65.1953 415.426 64.2578C415.426 62.3438 416.09 60.8203 417.418 59.6875C418.785 58.5547 419.781 57.9492 420.406 57.8711C421.031 57.793 421.422 57.5586 421.578 57.168C421.734 56.7773 422.105 56.4648 422.691 56.2305C423.316 55.957 424.02 55.3906 424.801 54.5312C425.621 53.6328 426.5 53.0273 427.438 52.7148L428.141 51.8945ZM469.508 52.3633L470.328 50.8984C470.562 50.5469 470.855 50.1953 471.207 49.8438C471.598 49.4531 472.008 48.4961 472.438 46.9727C472.867 45.4102 473.336 44.3359 473.844 43.75C474.391 43.1641 475.172 42.8711 476.188 42.8711C476.773 42.8711 477.535 43.1641 478.473 43.75C479.449 44.2969 480.387 45.9961 481.285 48.8477C482.223 51.6992 482.691 53.7109 482.691 54.8828C482.691 55.3516 482.828 55.957 483.102 56.6992C483.375 57.4023 483.551 57.9492 483.629 58.3398C483.316 59.0039 483.16 59.375 483.16 59.4531L483.277 61.8555L482.574 63.7891V65.1953C482.105 65.9766 481.871 66.4648 481.871 66.6602C481.871 66.8945 481.949 67.1289 482.105 67.3633C483.941 66.582 485.055 65.957 485.445 65.4883C485.836 64.9805 486.207 64.668 486.559 64.5508C486.949 64.4336 487.574 63.9258 488.434 63.0273L489.547 62.4414C489.938 61.9727 490.27 61.5625 490.543 61.2109C490.816 60.8203 491.129 60.5469 491.48 60.3906C491.871 60.2344 492.32 59.9609 492.828 59.5703C493.336 59.1797 494.078 58.7305 495.055 58.2227L495.641 57.5195C496.227 56.8555 496.91 56.3281 497.691 55.9375C498.512 55.5469 498.961 55.3516 499.039 55.3516C499.312 55.3516 499.586 55.7227 499.859 56.4648C500.172 57.168 500.328 57.8711 500.328 58.5742C500.328 59.2383 499.938 59.9023 499.156 60.5664C498.414 61.1914 497.906 61.6602 497.633 61.9727C497.359 62.2852 496.734 62.5586 495.758 62.793C495.68 62.832 495.035 63.6328 493.824 65.1953L492.652 65.8984L492.066 66.6602C491.988 66.8164 491.461 66.9727 490.484 67.1289C490.445 67.1289 490.348 67.3242 490.191 67.7148C490.074 68.1055 489.664 68.3789 488.961 68.5352C487.555 69.8242 486.832 70.5469 486.793 70.7031L485.562 70.9375C485.328 71.6797 485.133 72.1289 484.977 72.2852C484.039 72.5195 483.512 72.9102 483.395 73.457C483.277 73.5352 483.082 73.6133 482.809 73.6914L482.574 73.8672C481.676 74.5703 480.797 75 479.938 75.1562L478.59 75.5078L478.121 76.2109C478.121 76.4062 477.633 76.6602 476.656 76.9727C475.719 77.2852 475.016 77.6758 474.547 78.1445L473.551 78.9062C472.34 79.375 471.578 79.8047 471.266 80.1953H470.445C469.898 80.1953 469.039 80.6055 467.867 81.4258C466.695 82.207 465.758 82.5977 465.055 82.5977C462.789 82.5977 461.227 82.3242 460.367 81.7773C459.547 81.1914 458.863 80.4883 458.316 79.668C457.77 78.8086 457.281 78.125 456.852 77.6172C456.383 77.1094 456.148 76.6992 456.148 76.3867C456.148 76.1133 456.344 75.8398 456.734 75.5664C457.086 75.293 457.477 74.7461 457.906 73.9258C458.336 73.0664 459.43 72.5195 461.188 72.2852C461.266 72.2852 461.539 72.168 462.008 71.9336C462.516 71.6992 462.926 71.582 463.238 71.582C463.629 71.582 464.117 71.9336 464.703 72.6367C464.703 72.7148 464.781 72.7539 464.938 72.7539L465.875 72.6367C466.305 72.9492 466.598 73.1055 466.754 73.1055C467.691 73.1055 468.688 72.6367 469.742 71.6992L469.977 71.582H470.445C470.562 71.582 470.758 71.25 471.031 70.5859L472.027 68.5352L474.078 65.8984V65.3125C474.078 65.1953 474.195 64.8438 474.43 64.2578V63.3789C474.43 63.0273 474.664 62.8125 475.133 62.7344C475.602 62.6172 475.836 62.3633 475.836 61.9727L475.719 61.5039C475.406 61.0742 475.25 60.7422 475.25 60.5078L475.836 59.3359L475.719 58.1055L475.953 57.6367C475.797 57.0898 475.719 56.7773 475.719 56.6992L475.953 55.2344C475.953 55.1953 475.836 54.8242 475.602 54.1211C475.406 53.418 475.25 53.0664 475.133 53.0664C474.898 53.0664 474.156 53.6719 472.906 54.8828C471.656 56.0938 470.914 56.9531 470.68 57.4609C470.445 57.9688 469.938 58.4375 469.156 58.8672C468.414 59.2578 467.906 59.707 467.633 60.2148C467.359 60.7227 467.027 61.0156 466.637 61.0938L462.711 64.2578L458.434 67.4219C458.121 67.7734 457.926 67.9492 457.848 67.9492C456.402 67.9492 455.68 67.1484 455.68 65.5469C455.68 65.0391 455.973 64.1211 456.559 62.793C456.832 62.6367 457.047 62.5195 457.203 62.4414C457.32 62.3633 457.379 62.3047 457.379 62.2656C457.379 62.2266 457.34 62.207 457.262 62.207L457.613 62.4414H457.73C459.176 61.4648 460.113 60.8984 460.543 60.7422C460.973 60.5859 461.363 60.1562 461.715 59.4531L464.176 57.6953C464.801 57.2266 465.758 56.3672 467.047 55.1172C468.336 53.8672 469.156 52.9492 469.508 52.3633Z" fill="#092B5B"/>
</svg>
