<svg width="130" height="22" viewBox="0 0 130 22" fill="none" xmlns="http://www.w3.org/2000/svg">
<path d="M3.69043 3.48779L3.94775 3.27588L4.25049 3.30615C4.42204 3.30615 4.56836 3.26074 4.68945 3.16992C4.81055 3.0791 4.90641 3.02865 4.97705 3.01855C5.05778 3.00846 5.1486 2.95801 5.24951 2.86719C5.36051 2.77637 5.51693 2.71582 5.71875 2.68555C5.92057 2.64518 6.06689 2.57959 6.15771 2.48877C6.24854 2.39795 6.34945 2.34245 6.46045 2.32227C6.58154 2.29199 6.71777 2.24658 6.86914 2.18604L8.24658 1.76221C8.26676 1.76221 8.32227 1.78239 8.41309 1.82275H8.47363C8.59473 1.82275 8.71077 1.77734 8.82178 1.68652C8.94287 1.58561 9.08415 1.53516 9.24561 1.53516C9.34652 1.53516 9.54329 1.47461 9.83594 1.35352L9.92676 1.44434C10.0882 1.2627 10.2244 1.17188 10.3354 1.17188H10.4263C10.4465 1.17188 10.5373 1.19206 10.6987 1.23242C10.951 1.15169 11.1579 1.11133 11.3193 1.11133L11.6675 1.08105C11.6877 1.08105 11.7179 1.09115 11.7583 1.11133C11.839 1.02051 11.95 0.965007 12.0913 0.944824H12.2578L12.8784 0.793457L13.0601 0.854004C13.1812 0.753092 13.3678 0.702637 13.6201 0.702637H13.7715L13.9229 0.73291C13.943 0.73291 14.0339 0.702637 14.1953 0.64209C14.3669 0.581543 14.7756 0.55127 15.4214 0.55127L15.8149 0.611816C16.0672 0.510905 16.2035 0.460449 16.2236 0.460449L16.6475 0.55127L16.814 0.490723H16.8745C16.8947 0.490723 16.9451 0.510905 17.0259 0.55127H17.0562L18.146 0.399902C18.1662 0.399902 18.2065 0.409993 18.2671 0.430176C18.3478 0.359538 18.4084 0.324219 18.4487 0.324219L18.7363 0.399902C18.8171 0.399902 18.9583 0.344401 19.1602 0.233398L19.251 0.324219L20.2803 0.203125L20.6587 0.233398L20.9917 0.172852C21.3247 0.172852 21.5719 0.263672 21.7334 0.445312C21.9049 0.616862 21.9907 0.793457 21.9907 0.975098L22.0513 1.44434L21.9604 1.70166L21.9302 2.00439C21.8797 2.12549 21.804 2.20622 21.7031 2.24658C21.7031 2.26676 21.6577 2.29199 21.5669 2.32227C21.4761 2.34245 21.3853 2.38281 21.2944 2.44336C21.2036 2.50391 20.9059 2.53418 20.4014 2.53418C20.1491 2.53418 19.9876 2.4585 19.917 2.30713C19.8464 2.14567 19.7707 2.05485 19.6899 2.03467L19.0391 1.76221C19.0189 1.74202 18.9583 1.73193 18.8574 1.73193H18.7363L18.1157 1.79248C18.0955 1.79248 18.04 1.78239 17.9492 1.76221C17.818 1.82275 17.7474 1.85303 17.7373 1.85303L16.6172 1.79248L16.1631 1.82275L15.8452 1.76221C15.8049 1.76221 15.7342 1.77734 15.6333 1.80762C15.5324 1.83789 15.3205 1.86312 14.9976 1.8833C14.6746 1.90348 14.5132 2.00439 14.5132 2.18604C14.5132 2.29704 14.5535 2.41813 14.6343 2.54932C14.7251 2.6805 14.7705 2.78646 14.7705 2.86719C14.6191 3.0791 14.5435 3.21533 14.5435 3.27588C14.5031 3.30615 14.4325 3.37174 14.3315 3.47266C14.2306 3.57357 14.0439 3.73503 13.7715 3.95703C13.499 4.16895 13.3123 4.36572 13.2114 4.54736C13.1105 4.729 12.9894 4.81982 12.8481 4.81982C12.6665 4.99137 12.5404 5.14779 12.4697 5.28906L12.3486 5.41016C12.3285 5.43034 12.3184 5.47575 12.3184 5.54639C12.3184 5.60693 12.2881 5.66748 12.2275 5.72803L12.0913 6.09131C12.0207 6.12158 11.8138 6.38395 11.4707 6.87842L11.2891 6.96924L11.1074 7.18115H10.8955C10.8047 7.18115 10.7593 7.2417 10.7593 7.36279L10.8198 7.80176C10.6685 7.93294 10.5474 8.10954 10.4565 8.33154L10.2749 8.63428C10.063 8.84619 9.95703 8.96224 9.95703 8.98242C9.95703 9.03288 9.85612 9.24984 9.6543 9.6333L9.62402 9.78467C9.62402 9.95622 9.27083 10.4507 8.56445 11.2681C8.46354 11.4598 8.40299 11.7524 8.38281 12.146C8.08008 12.7414 7.87321 13.029 7.76221 13.0088C7.74202 13.3923 7.67643 13.7051 7.56543 13.9473C7.46452 14.1895 7.32829 14.5477 7.15674 15.022C6.99528 15.4862 6.82373 15.8192 6.64209 16.021L6.58154 16.1421C6.54118 16.2228 6.49072 16.3035 6.43018 16.3843C6.40999 16.6567 6.31413 17.0907 6.14258 17.686L6.05176 18.3369L5.74902 19.1846C5.71875 19.2451 5.70361 19.3057 5.70361 19.3662C5.70361 19.4066 5.73389 19.4873 5.79443 19.6084C5.86507 19.7194 5.90039 19.8254 5.90039 19.9263C5.90039 20.0675 5.87516 20.1836 5.82471 20.2744C5.77425 20.3551 5.74902 20.4661 5.74902 20.6074C5.74902 20.9202 5.58252 21.1271 5.24951 21.228H5.12842L4.81055 21.2583C4.38672 21.2583 4.00326 21.0565 3.66016 20.6528C3.31706 20.2492 3.14551 19.6942 3.14551 18.9878C3.14551 18.9474 3.17578 18.7961 3.23633 18.5337C3.29688 18.2612 3.33219 18.0846 3.34229 18.0039C3.35238 17.9232 3.3776 17.8424 3.41797 17.7617C3.45833 17.6709 3.47852 17.5448 3.47852 17.3833C3.47852 16.8888 3.59961 16.46 3.8418 16.0967C4.09408 15.7334 4.26058 15.471 4.34131 15.3096C4.36149 15.2389 4.39681 15.1935 4.44727 15.1733C4.41699 15.0926 4.40186 14.9917 4.40186 14.8706C4.40186 14.578 4.52799 14.3408 4.78027 14.1592C4.80046 14.0785 4.83577 13.9876 4.88623 13.8867C4.93669 13.7757 5.04264 13.5184 5.2041 13.1147C5.36556 12.701 5.57747 12.4588 5.83984 12.3882C5.82975 12.368 5.8903 12.2873 6.02148 12.146L5.96094 11.6162C5.96094 11.5355 6.05176 11.3993 6.2334 11.2075L6.49072 10.7837C6.53109 10.6121 6.66227 10.4557 6.88428 10.3145C6.94482 10.2135 7.01042 10.153 7.08105 10.1328C7.09115 10.0924 7.13151 9.96631 7.20215 9.75439C7.28288 9.54248 7.44434 9.28011 7.68652 8.96729C7.9388 8.64437 8.17594 8.31136 8.39795 7.96826C8.63005 7.62516 8.83691 7.44857 9.01855 7.43848C9.21029 7.42839 9.31624 7.32243 9.33643 7.12061L9.42725 6.56055C9.71989 6.30827 9.89648 6.13167 9.95703 6.03076L10.1689 5.78857C10.2093 5.6473 10.2598 5.55648 10.3203 5.51611C10.391 5.46566 10.4767 5.36979 10.5776 5.22852C10.6785 5.08724 10.8047 4.9611 10.9561 4.8501C11.0872 4.43636 11.3849 4.07812 11.8491 3.77539L12.0913 3.51807C12.2629 3.27588 12.4041 3.11442 12.5151 3.03369C12.6261 2.94287 12.7069 2.82682 12.7573 2.68555C12.8179 2.54427 12.9289 2.43831 13.0903 2.36768C13.2518 2.29704 13.3325 2.21631 13.3325 2.12549C13.3325 2.08512 13.2922 2.06494 13.2114 2.06494C13.1307 2.06494 12.9945 2.09521 12.8027 2.15576H12.6816L12.4092 2.21631H12.3184L12.061 2.15576C11.8794 2.21631 11.7381 2.24658 11.6372 2.24658C11.617 2.26676 11.5514 2.31217 11.4404 2.38281H11.1074L10.9258 2.56445L10.7896 2.59473L10.396 2.53418C10.2749 2.53418 10.1286 2.59473 9.95703 2.71582C9.95703 2.736 9.79053 2.77132 9.45752 2.82178C9.1346 2.87223 8.82682 2.9681 8.53418 3.10938C8.24154 3.24056 8.06494 3.30615 8.00439 3.30615L7.73193 3.24561H7.70166C7.57048 3.24561 7.44938 3.3112 7.33838 3.44238C7.22738 3.57357 7.06592 3.6543 6.854 3.68457H6.67236C6.521 3.68457 6.31413 3.74512 6.05176 3.86621C5.79948 3.9873 5.66325 4.04785 5.64307 4.04785L5.37061 4.01758C5.24951 4.09831 5.14355 4.15381 5.05273 4.18408C4.97201 4.21436 4.89128 4.26481 4.81055 4.33545C4.72982 4.396 4.64909 4.44141 4.56836 4.47168C4.48763 4.50195 4.39176 4.55745 4.28076 4.63818C4.17985 4.71891 4.09912 4.75928 4.03857 4.75928H3.97803L3.79639 4.729C3.72575 4.729 3.63493 4.7946 3.52393 4.92578C3.41292 5.04688 3.30697 5.12256 3.20605 5.15283C3.11523 5.18311 3.02441 5.23356 2.93359 5.3042C2.85286 5.36475 2.76709 5.40007 2.67627 5.41016C2.62581 5.46061 2.55518 5.57161 2.46436 5.74316C2.37354 5.91471 2.25749 6.06608 2.11621 6.19727C1.97493 6.31836 1.87907 6.41423 1.82861 6.48486C1.78825 6.5555 1.74788 6.59082 1.70752 6.59082C1.21305 6.59082 0.96582 6.28304 0.96582 5.66748L1.26855 5.0166C1.48047 4.50195 1.80339 4.18913 2.2373 4.07812C2.34831 4.07812 2.6359 3.96712 3.1001 3.74512L3.69043 3.48779ZM18.7363 7.9834L18.6455 7.39307V7.30225C18.6455 6.82796 18.807 6.56559 19.1299 6.51514C19.2005 6.50505 19.4124 6.43945 19.7656 6.31836C19.9473 6.35872 20.134 6.52018 20.3257 6.80273C20.5275 7.0752 20.6284 7.31738 20.6284 7.5293C20.6284 7.54948 20.6133 7.59489 20.583 7.66553C20.5527 7.73617 20.5326 7.8724 20.5225 8.07422C20.5124 8.26595 20.4115 8.4375 20.2197 8.58887C20.0381 8.73014 19.8413 8.80078 19.6294 8.80078C19.4881 8.80078 19.3065 8.70492 19.0845 8.51318C18.8726 8.31136 18.7565 8.13477 18.7363 7.9834ZM12.1973 15.5518L12.4395 15.3398H12.5303C12.6009 15.3398 12.7069 15.2642 12.8481 15.1128L12.9995 15.0522C13.2013 14.7495 13.3779 14.5729 13.5293 14.5225L13.7715 14.3408C13.8118 14.3005 13.8674 14.2651 13.938 14.2349C14.0187 14.2046 14.1398 14.1087 14.3013 13.9473C14.4728 13.7757 14.609 13.6899 14.71 13.6899C14.8109 13.6899 14.8916 13.7 14.9521 13.7202C15.0127 13.5991 15.1338 13.4831 15.3154 13.3721C15.4971 13.251 15.6434 13.1097 15.7544 12.9482L15.9512 12.8574C16.1126 12.7767 16.2539 12.6758 16.375 12.5547C16.5062 12.4235 16.6727 12.3579 16.8745 12.3579C17.1672 12.3579 17.4699 12.5093 17.7827 12.812C18.1056 13.1047 18.2671 13.3872 18.2671 13.6597L18.0098 14.8403C17.8382 15.7082 17.6465 16.1623 17.4346 16.2026L17.374 16.5205C17.2327 16.6214 17.1621 16.7021 17.1621 16.7627L17.2529 17.126C17.2529 17.1764 17.1974 17.2521 17.0864 17.353C17.0662 17.353 17.0562 17.3833 17.0562 17.4438V18.0645C17.0562 18.1755 16.9855 18.2663 16.8442 18.3369C16.8644 18.3571 16.8947 18.3773 16.9351 18.3975C16.9956 18.3369 17.1318 18.3066 17.3438 18.3066L17.5859 18.3369L17.9189 18.0039C17.9896 17.9837 18.0854 17.9383 18.2065 17.8677C18.3377 17.7869 18.5547 17.686 18.8574 17.5649L20.8403 16.0513C21.1128 15.7788 21.3197 15.6426 21.4609 15.6426C21.6123 15.6426 21.688 15.7384 21.688 15.9302C21.688 16.1522 21.6426 16.3389 21.5518 16.4902C21.471 16.6315 21.3953 16.8081 21.3247 17.02C21.2541 17.2218 21.1683 17.3631 21.0674 17.4438C20.9766 17.5246 20.9009 17.6154 20.8403 17.7163C20.7798 17.8071 20.6133 17.9434 20.3408 18.125C20.0785 18.3066 19.8514 18.4933 19.6597 18.6851C19.478 18.8667 19.3267 18.9979 19.2056 19.0786L18.5547 19.5479L18.4639 19.6992C18.4437 19.7194 18.3478 19.7648 18.1763 19.8354C18.0148 19.896 17.8685 19.9767 17.7373 20.0776L17.4648 20.229C17.4043 20.2694 17.3034 20.2946 17.1621 20.3047C17.0309 20.3148 16.9149 20.3753 16.814 20.4863C16.7131 20.5872 16.6323 20.6377 16.5718 20.6377L16.3447 20.6074L16.042 20.6982C15.8704 20.6982 15.6585 20.5973 15.4062 20.3955C15.1641 20.1836 15.043 19.9616 15.043 19.7295V19.6387L15.0732 19.4268C15.0732 19.3864 15.043 19.2855 14.9824 19.124C14.9219 18.9525 14.8916 18.8566 14.8916 18.8364L14.9219 18.6245L14.8916 18.5337C14.8916 18.2612 14.9118 18.0897 14.9521 18.019C14.9925 17.9484 15.0228 17.8525 15.043 17.7314C15.0632 17.6003 15.0833 17.4943 15.1035 17.4136L15.1792 17.0352C15.2196 16.9141 15.27 16.8333 15.3306 16.793C15.3507 16.7122 15.3911 16.576 15.4517 16.3843L15.5122 16.1118L15.6636 15.8999C15.7443 15.8192 15.7897 15.7132 15.7998 15.582C15.82 15.4408 15.8755 15.2944 15.9663 15.1431C16.0571 14.9917 16.1025 14.9009 16.1025 14.8706C16.1025 14.7495 16.042 14.689 15.9209 14.689C15.8805 14.689 15.7544 14.7697 15.5425 14.9312L15.27 14.8403C15.2498 14.8403 15.1943 14.8908 15.1035 14.9917C15.1035 15.0321 15.0581 15.0623 14.9673 15.0825C14.8765 15.1027 14.7907 15.1784 14.71 15.3096L14.5889 15.3398L14.3921 15.249H14.3315C14.2306 15.249 14.1701 15.36 14.1499 15.582C14.0389 15.7435 13.8926 15.8494 13.7109 15.8999L13.3779 15.9907C13.2669 16.0311 13.1862 16.1219 13.1357 16.2632C13.0853 16.4045 12.9844 16.5356 12.833 16.6567C12.6816 16.7677 12.5807 16.8232 12.5303 16.8232C12.2477 16.8232 12.1064 16.6668 12.1064 16.354L12.2275 15.6426L12.1973 15.5518ZM27.7881 13.917L28.2119 13.7202C28.3532 13.6294 28.4894 13.4982 28.6206 13.3267L29.1504 12.9482C29.4531 12.7464 29.6499 12.6455 29.7407 12.6455L29.9829 12.7363C30.0031 12.7363 30.0636 12.6758 30.1646 12.5547C30.2756 12.4235 30.4017 12.3579 30.543 12.3579C30.7246 12.3579 30.9718 12.4941 31.2847 12.7666C31.5975 13.0391 31.7539 13.2812 31.7539 13.4932L31.6934 14.0078C31.6934 14.0885 31.7337 14.3156 31.8145 14.689V14.8101L31.7539 15.1733L31.8145 15.5518L31.6479 16.2935C31.6479 16.4852 31.7135 16.5811 31.8447 16.5811C32.0163 16.4196 32.1626 16.3237 32.2837 16.2935L32.4956 16.0815C32.5763 16.0008 32.6369 15.9604 32.6772 15.9604C32.7176 15.9604 32.7681 15.915 32.8286 15.8242C32.8993 15.7233 32.985 15.6527 33.0859 15.6123C33.1868 15.5719 33.2575 15.5013 33.2979 15.4004C33.863 14.7848 34.2969 14.4316 34.5996 14.3408C34.64 14.3408 34.7056 14.2904 34.7964 14.1895C34.8973 14.0885 34.978 14.028 35.0386 14.0078L35.3716 13.7505L35.5078 13.811H35.5381C35.5583 13.811 35.639 13.7606 35.7803 13.6597C35.9215 13.5588 36.0225 13.5083 36.083 13.5083C36.4665 13.5083 36.7793 13.6395 37.0215 13.9019C37.2738 14.1541 37.3999 14.3509 37.3999 14.4922L37.3242 14.8403L37.4302 15.3096V15.6123L37.3545 15.9302C37.3545 15.9907 37.3949 16.0765 37.4756 16.1875C37.5664 16.2985 37.6118 16.3742 37.6118 16.4146C37.4907 16.5457 37.4302 16.6315 37.4302 16.6719L37.4604 16.9443L37.3848 17.7769C37.3848 17.8475 37.4504 17.9635 37.5815 18.125C37.6421 18.0846 37.7279 18.0493 37.8389 18.019C37.9499 17.9888 38.0356 17.9585 38.0962 17.9282C38.1567 17.8879 38.187 17.8677 38.187 17.8677C38.187 17.8576 38.182 17.8525 38.1719 17.8525C38.1921 17.8525 38.2526 17.8727 38.3535 17.9131H38.4141C38.4948 17.9131 38.5402 17.8374 38.5503 17.686C38.5604 17.5246 38.6613 17.3934 38.853 17.2925L39.2163 17.3228C39.2365 17.3026 39.2769 17.2218 39.3374 17.0806C39.408 16.9292 39.62 16.7122 39.9731 16.4297C40.3364 16.137 40.6139 15.9907 40.8057 15.9907C40.9671 15.9907 41.0479 16.0614 41.0479 16.2026C41.0479 16.243 41.0277 16.349 40.9873 16.5205C41.068 16.6618 41.1084 16.7829 41.1084 16.8838C41.1084 17.0755 40.9419 17.2824 40.6089 17.5044C40.286 17.7264 40.0387 18.0039 39.8672 18.3369L39.8066 18.3975L39.5039 18.3672C39.4837 18.3672 39.4333 18.4479 39.3525 18.6094C39.2819 18.7607 39.1961 18.8465 39.0952 18.8667C38.9943 18.8869 38.9237 18.9172 38.8833 18.9575L38.5654 19.1543C38.5049 19.1947 38.3031 19.4015 37.96 19.7749C37.627 20.1382 37.3444 20.3198 37.1123 20.3198C37.0114 20.3198 36.8298 20.2694 36.5674 20.1685C36.305 20.0575 36.1284 19.9465 36.0376 19.8354C35.9468 19.7244 35.8156 19.5983 35.644 19.457C35.4826 19.3158 35.4019 19.0483 35.4019 18.6548C35.4019 18.6346 35.4271 18.5993 35.4775 18.5488C35.5381 18.4984 35.5684 18.458 35.5684 18.4277C35.3363 18.125 35.2202 17.908 35.2202 17.7769C35.2202 17.7163 35.2303 17.6507 35.2505 17.5801C35.2707 17.5094 35.2808 17.4438 35.2808 17.3833L35.2505 16.8535L35.311 16.5811L35.2808 16.4146L35.3716 15.6426C35.3716 15.5215 35.3009 15.4609 35.1597 15.4609C35.1193 15.4609 35.0638 15.5013 34.9932 15.582C34.9225 15.6628 34.8317 15.7284 34.7207 15.7788C34.6198 15.8192 34.5088 15.9604 34.3877 16.2026C34.2061 16.3035 34.0799 16.4045 34.0093 16.5054C33.9487 16.5962 33.8983 16.6416 33.8579 16.6416C33.8377 16.6416 33.7974 16.6315 33.7368 16.6113C33.6157 16.6921 33.5552 16.7829 33.5552 16.8838V16.9443L33.5854 17.0654C33.5854 17.1562 33.5098 17.242 33.3584 17.3228C33.207 17.4035 33.0203 17.6104 32.7983 17.9434C32.6974 17.9434 32.6268 17.9535 32.5864 17.9736L32.4048 18.3369C32.3039 18.3975 32.208 18.5034 32.1172 18.6548L31.9355 18.7456C31.8649 18.8768 31.7943 18.9878 31.7236 19.0786L31.6328 19.2451C31.1989 19.7598 30.8962 20.0171 30.7246 20.0171C30.5531 20.0171 30.3462 19.79 30.104 19.3359C29.8618 18.8818 29.7407 18.5286 29.7407 18.2764L29.8013 17.7163C29.8013 17.6961 29.7609 17.6154 29.6802 17.4741V17.4136C29.6802 17.3934 29.7205 17.2773 29.8013 17.0654V16.6113C29.8013 16.5911 29.7912 16.5609 29.771 16.5205V16.4448C29.771 16.4246 29.8114 16.3439 29.8921 16.2026L29.8013 15.7637L29.8618 15.5215L29.8315 14.9917L29.8921 14.5225C29.8921 14.4922 29.8618 14.4417 29.8013 14.3711C29.7508 14.2904 29.7155 14.25 29.6953 14.25C29.6247 14.25 29.4128 14.366 29.0596 14.5981C28.7165 14.8302 28.4844 15.0119 28.3633 15.1431C28.2422 15.2743 28.0807 15.4307 27.8789 15.6123C27.667 15.7132 27.5207 15.9705 27.4399 16.3843C27.4399 16.4045 27.4198 16.4146 27.3794 16.4146C27.3794 16.3944 27.3491 16.3742 27.2886 16.354H27.228C27.1776 16.354 27.0212 16.571 26.7588 17.0049L26.6982 17.0654L26.4106 17.0049C26.1685 17.0049 26.0474 17.2622 26.0474 17.7769C26.0474 17.8677 25.9818 17.9282 25.8506 17.9585C25.7295 17.9888 25.6336 18.0745 25.563 18.2158C25.4924 18.3571 25.3965 18.5034 25.2754 18.6548C25.0433 18.7557 24.9121 18.8314 24.8818 18.8818C24.8818 18.8919 24.7708 19.0433 24.5488 19.3359C24.3268 19.6286 24.2057 19.8001 24.1855 19.8506C24.1654 19.901 24.0947 19.9616 23.9736 20.0322C23.8626 20.0928 23.8071 20.1483 23.8071 20.1987L23.8525 20.4561C23.8525 20.6175 23.6961 20.6982 23.3833 20.6982C22.7778 20.6982 22.4751 20.0675 22.4751 18.8062C22.4751 18.6649 22.5356 18.5085 22.6567 18.3369C22.7879 18.1553 22.9141 17.9383 23.0352 17.686C23.2269 17.4943 23.4539 17.2168 23.7163 16.8535C23.9787 16.4902 24.1755 16.243 24.3066 16.1118L24.5034 15.7939C24.5034 15.6729 24.5286 15.582 24.5791 15.5215C24.6296 15.4609 24.6548 15.3853 24.6548 15.2944C24.6548 15.133 24.6144 15.0522 24.5337 15.0522C24.342 15.0522 24.1906 15.1027 24.0796 15.2036C23.9686 15.2944 23.8424 15.36 23.7012 15.4004C23.57 15.4408 23.4842 15.5114 23.4438 15.6123C23.3026 15.6729 23.1512 15.804 22.9897 16.0059C22.8384 16.1976 22.7375 16.3187 22.687 16.3691C22.6366 16.4196 22.5861 16.4902 22.5356 16.5811C22.4953 16.6618 22.4398 16.7072 22.3691 16.7173C22.2985 16.7274 22.2329 16.7627 22.1724 16.8232C22.1118 16.8838 22.016 16.9141 21.8848 16.9141C21.7939 16.9141 21.7082 16.8232 21.6274 16.6416C21.5568 16.4499 21.5215 16.3338 21.5215 16.2935C21.5215 15.5568 22.0109 14.9211 22.9897 14.3862C23.1209 14.3156 23.2218 14.245 23.2925 14.1743C23.3732 14.1037 23.4539 14.0482 23.5347 14.0078L23.5952 13.9019C23.6759 13.7808 23.9787 13.6092 24.5034 13.3872H24.7153L25.7295 13.1299C26.1634 13.029 26.3804 13.5184 26.3804 14.5981L26.3501 14.8706L26.4106 14.9917C26.5822 14.8302 26.7537 14.689 26.9253 14.5679C27.1069 14.4367 27.2381 14.3206 27.3188 14.2197C27.3996 14.1188 27.556 14.0179 27.7881 13.917ZM54.6255 8.10449L54.7163 8.07422H55.125C55.2461 8.07422 55.4227 7.93294 55.6548 7.65039C55.675 7.63021 55.9424 7.53434 56.457 7.36279L56.5176 7.30225C56.6589 7.18115 56.7598 7.10042 56.8203 7.06006H57.1079C57.1281 7.06006 57.2088 7.01465 57.3501 6.92383C57.4914 6.82292 57.7891 6.71191 58.2432 6.59082C58.7074 6.46973 59.0101 6.36882 59.1514 6.28809C59.2119 6.2679 59.4339 6.23763 59.8174 6.19727L60.2412 6.12158L60.5742 6.15186C61.109 6.15186 61.4925 6.50505 61.7246 7.21143C61.7246 7.25179 61.7498 7.31738 61.8003 7.4082C61.8507 7.48893 61.876 7.54948 61.876 7.58984C61.876 8.01367 61.6691 8.45768 61.2554 8.92188L61.0435 9.48193C61.0435 9.50212 60.988 9.5778 60.877 9.70898C60.776 9.84017 60.6852 9.99658 60.6045 10.1782C60.5238 10.3498 60.3068 10.6121 59.9536 10.9653C59.8931 11.0864 59.8073 11.2782 59.6963 11.5405C59.5853 11.7928 59.4894 11.9593 59.4087 12.04C59.3381 12.1208 59.1413 12.4235 58.8184 12.9482C58.5055 13.473 58.3491 13.7808 58.3491 13.8716C58.1978 13.9826 58.0918 14.1693 58.0312 14.4316C57.9808 14.694 57.8799 14.9412 57.7285 15.1733L57.6982 15.2793C58.0212 15.1683 58.1826 14.9917 58.1826 14.7495C58.1826 14.7192 58.2684 14.6436 58.4399 14.5225L58.561 14.3105C58.6821 14.1693 58.7881 14.0885 58.8789 14.0684C58.8991 13.9876 59.005 13.8716 59.1968 13.7202C59.3885 13.5588 59.5146 13.4478 59.5752 13.3872C59.6458 13.3267 59.7568 13.2661 59.9082 13.2056C60.0596 13.1349 60.2311 12.8826 60.4229 12.4487C60.443 12.368 60.5187 12.3024 60.6499 12.252C60.7912 12.2015 60.9072 12.1208 60.998 12.0098C61.0889 11.8887 61.1646 11.8079 61.2251 11.7676L61.3462 11.5859C61.4572 11.485 61.5329 11.4245 61.5732 11.4043L62.3149 10.4961C62.7085 10.2438 62.9255 10.047 62.9658 9.90576L63.0869 9.87549H63.1777C63.3392 9.7443 63.4451 9.65348 63.4956 9.60303C63.4956 9.30029 63.6066 9.10352 63.8286 9.0127C64.0607 8.91178 64.2272 8.79574 64.3281 8.66455C64.429 8.52327 64.54 8.45264 64.6611 8.45264C64.6914 8.45264 64.7469 8.48291 64.8276 8.54346H64.8579C64.8882 8.54346 64.9185 8.493 64.9487 8.39209V8.24072C64.9487 8.06917 64.9992 7.9279 65.1001 7.81689C65.201 7.70589 65.3372 7.63525 65.5088 7.60498C65.6803 7.56462 65.8468 7.43343 66.0083 7.21143C66.1698 6.98942 66.3514 6.87337 66.5532 6.86328C66.7651 6.85319 66.9064 6.77246 66.9771 6.62109C67.0477 6.46973 67.2646 6.30827 67.6279 6.13672C67.9912 5.95508 68.2183 5.85921 68.3091 5.84912C68.3999 5.82894 68.4806 5.79867 68.5513 5.7583C68.632 5.71794 68.7127 5.69775 68.7935 5.69775C68.8944 5.69775 69.0407 5.72803 69.2324 5.78857L69.5049 5.84912C69.737 5.95003 69.9539 6.13672 70.1558 6.40918L70.3071 6.56055V6.62109L70.3374 6.87842V6.99951C70.4686 7.06006 70.5342 7.12061 70.5342 7.18115L70.4282 7.37793C70.3879 7.44857 70.3677 7.53434 70.3677 7.63525C70.3677 7.72607 70.3626 7.82194 70.3525 7.92285C70.3424 8.01367 70.3273 8.10449 70.3071 8.19531C70.297 8.27604 70.2769 8.35677 70.2466 8.4375C70.2264 8.50814 70.2012 8.57878 70.1709 8.64941C70.1406 8.70996 70.1053 8.77051 70.0649 8.83105L69.9438 9.31543C69.9035 9.50716 69.7925 9.73926 69.6108 10.0117C69.4393 10.2741 69.3384 10.4608 69.3081 10.5718C69.2778 10.6727 69.2072 10.814 69.0962 10.9956L69.1265 11.0864V11.2983C69.4393 11.258 69.5957 11.1369 69.5957 10.9351C69.5957 10.7231 69.7218 10.5667 69.9741 10.4658L70.3071 10.1934C70.5695 9.72917 70.8924 9.42643 71.2759 9.28516C71.2759 9.1237 71.3717 8.95719 71.5635 8.78564L72.1387 8.24072L72.5474 8.01367C72.729 7.6403 72.9359 7.41325 73.168 7.33252L73.501 7.12061C73.7028 7.01969 73.8138 6.92383 73.834 6.83301C73.8643 6.7321 73.945 6.63118 74.0762 6.53027C74.2074 6.42936 74.3991 6.26286 74.6514 6.03076L74.7725 5.97021L74.9238 5.81885C75.0348 5.7583 75.161 5.70785 75.3022 5.66748L75.4233 5.60693C75.6756 5.4152 75.9027 5.28906 76.1045 5.22852C76.3063 5.15788 76.5334 5.04688 76.7856 4.89551L77.3154 4.81982C77.4365 4.77946 77.5173 4.75928 77.5576 4.75928C78.5163 4.75928 78.9956 5.29915 78.9956 6.37891L78.9653 6.62109L78.9956 7.49902C78.7433 7.91276 78.6172 8.12972 78.6172 8.1499L78.6475 8.42236C78.6475 8.46273 78.5819 8.58382 78.4507 8.78564C78.3195 8.97738 78.2388 9.09342 78.2085 9.13379C78.1883 9.17415 78.0975 9.28011 77.936 9.45166L77.7847 9.90576C77.7342 10.0067 77.6484 10.1025 77.5273 10.1934V10.375C77.5273 10.5264 77.3306 10.7534 76.937 11.0562C76.8866 11.3185 76.7957 11.5153 76.6646 11.6465C76.5435 11.7676 76.4476 11.8988 76.377 12.04C76.3164 12.1712 76.2155 12.2974 76.0742 12.4185C76.0742 12.5496 75.9884 12.7716 75.8169 13.0845C75.6453 13.3973 75.5091 13.5991 75.4082 13.6899C75.3174 13.7707 75.2215 13.917 75.1206 14.1289L74.9844 14.1895C74.9238 14.5729 74.8532 14.7899 74.7725 14.8403L74.5303 14.8101V14.8706C74.5303 14.8908 74.5505 14.9261 74.5908 14.9766C74.6312 15.027 74.6514 15.0825 74.6514 15.1431C74.6514 15.2137 74.6211 15.2743 74.5605 15.3247C74.5 15.3752 74.4647 15.4256 74.4546 15.4761C74.4445 15.5265 74.4193 15.577 74.3789 15.6274C74.3486 15.6779 74.3285 15.7788 74.3184 15.9302C74.3083 16.0715 74.2326 16.2682 74.0913 16.5205C73.95 16.7728 73.8743 16.9443 73.8643 17.0352C73.8542 17.126 73.839 17.2017 73.8188 17.2622C73.7987 17.3228 73.7886 17.3833 73.7886 17.4438C73.7886 17.5044 73.7633 17.6608 73.7129 17.9131C73.9046 18.3672 74.0409 18.675 74.1216 18.8364C74.2023 18.9979 74.2427 19.1038 74.2427 19.1543C74.2427 19.5579 74.1922 19.8304 74.0913 19.9717C73.9904 20.1029 73.7432 20.1685 73.3496 20.1685C73.0973 20.1685 72.8753 20.0827 72.6836 19.9111C72.502 19.7295 72.3405 19.6387 72.1992 19.6387V19.3662L72.1689 19.3359H71.9268C71.9066 19.3158 71.8612 19.2804 71.7905 19.23C71.73 19.1795 71.6694 19.1089 71.6089 19.0181L71.5181 18.9272C71.4373 18.8263 71.3667 18.6598 71.3062 18.4277L71.2153 18.125L71.2456 17.8828L71.2153 17.5044C71.2153 17.4035 71.2254 17.3228 71.2456 17.2622L71.2759 16.8535C71.2759 16.8132 71.2961 16.7274 71.3364 16.5962C71.3768 16.4549 71.402 16.2935 71.4121 16.1118C71.4222 15.9201 71.4676 15.7738 71.5483 15.6729C71.6291 15.5719 71.6745 15.4862 71.6846 15.4155C71.6947 15.3449 71.7199 15.2894 71.7603 15.249C71.8107 15.1986 71.8511 15.0825 71.8813 14.9009C71.9116 14.7192 72.0176 14.5729 72.1992 14.4619C72.3001 14.2803 72.3859 14.1087 72.4565 13.9473C72.6685 13.6546 72.7795 13.5083 72.7896 13.5083H73.0015C72.9006 13.3872 72.8501 13.3166 72.8501 13.2964C72.8501 13.0239 72.9561 12.8877 73.168 12.8877C73.2083 12.8877 73.2588 12.8978 73.3193 12.918L73.3799 12.7969L73.3193 12.5396C73.3193 12.368 73.4505 12.1965 73.7129 12.0249C73.7129 11.7323 73.8491 11.4699 74.1216 11.2378L74.0913 10.9956C74.1519 10.9351 74.2376 10.8039 74.3486 10.6021C74.4596 10.3901 74.6009 10.1782 74.7725 9.96631L75.2417 9.25488L75.4536 9.0127C75.4536 9.02279 75.4536 9.02783 75.4536 9.02783C75.4637 9.01774 75.4738 8.99756 75.4839 8.96729C75.5041 8.92692 75.5243 8.87142 75.5444 8.80078L75.6353 8.57373L75.7412 8.45264C76.0036 8.382 76.1348 8.29118 76.1348 8.18018C76.1348 8.15999 76.0944 8.0944 76.0137 7.9834V7.92285C76.0137 7.84212 76.0742 7.74121 76.1953 7.62012C76.3164 7.49902 76.4274 7.33252 76.5283 7.12061C76.6393 6.8986 76.6948 6.76237 76.6948 6.71191C76.6948 6.67155 76.6746 6.65137 76.6343 6.65137C76.3114 6.65137 76.0944 6.76742 75.9834 6.99951C75.9834 7.06006 75.7866 7.18115 75.3931 7.36279L75.2417 7.58984C75.1206 7.70085 75.0146 7.75635 74.9238 7.75635C74.833 7.75635 74.7119 7.81689 74.5605 7.93799C74.4193 8.04899 74.1014 8.31136 73.6069 8.7251C73.1125 9.12874 72.7492 9.46175 72.5171 9.72412L72.1689 9.96631C72.0277 10.0369 71.957 10.0924 71.957 10.1328C71.957 10.2337 71.8713 10.3649 71.6997 10.5264L71.5181 10.7534C71.3768 10.703 71.2961 10.6777 71.2759 10.6777C71.1649 10.6777 71.069 10.7332 70.9883 10.8442C71.069 10.925 71.1094 10.9754 71.1094 10.9956C71.1094 11.1571 70.958 11.3236 70.6553 11.4951L70.0044 12.1763C69.9842 12.1965 69.9085 12.252 69.7773 12.3428C69.6462 12.4336 69.5452 12.5496 69.4746 12.6909C69.4141 12.8221 69.2375 13.0592 68.9448 13.4023C68.6522 13.7354 68.4806 13.917 68.4302 13.9473C68.3797 13.9674 68.3192 14.033 68.2485 14.144C68.1779 14.255 68.0316 14.4115 67.8096 14.6133C67.5876 14.8151 67.4614 15.0371 67.4312 15.2793C67.2394 15.3499 67.1436 15.4105 67.1436 15.4609L67.0527 15.6123L66.9316 15.6729C66.9115 15.7132 66.8963 15.7839 66.8862 15.8848C66.8761 15.9756 66.6743 16.1471 66.2808 16.3994C65.8872 16.6416 65.64 16.7627 65.5391 16.7627C65.5088 16.7627 65.4634 16.7829 65.4028 16.8232C65.3423 16.8636 65.3019 16.8838 65.2817 16.8838C65.2515 16.8838 65.1152 16.8232 64.873 16.7021C64.641 16.5811 64.4694 16.2985 64.3584 15.8545L64.4795 15.4609L64.4189 15.1431C64.4189 15.0825 64.4644 15.0018 64.5552 14.9009C64.6561 14.8 64.7065 14.6738 64.7065 14.5225C64.868 14.1592 64.9891 13.9019 65.0698 13.7505L65.1001 13.5083C65.1405 13.4074 65.2061 13.2964 65.2969 13.1753C65.3978 13.0441 65.4583 12.9028 65.4785 12.7515C65.4987 12.59 65.5643 12.4891 65.6753 12.4487C65.7863 12.4084 66.195 11.7979 66.9014 10.6172V10.4053L67.3403 9.64844C67.4715 9.42643 67.633 9.17415 67.8247 8.8916L67.9609 8.54346C67.6481 8.42236 67.4816 8.36182 67.4614 8.36182C67.4009 8.36182 67.3252 8.40218 67.2344 8.48291C67.2344 8.65446 66.9367 8.83105 66.3413 9.0127C66.2202 9.07324 66.0638 9.21956 65.8721 9.45166L65.4482 9.69385C65.3877 9.73421 65.2918 9.81494 65.1606 9.93604L64.9487 10.1328C64.6965 10.1934 64.4795 10.3346 64.2979 10.5566L63.8892 10.8442C63.7681 10.9451 63.6873 11.0208 63.647 11.0713C63.6066 11.1217 63.4199 11.2327 63.0869 11.4043L62.8447 11.6465L62.6177 11.7676C62.4562 11.9391 62.3351 12.0854 62.2544 12.2065C62.1737 12.3276 62.0677 12.3983 61.9365 12.4185L61.6035 12.5396C61.543 12.8019 61.3563 13.0542 61.0435 13.2964L60.6045 13.8413C60.5238 13.9119 60.4531 13.9674 60.3926 14.0078C60.3522 14.1087 60.2816 14.1794 60.1807 14.2197C60.0495 14.3812 59.9637 14.4922 59.9233 14.5527L59.7417 14.689C59.4692 14.7899 59.333 14.8706 59.333 14.9312L59.3633 15.2036C59.3633 15.3146 59.2422 15.4206 59 15.5215C58.8991 15.5719 58.8385 15.6527 58.8184 15.7637C58.8083 15.8747 58.7729 15.9907 58.7124 16.1118H58.4399C58.4097 16.1118 58.3138 16.1623 58.1523 16.2632C58.1322 16.2632 58.112 16.2733 58.0918 16.2935L58.1523 16.6416C58.1523 16.7627 58.0716 16.904 57.9102 17.0654C57.7487 17.2168 57.6226 17.353 57.5317 17.4741C57.451 17.5952 57.3905 17.6558 57.3501 17.6558H57.2593L57.1685 17.7163C57.1785 17.908 57.0524 18.1149 56.79 18.3369L56.6084 18.564C56.5479 18.6144 56.3763 18.8667 56.0938 19.3208C55.8112 19.7749 55.5438 20.1432 55.2915 20.4258C55.0392 20.7083 54.8071 20.9001 54.5952 21.001C54.3833 21.0918 54.1562 21.1877 53.9141 21.2886L53.2935 21.1675C53.2329 21.0565 53.1421 20.9657 53.021 20.895C52.91 20.8244 52.8545 20.7487 52.8545 20.668L52.6729 20.1382C52.6729 19.9969 52.7284 19.8254 52.8394 19.6235C52.9504 19.4116 53.016 19.2502 53.0361 19.1392C53.0664 19.0181 53.127 18.8617 53.2178 18.6699C53.3086 18.4681 53.354 18.3571 53.354 18.3369C53.354 18.0645 53.3944 17.8979 53.4751 17.8374C53.5659 17.7668 53.7627 17.6154 54.0654 17.3833C54.0856 17.3833 54.0957 17.3631 54.0957 17.3228V17.2925L54.0654 17.0352C54.2975 16.6416 54.4438 16.4448 54.5044 16.4448C54.5246 16.4448 54.5649 16.4549 54.6255 16.4751L54.5347 16.1421C54.5347 16.1017 54.5902 16.0361 54.7012 15.9453C54.8122 15.8545 54.8979 15.7536 54.9585 15.6426L54.8979 15.4609V15.4004C54.8979 15.2087 55.0241 15.0119 55.2764 14.8101C55.3167 14.7293 55.3975 14.5225 55.5186 14.1895L55.9121 13.4932C56.013 13.3014 56.119 13.1753 56.23 13.1147C56.341 13.0441 56.4015 12.9634 56.4116 12.8726C56.4217 12.7817 56.457 12.6808 56.5176 12.5698C56.5176 12.6203 56.5226 12.6253 56.5327 12.585C56.5529 12.5345 56.5781 12.4336 56.6084 12.2822C56.6488 12.1309 56.7648 12.0098 56.9565 11.9189C57.1886 11.3236 57.3703 11.0259 57.5015 11.0259C57.5418 11.0259 57.5973 11.0461 57.668 11.0864H57.7285C57.89 11.0864 57.9707 11.0259 57.9707 10.9048C57.9707 10.8644 57.9505 10.8442 57.9102 10.8442C57.8193 10.9451 57.7386 10.9956 57.668 10.9956C57.5973 10.9956 57.562 10.9754 57.562 10.9351C57.562 10.9149 57.5771 10.8947 57.6074 10.8745L57.9404 10.1934L57.9707 9.90576C58.0111 9.84521 58.0918 9.75439 58.2129 9.6333L58.4702 9.28516V9.13379C58.4702 9.11361 58.5156 9.0127 58.6064 8.83105C58.6973 8.63932 58.7629 8.45264 58.8032 8.271L59.0605 7.89258C59.1009 7.77148 59.1211 7.66048 59.1211 7.55957C59.1211 7.4082 59.1009 7.33252 59.0605 7.33252L58.1826 7.49902C57.7083 7.74121 57.3703 7.93294 57.1685 8.07422L56.8203 8.1499C56.8001 8.1499 56.6639 8.22054 56.4116 8.36182C56.1694 8.493 55.9525 8.56868 55.7607 8.58887C55.5791 8.59896 55.4176 8.6696 55.2764 8.80078L55.2158 8.83105H54.9282C54.8172 8.96224 54.7415 9.06315 54.7012 9.13379C54.6608 9.19434 54.6255 9.22461 54.5952 9.22461C53.576 9.90072 52.9302 10.3094 52.6577 10.4507C52.3853 10.592 52.1784 10.7231 52.0371 10.8442C51.8958 10.9552 51.7747 11.036 51.6738 11.0864V11.2681C51.6738 11.4396 51.5477 11.6364 51.2954 11.8584C51.0532 12.0703 50.8413 12.1763 50.6597 12.1763C50.5991 12.1763 50.5033 12.146 50.3721 12.0854C50.251 12.0148 50.1097 11.9694 49.9482 11.9492C49.7969 11.929 49.7212 11.7373 49.7212 11.374C49.7212 10.8594 50.145 10.3901 50.9927 9.96631C51.1239 9.90576 51.245 9.83512 51.356 9.75439C51.467 9.67367 51.916 9.47689 52.7031 9.16406L53.1421 8.95215C53.243 8.85124 53.4095 8.76042 53.6416 8.67969C53.8838 8.58887 54.0705 8.51318 54.2017 8.45264C54.3429 8.39209 54.4539 8.35173 54.5347 8.33154L54.6255 8.10449ZM68.8237 11.7676L68.9751 11.4951V11.4648C68.9751 11.4447 68.9549 11.4346 68.9146 11.4346C68.8136 11.4346 68.7329 11.5355 68.6724 11.7373C68.6925 11.7979 68.7127 11.8281 68.7329 11.8281C68.7733 11.8281 68.8035 11.8079 68.8237 11.7676ZM85.2773 19.2148L84.5659 19.8354C84.5256 19.7951 84.4852 19.7749 84.4448 19.7749C84.3439 19.7749 84.2178 19.8657 84.0664 20.0474C83.9251 20.229 83.8242 20.3198 83.7637 20.3198L83.6123 20.2896C83.36 20.4813 83.1784 20.5923 83.0674 20.6226C82.9564 20.6528 82.8201 20.7083 82.6587 20.7891C82.5073 20.8698 82.366 20.9152 82.2349 20.9253C82.1138 20.9354 82.0129 20.9808 81.9321 21.0615C81.8514 21.1322 81.6546 21.1675 81.3418 21.1675L81.0996 21.1372C80.9684 21.1978 80.8826 21.228 80.8423 21.228C80.7616 21.228 80.6758 21.1877 80.585 21.1069C80.4941 21.0161 80.3932 20.9657 80.2822 20.9556C80.1813 20.9455 80.0754 20.8748 79.9644 20.7437C79.8534 20.6125 79.7474 20.5216 79.6465 20.4712C79.5557 20.4207 79.48 20.3501 79.4194 20.2593L79.2075 20.0776C79.036 19.9565 78.8695 19.7345 78.708 19.4116C78.5465 19.0887 78.4658 18.8364 78.4658 18.6548V18.5942L78.4961 18.3066L78.4658 17.9736C78.5062 17.9333 78.5566 17.8475 78.6172 17.7163V17.2319L78.9805 16.021C79.0007 15.9705 78.9603 15.9049 78.8594 15.8242C78.7585 15.9756 78.6576 16.0664 78.5566 16.0967C78.4557 16.127 78.3851 16.1976 78.3447 16.3086C78.3145 16.4196 78.259 16.4751 78.1782 16.4751L77.9966 16.4146C77.9764 16.4347 77.931 16.5407 77.8604 16.7324C77.7897 16.9141 77.6686 17.0049 77.4971 17.0049C77.3154 17.0049 77.2246 16.9342 77.2246 16.793L77.2549 16.5205L77.1641 16.1421C77.1641 16.0614 77.2448 15.9049 77.4062 15.6729C77.5677 15.4307 77.714 15.2944 77.8452 15.2642C77.9865 15.2238 78.1025 15.1279 78.1934 14.9766C78.2943 14.8151 78.5062 14.6234 78.8291 14.4014C79.0107 14.361 79.1672 14.2298 79.2983 14.0078C79.4396 13.8968 79.6213 13.806 79.8433 13.7354C80.0754 13.6647 80.2469 13.5638 80.3579 13.4326C80.479 13.2913 80.8221 13.0794 81.3872 12.7969C81.9624 12.5042 82.3812 12.3579 82.6436 12.3579C82.7243 12.3579 82.8353 12.3377 82.9766 12.2974C83.1178 12.2469 83.249 12.2065 83.3701 12.1763C83.4912 12.1359 83.6174 12.0804 83.7485 12.0098C83.8797 11.929 83.9857 11.8887 84.0664 11.8887L84.5054 12.04C84.8283 12.1309 85.0251 12.1965 85.0957 12.2368C85.1159 12.257 85.2168 12.3024 85.3984 12.373C85.5902 12.4336 85.7819 12.5194 85.9736 12.6304C86.1755 12.7414 86.2764 12.9482 86.2764 13.251C86.1048 13.5033 86.019 13.6395 86.019 13.6597C86.019 13.7 86.1351 13.7606 86.3672 13.8413C86.4479 13.9927 86.569 14.1895 86.7305 14.4316L86.897 14.9614L86.9272 16.2026L86.897 16.3237C86.786 16.4246 86.7305 16.4902 86.7305 16.5205L86.7759 16.8232L86.6548 17.2471C86.6245 17.3783 86.5741 17.464 86.5034 17.5044C86.4328 17.5448 86.3874 17.5952 86.3672 17.6558L86.2764 17.7769C86.2562 17.8071 86.2108 17.8979 86.1401 18.0493C86.0796 18.1906 86.009 18.3016 85.9282 18.3823C85.8475 18.4631 85.797 18.5589 85.7769 18.6699C85.7567 18.7809 85.7062 18.8617 85.6255 18.9121C85.5448 18.9626 85.4842 19.0181 85.4438 19.0786C85.4136 19.1291 85.3581 19.1745 85.2773 19.2148ZM80.5698 19.6084L80.6304 19.9565L80.6606 19.9868H80.9028L80.9785 20.0171C81.1803 20.0575 81.3317 20.0776 81.4326 20.0776C81.7454 20.0776 81.9927 20.002 82.1743 19.8506C82.366 19.6891 82.5174 19.6084 82.6284 19.6084C82.7394 19.6084 82.8302 19.5327 82.9009 19.3813C82.9816 19.23 83.0321 19.1543 83.0522 19.1543H83.2642L83.3247 19.124C83.3247 18.8919 83.4256 18.7254 83.6274 18.6245C83.8394 18.5236 83.9857 18.3924 84.0664 18.231C84.1572 18.0594 84.2581 17.9333 84.3691 17.8525C84.4801 17.7617 84.5558 17.6457 84.5962 17.5044L84.7173 17.3228C84.7576 17.2824 84.7778 17.2067 84.7778 17.0957L85.0654 16.5508C85.126 16.2985 85.1562 16.1017 85.1562 15.9604C85.1562 15.7485 85.0452 15.582 84.8232 15.4609C84.6113 15.3398 84.5054 15.1027 84.5054 14.7495C84.5054 14.5174 84.6214 14.3055 84.8535 14.1138C85.0957 13.9119 85.2168 13.7909 85.2168 13.7505C85.2168 13.6899 85.1865 13.6597 85.126 13.6597C85.0957 13.6597 84.9797 13.7 84.7778 13.7808C84.7072 13.922 84.349 14.1087 83.7031 14.3408C83.4912 14.2399 83.3752 14.1895 83.355 14.1895C83.2944 14.1895 83.2339 14.25 83.1733 14.3711C83.1128 14.4922 83.0522 14.578 82.9917 14.6284H82.7949C82.7747 14.6284 82.7091 14.694 82.5981 14.8252C82.4871 14.9564 82.3459 15.022 82.1743 15.022L81.9927 15.2036C82.0028 15.3651 81.9019 15.5316 81.6899 15.7031L81.5234 15.8999C81.4225 16.021 81.2913 16.1623 81.1299 16.3237L80.8574 17.0049C80.7464 17.2673 80.6909 17.464 80.6909 17.5952C80.6606 17.6558 80.59 17.7214 80.479 17.792C80.3781 17.8525 80.3276 17.9333 80.3276 18.0342C80.3276 18.0544 80.363 18.1048 80.4336 18.1855C80.5042 18.2663 80.5396 18.3268 80.5396 18.3672L80.479 18.564L80.4185 19.124L80.5698 19.6084ZM93.0122 7.12061L93.2241 7.06006L93.3755 6.90869H93.4058L93.542 6.96924H93.5723C93.8145 6.96924 94.0264 6.92383 94.208 6.83301C94.3997 6.7321 94.5562 6.66146 94.6772 6.62109C94.8084 6.58073 94.8892 6.55046 94.9194 6.53027C94.9497 6.51009 94.9749 6.5 94.9951 6.5L95.2373 6.53027C95.318 6.53027 95.424 6.389 95.5552 6.10645C95.6965 5.8138 95.8529 5.60189 96.0244 5.4707C96.196 5.33952 96.3675 5.09229 96.5391 4.729C96.5794 4.67855 96.6248 4.60286 96.6753 4.50195C96.7257 4.39095 96.7661 4.33545 96.7964 4.33545C96.9478 4.33545 97.0688 4.23958 97.1597 4.04785C97.4624 3.69466 97.7096 3.51807 97.9014 3.51807C98.1536 3.51807 98.3302 3.76025 98.4312 4.24463L98.5825 4.81982C98.5825 4.82992 98.5573 4.9056 98.5068 5.04688C98.4564 5.17806 98.4312 5.31429 98.4312 5.45557C98.4412 5.58675 98.4362 5.67757 98.416 5.72803C98.4059 5.76839 98.4009 5.81885 98.4009 5.87939C98.4009 5.96012 98.4867 6.00049 98.6582 6.00049C98.7188 6.00049 98.8298 5.96012 98.9912 5.87939L99.082 5.84912C99.1829 5.90967 99.2687 5.93994 99.3394 5.93994C99.3595 5.93994 99.5008 5.88949 99.7632 5.78857C100.036 5.68766 100.207 5.63216 100.278 5.62207C100.348 5.61198 100.47 5.57161 100.641 5.50098H100.823L100.944 5.54639C100.984 5.54639 101.065 5.50602 101.186 5.42529C101.317 5.33447 101.559 5.27897 101.913 5.25879L102.125 5.16797H102.185C102.518 5.16797 102.685 5.31429 102.685 5.60693C102.685 5.66748 102.634 5.77344 102.533 5.9248C102.442 6.07617 102.367 6.24772 102.306 6.43945L101.61 7.31738C101.378 7.62012 101.146 7.77148 100.914 7.77148C100.873 7.77148 100.747 7.63525 100.535 7.36279C100.535 7.34261 100.515 7.33252 100.475 7.33252C100.374 7.33252 100.268 7.3527 100.157 7.39307C100.046 7.43343 99.9549 7.45361 99.8843 7.45361C99.854 7.45361 99.5866 7.5293 99.082 7.68066L98.7188 7.74121C98.6784 7.74121 98.5825 7.76139 98.4312 7.80176L97.6592 7.95312C97.3968 8.08431 97.1899 8.33154 97.0386 8.69482C97.0386 8.71501 96.9881 8.76042 96.8872 8.83105L96.2061 10.0723C95.984 10.1328 95.8377 10.264 95.7671 10.4658L95.7065 10.5566C95.5955 10.5768 95.4946 10.6424 95.4038 10.7534C95.313 10.8543 95.2272 10.9351 95.1465 10.9956L94.874 11.4043C94.763 11.5456 94.652 11.702 94.541 11.8735C94.43 12.035 94.3493 12.2116 94.2988 12.4033C94.2484 12.585 94.208 12.6909 94.1777 12.7212C94.1475 12.7515 94.1323 12.807 94.1323 12.8877L94.0869 13.0088C93.9658 13.1299 93.9053 13.2661 93.9053 13.4175L93.9658 13.6597C93.8245 14.144 93.7539 14.4014 93.7539 14.4316C93.7539 14.4518 93.764 14.5073 93.7842 14.5981V14.689C93.7842 14.911 93.7035 15.1885 93.542 15.5215L93.5723 15.7637L93.4814 16.4448C93.4814 16.5356 93.5117 16.7021 93.5723 16.9443C93.5319 16.9847 93.5117 17.015 93.5117 17.0352C93.5117 17.3177 93.658 17.6305 93.9507 17.9736C94.2534 18.3066 94.4048 18.8314 94.4048 19.5479C94.4048 19.6084 94.3896 19.6992 94.3594 19.8203C94.3291 19.9313 94.3089 20.0575 94.2988 20.1987C94.2887 20.3299 94.208 20.4611 94.0566 20.5923C93.9154 20.7235 93.7943 20.7891 93.6934 20.7891C93.1585 20.7891 92.7599 20.4006 92.4976 19.6235C92.2352 18.8465 92.104 18.347 92.104 18.125L92.1343 17.5347L92.0435 17.2319L92.1343 15.8999L92.0737 15.582L92.4219 14.2803V13.811C92.4219 13.7909 92.4925 13.7101 92.6338 13.5688C92.6338 13.5487 92.6136 13.5386 92.5732 13.5386C92.5127 13.5386 92.432 13.5991 92.3311 13.7202C92.2301 13.8413 92.104 13.9574 91.9526 14.0684L91.8315 14.2803C91.8114 14.2601 91.771 14.2399 91.7104 14.2197C91.66 14.2399 91.4935 14.4771 91.2109 14.9312C90.999 14.9614 90.8325 15.0825 90.7114 15.2944C90.5903 15.5063 90.4238 15.6123 90.2119 15.6123L90.1514 15.6426C90.111 15.9352 89.9697 16.0815 89.7275 16.0815L89.667 16.1118C89.5156 16.4549 89.3592 16.6214 89.1978 16.6113C89.0968 16.9141 88.8496 17.1209 88.4561 17.2319C88.3955 17.353 88.3097 17.4438 88.1987 17.5044C88.0776 17.5649 87.9919 17.6204 87.9414 17.6709C87.891 17.7214 87.8455 17.7466 87.8052 17.7466C87.674 17.7466 87.6084 17.6053 87.6084 17.3228C87.6084 17.242 87.6437 17.1562 87.7144 17.0654C87.7749 16.9645 87.8052 16.8939 87.8052 16.8535C87.8052 16.8333 87.7547 16.7728 87.6538 16.6719C87.6538 16.359 87.7345 16.1623 87.896 16.0815C88.0575 16.0008 88.1785 15.8848 88.2593 15.7334C88.3097 15.6123 88.4106 15.5265 88.562 15.4761C88.7134 15.4256 88.7891 15.36 88.7891 15.2793C88.7891 15.2087 88.9202 15.0674 89.1826 14.8555C89.445 14.6436 89.6367 14.4619 89.7578 14.3105C89.8789 14.1491 89.9798 14.0684 90.0605 14.0684L90.1211 14.0078C90.1413 13.7555 90.2371 13.6294 90.4087 13.6294L90.5601 13.5386L90.5903 13.4175L90.6812 13.3569H90.8022L90.8779 13.2964C90.8981 13.0441 91.0142 12.8473 91.2261 12.7061C91.4481 12.5648 91.8467 12.1712 92.4219 11.5254C92.9971 10.8695 93.32 10.4507 93.3906 10.269C93.4613 10.0874 93.5874 9.84521 93.769 9.54248C93.9608 9.22965 94.0667 8.93701 94.0869 8.66455C94.0667 8.62419 94.0365 8.58382 93.9961 8.54346L93.3452 8.86133C93.3452 8.83105 93.2443 8.78564 93.0425 8.7251C92.8911 8.81592 92.7801 8.90674 92.7095 8.99756C92.6388 9.08838 92.5833 9.13379 92.543 9.13379L92.3311 9.10352L91.665 9.1792C91.0697 9.22965 90.6206 9.35075 90.3179 9.54248L89.6973 9.72412H89.561C89.4803 9.72412 89.3592 9.77458 89.1978 9.87549L88.8496 9.84521C88.5267 10.0168 88.2896 10.1025 88.1382 10.1025C88.118 10.1025 88.0575 10.0924 87.9565 10.0723L86.4126 10.4961C86.2915 10.5365 86.019 10.7433 85.5952 11.1167L85.4741 11.147C85.3732 11.147 85.2572 11.036 85.126 10.814C84.9847 10.5819 84.9141 10.375 84.9141 10.1934C84.9141 9.19434 85.7718 8.6141 87.4873 8.45264L88.1079 8.21045H88.1382L88.3047 8.271H88.3652C88.4258 8.271 88.5216 8.23568 88.6528 8.16504C88.784 8.08431 89.0767 7.98844 89.5308 7.87744L90.1514 7.71094L90.3481 7.74121C90.4491 7.74121 90.5601 7.70085 90.6812 7.62012C90.8123 7.53939 91.0041 7.48389 91.2563 7.45361C91.5187 7.41325 91.7004 7.37288 91.8013 7.33252L92.0435 7.27197C92.0838 7.27197 92.1646 7.23665 92.2856 7.16602C92.4168 7.09538 92.5833 7.06006 92.7852 7.06006C92.8154 7.06006 92.8911 7.08024 93.0122 7.12061ZM105.106 19.2148L104.395 19.8354C104.355 19.7951 104.314 19.7749 104.274 19.7749C104.173 19.7749 104.047 19.8657 103.896 20.0474C103.754 20.229 103.653 20.3198 103.593 20.3198L103.441 20.2896C103.189 20.4813 103.007 20.5923 102.896 20.6226C102.785 20.6528 102.649 20.7083 102.488 20.7891C102.336 20.8698 102.195 20.9152 102.064 20.9253C101.943 20.9354 101.842 20.9808 101.761 21.0615C101.681 21.1322 101.484 21.1675 101.171 21.1675L100.929 21.1372C100.798 21.1978 100.712 21.228 100.671 21.228C100.591 21.228 100.505 21.1877 100.414 21.1069C100.323 21.0161 100.222 20.9657 100.111 20.9556C100.01 20.9455 99.9045 20.8748 99.7935 20.7437C99.6825 20.6125 99.5765 20.5216 99.4756 20.4712C99.3848 20.4207 99.3091 20.3501 99.2485 20.2593L99.0366 20.0776C98.8651 19.9565 98.6986 19.7345 98.5371 19.4116C98.3757 19.0887 98.2949 18.8364 98.2949 18.6548V18.5942L98.3252 18.3066L98.2949 17.9736C98.3353 17.9333 98.3857 17.8475 98.4463 17.7163V17.2319L98.8096 16.021C98.8298 15.9705 98.7894 15.9049 98.6885 15.8242C98.5876 15.9756 98.4867 16.0664 98.3857 16.0967C98.2848 16.127 98.2142 16.1976 98.1738 16.3086C98.1436 16.4196 98.0881 16.4751 98.0073 16.4751L97.8257 16.4146C97.8055 16.4347 97.7601 16.5407 97.6895 16.7324C97.6188 16.9141 97.4977 17.0049 97.3262 17.0049C97.1445 17.0049 97.0537 16.9342 97.0537 16.793L97.084 16.5205L96.9932 16.1421C96.9932 16.0614 97.0739 15.9049 97.2354 15.6729C97.3968 15.4307 97.5431 15.2944 97.6743 15.2642C97.8156 15.2238 97.9316 15.1279 98.0225 14.9766C98.1234 14.8151 98.3353 14.6234 98.6582 14.4014C98.8398 14.361 98.9963 14.2298 99.1274 14.0078C99.2687 13.8968 99.4504 13.806 99.6724 13.7354C99.9045 13.6647 100.076 13.5638 100.187 13.4326C100.308 13.2913 100.651 13.0794 101.216 12.7969C101.792 12.5042 102.21 12.3579 102.473 12.3579C102.553 12.3579 102.664 12.3377 102.806 12.2974C102.947 12.2469 103.078 12.2065 103.199 12.1763C103.32 12.1359 103.446 12.0804 103.578 12.0098C103.709 11.929 103.815 11.8887 103.896 11.8887L104.334 12.04C104.657 12.1309 104.854 12.1965 104.925 12.2368C104.945 12.257 105.046 12.3024 105.228 12.373C105.419 12.4336 105.611 12.5194 105.803 12.6304C106.005 12.7414 106.105 12.9482 106.105 13.251C105.934 13.5033 105.848 13.6395 105.848 13.6597C105.848 13.7 105.964 13.7606 106.196 13.8413C106.277 13.9927 106.398 14.1895 106.56 14.4316L106.726 14.9614L106.756 16.2026L106.726 16.3237C106.615 16.4246 106.56 16.4902 106.56 16.5205L106.605 16.8232L106.484 17.2471C106.454 17.3783 106.403 17.464 106.333 17.5044C106.262 17.5448 106.216 17.5952 106.196 17.6558L106.105 17.7769C106.085 17.8071 106.04 17.8979 105.969 18.0493C105.909 18.1906 105.838 18.3016 105.757 18.3823C105.677 18.4631 105.626 18.5589 105.606 18.6699C105.586 18.7809 105.535 18.8617 105.455 18.9121C105.374 18.9626 105.313 19.0181 105.273 19.0786C105.243 19.1291 105.187 19.1745 105.106 19.2148ZM100.399 19.6084L100.459 19.9565L100.49 19.9868H100.732L100.808 20.0171C101.009 20.0575 101.161 20.0776 101.262 20.0776C101.575 20.0776 101.822 20.002 102.003 19.8506C102.195 19.6891 102.347 19.6084 102.458 19.6084C102.569 19.6084 102.659 19.5327 102.73 19.3813C102.811 19.23 102.861 19.1543 102.881 19.1543H103.093L103.154 19.124C103.154 18.8919 103.255 18.7254 103.457 18.6245C103.668 18.5236 103.815 18.3924 103.896 18.231C103.986 18.0594 104.087 17.9333 104.198 17.8525C104.309 17.7617 104.385 17.6457 104.425 17.5044L104.546 17.3228C104.587 17.2824 104.607 17.2067 104.607 17.0957L104.895 16.5508C104.955 16.2985 104.985 16.1017 104.985 15.9604C104.985 15.7485 104.874 15.582 104.652 15.4609C104.44 15.3398 104.334 15.1027 104.334 14.7495C104.334 14.5174 104.451 14.3055 104.683 14.1138C104.925 13.9119 105.046 13.7909 105.046 13.7505C105.046 13.6899 105.016 13.6597 104.955 13.6597C104.925 13.6597 104.809 13.7 104.607 13.7808C104.536 13.922 104.178 14.1087 103.532 14.3408C103.32 14.2399 103.204 14.1895 103.184 14.1895C103.124 14.1895 103.063 14.25 103.002 14.3711C102.942 14.4922 102.881 14.578 102.821 14.6284H102.624C102.604 14.6284 102.538 14.694 102.427 14.8252C102.316 14.9564 102.175 15.022 102.003 15.022L101.822 15.2036C101.832 15.3651 101.731 15.5316 101.519 15.7031L101.353 15.8999C101.252 16.021 101.12 16.1623 100.959 16.3237L100.687 17.0049C100.576 17.2673 100.52 17.464 100.52 17.5952C100.49 17.6558 100.419 17.7214 100.308 17.792C100.207 17.8525 100.157 17.9333 100.157 18.0342C100.157 18.0544 100.192 18.1048 100.263 18.1855C100.333 18.2663 100.369 18.3268 100.369 18.3672L100.308 18.564L100.248 19.124L100.399 19.6084ZM111.312 13.4478L111.54 13.3872L111.63 13.1904C112.125 12.8978 112.478 12.6203 112.69 12.3579C112.71 12.3175 112.756 12.2772 112.826 12.2368C112.897 12.1965 112.972 12.1258 113.053 12.0249C113.427 11.6515 113.871 11.4648 114.385 11.4648C114.991 11.4648 115.314 11.8332 115.354 12.5698L115.445 12.7969C115.526 12.9382 115.637 13.2257 115.778 13.6597C115.929 14.0936 116.005 14.361 116.005 14.4619C116.005 14.7344 115.919 15.0068 115.748 15.2793C115.606 15.3499 115.268 15.7284 114.733 16.4146L114.582 16.5205C114.501 16.7021 114.395 16.8838 114.264 17.0654C114.062 17.1361 113.961 17.2118 113.961 17.2925V17.5649C113.961 17.5851 113.936 17.6255 113.886 17.686C113.845 17.7466 113.785 17.8626 113.704 18.0342L113.583 18.2158C113.543 18.2562 113.502 18.342 113.462 18.4731C113.422 18.5942 113.361 18.7052 113.28 18.8062C113.21 18.9071 113.174 18.9878 113.174 19.0483C113.174 19.1997 113.371 19.2754 113.765 19.2754C113.785 19.2754 113.861 19.2451 113.992 19.1846L114.204 19.2451C114.224 19.2451 114.274 19.2148 114.355 19.1543C114.436 19.0837 114.557 19.0282 114.718 18.9878C114.89 18.9474 115.036 18.8869 115.157 18.8062C115.288 18.7254 115.44 18.6548 115.611 18.5942C115.793 18.5337 115.965 18.4378 116.126 18.3066C116.287 18.1654 116.444 18.0645 116.595 18.0039C116.757 17.9434 116.903 17.8525 117.034 17.7314C117.175 17.6003 117.332 17.4792 117.503 17.3682C117.675 17.2572 117.947 17.015 118.321 16.6416C118.563 16.4499 118.729 16.3439 118.82 16.3237C118.84 16.3237 118.926 16.1925 119.078 15.9302C119.239 15.6577 119.421 15.5215 119.623 15.5215C119.834 15.5215 119.94 15.6224 119.94 15.8242C119.94 15.9352 119.89 16.0412 119.789 16.1421V16.2329L119.819 16.4751C119.84 16.5054 119.85 16.5508 119.85 16.6113C119.85 16.6517 119.809 16.7122 119.729 16.793C119.658 16.8737 119.607 16.9797 119.577 17.1108C119.547 17.2319 119.451 17.3127 119.29 17.353C119.229 17.575 119.148 17.7012 119.047 17.7314C118.957 17.7617 118.825 17.8626 118.654 18.0342C118.482 18.2057 118.24 18.4076 117.927 18.6396C117.614 18.8717 117.397 19.0534 117.276 19.1846C117.165 19.3057 117.09 19.3662 117.049 19.3662C117.029 19.3662 116.989 19.346 116.928 19.3057C116.868 19.2653 116.827 19.2451 116.807 19.2451C116.747 19.2451 116.706 19.3158 116.686 19.457L116.625 19.6084C116.494 19.6891 116.419 19.7295 116.398 19.7295L116.308 19.6992H116.247C116.126 19.6992 116.065 19.7446 116.065 19.8354L116.156 19.9868V20.0171C116.156 20.1584 116.076 20.229 115.914 20.229C115.803 20.229 115.48 20.4157 114.945 20.7891L114.506 20.8799L114.143 21.0767C114.022 21.006 113.946 20.9707 113.916 20.9707L113.674 21.0464L113.235 21.0767C113.225 21.0767 113.038 20.9757 112.675 20.7739C112.322 20.5721 112.11 20.3703 112.039 20.1685C111.968 19.9666 111.878 19.7648 111.767 19.563C111.656 19.3511 111.6 19.2048 111.6 19.124C111.6 18.6396 111.64 18.2965 111.721 18.0947C111.802 17.8828 111.852 17.7264 111.873 17.6255C111.893 17.5246 111.948 17.4186 112.039 17.3076C112.14 17.1865 112.221 16.9948 112.281 16.7324C112.574 16.1471 112.776 15.7889 112.887 15.6577C112.998 15.5265 113.083 15.3651 113.144 15.1733L113.341 14.9009C113.361 14.8807 113.391 14.805 113.432 14.6738C113.472 14.5326 113.522 14.4518 113.583 14.4316C113.664 14.2904 113.704 14.1995 113.704 14.1592C113.704 13.8665 113.573 13.7202 113.311 13.7202C113.26 13.7202 113.205 13.7757 113.144 13.8867C113.083 13.9876 112.942 14.0885 112.72 14.1895C112.508 14.2904 112.377 14.366 112.327 14.4165C112.276 14.467 112.165 14.5326 111.994 14.6133C111.832 14.6839 111.691 14.8 111.57 14.9614L111.312 15.0825C111.232 15.2743 111.161 15.3802 111.101 15.4004C111.04 15.4206 110.853 15.471 110.541 15.5518C110.52 15.5618 110.47 15.6224 110.389 15.7334C110.308 15.8444 110.192 15.8999 110.041 15.8999C109.92 16.021 109.799 16.1623 109.678 16.3237C109.637 16.3237 109.531 16.3641 109.36 16.4448L109.057 16.5205C108.976 16.5811 108.886 16.6769 108.785 16.8081C108.694 16.9393 108.517 17.0049 108.255 17.0049C108.104 17.0049 108.028 16.8838 108.028 16.6416C108.028 16.1471 108.199 15.7536 108.542 15.4609C108.896 15.1683 109.153 15.0119 109.314 14.9917C109.476 14.9715 109.577 14.911 109.617 14.8101C109.658 14.7091 109.753 14.6284 109.905 14.5679C110.066 14.4972 110.248 14.3509 110.45 14.1289C110.662 13.8968 110.889 13.7404 111.131 13.6597L111.312 13.4478ZM121.999 13.5688L122.211 13.1904C122.271 13.0996 122.347 13.0088 122.438 12.918C122.539 12.8171 122.645 12.5698 122.756 12.1763C122.867 11.7726 122.988 11.4951 123.119 11.3438C123.26 11.1924 123.462 11.1167 123.725 11.1167C123.876 11.1167 124.073 11.1924 124.315 11.3438C124.567 11.485 124.809 11.924 125.042 12.6606C125.284 13.3973 125.405 13.917 125.405 14.2197C125.405 14.3408 125.44 14.4972 125.511 14.689C125.581 14.8706 125.627 15.0119 125.647 15.1128C125.566 15.2843 125.526 15.3802 125.526 15.4004L125.556 16.021L125.375 16.5205V16.8838C125.253 17.0856 125.193 17.2118 125.193 17.2622C125.193 17.3228 125.213 17.3833 125.253 17.4438C125.728 17.242 126.015 17.0806 126.116 16.9595C126.217 16.8283 126.313 16.7476 126.404 16.7173C126.505 16.687 126.666 16.5558 126.888 16.3237L127.176 16.1724C127.277 16.0513 127.362 15.9453 127.433 15.8545C127.504 15.7536 127.584 15.6829 127.675 15.6426C127.776 15.6022 127.892 15.5316 128.023 15.4307C128.155 15.3298 128.346 15.2137 128.599 15.0825L128.75 14.9009C128.901 14.7293 129.078 14.5931 129.28 14.4922C129.492 14.3913 129.608 14.3408 129.628 14.3408C129.699 14.3408 129.769 14.4367 129.84 14.6284C129.921 14.8101 129.961 14.9917 129.961 15.1733C129.961 15.3449 129.86 15.5164 129.658 15.688C129.466 15.8494 129.335 15.9705 129.265 16.0513C129.194 16.132 129.033 16.2026 128.78 16.2632C128.76 16.2733 128.594 16.4801 128.281 16.8838L127.978 17.0654L127.827 17.2622C127.806 17.3026 127.67 17.3429 127.418 17.3833C127.408 17.3833 127.383 17.4338 127.342 17.5347C127.312 17.6356 127.206 17.7062 127.024 17.7466C126.661 18.0796 126.474 18.2663 126.464 18.3066L126.146 18.3672C126.086 18.5589 126.035 18.675 125.995 18.7153C125.753 18.7759 125.617 18.8768 125.586 19.0181C125.556 19.0382 125.506 19.0584 125.435 19.0786L125.375 19.124C125.142 19.3057 124.915 19.4167 124.693 19.457L124.345 19.5479L124.224 19.7295C124.224 19.7799 124.098 19.8455 123.846 19.9263C123.604 20.007 123.422 20.1079 123.301 20.229L123.043 20.4258C122.731 20.5469 122.534 20.6579 122.453 20.7588H122.241C122.1 20.7588 121.878 20.8647 121.575 21.0767C121.272 21.2785 121.03 21.3794 120.849 21.3794C120.263 21.3794 119.86 21.3088 119.638 21.1675C119.426 21.0161 119.249 20.8345 119.108 20.6226C118.967 20.4006 118.84 20.224 118.729 20.0928C118.608 19.9616 118.548 19.8556 118.548 19.7749C118.548 19.7043 118.598 19.6336 118.699 19.563C118.79 19.4924 118.891 19.3511 119.002 19.1392C119.113 18.9172 119.396 18.7759 119.85 18.7153C119.87 18.7153 119.94 18.6851 120.062 18.6245C120.193 18.564 120.299 18.5337 120.379 18.5337C120.48 18.5337 120.606 18.6245 120.758 18.8062C120.758 18.8263 120.778 18.8364 120.818 18.8364L121.061 18.8062C121.172 18.8869 121.247 18.9272 121.288 18.9272C121.53 18.9272 121.787 18.8062 122.06 18.564L122.12 18.5337H122.241C122.271 18.5337 122.322 18.4479 122.393 18.2764L122.65 17.7466L123.18 17.0654V16.9141C123.18 16.8838 123.21 16.793 123.271 16.6416V16.4146C123.271 16.3237 123.331 16.2682 123.452 16.248C123.573 16.2178 123.634 16.1522 123.634 16.0513L123.604 15.9302C123.523 15.8192 123.482 15.7334 123.482 15.6729L123.634 15.3701L123.604 15.0522L123.664 14.9312C123.624 14.7899 123.604 14.7091 123.604 14.689L123.664 14.3105C123.664 14.3005 123.634 14.2046 123.573 14.0229C123.523 13.8413 123.482 13.7505 123.452 13.7505C123.392 13.7505 123.2 13.9069 122.877 14.2197C122.554 14.5326 122.362 14.7546 122.302 14.8857C122.241 15.0169 122.11 15.138 121.908 15.249C121.716 15.3499 121.585 15.466 121.515 15.5972C121.444 15.7284 121.358 15.804 121.257 15.8242L120.243 16.6416L119.138 17.459C119.057 17.5498 119.007 17.5952 118.987 17.5952C118.613 17.5952 118.427 17.3883 118.427 16.9746C118.427 16.8434 118.502 16.6063 118.654 16.2632C118.724 16.2228 118.78 16.1925 118.82 16.1724C118.851 16.1522 118.866 16.137 118.866 16.127C118.866 16.1169 118.856 16.1118 118.835 16.1118L118.926 16.1724H118.957C119.33 15.9201 119.572 15.7738 119.683 15.7334C119.794 15.693 119.895 15.582 119.986 15.4004L120.622 14.9463C120.783 14.8252 121.03 14.6032 121.363 14.2803C121.696 13.9574 121.908 13.7202 121.999 13.5688Z" fill="#092B5B"/>
</svg>
