<svg width="57" height="55" viewBox="0 0 57 55" fill="none" xmlns="http://www.w3.org/2000/svg">
<path d="M28.5 5.16113C18.0066 5.16113 9.5 13.1895 9.5 23.093C9.5 37.035 21.4938 36.9229 24.3675 45.0147L25.5788 48.4666C25.9184 49.42 26.8894 50.0432 27.9538 49.9908H29.2838C30.3481 50.0432 31.3191 49.42 31.6588 48.4666L32.87 45.0147C35.625 36.9229 47.5 37.035 47.5 23.093C47.5 13.1895 38.9934 5.16113 28.5 5.16113ZM28.5 29.8174C24.565 29.8174 21.375 26.8068 21.375 23.093C21.375 19.3792 24.565 16.3685 28.5 16.3685C32.435 16.3685 35.625 19.3792 35.625 23.093C35.625 24.8764 34.8743 26.5868 33.5381 27.8479C32.2019 29.109 30.3897 29.8174 28.5 29.8174Z" fill="#1476FF"/>
</svg>
