<svg width="22" height="22" viewBox="0 0 22 22" fill="none" xmlns="http://www.w3.org/2000/svg">
<g filter="url(#filter0_i_19_1828)">
<path fill-rule="evenodd" clip-rule="evenodd" d="M6.586 0.940552C7.62087 0.892911 7.95082 0.882324 10.587 0.882324C13.2231 0.882324 13.553 0.893793 14.587 0.940552C15.621 0.987311 16.3268 1.15229 16.9444 1.39138C17.591 1.63576 18.1777 2.01777 18.663 2.51182C19.157 2.99617 19.5381 3.58198 19.7816 4.22954C20.0216 4.84711 20.1857 5.5529 20.2334 6.58512C20.281 7.62175 20.2916 7.9517 20.2916 10.587C20.2916 13.2231 20.2801 13.553 20.2334 14.5879C20.1866 15.6201 20.0216 16.3259 19.7816 16.9435C19.5381 17.5911 19.1564 18.1779 18.663 18.663C18.1777 19.157 17.591 19.5381 16.9444 19.7816C16.3268 20.0216 15.621 20.1857 14.5888 20.2334C13.553 20.281 13.2231 20.2916 10.587 20.2916C7.95082 20.2916 7.62087 20.2801 6.586 20.2334C5.55378 20.1866 4.84799 20.0216 4.23042 19.7816C3.58279 19.5381 2.99601 19.1564 2.51094 18.663C2.01722 18.1783 1.63515 17.5918 1.39138 16.9444C1.15229 16.3268 0.988193 15.621 0.940552 14.5888C0.892911 13.5522 0.882324 13.2222 0.882324 10.587C0.882324 7.95082 0.893793 7.62087 0.940552 6.58688C0.987311 5.5529 1.15229 4.84711 1.39138 4.22954C1.63551 3.58205 2.01787 2.99556 2.51182 2.51094C2.9962 2.01733 3.58239 1.63527 4.22954 1.39138C4.84711 1.15229 5.5529 0.988193 6.58512 0.940552H6.586ZM14.5085 2.68739C13.4851 2.64063 13.1781 2.63092 10.587 2.63092C7.99582 2.63092 7.6888 2.64063 6.6654 2.68739C5.71876 2.73061 5.2053 2.88854 4.86299 3.02175C4.4104 3.1982 4.08662 3.40729 3.74695 3.74695C3.42498 4.06019 3.17719 4.44152 3.02175 4.86299C2.88854 5.2053 2.73061 5.71876 2.68739 6.6654C2.64063 7.6888 2.63092 7.99582 2.63092 10.587C2.63092 13.1781 2.64063 13.4851 2.68739 14.5085C2.73061 15.4551 2.88854 15.9686 3.02175 16.3109C3.17703 16.7317 3.42494 17.1138 3.74695 17.427C4.06015 17.749 4.44216 17.9969 4.86299 18.1522C5.2053 18.2854 5.71876 18.4433 6.6654 18.4865C7.6888 18.5333 7.99493 18.543 10.587 18.543C13.179 18.543 13.4851 18.5333 14.5085 18.4865C15.4551 18.4433 15.9686 18.2854 16.3109 18.1522C16.7635 17.9757 17.0873 17.7666 17.427 17.427C17.749 17.1138 17.9969 16.7317 18.1522 16.3109C18.2854 15.9686 18.4433 15.4551 18.4865 14.5085C18.5333 13.4851 18.543 13.1781 18.543 10.587C18.543 7.99582 18.5333 7.6888 18.4865 6.6654C18.4433 5.71876 18.2854 5.2053 18.1522 4.86299C17.9757 4.4104 17.7666 4.08662 17.427 3.74695C17.1137 3.425 16.7324 3.17721 16.3109 3.02175C15.9686 2.88854 15.4551 2.73061 14.5085 2.68739ZM9.34741 13.5786C10.0397 13.8668 10.8105 13.9057 11.5282 13.6887C12.246 13.4716 12.8661 13.0122 13.2827 12.3887C13.6993 11.7652 13.8866 11.0165 13.8125 10.2703C13.7383 9.52415 13.4075 8.82686 12.8764 8.29754C12.5378 7.95918 12.1284 7.7001 11.6777 7.53895C11.227 7.37779 10.7461 7.31858 10.2698 7.36556C9.79343 7.41254 9.33343 7.56456 8.92288 7.81066C8.51233 8.05677 8.16145 8.39083 7.89551 8.78882C7.62957 9.1868 7.45517 9.6388 7.38488 10.1123C7.31459 10.5857 7.35015 11.0689 7.48901 11.527C7.62786 11.9851 7.86655 12.4067 8.1879 12.7614C8.50924 13.1162 8.90525 13.3953 9.34741 13.5786ZM7.05976 7.05976C7.52296 6.59656 8.07285 6.22914 8.67805 5.97846C9.28325 5.72777 9.93189 5.59875 10.587 5.59875C11.242 5.59875 11.8907 5.72777 12.4959 5.97845C13.1011 6.22914 13.6509 6.59656 14.1141 7.05976C14.5773 7.52296 14.9448 8.07285 15.1954 8.67805C15.4461 9.28325 15.5752 9.93189 15.5752 10.587C15.5752 11.242 15.4461 11.8907 15.1954 12.4959C14.9448 13.1011 14.5773 13.6509 14.1141 14.1141C13.1787 15.0496 11.9099 15.5752 10.587 15.5752C9.264 15.5752 7.99523 15.0496 7.05976 14.1141C6.12429 13.1787 5.59875 11.9099 5.59875 10.587C5.59875 9.264 6.12429 7.99523 7.05976 7.05976ZM16.6815 6.34162C16.7962 6.23334 16.8881 6.10313 16.9517 5.9587C17.0153 5.81428 17.0492 5.65856 17.0515 5.50078C17.0538 5.343 17.0244 5.18637 16.9651 5.04015C16.9058 4.89393 16.8177 4.7611 16.7061 4.64952C16.5945 4.53794 16.4617 4.44988 16.3155 4.39056C16.1693 4.33124 16.0126 4.30186 15.8549 4.30416C15.6971 4.30646 15.5414 4.3404 15.3969 4.40395C15.2525 4.46751 15.1223 4.5594 15.014 4.67419C14.8034 4.89742 14.6882 5.19393 14.6926 5.50078C14.6971 5.80763 14.821 6.10066 15.038 6.31766C15.255 6.53466 15.548 6.65854 15.8549 6.66302C16.1617 6.66749 16.4582 6.5522 16.6815 6.34162Z" fill="url(#paint0_linear_19_1828)"/>
</g>
<defs>
<filter id="filter0_i_19_1828" x="0" y="0" width="21.1737" height="21.872" filterUnits="userSpaceOnUse" color-interpolation-filters="sRGB">
<feFlood flood-opacity="0" result="BackgroundImageFix"/>
<feBlend mode="normal" in="SourceGraphic" in2="BackgroundImageFix" result="shape"/>
<feColorMatrix in="SourceAlpha" type="matrix" values="0 0 0 0 0 0 0 0 0 0 0 0 0 0 0 0 0 0 127 0" result="hardAlpha"/>
<feOffset dy="0.698259"/>
<feGaussianBlur stdDeviation="1.30924"/>
<feComposite in2="hardAlpha" operator="arithmetic" k2="-1" k3="1"/>
<feColorMatrix type="matrix" values="0 0 0 0 0 0 0 0 0 0 0 0 0 0 0 0 0 0 0.2 0"/>
<feBlend mode="normal" in2="shape" result="effect1_innerShadow_19_1828"/>
</filter>
<linearGradient id="paint0_linear_19_1828" x1="1" y1="1" x2="16" y2="20" gradientUnits="userSpaceOnUse">
<stop stop-color="#F12CDD"/>
<stop offset="0.451042" stop-color="#E62C6F"/>
<stop offset="1" stop-color="#FFCC6A"/>
</linearGradient>
</defs>
</svg>
