<svg width="355" height="59" viewBox="0 0 355 59" fill="none" xmlns="http://www.w3.org/2000/svg">
<path d="M8.34473 9.24072L9.05029 8.65967L9.88037 8.74268C10.3507 8.74268 10.752 8.61816 11.084 8.36914C11.416 8.12012 11.6789 7.98177 11.8726 7.9541C12.0939 7.92643 12.3429 7.78809 12.6196 7.53906C12.924 7.29004 13.3529 7.12402 13.9062 7.04102C14.4596 6.93034 14.8608 6.75049 15.1099 6.50146C15.3589 6.25244 15.6356 6.10026 15.9399 6.04492C16.272 5.96191 16.6455 5.8374 17.0605 5.67139L20.8374 4.50928C20.8927 4.50928 21.0449 4.56462 21.2939 4.67529H21.46C21.792 4.67529 22.1102 4.55078 22.4146 4.30176C22.7466 4.02507 23.134 3.88672 23.5767 3.88672C23.8534 3.88672 24.3929 3.7207 25.1953 3.38867L25.4443 3.6377C25.887 3.13965 26.2606 2.89062 26.5649 2.89062H26.814C26.8693 2.89062 27.1183 2.94596 27.561 3.05664C28.2528 2.83529 28.82 2.72461 29.2627 2.72461L30.2173 2.6416C30.2726 2.6416 30.3556 2.66927 30.4663 2.72461C30.6877 2.47559 30.992 2.3234 31.3794 2.26807H31.8359L33.5376 1.85303L34.0356 2.01904C34.3677 1.74235 34.8796 1.604 35.5713 1.604H35.9863L36.4014 1.68701C36.4567 1.68701 36.7057 1.604 37.1484 1.43799C37.6188 1.27197 38.7394 1.18896 40.5103 1.18896L41.5894 1.35498C42.2811 1.07829 42.6546 0.939941 42.71 0.939941L43.8721 1.18896L44.3286 1.02295H44.4946C44.55 1.02295 44.6883 1.07829 44.9097 1.18896H44.9927L47.981 0.773926C48.0363 0.773926 48.147 0.801595 48.313 0.856934C48.5343 0.663249 48.7004 0.566406 48.811 0.566406L49.5996 0.773926C49.821 0.773926 50.2083 0.621745 50.7617 0.317383L51.0107 0.566406L53.833 0.234375L54.8706 0.317383L55.7837 0.151367C56.6968 0.151367 57.3747 0.400391 57.8174 0.898438C58.2878 1.36882 58.5229 1.85303 58.5229 2.35107L58.689 3.6377L58.4399 4.34326L58.3569 5.17334C58.2186 5.50537 58.0111 5.72673 57.7344 5.8374C57.7344 5.89274 57.6099 5.96191 57.3608 6.04492C57.1118 6.10026 56.8628 6.21094 56.6138 6.37695C56.3647 6.54297 55.5485 6.62598 54.165 6.62598C53.4733 6.62598 53.0306 6.41846 52.8369 6.00342C52.6432 5.56071 52.4357 5.31169 52.2144 5.25635L50.4297 4.50928C50.3743 4.45394 50.2083 4.42627 49.9316 4.42627H49.5996L47.8979 4.59229C47.8426 4.59229 47.6904 4.56462 47.4414 4.50928C47.0817 4.67529 46.888 4.7583 46.8604 4.7583L43.7891 4.59229L42.5439 4.67529L41.6724 4.50928C41.5617 4.50928 41.368 4.55078 41.0913 4.63379C40.8146 4.7168 40.2336 4.78597 39.3481 4.84131C38.4627 4.89665 38.02 5.17334 38.02 5.67139C38.02 5.97575 38.1307 6.30778 38.3521 6.66748C38.6011 7.02718 38.7256 7.31771 38.7256 7.53906C38.3105 8.12012 38.103 8.49365 38.103 8.65967C37.9924 8.74268 37.7987 8.92253 37.522 9.19922C37.2453 9.47591 36.7334 9.91862 35.9863 10.5273C35.2393 11.1084 34.7274 11.6479 34.4507 12.146C34.174 12.644 33.842 12.8931 33.4546 12.8931C32.9565 13.3634 32.6107 13.7923 32.417 14.1797L32.085 14.5117C32.0296 14.5671 32.002 14.6916 32.002 14.8853C32.002 15.0513 31.9189 15.2173 31.7529 15.3833L31.3794 16.3794C31.1857 16.4624 30.6185 17.1818 29.6777 18.5376L29.1797 18.7866L28.6816 19.3677H28.1006C27.8516 19.3677 27.7271 19.5337 27.7271 19.8657L27.8931 21.0693C27.478 21.429 27.146 21.9132 26.897 22.522L26.3989 23.3521C25.8179 23.9331 25.5273 24.2513 25.5273 24.3066C25.5273 24.445 25.2507 25.0399 24.6973 26.0913L24.6143 26.5063C24.6143 26.9767 23.6458 28.3325 21.709 30.5737C21.4323 31.0994 21.2663 31.9019 21.2109 32.981C20.3809 34.6134 19.8136 35.402 19.5093 35.3467C19.4539 36.3981 19.2741 37.2559 18.9697 37.9199C18.693 38.584 18.3195 39.5662 17.8491 40.8667C17.4064 42.1395 16.936 43.0526 16.438 43.606L16.272 43.938C16.1613 44.1593 16.0229 44.3807 15.8569 44.6021C15.8016 45.3491 15.5387 46.5389 15.0684 48.1714L14.8193 49.9561L13.9893 52.2803C13.9062 52.4463 13.8647 52.6123 13.8647 52.7783C13.8647 52.889 13.9478 53.1104 14.1138 53.4424C14.3075 53.7467 14.4043 54.0373 14.4043 54.314C14.4043 54.7013 14.3351 55.0195 14.1968 55.2686C14.0584 55.4899 13.9893 55.7943 13.9893 56.1816C13.9893 57.0394 13.5327 57.6066 12.6196 57.8833H12.2876L11.416 57.9663C10.2539 57.9663 9.20247 57.4129 8.26172 56.3062C7.32096 55.1994 6.85059 53.6776 6.85059 51.7407C6.85059 51.63 6.93359 51.215 7.09961 50.4956C7.26562 49.7485 7.36247 49.2643 7.39014 49.043C7.41781 48.8216 7.48698 48.6003 7.59766 48.3789C7.70833 48.1299 7.76367 47.784 7.76367 47.3413C7.76367 45.9855 8.0957 44.8096 8.75977 43.8135C9.4515 42.8174 9.90804 42.098 10.1294 41.6553C10.1847 41.4616 10.2816 41.3371 10.4199 41.2817C10.3369 41.0604 10.2954 40.7837 10.2954 40.4517C10.2954 39.6493 10.6413 38.999 11.333 38.501C11.3883 38.2796 11.4852 38.0306 11.6235 37.7539C11.7619 37.4495 12.0524 36.744 12.4951 35.6372C12.9378 34.5028 13.5189 33.8387 14.2383 33.645C14.2106 33.5897 14.3766 33.3683 14.7363 32.981L14.5703 31.5283C14.5703 31.307 14.8193 30.9334 15.3174 30.4077L16.0229 29.2456C16.1336 28.7752 16.4933 28.3464 17.1021 27.959C17.2681 27.6823 17.4479 27.5163 17.6416 27.4609C17.6693 27.3503 17.7799 27.0044 17.9736 26.4233C18.195 25.8423 18.6377 25.1229 19.3018 24.2651C19.9935 23.3797 20.6437 22.4666 21.2524 21.5259C21.8888 20.5851 22.4561 20.1009 22.9541 20.0732C23.4798 20.0456 23.7703 19.755 23.8257 19.2017L24.0747 17.666C24.8771 16.9743 25.3613 16.4901 25.5273 16.2134L26.1084 15.5493C26.2191 15.1619 26.3574 14.9129 26.5234 14.8022C26.7171 14.6639 26.9523 14.401 27.229 14.0137C27.5057 13.6263 27.8516 13.2804 28.2666 12.9761C28.6263 11.8416 29.4425 10.8594 30.7153 10.0293L31.3794 9.32373C31.8498 8.65967 32.2371 8.21696 32.5415 7.99561C32.8459 7.74658 33.0672 7.42839 33.2056 7.04102C33.3716 6.65365 33.6759 6.36312 34.1187 6.16943C34.5614 5.97575 34.7827 5.75439 34.7827 5.50537C34.7827 5.39469 34.672 5.33936 34.4507 5.33936C34.2293 5.33936 33.8558 5.42236 33.3301 5.58838H32.998L32.251 5.75439H32.002L31.2964 5.58838C30.7983 5.75439 30.411 5.8374 30.1343 5.8374C30.0789 5.89274 29.8991 6.01725 29.5947 6.21094H28.6816L28.1836 6.70898L27.8101 6.79199L26.731 6.62598C26.3989 6.62598 25.9977 6.79199 25.5273 7.12402C25.5273 7.17936 25.0708 7.2762 24.1577 7.41455C23.2723 7.5529 22.4284 7.81576 21.626 8.20312C20.8236 8.56283 20.3394 8.74268 20.1733 8.74268L19.4263 8.57666H19.3433C18.9836 8.57666 18.6515 8.75651 18.3472 9.11621C18.0428 9.47591 17.6001 9.69727 17.019 9.78027H16.521C16.106 9.78027 15.5387 9.94629 14.8193 10.2783C14.1276 10.6104 13.7541 10.7764 13.6987 10.7764L12.9517 10.6934C12.6196 10.9147 12.3291 11.0669 12.0801 11.1499C11.8587 11.2329 11.6374 11.3713 11.416 11.5649C11.1947 11.731 10.9733 11.8555 10.752 11.9385C10.5306 12.0215 10.2677 12.1737 9.96338 12.395C9.68669 12.6164 9.46533 12.7271 9.29932 12.7271H9.1333L8.63525 12.644C8.44157 12.644 8.19255 12.8239 7.88818 13.1836C7.58382 13.5156 7.29329 13.7231 7.0166 13.8062C6.76758 13.8892 6.51855 14.0275 6.26953 14.2212C6.04818 14.3872 5.81299 14.484 5.56396 14.5117C5.42562 14.6501 5.23193 14.9544 4.98291 15.4248C4.73389 15.8952 4.41569 16.3102 4.02832 16.6699C3.64095 17.002 3.37809 17.2648 3.23975 17.4585C3.12907 17.6522 3.01839 17.749 2.90771 17.749C1.55192 17.749 0.874023 16.9051 0.874023 15.2173L1.7041 13.4326C2.28516 12.0215 3.17057 11.1637 4.36035 10.8594C4.66471 10.8594 5.45329 10.555 6.72607 9.94629L8.34473 9.24072ZM49.5996 21.5674L49.3506 19.9487V19.6997C49.3506 18.3993 49.7933 17.6799 50.6787 17.5415C50.8724 17.5138 51.4535 17.334 52.4219 17.002C52.9199 17.1126 53.4318 17.5553 53.9575 18.3301C54.5109 19.0771 54.7876 19.7412 54.7876 20.3223C54.7876 20.3776 54.7461 20.5021 54.6631 20.6958C54.5801 20.8895 54.5247 21.263 54.4971 21.8164C54.4694 22.3421 54.1927 22.8125 53.667 23.2275C53.1689 23.6149 52.6294 23.8086 52.0483 23.8086C51.661 23.8086 51.1629 23.5457 50.5542 23.02C49.9731 22.4666 49.6549 21.9824 49.5996 21.5674ZM31.6699 42.3193L32.334 41.7383H32.583C32.7767 41.7383 33.0672 41.5308 33.4546 41.1157L33.8696 40.9497C34.423 40.1196 34.9072 39.6354 35.3223 39.4971L35.9863 38.999C36.097 38.8883 36.2492 38.7915 36.4429 38.7085C36.6642 38.6255 36.9963 38.3626 37.439 37.9199C37.9093 37.4495 38.2829 37.2144 38.5596 37.2144C38.8363 37.2144 39.0576 37.242 39.2236 37.2974C39.3896 36.9653 39.7217 36.6471 40.2197 36.3428C40.7178 36.0107 41.119 35.6234 41.4233 35.1807L41.9629 34.9316C42.4056 34.7103 42.793 34.4336 43.125 34.1016C43.4847 33.7419 43.9412 33.562 44.4946 33.562C45.297 33.562 46.1271 33.9771 46.9849 34.8071C47.8703 35.6095 48.313 36.3843 48.313 37.1313L47.6074 40.3687C47.137 42.7482 46.6113 43.9933 46.0303 44.104L45.8643 44.9756C45.4769 45.2523 45.2832 45.4736 45.2832 45.6396L45.5322 46.6357C45.5322 46.7741 45.38 46.9816 45.0757 47.2583C45.0203 47.2583 44.9927 47.3413 44.9927 47.5073V49.209C44.9927 49.5133 44.799 49.7624 44.4116 49.9561C44.467 50.0114 44.55 50.0667 44.6606 50.1221C44.8267 49.9561 45.2002 49.873 45.7812 49.873L46.4453 49.9561L47.3584 49.043C47.5521 48.9876 47.8149 48.8631 48.147 48.6694C48.5067 48.4481 49.1016 48.1714 49.9316 47.8394L55.3687 43.689C56.1157 42.9419 56.6829 42.5684 57.0703 42.5684C57.4854 42.5684 57.6929 42.8312 57.6929 43.3569C57.6929 43.9657 57.5684 44.4775 57.3193 44.8926C57.098 45.2799 56.8905 45.7642 56.6968 46.3452C56.5031 46.8986 56.2679 47.286 55.9912 47.5073C55.7422 47.7287 55.5347 47.9777 55.3687 48.2544C55.2026 48.5034 54.7461 48.877 53.999 49.375C53.2796 49.873 52.6571 50.3849 52.1313 50.9106C51.6333 51.4087 51.2183 51.7684 50.8862 51.9897L49.1016 53.2764L48.8525 53.6914C48.7972 53.7467 48.5343 53.8713 48.064 54.0649C47.6213 54.231 47.2201 54.4523 46.8604 54.729L46.1133 55.144C45.9473 55.2547 45.6706 55.3239 45.2832 55.3516C44.9235 55.3792 44.6053 55.5452 44.3286 55.8496C44.0519 56.1263 43.8306 56.2646 43.6646 56.2646L43.042 56.1816L42.2119 56.4307C41.7415 56.4307 41.1605 56.154 40.4688 55.6006C39.8047 55.0195 39.4727 54.4108 39.4727 53.7744V53.5254L39.5557 52.9443C39.5557 52.8337 39.4727 52.557 39.3066 52.1143C39.1406 51.6439 39.0576 51.381 39.0576 51.3257L39.1406 50.7446L39.0576 50.4956C39.0576 49.7485 39.113 49.2782 39.2236 49.0845C39.3343 48.8908 39.4173 48.6279 39.4727 48.2959C39.528 47.9362 39.5833 47.6457 39.6387 47.4243L39.8462 46.3867C39.9569 46.0547 40.0952 45.8333 40.2612 45.7227C40.3166 45.5013 40.4272 45.1278 40.5933 44.6021L40.7593 43.855L41.1743 43.2739C41.3957 43.0526 41.5202 42.762 41.5479 42.4023C41.6032 42.015 41.7554 41.6138 42.0044 41.1987C42.2534 40.7837 42.3779 40.5347 42.3779 40.4517C42.3779 40.1196 42.2119 39.9536 41.8799 39.9536C41.7692 39.9536 41.4233 40.175 40.8423 40.6177L40.0952 40.3687C40.0399 40.3687 39.8877 40.507 39.6387 40.7837C39.6387 40.8944 39.5142 40.9774 39.2651 41.0327C39.0161 41.0881 38.7809 41.2956 38.5596 41.6553L38.2275 41.7383L37.688 41.4893H37.522C37.2453 41.4893 37.0793 41.7936 37.0239 42.4023C36.7196 42.8451 36.3184 43.1356 35.8203 43.2739L34.9072 43.5229C34.6029 43.6336 34.3815 43.8826 34.2432 44.27C34.1048 44.6574 33.8281 45.0171 33.4131 45.3491C32.998 45.6535 32.7214 45.8057 32.583 45.8057C31.8083 45.8057 31.4209 45.3768 31.4209 44.519L31.7529 42.5684L31.6699 42.3193ZM74.4189 37.8369L75.5811 37.2974C75.9684 37.0483 76.342 36.6886 76.7017 36.2183L78.1543 35.1807C78.9844 34.6273 79.5239 34.3506 79.7729 34.3506L80.437 34.5996C80.4924 34.5996 80.6584 34.4336 80.9351 34.1016C81.2394 33.7419 81.5853 33.562 81.9727 33.562C82.4707 33.562 83.1486 33.9355 84.0063 34.6826C84.8641 35.4297 85.293 36.0938 85.293 36.6748L85.127 38.0859C85.127 38.3073 85.2376 38.9299 85.459 39.9536V40.2856L85.293 41.2817L85.459 42.3193L85.0024 44.353C85.0024 44.8787 85.1823 45.1416 85.542 45.1416C86.0124 44.6989 86.4136 44.436 86.7456 44.353L87.3267 43.772C87.548 43.5506 87.714 43.4399 87.8247 43.4399C87.9354 43.4399 88.0737 43.3154 88.2397 43.0664C88.4334 42.7897 88.6686 42.596 88.9453 42.4854C89.222 42.3747 89.4157 42.181 89.5264 41.9043C91.0758 40.2165 92.2656 39.248 93.0957 38.999C93.2064 38.999 93.3862 38.8607 93.6353 38.584C93.9119 38.3073 94.1333 38.1413 94.2993 38.0859L95.2124 37.3804L95.5859 37.5464H95.6689C95.7243 37.5464 95.9456 37.408 96.333 37.1313C96.7204 36.8547 96.9971 36.7163 97.1631 36.7163C98.2145 36.7163 99.0723 37.076 99.7363 37.7954C100.428 38.4871 100.774 39.0267 100.774 39.4141L100.566 40.3687L100.857 41.6553V42.4854L100.649 43.3569C100.649 43.5229 100.76 43.7581 100.981 44.0625C101.23 44.3669 101.355 44.5744 101.355 44.6851C101.023 45.0448 100.857 45.2799 100.857 45.3906L100.94 46.1377L100.732 48.4204C100.732 48.6141 100.912 48.9323 101.272 49.375C101.438 49.2643 101.673 49.1675 101.978 49.0845C102.282 49.0015 102.517 48.9185 102.683 48.8354C102.849 48.7248 102.932 48.6694 102.932 48.6694C102.932 48.6418 102.918 48.6279 102.891 48.6279C102.946 48.6279 103.112 48.6833 103.389 48.7939H103.555C103.776 48.7939 103.901 48.5864 103.928 48.1714C103.956 47.7287 104.233 47.369 104.758 47.0923L105.754 47.1753C105.81 47.12 105.92 46.8986 106.086 46.5112C106.28 46.0962 106.861 45.5013 107.83 44.7266C108.826 43.9242 109.587 43.5229 110.112 43.5229C110.555 43.5229 110.776 43.7166 110.776 44.104C110.776 44.2147 110.721 44.5052 110.61 44.9756C110.832 45.363 110.942 45.695 110.942 45.9717C110.942 46.4974 110.486 47.0646 109.573 47.6733C108.687 48.2821 108.009 49.043 107.539 49.9561L107.373 50.1221L106.543 50.0391C106.488 50.0391 106.349 50.2604 106.128 50.7031C105.934 51.1182 105.699 51.3534 105.422 51.4087C105.146 51.464 104.952 51.547 104.841 51.6577L103.97 52.1973C103.804 52.3079 103.25 52.8752 102.31 53.8989C101.396 54.895 100.622 55.3931 99.9854 55.3931C99.7087 55.3931 99.2106 55.2547 98.4912 54.978C97.7718 54.6737 97.2876 54.3693 97.0386 54.0649C96.7896 53.7606 96.4299 53.4147 95.9595 53.0273C95.5168 52.64 95.2954 51.9067 95.2954 50.8276C95.2954 50.7723 95.3646 50.6755 95.5029 50.5371C95.6689 50.3988 95.752 50.2881 95.752 50.2051C95.1156 49.375 94.7974 48.7801 94.7974 48.4204C94.7974 48.2544 94.825 48.0745 94.8804 47.8809C94.9357 47.6872 94.9634 47.5073 94.9634 47.3413L94.8804 45.8887L95.0464 45.1416L94.9634 44.6851L95.2124 42.5684C95.2124 42.2363 95.0187 42.0703 94.6313 42.0703C94.5207 42.0703 94.3685 42.181 94.1748 42.4023C93.9811 42.6237 93.7321 42.8035 93.4277 42.9419C93.151 43.0526 92.8467 43.4399 92.5146 44.104C92.0166 44.3807 91.6707 44.6574 91.4771 44.9341C91.311 45.1831 91.1727 45.3076 91.062 45.3076C91.0067 45.3076 90.896 45.2799 90.73 45.2246C90.3979 45.446 90.2319 45.695 90.2319 45.9717V46.1377L90.3149 46.4697C90.3149 46.7188 90.1074 46.9539 89.6924 47.1753C89.2773 47.3966 88.7655 47.9639 88.1567 48.877C87.88 48.877 87.6864 48.9046 87.5757 48.96L87.0776 49.9561C86.8009 50.1221 86.5381 50.4126 86.2891 50.8276L85.791 51.0767C85.5973 51.4364 85.4036 51.7407 85.21 51.9897L84.9609 52.4463C83.7712 53.8574 82.9411 54.563 82.4707 54.563C82.0003 54.563 81.4331 53.9404 80.769 52.6953C80.105 51.4502 79.7729 50.4818 79.7729 49.79L79.939 48.2544C79.939 48.1991 79.8283 47.9777 79.6069 47.5903V47.4243C79.6069 47.369 79.7176 47.0508 79.939 46.4697V45.2246C79.939 45.1693 79.9113 45.0863 79.856 44.9756V44.7681C79.856 44.7127 79.9666 44.4914 80.188 44.104L79.939 42.9004L80.105 42.2363L80.022 40.7837L80.188 39.4971C80.188 39.4141 80.105 39.2757 79.939 39.082C79.8006 38.8607 79.7038 38.75 79.6484 38.75C79.4548 38.75 78.8737 39.0682 77.9053 39.7046C76.9645 40.341 76.3281 40.839 75.9961 41.1987C75.6641 41.5584 75.2214 41.9873 74.668 42.4854C74.0869 42.762 73.6857 43.4676 73.4644 44.6021C73.4644 44.6574 73.409 44.6851 73.2983 44.6851C73.2983 44.6297 73.2153 44.5744 73.0493 44.519H72.8833C72.745 44.519 72.3161 45.1139 71.5967 46.3037L71.4307 46.4697L70.6421 46.3037C69.978 46.3037 69.646 47.0093 69.646 48.4204C69.646 48.6694 69.4661 48.8354 69.1064 48.9185C68.7744 49.0015 68.5116 49.2367 68.3179 49.624C68.1242 50.0114 67.8613 50.4126 67.5293 50.8276C66.8929 51.1043 66.5332 51.3118 66.4502 51.4502C66.4502 51.4779 66.1458 51.8929 65.5371 52.6953C64.9284 53.4977 64.5964 53.9681 64.541 54.1064C64.4857 54.2448 64.292 54.4108 63.96 54.6045C63.6556 54.7705 63.5034 54.9227 63.5034 55.061L63.6279 55.7666C63.6279 56.2093 63.1991 56.4307 62.3413 56.4307C60.6812 56.4307 59.8511 54.7013 59.8511 51.2427C59.8511 50.8553 60.0171 50.4264 60.3491 49.9561C60.7088 49.458 61.0547 48.8631 61.3867 48.1714C61.9124 47.6457 62.535 46.8848 63.2544 45.8887C63.9738 44.8926 64.5133 44.2147 64.873 43.855L65.4126 42.9834C65.4126 42.6514 65.4818 42.4023 65.6201 42.2363C65.7585 42.0703 65.8276 41.8628 65.8276 41.6138C65.8276 41.1711 65.717 40.9497 65.4956 40.9497C64.9699 40.9497 64.5549 41.0881 64.2505 41.3647C63.9461 41.6138 63.6003 41.7936 63.2129 41.9043C62.8532 42.015 62.618 42.2087 62.5073 42.4854C62.12 42.6514 61.7049 43.0111 61.2622 43.5645C60.8472 44.0902 60.5705 44.4222 60.4321 44.5605C60.2938 44.6989 60.1554 44.8926 60.0171 45.1416C59.9064 45.363 59.7542 45.4875 59.5605 45.5151C59.3669 45.5428 59.187 45.6396 59.021 45.8057C58.855 45.9717 58.5921 46.0547 58.2324 46.0547C57.9834 46.0547 57.7482 45.8057 57.5269 45.3076C57.3332 44.7819 57.2363 44.4637 57.2363 44.353C57.2363 42.3332 58.5783 40.59 61.2622 39.1235C61.6219 38.9299 61.8986 38.7362 62.0923 38.5425C62.3136 38.3488 62.535 38.1966 62.7563 38.0859L62.9224 37.7954C63.1437 37.4634 63.9738 36.993 65.4126 36.3843H65.9937L68.7744 35.6787C69.9642 35.402 70.5591 36.744 70.5591 39.7046L70.4761 40.4517L70.6421 40.7837C71.1125 40.341 71.5828 39.9536 72.0532 39.6216C72.5513 39.2619 72.911 38.9437 73.1323 38.667C73.3537 38.3903 73.7826 38.1136 74.4189 37.8369ZM148.005 21.8994L148.254 21.8164H149.375C149.707 21.8164 150.191 21.429 150.828 20.6543C150.883 20.599 151.616 20.3361 153.027 19.8657L153.193 19.6997C153.581 19.3677 153.857 19.1463 154.023 19.0356H154.812C154.867 19.0356 155.089 18.9111 155.476 18.6621C155.863 18.3854 156.68 18.0811 157.925 17.749C159.198 17.417 160.028 17.1403 160.415 16.9189C160.581 16.8636 161.19 16.7806 162.241 16.6699L163.403 16.4624L164.316 16.5454C165.783 16.5454 166.834 17.5138 167.471 19.4507C167.471 19.5614 167.54 19.7412 167.678 19.9902C167.817 20.2116 167.886 20.3776 167.886 20.4883C167.886 21.6504 167.319 22.8678 166.184 24.1406L165.603 25.6763C165.603 25.7316 165.451 25.9391 165.146 26.2988C164.87 26.6585 164.621 27.0874 164.399 27.5854C164.178 28.0558 163.583 28.7752 162.615 29.7437C162.449 30.0757 162.214 30.6014 161.909 31.3208C161.605 32.0125 161.342 32.4691 161.121 32.6904C160.927 32.9118 160.387 33.7419 159.502 35.1807C158.644 36.6195 158.215 37.4634 158.215 37.7124C157.8 38.0168 157.51 38.5286 157.344 39.248C157.205 39.9674 156.929 40.6453 156.514 41.2817L156.431 41.5723C157.316 41.2679 157.759 40.7837 157.759 40.1196C157.759 40.0366 157.994 39.8291 158.464 39.4971L158.796 38.916C159.128 38.5286 159.419 38.3073 159.668 38.252C159.723 38.0306 160.014 37.7124 160.54 37.2974C161.065 36.8547 161.411 36.5503 161.577 36.3843C161.771 36.2183 162.075 36.0522 162.49 35.8862C162.905 35.6925 163.376 35.0008 163.901 33.811C163.957 33.5897 164.164 33.4098 164.524 33.2715C164.911 33.1331 165.229 32.9118 165.479 32.6074C165.728 32.2754 165.935 32.054 166.101 31.9434L166.433 31.4453C166.737 31.1686 166.945 31.0026 167.056 30.9473L169.089 28.457C170.168 27.7653 170.763 27.2257 170.874 26.8384L171.206 26.7554H171.455C171.898 26.3957 172.188 26.1466 172.327 26.0083C172.327 25.1782 172.631 24.6387 173.24 24.3896C173.876 24.113 174.333 23.7948 174.609 23.4351C174.886 23.0477 175.19 22.854 175.522 22.854C175.605 22.854 175.758 22.937 175.979 23.103H176.062C176.145 23.103 176.228 22.9647 176.311 22.688V22.2729C176.311 21.8026 176.449 21.4152 176.726 21.1108C177.003 20.8065 177.376 20.6128 177.847 20.5298C178.317 20.4191 178.774 20.0594 179.216 19.4507C179.659 18.842 180.157 18.5238 180.71 18.4961C181.292 18.4684 181.679 18.2471 181.873 17.832C182.066 17.417 182.661 16.9743 183.657 16.5039C184.653 16.0059 185.276 15.743 185.525 15.7153C185.774 15.66 185.995 15.577 186.189 15.4663C186.41 15.3556 186.632 15.3003 186.853 15.3003C187.13 15.3003 187.531 15.3833 188.057 15.5493L188.804 15.7153C189.44 15.992 190.035 16.5039 190.588 17.251L191.003 17.666V17.832L191.086 18.5376V18.8696C191.446 19.0356 191.626 19.2017 191.626 19.3677L191.335 19.9072C191.225 20.1009 191.169 20.3361 191.169 20.6128C191.169 20.8618 191.156 21.1247 191.128 21.4014C191.1 21.6504 191.059 21.8994 191.003 22.1484C190.976 22.3698 190.92 22.5911 190.837 22.8125C190.782 23.0062 190.713 23.1999 190.63 23.3936C190.547 23.5596 190.45 23.7256 190.339 23.8916L190.007 25.2197C189.897 25.7454 189.592 26.3818 189.094 27.1289C188.624 27.8483 188.347 28.3602 188.264 28.6646C188.181 28.9412 187.987 29.3286 187.683 29.8267L187.766 30.0757V30.6567C188.624 30.5461 189.053 30.214 189.053 29.6606C189.053 29.0796 189.399 28.6507 190.09 28.374L191.003 27.627C191.723 26.3542 192.608 25.5241 193.66 25.1367C193.66 24.694 193.923 24.2375 194.448 23.7671L196.025 22.2729L197.146 21.6504C197.644 20.6266 198.211 20.0041 198.848 19.7827L199.761 19.2017C200.314 18.925 200.618 18.6621 200.674 18.4131C200.757 18.1364 200.978 17.8597 201.338 17.583C201.698 17.3063 202.223 16.8498 202.915 16.2134L203.247 16.0474L203.662 15.6323C203.966 15.4663 204.312 15.328 204.7 15.2173L205.032 15.0513C205.723 14.5256 206.346 14.1797 206.899 14.0137C207.453 13.82 208.075 13.5156 208.767 13.1006L210.22 12.8931C210.552 12.7824 210.773 12.7271 210.884 12.7271C213.512 12.7271 214.827 14.2074 214.827 17.168L214.744 17.832L214.827 20.2393C214.135 21.3737 213.789 21.9686 213.789 22.0239L213.872 22.771C213.872 22.8817 213.692 23.2137 213.333 23.7671C212.973 24.2928 212.751 24.611 212.668 24.7217C212.613 24.8324 212.364 25.1229 211.921 25.5933L211.506 26.8384C211.368 27.1151 211.133 27.3779 210.801 27.627V28.125C210.801 28.54 210.261 29.1626 209.182 29.9927C209.044 30.7121 208.795 31.2516 208.435 31.6113C208.103 31.9434 207.84 32.3031 207.646 32.6904C207.48 33.0501 207.204 33.396 206.816 33.728C206.816 34.0877 206.581 34.6965 206.111 35.5542C205.64 36.4119 205.267 36.9653 204.99 37.2144C204.741 37.4357 204.478 37.8369 204.202 38.418L203.828 38.584C203.662 39.6354 203.468 40.2303 203.247 40.3687L202.583 40.2856V40.4517C202.583 40.507 202.638 40.6038 202.749 40.7422C202.86 40.8805 202.915 41.0327 202.915 41.1987C202.915 41.3924 202.832 41.5584 202.666 41.6968C202.5 41.8351 202.403 41.9735 202.375 42.1118C202.348 42.2502 202.279 42.3885 202.168 42.5269C202.085 42.6652 202.03 42.9419 202.002 43.3569C201.974 43.7443 201.767 44.2839 201.379 44.9756C200.992 45.6673 200.785 46.1377 200.757 46.3867C200.729 46.6357 200.688 46.8433 200.632 47.0093C200.577 47.1753 200.549 47.3413 200.549 47.5073C200.549 47.6733 200.48 48.1022 200.342 48.7939C200.868 50.0391 201.241 50.883 201.462 51.3257C201.684 51.7684 201.794 52.0589 201.794 52.1973C201.794 53.304 201.656 54.0511 201.379 54.4385C201.103 54.7982 200.425 54.978 199.346 54.978C198.654 54.978 198.045 54.7428 197.52 54.2725C197.021 53.7744 196.579 53.5254 196.191 53.5254V52.7783L196.108 52.6953H195.444C195.389 52.64 195.264 52.5431 195.071 52.4048C194.905 52.2664 194.739 52.0728 194.573 51.8237L194.324 51.5747C194.102 51.298 193.909 50.8415 193.743 50.2051L193.494 49.375L193.577 48.7109L193.494 47.6733C193.494 47.3966 193.521 47.1753 193.577 47.0093L193.66 45.8887C193.66 45.778 193.715 45.5428 193.826 45.1831C193.936 44.7957 194.006 44.353 194.033 43.855C194.061 43.3293 194.185 42.9281 194.407 42.6514C194.628 42.3747 194.753 42.1395 194.78 41.9458C194.808 41.7521 194.877 41.5999 194.988 41.4893C195.126 41.3509 195.237 41.0327 195.32 40.5347C195.403 40.0366 195.693 39.6354 196.191 39.3311C196.468 38.833 196.703 38.3626 196.897 37.9199C197.478 37.1175 197.782 36.7163 197.81 36.7163H198.391C198.114 36.3843 197.976 36.1906 197.976 36.1353C197.976 35.3882 198.267 35.0146 198.848 35.0146C198.958 35.0146 199.097 35.0423 199.263 35.0977L199.429 34.7656L199.263 34.0601C199.263 33.5897 199.622 33.1193 200.342 32.6489C200.342 31.8465 200.715 31.1271 201.462 30.4907L201.379 29.8267C201.545 29.6606 201.781 29.3009 202.085 28.7476C202.389 28.1665 202.777 27.5854 203.247 27.0044L204.534 25.0537L205.115 24.3896C205.115 24.4173 205.115 24.4312 205.115 24.4312C205.142 24.4035 205.17 24.3481 205.198 24.2651C205.253 24.1545 205.308 24.0023 205.364 23.8086L205.613 23.186L205.903 22.854C206.623 22.6603 206.982 22.4113 206.982 22.1069C206.982 22.0516 206.872 21.8717 206.65 21.5674V21.4014C206.65 21.18 206.816 20.9033 207.148 20.5713C207.48 20.2393 207.785 19.7827 208.062 19.2017C208.366 18.5929 208.518 18.2194 208.518 18.0811C208.518 17.9704 208.463 17.915 208.352 17.915C207.467 17.915 206.872 18.2332 206.567 18.8696C206.567 19.0356 206.028 19.3677 204.949 19.8657L204.534 20.4883C204.202 20.7926 203.911 20.9448 203.662 20.9448C203.413 20.9448 203.081 21.1108 202.666 21.4429C202.279 21.7472 201.407 22.4666 200.051 23.6011C198.695 24.7078 197.699 25.6209 197.063 26.3403L196.108 27.0044C195.721 27.1981 195.527 27.3503 195.527 27.4609C195.527 27.7376 195.292 28.0973 194.822 28.54L194.324 29.1626C193.936 29.0243 193.715 28.9551 193.66 28.9551C193.355 28.9551 193.092 29.1073 192.871 29.4116C193.092 29.633 193.203 29.7713 193.203 29.8267C193.203 30.2694 192.788 30.7259 191.958 31.1963L190.173 33.064C190.118 33.1193 189.91 33.2715 189.551 33.5205C189.191 33.7695 188.914 34.0877 188.721 34.4751C188.555 34.8348 188.07 35.485 187.268 36.4258C186.466 37.3389 185.995 37.8369 185.857 37.9199C185.719 37.9753 185.553 38.1551 185.359 38.4595C185.165 38.7638 184.764 39.1927 184.155 39.7461C183.547 40.2995 183.201 40.9082 183.118 41.5723C182.592 41.766 182.329 41.932 182.329 42.0703L182.08 42.4854L181.748 42.6514C181.693 42.762 181.651 42.9557 181.624 43.2324C181.596 43.4814 181.042 43.9518 179.963 44.6436C178.884 45.3076 178.206 45.6396 177.93 45.6396C177.847 45.6396 177.722 45.695 177.556 45.8057C177.39 45.9163 177.279 45.9717 177.224 45.9717C177.141 45.9717 176.768 45.8057 176.104 45.4736C175.467 45.1416 174.997 44.3669 174.692 43.1494L175.024 42.0703L174.858 41.1987C174.858 41.0327 174.983 40.8114 175.232 40.5347C175.509 40.258 175.647 39.9121 175.647 39.4971C176.09 38.501 176.422 37.7954 176.643 37.3804L176.726 36.7163C176.837 36.4396 177.017 36.1353 177.266 35.8032C177.542 35.4435 177.708 35.0562 177.764 34.6411C177.819 34.1984 177.999 33.9217 178.303 33.811C178.608 33.7004 179.728 32.0264 181.665 28.7891V28.208L182.869 26.1328C183.228 25.5241 183.671 24.8324 184.197 24.0576L184.57 23.103C183.713 22.771 183.256 22.605 183.201 22.605C183.035 22.605 182.827 22.7157 182.578 22.937C182.578 23.4074 181.762 23.8916 180.129 24.3896C179.797 24.5557 179.368 24.9569 178.843 25.5933L177.681 26.2573C177.515 26.368 177.252 26.5894 176.892 26.9214L176.311 27.4609C175.619 27.627 175.024 28.0143 174.526 28.623L173.406 29.4116C173.074 29.6883 172.852 29.8958 172.742 30.0342C172.631 30.1725 172.119 30.4769 171.206 30.9473L170.542 31.6113L169.919 31.9434C169.477 32.4137 169.145 32.8149 168.923 33.147C168.702 33.479 168.411 33.6727 168.052 33.728L167.139 34.0601C166.973 34.7795 166.461 35.4712 165.603 36.1353L164.399 37.6294C164.178 37.8231 163.984 37.9753 163.818 38.0859C163.708 38.3626 163.514 38.5563 163.237 38.667C162.878 39.1097 162.642 39.4141 162.532 39.5801L162.034 39.9536C161.287 40.2303 160.913 40.4517 160.913 40.6177L160.996 41.3647C160.996 41.6691 160.664 41.9596 160 42.2363C159.723 42.3747 159.557 42.596 159.502 42.9004C159.474 43.2048 159.377 43.5229 159.211 43.855H158.464C158.381 43.855 158.118 43.9933 157.676 44.27C157.62 44.27 157.565 44.2977 157.51 44.353L157.676 45.3076C157.676 45.6396 157.454 46.027 157.012 46.4697C156.569 46.8848 156.223 47.2583 155.974 47.5903C155.753 47.9224 155.587 48.0884 155.476 48.0884H155.227L154.978 48.2544C155.006 48.7801 154.66 49.3473 153.94 49.9561L153.442 50.5786C153.276 50.717 152.806 51.4087 152.031 52.6538C151.257 53.8989 150.523 54.9089 149.832 55.6836C149.14 56.4583 148.503 56.984 147.922 57.2607C147.341 57.5098 146.719 57.7726 146.055 58.0493L144.353 57.7173C144.187 57.4129 143.938 57.1639 143.606 56.9702C143.302 56.7765 143.149 56.569 143.149 56.3477L142.651 54.895C142.651 54.5076 142.804 54.0373 143.108 53.4839C143.412 52.9028 143.592 52.4601 143.647 52.1558C143.73 51.8237 143.896 51.3949 144.146 50.8691C144.395 50.3158 144.519 50.0114 144.519 49.9561C144.519 49.209 144.63 48.7524 144.851 48.5864C145.1 48.3927 145.64 47.9777 146.47 47.3413C146.525 47.3413 146.553 47.286 146.553 47.1753V47.0923L146.47 46.3867C147.106 45.3076 147.507 44.7681 147.673 44.7681C147.729 44.7681 147.839 44.7957 148.005 44.8511L147.756 43.938C147.756 43.8273 147.909 43.6475 148.213 43.3984C148.517 43.1494 148.752 42.8727 148.918 42.5684L148.752 42.0703V41.9043C148.752 41.3786 149.098 40.839 149.79 40.2856C149.901 40.0643 150.122 39.4971 150.454 38.584L151.533 36.6748C151.81 36.1491 152.1 35.8032 152.405 35.6372C152.709 35.4435 152.875 35.2222 152.903 34.9731C152.931 34.7241 153.027 34.4474 153.193 34.1431C153.193 34.2814 153.207 34.2952 153.235 34.1846C153.29 34.0462 153.359 33.7695 153.442 33.3545C153.553 32.9395 153.871 32.6074 154.397 32.3584C155.033 30.7259 155.531 29.9097 155.891 29.9097C156.002 29.9097 156.154 29.965 156.348 30.0757H156.514C156.956 30.0757 157.178 29.9097 157.178 29.5776C157.178 29.467 157.122 29.4116 157.012 29.4116C156.763 29.6883 156.541 29.8267 156.348 29.8267C156.154 29.8267 156.057 29.7713 156.057 29.6606C156.057 29.6053 156.099 29.55 156.182 29.4946L157.095 27.627L157.178 26.8384C157.288 26.6724 157.51 26.4233 157.842 26.0913L158.547 25.1367V24.7217C158.547 24.6663 158.672 24.3896 158.921 23.8916C159.17 23.3659 159.35 22.854 159.46 22.356L160.166 21.3184C160.277 20.9863 160.332 20.682 160.332 20.4053C160.332 19.9902 160.277 19.7827 160.166 19.7827L157.759 20.2393C156.458 20.9033 155.531 21.429 154.978 21.8164L154.023 22.0239C153.968 22.0239 153.595 22.2176 152.903 22.605C152.239 22.9647 151.644 23.1722 151.118 23.2275C150.62 23.2552 150.177 23.4489 149.79 23.8086L149.624 23.8916H148.835C148.531 24.2513 148.324 24.528 148.213 24.7217C148.102 24.8877 148.005 24.9707 147.922 24.9707C145.128 26.8245 143.357 27.9451 142.61 28.3325C141.863 28.7199 141.296 29.0796 140.908 29.4116C140.521 29.716 140.189 29.9373 139.912 30.0757V30.5737C139.912 31.0441 139.566 31.5837 138.875 32.1924C138.21 32.7734 137.629 33.064 137.131 33.064C136.965 33.064 136.702 32.981 136.343 32.8149C136.011 32.6213 135.623 32.4967 135.181 32.4414C134.766 32.3861 134.558 31.8604 134.558 30.8643C134.558 29.4531 135.72 28.1665 138.044 27.0044C138.404 26.8384 138.736 26.6447 139.041 26.4233C139.345 26.202 140.576 25.6624 142.734 24.8047L143.938 24.2236C144.215 23.9469 144.671 23.6979 145.308 23.4766C145.972 23.2275 146.484 23.02 146.843 22.854C147.231 22.688 147.535 22.5773 147.756 22.522L148.005 21.8994ZM186.936 31.9434L187.351 31.1963V31.1133C187.351 31.0579 187.296 31.0303 187.185 31.0303C186.908 31.0303 186.687 31.307 186.521 31.8604C186.576 32.0264 186.632 32.1094 186.687 32.1094C186.798 32.1094 186.881 32.054 186.936 31.9434ZM232.051 52.3633L230.1 54.0649C229.989 53.9543 229.879 53.8989 229.768 53.8989C229.491 53.8989 229.146 54.1479 228.73 54.646C228.343 55.144 228.066 55.3931 227.9 55.3931L227.485 55.3101C226.794 55.8358 226.296 56.1401 225.991 56.2231C225.687 56.3062 225.313 56.4583 224.871 56.6797C224.456 56.901 224.068 57.0256 223.708 57.0532C223.376 57.0809 223.1 57.2054 222.878 57.4268C222.657 57.6204 222.118 57.7173 221.26 57.7173L220.596 57.6343C220.236 57.8003 220.001 57.8833 219.89 57.8833C219.669 57.8833 219.434 57.7726 219.185 57.5513C218.936 57.3022 218.659 57.1639 218.354 57.1362C218.078 57.1086 217.787 56.9149 217.483 56.5552C217.179 56.1955 216.888 55.9465 216.611 55.8081C216.362 55.6698 216.155 55.4761 215.989 55.2271L215.408 54.729C214.937 54.397 214.481 53.7882 214.038 52.9028C213.595 52.0174 213.374 51.3257 213.374 50.8276V50.6616L213.457 49.873L213.374 48.96C213.485 48.8493 213.623 48.6141 213.789 48.2544V46.9263L214.785 43.606C214.84 43.4676 214.73 43.2878 214.453 43.0664C214.176 43.4814 213.9 43.7305 213.623 43.8135C213.346 43.8965 213.153 44.0902 213.042 44.3945C212.959 44.6989 212.807 44.8511 212.585 44.8511L212.087 44.6851C212.032 44.7404 211.908 45.0309 211.714 45.5566C211.52 46.0547 211.188 46.3037 210.718 46.3037C210.22 46.3037 209.971 46.11 209.971 45.7227L210.054 44.9756L209.805 43.938C209.805 43.7166 210.026 43.2878 210.469 42.6514C210.911 41.9873 211.313 41.6138 211.672 41.5308C212.06 41.4201 212.378 41.1572 212.627 40.7422C212.904 40.2995 213.485 39.7738 214.37 39.165C214.868 39.0544 215.297 38.6947 215.657 38.0859C216.044 37.7816 216.542 37.5326 217.151 37.3389C217.787 37.1452 218.258 36.8685 218.562 36.5088C218.894 36.1214 219.835 35.5404 221.384 34.7656C222.961 33.9632 224.11 33.562 224.829 33.562C225.05 33.562 225.355 33.5067 225.742 33.396C226.13 33.2576 226.489 33.147 226.821 33.064C227.153 32.9533 227.499 32.8011 227.859 32.6074C228.219 32.3861 228.509 32.2754 228.73 32.2754L229.934 32.6904C230.819 32.9395 231.359 33.1193 231.553 33.23C231.608 33.2853 231.885 33.4098 232.383 33.6035C232.909 33.7695 233.434 34.0047 233.96 34.3091C234.513 34.6134 234.79 35.1807 234.79 36.0107C234.32 36.7025 234.084 37.076 234.084 37.1313C234.084 37.242 234.403 37.408 235.039 37.6294C235.26 38.0444 235.592 38.584 236.035 39.248L236.492 40.7007L236.575 44.104L236.492 44.436C236.187 44.7127 236.035 44.8926 236.035 44.9756L236.16 45.8057L235.828 46.9678C235.745 47.3275 235.606 47.5627 235.413 47.6733C235.219 47.784 235.094 47.9224 235.039 48.0884L234.79 48.4204C234.735 48.5034 234.61 48.7524 234.417 49.1675C234.25 49.5549 234.057 49.8592 233.835 50.0806C233.614 50.3019 233.476 50.5648 233.42 50.8691C233.365 51.1735 233.227 51.3949 233.005 51.5332C232.784 51.6715 232.618 51.8237 232.507 51.9897C232.424 52.1281 232.272 52.2526 232.051 52.3633ZM219.143 53.4424L219.309 54.397L219.392 54.48H220.056L220.264 54.563C220.817 54.6737 221.232 54.729 221.509 54.729C222.367 54.729 223.044 54.5215 223.542 54.1064C224.068 53.6637 224.483 53.4424 224.788 53.4424C225.092 53.4424 225.341 53.2349 225.535 52.8198C225.756 52.4048 225.894 52.1973 225.95 52.1973H226.531L226.697 52.1143C226.697 51.4779 226.973 51.0213 227.527 50.7446C228.108 50.4679 228.509 50.1082 228.73 49.6655C228.979 49.1951 229.256 48.8493 229.561 48.6279C229.865 48.3789 230.072 48.0607 230.183 47.6733L230.515 47.1753C230.626 47.0646 230.681 46.8571 230.681 46.5527L231.47 45.0586C231.636 44.3669 231.719 43.8273 231.719 43.4399C231.719 42.8589 231.414 42.4023 230.806 42.0703C230.225 41.7383 229.934 41.0881 229.934 40.1196C229.934 39.4832 230.252 38.9022 230.889 38.3765C231.553 37.8231 231.885 37.491 231.885 37.3804C231.885 37.2144 231.802 37.1313 231.636 37.1313C231.553 37.1313 231.235 37.242 230.681 37.4634C230.487 37.8507 229.505 38.3626 227.734 38.999C227.153 38.7223 226.835 38.584 226.78 38.584C226.614 38.584 226.448 38.75 226.282 39.082C226.116 39.4141 225.95 39.6493 225.784 39.7876H225.244C225.189 39.7876 225.009 39.9674 224.705 40.3271C224.4 40.6868 224.013 40.8667 223.542 40.8667L223.044 41.3647C223.072 41.8075 222.795 42.264 222.214 42.7344L221.758 43.2739C221.481 43.606 221.121 43.9933 220.679 44.436L219.932 46.3037C219.627 47.0231 219.475 47.5627 219.475 47.9224C219.392 48.0884 219.198 48.2682 218.894 48.4619C218.617 48.6279 218.479 48.8493 218.479 49.126C218.479 49.1813 218.576 49.3197 218.77 49.541C218.963 49.7624 219.06 49.9284 219.06 50.0391L218.894 50.5786L218.728 52.1143L219.143 53.4424ZM253.259 19.2017L253.84 19.0356L254.255 18.6206H254.338L254.712 18.7866H254.795C255.459 18.7866 256.04 18.6621 256.538 18.4131C257.064 18.1364 257.493 17.9427 257.825 17.832C258.184 17.7214 258.406 17.6383 258.489 17.583C258.572 17.5277 258.641 17.5 258.696 17.5L259.36 17.583C259.582 17.583 259.872 17.1956 260.232 16.4209C260.619 15.6185 261.048 15.0374 261.519 14.6777C261.989 14.318 262.459 13.6401 262.93 12.644C263.04 12.5057 263.165 12.2982 263.303 12.0215C263.442 11.7171 263.552 11.5649 263.635 11.5649C264.05 11.5649 264.382 11.3021 264.631 10.7764C265.461 9.80794 266.139 9.32373 266.665 9.32373C267.357 9.32373 267.841 9.98779 268.118 11.3159L268.533 12.8931C268.533 12.9207 268.464 13.1283 268.325 13.5156C268.187 13.8753 268.118 14.2489 268.118 14.6362C268.145 14.9959 268.132 15.245 268.076 15.3833C268.049 15.494 268.035 15.6323 268.035 15.7983C268.035 16.0197 268.27 16.1304 268.74 16.1304C268.906 16.1304 269.211 16.0197 269.653 15.7983L269.902 15.7153C270.179 15.8813 270.414 15.9644 270.608 15.9644C270.663 15.9644 271.051 15.826 271.77 15.5493C272.517 15.2726 272.987 15.1204 273.181 15.0928C273.375 15.0651 273.707 14.9544 274.177 14.7607H274.675L275.007 14.8853C275.118 14.8853 275.339 14.7746 275.671 14.5532C276.031 14.3042 276.695 14.152 277.664 14.0967L278.245 13.8477H278.411C279.324 13.8477 279.78 14.2489 279.78 15.0513C279.78 15.2173 279.642 15.5078 279.365 15.9229C279.116 16.3379 278.909 16.8083 278.743 17.334L276.833 19.7412C276.197 20.5713 275.561 20.9863 274.924 20.9863C274.814 20.9863 274.468 20.6128 273.887 19.8657C273.887 19.8104 273.831 19.7827 273.721 19.7827C273.444 19.7827 273.153 19.8381 272.849 19.9487C272.545 20.0594 272.296 20.1147 272.102 20.1147C272.019 20.1147 271.286 20.3223 269.902 20.7373L268.906 20.9033C268.796 20.9033 268.533 20.9587 268.118 21.0693L266.001 21.4844C265.282 21.8441 264.714 22.522 264.299 23.5181C264.299 23.5734 264.161 23.6979 263.884 23.8916L262.017 27.2949C261.408 27.4609 261.007 27.8206 260.813 28.374L260.647 28.623C260.343 28.6784 260.066 28.8582 259.817 29.1626C259.568 29.4393 259.333 29.6606 259.111 29.8267L258.364 30.9473C258.06 31.3346 257.756 31.7635 257.451 32.2339C257.147 32.6766 256.925 33.1608 256.787 33.6865C256.649 34.1846 256.538 34.4751 256.455 34.5581C256.372 34.6411 256.331 34.7933 256.331 35.0146L256.206 35.3467C255.874 35.6787 255.708 36.0522 255.708 36.4673L255.874 37.1313C255.487 38.4595 255.293 39.165 255.293 39.248C255.293 39.3034 255.321 39.4556 255.376 39.7046V39.9536C255.376 40.5623 255.155 41.3232 254.712 42.2363L254.795 42.9004L254.546 44.7681C254.546 45.0171 254.629 45.4736 254.795 46.1377C254.684 46.2484 254.629 46.3314 254.629 46.3867C254.629 47.1615 255.03 48.0192 255.833 48.96C256.663 49.873 257.078 51.3118 257.078 53.2764C257.078 53.4424 257.036 53.6914 256.953 54.0234C256.87 54.3278 256.815 54.6737 256.787 55.061C256.759 55.4207 256.538 55.7804 256.123 56.1401C255.736 56.4998 255.404 56.6797 255.127 56.6797C253.66 56.6797 252.568 55.6144 251.848 53.4839C251.129 51.3534 250.769 49.9837 250.769 49.375L250.852 47.7563L250.603 46.9263L250.852 43.2739L250.686 42.4023L251.641 38.833V37.5464C251.641 37.491 251.834 37.2697 252.222 36.8823C252.222 36.827 252.166 36.7993 252.056 36.7993C251.89 36.7993 251.668 36.9653 251.392 37.2974C251.115 37.6294 250.769 37.9476 250.354 38.252L250.022 38.833C249.967 38.7777 249.856 38.7223 249.69 38.667C249.552 38.7223 249.095 39.3726 248.32 40.6177C247.739 40.7007 247.283 41.0327 246.951 41.6138C246.619 42.1948 246.162 42.4854 245.581 42.4854L245.415 42.5684C245.304 43.3708 244.917 43.772 244.253 43.772L244.087 43.855C243.672 44.7957 243.243 45.2523 242.8 45.2246C242.524 46.0547 241.846 46.6219 240.767 46.9263C240.601 47.2583 240.365 47.5073 240.061 47.6733C239.729 47.8394 239.494 47.9915 239.355 48.1299C239.217 48.2682 239.093 48.3374 238.982 48.3374C238.622 48.3374 238.442 47.95 238.442 47.1753C238.442 46.9539 238.539 46.7188 238.733 46.4697C238.899 46.193 238.982 45.9993 238.982 45.8887C238.982 45.8333 238.844 45.6673 238.567 45.3906C238.567 44.5329 238.788 43.9933 239.231 43.772C239.674 43.5506 240.006 43.2324 240.227 42.8174C240.365 42.4854 240.642 42.2502 241.057 42.1118C241.472 41.9735 241.68 41.7936 241.68 41.5723C241.68 41.3786 242.039 40.9912 242.759 40.4102C243.478 39.8291 244.004 39.3311 244.336 38.916C244.668 38.4733 244.945 38.252 245.166 38.252L245.332 38.0859C245.387 37.3942 245.65 37.0483 246.121 37.0483L246.536 36.7993L246.619 36.4673L246.868 36.3013H247.2L247.407 36.1353C247.463 35.4435 247.781 34.904 248.362 34.5166C248.971 34.1292 250.063 33.0501 251.641 31.2793C253.218 29.4808 254.103 28.3325 254.297 27.8345C254.491 27.3364 254.836 26.6724 255.334 25.8423C255.86 24.9845 256.151 24.1821 256.206 23.4351C256.151 23.3244 256.068 23.2137 255.957 23.103L254.172 23.9746C254.172 23.8916 253.896 23.7671 253.342 23.6011C252.927 23.8501 252.623 24.0991 252.429 24.3481C252.236 24.5972 252.083 24.7217 251.973 24.7217L251.392 24.6387L249.565 24.8462C247.933 24.9845 246.702 25.3166 245.872 25.8423L244.17 26.3403H243.796C243.575 26.3403 243.243 26.4787 242.8 26.7554L241.846 26.6724C240.96 27.1427 240.31 27.3779 239.895 27.3779C239.84 27.3779 239.674 27.3503 239.397 27.2949L235.164 28.457C234.832 28.5677 234.084 29.1349 232.922 30.1587L232.59 30.2417C232.314 30.2417 231.995 29.9373 231.636 29.3286C231.248 28.6922 231.055 28.125 231.055 27.627C231.055 24.8877 233.407 23.2967 238.11 22.854L239.812 22.1899H239.895L240.352 22.356H240.518C240.684 22.356 240.946 22.2591 241.306 22.0654C241.666 21.8441 242.468 21.5812 243.713 21.2769L245.415 20.8203L245.955 20.9033C246.231 20.9033 246.536 20.7926 246.868 20.5713C247.227 20.3499 247.753 20.1978 248.445 20.1147C249.164 20.0041 249.662 19.8934 249.939 19.7827L250.603 19.6167C250.714 19.6167 250.935 19.5199 251.267 19.3262C251.627 19.1325 252.083 19.0356 252.637 19.0356C252.72 19.0356 252.927 19.091 253.259 19.2017ZM286.421 52.3633L284.47 54.0649C284.36 53.9543 284.249 53.8989 284.138 53.8989C283.861 53.8989 283.516 54.1479 283.101 54.646C282.713 55.144 282.437 55.3931 282.271 55.3931L281.855 55.3101C281.164 55.8358 280.666 56.1401 280.361 56.2231C280.057 56.3062 279.683 56.4583 279.241 56.6797C278.826 56.901 278.438 57.0256 278.079 57.0532C277.747 57.0809 277.47 57.2054 277.249 57.4268C277.027 57.6204 276.488 57.7173 275.63 57.7173L274.966 57.6343C274.606 57.8003 274.371 57.8833 274.26 57.8833C274.039 57.8833 273.804 57.7726 273.555 57.5513C273.306 57.3022 273.029 57.1639 272.725 57.1362C272.448 57.1086 272.157 56.9149 271.853 56.5552C271.549 56.1955 271.258 55.9465 270.981 55.8081C270.732 55.6698 270.525 55.4761 270.359 55.2271L269.778 54.729C269.307 54.397 268.851 53.7882 268.408 52.9028C267.965 52.0174 267.744 51.3257 267.744 50.8276V50.6616L267.827 49.873L267.744 48.96C267.855 48.8493 267.993 48.6141 268.159 48.2544V46.9263L269.155 43.606C269.211 43.4676 269.1 43.2878 268.823 43.0664C268.547 43.4814 268.27 43.7305 267.993 43.8135C267.716 43.8965 267.523 44.0902 267.412 44.3945C267.329 44.6989 267.177 44.8511 266.956 44.8511L266.458 44.6851C266.402 44.7404 266.278 45.0309 266.084 45.5566C265.89 46.0547 265.558 46.3037 265.088 46.3037C264.59 46.3037 264.341 46.11 264.341 45.7227L264.424 44.9756L264.175 43.938C264.175 43.7166 264.396 43.2878 264.839 42.6514C265.282 41.9873 265.683 41.6138 266.042 41.5308C266.43 41.4201 266.748 41.1572 266.997 40.7422C267.274 40.2995 267.855 39.7738 268.74 39.165C269.238 39.0544 269.667 38.6947 270.027 38.0859C270.414 37.7816 270.912 37.5326 271.521 37.3389C272.157 37.1452 272.628 36.8685 272.932 36.5088C273.264 36.1214 274.205 35.5404 275.754 34.7656C277.332 33.9632 278.48 33.562 279.199 33.562C279.421 33.562 279.725 33.5067 280.112 33.396C280.5 33.2576 280.859 33.147 281.191 33.064C281.523 32.9533 281.869 32.8011 282.229 32.6074C282.589 32.3861 282.879 32.2754 283.101 32.2754L284.304 32.6904C285.19 32.9395 285.729 33.1193 285.923 33.23C285.978 33.2853 286.255 33.4098 286.753 33.6035C287.279 33.7695 287.804 34.0047 288.33 34.3091C288.883 34.6134 289.16 35.1807 289.16 36.0107C288.69 36.7025 288.455 37.076 288.455 37.1313C288.455 37.242 288.773 37.408 289.409 37.6294C289.631 38.0444 289.963 38.584 290.405 39.248L290.862 40.7007L290.945 44.104L290.862 44.436C290.557 44.7127 290.405 44.8926 290.405 44.9756L290.53 45.8057L290.198 46.9678C290.115 47.3275 289.976 47.5627 289.783 47.6733C289.589 47.784 289.465 47.9224 289.409 48.0884L289.16 48.4204C289.105 48.5034 288.98 48.7524 288.787 49.1675C288.621 49.5549 288.427 49.8592 288.206 50.0806C287.984 50.3019 287.846 50.5648 287.791 50.8691C287.735 51.1735 287.597 51.3949 287.375 51.5332C287.154 51.6715 286.988 51.8237 286.877 51.9897C286.794 52.1281 286.642 52.2526 286.421 52.3633ZM273.513 53.4424L273.679 54.397L273.762 54.48H274.426L274.634 54.563C275.187 54.6737 275.602 54.729 275.879 54.729C276.737 54.729 277.415 54.5215 277.913 54.1064C278.438 53.6637 278.853 53.4424 279.158 53.4424C279.462 53.4424 279.711 53.2349 279.905 52.8198C280.126 52.4048 280.264 52.1973 280.32 52.1973H280.901L281.067 52.1143C281.067 51.4779 281.344 51.0213 281.897 50.7446C282.478 50.4679 282.879 50.1082 283.101 49.6655C283.35 49.1951 283.626 48.8493 283.931 48.6279C284.235 48.3789 284.443 48.0607 284.553 47.6733L284.885 47.1753C284.996 47.0646 285.051 46.8571 285.051 46.5527L285.84 45.0586C286.006 44.3669 286.089 43.8273 286.089 43.4399C286.089 42.8589 285.785 42.4023 285.176 42.0703C284.595 41.7383 284.304 41.0881 284.304 40.1196C284.304 39.4832 284.622 38.9022 285.259 38.3765C285.923 37.8231 286.255 37.491 286.255 37.3804C286.255 37.2144 286.172 37.1313 286.006 37.1313C285.923 37.1313 285.605 37.242 285.051 37.4634C284.858 37.8507 283.875 38.3626 282.104 38.999C281.523 38.7223 281.205 38.584 281.15 38.584C280.984 38.584 280.818 38.75 280.652 39.082C280.486 39.4141 280.32 39.6493 280.154 39.7876H279.614C279.559 39.7876 279.379 39.9674 279.075 40.3271C278.77 40.6868 278.383 40.8667 277.913 40.8667L277.415 41.3647C277.442 41.8075 277.166 42.264 276.584 42.7344L276.128 43.2739C275.851 43.606 275.492 43.9933 275.049 44.436L274.302 46.3037C273.997 47.0231 273.845 47.5627 273.845 47.9224C273.762 48.0884 273.569 48.2682 273.264 48.4619C272.987 48.6279 272.849 48.8493 272.849 49.126C272.849 49.1813 272.946 49.3197 273.14 49.541C273.333 49.7624 273.43 49.9284 273.43 50.0391L273.264 50.5786L273.098 52.1143L273.513 53.4424ZM303.438 36.5503L304.06 36.3843L304.309 35.8447C305.665 35.0423 306.633 34.2814 307.214 33.562C307.27 33.4513 307.394 33.3407 307.588 33.23C307.782 33.1193 307.989 32.9256 308.21 32.6489C309.234 31.6252 310.452 31.1133 311.863 31.1133C313.523 31.1133 314.408 32.1232 314.519 34.1431L314.768 34.7656C314.989 35.153 315.294 35.9416 315.681 37.1313C316.096 38.3211 316.304 39.0544 316.304 39.3311C316.304 40.0781 316.069 40.8252 315.598 41.5723C315.211 41.766 314.284 42.8035 312.817 44.6851L312.402 44.9756C312.181 45.4736 311.89 45.9717 311.531 46.4697C310.977 46.6634 310.701 46.8709 310.701 47.0923V47.8394C310.701 47.8947 310.632 48.0054 310.493 48.1714C310.382 48.3374 310.216 48.6556 309.995 49.126L309.663 49.624C309.552 49.7347 309.442 49.9699 309.331 50.3296C309.22 50.6616 309.054 50.966 308.833 51.2427C308.639 51.5194 308.542 51.7407 308.542 51.9067C308.542 52.3218 309.082 52.5293 310.161 52.5293C310.216 52.5293 310.424 52.4463 310.784 52.2803L311.365 52.4463C311.42 52.4463 311.558 52.3633 311.78 52.1973C312.001 52.0036 312.333 51.8514 312.776 51.7407C313.246 51.63 313.647 51.464 313.979 51.2427C314.339 51.0213 314.754 50.8276 315.225 50.6616C315.723 50.4956 316.193 50.2327 316.636 49.873C317.078 49.4857 317.507 49.209 317.922 49.043C318.365 48.877 318.766 48.6279 319.126 48.2959C319.513 47.9362 319.942 47.6042 320.413 47.2998C320.883 46.9954 321.63 46.3314 322.654 45.3076C323.318 44.7819 323.774 44.4914 324.023 44.436C324.079 44.436 324.314 44.0763 324.729 43.3569C325.172 42.6099 325.67 42.2363 326.223 42.2363C326.804 42.2363 327.095 42.513 327.095 43.0664C327.095 43.3708 326.956 43.6613 326.68 43.938V44.187L326.763 44.8511C326.818 44.9341 326.846 45.0586 326.846 45.2246C326.846 45.3353 326.735 45.5013 326.514 45.7227C326.32 45.944 326.182 46.2345 326.099 46.5942C326.016 46.9263 325.753 47.1476 325.31 47.2583C325.144 47.867 324.923 48.2129 324.646 48.2959C324.397 48.3789 324.037 48.6556 323.567 49.126C323.097 49.5964 322.432 50.1497 321.575 50.7861C320.717 51.4225 320.122 51.9206 319.79 52.2803C319.486 52.6123 319.278 52.7783 319.167 52.7783C319.112 52.7783 319.001 52.723 318.835 52.6123C318.669 52.5016 318.559 52.4463 318.503 52.4463C318.337 52.4463 318.227 52.64 318.171 53.0273L318.005 53.4424C317.646 53.6637 317.438 53.7744 317.383 53.7744L317.134 53.6914H316.968C316.636 53.6914 316.47 53.8159 316.47 54.0649L316.719 54.48V54.563C316.719 54.9504 316.497 55.144 316.055 55.144C315.75 55.144 314.865 55.6559 313.398 56.6797L312.195 56.9287L311.199 57.4683C310.867 57.2746 310.659 57.1777 310.576 57.1777L309.912 57.3853L308.708 57.4683C308.681 57.4683 308.169 57.1916 307.173 56.6382C306.204 56.0848 305.623 55.5314 305.43 54.978C305.236 54.4246 304.987 53.8713 304.683 53.3179C304.378 52.7368 304.226 52.3356 304.226 52.1143C304.226 50.7861 304.337 49.8454 304.558 49.292C304.779 48.7109 304.918 48.2821 304.973 48.0054C305.028 47.7287 305.181 47.4382 305.43 47.1338C305.706 46.8018 305.928 46.276 306.094 45.5566C306.896 43.9518 307.45 42.9696 307.754 42.6099C308.058 42.2502 308.293 41.8075 308.459 41.2817L308.999 40.5347C309.054 40.4793 309.137 40.2718 309.248 39.9121C309.359 39.5247 309.497 39.3034 309.663 39.248C309.884 38.8607 309.995 38.6117 309.995 38.501C309.995 37.6986 309.635 37.2974 308.916 37.2974C308.778 37.2974 308.625 37.4495 308.459 37.7539C308.293 38.0306 307.906 38.3073 307.297 38.584C306.716 38.8607 306.357 39.0682 306.218 39.2065C306.08 39.3449 305.776 39.5247 305.305 39.7461C304.862 39.9398 304.475 40.258 304.143 40.7007L303.438 41.0327C303.216 41.5584 303.022 41.849 302.856 41.9043C302.69 41.9596 302.179 42.098 301.321 42.3193C301.265 42.347 301.127 42.513 300.906 42.8174C300.684 43.1217 300.366 43.2739 299.951 43.2739C299.619 43.606 299.287 43.9933 298.955 44.436C298.844 44.436 298.554 44.5467 298.083 44.7681L297.253 44.9756C297.032 45.1416 296.783 45.4045 296.506 45.7642C296.257 46.1239 295.773 46.3037 295.054 46.3037C294.639 46.3037 294.431 45.9717 294.431 45.3076C294.431 43.9518 294.902 42.8727 295.842 42.0703C296.811 41.2679 297.516 40.839 297.959 40.7837C298.402 40.7284 298.678 40.5623 298.789 40.2856C298.9 40.009 299.163 39.7876 299.578 39.6216C300.02 39.4279 300.518 39.0267 301.072 38.418C301.653 37.7816 302.275 37.3527 302.939 37.1313L303.438 36.5503ZM332.739 36.8823L333.32 35.8447C333.486 35.5957 333.694 35.3467 333.943 35.0977C334.22 34.821 334.51 34.1431 334.814 33.064C335.119 31.9572 335.451 31.1963 335.811 30.7812C336.198 30.3662 336.751 30.1587 337.471 30.1587C337.886 30.1587 338.425 30.3662 339.089 30.7812C339.781 31.1686 340.445 32.3722 341.082 34.3921C341.746 36.4119 342.078 37.8369 342.078 38.667C342.078 38.999 342.174 39.4279 342.368 39.9536C342.562 40.4517 342.686 40.839 342.742 41.1157C342.52 41.5861 342.41 41.849 342.41 41.9043L342.493 43.606L341.995 44.9756V45.9717C341.663 46.5251 341.497 46.8709 341.497 47.0093C341.497 47.1753 341.552 47.3413 341.663 47.5073C342.963 46.9539 343.752 46.5112 344.028 46.1792C344.305 45.8195 344.568 45.5981 344.817 45.5151C345.094 45.4321 345.536 45.0724 346.145 44.436L346.934 44.021C347.21 43.689 347.445 43.3984 347.639 43.1494C347.833 42.8727 348.054 42.679 348.303 42.5684C348.58 42.4577 348.898 42.264 349.258 41.9873C349.618 41.7106 350.143 41.3924 350.835 41.0327L351.25 40.5347C351.665 40.0643 352.149 39.6908 352.703 39.4141C353.284 39.1374 353.602 38.999 353.657 38.999C353.851 38.999 354.045 39.2619 354.238 39.7876C354.46 40.2856 354.57 40.7837 354.57 41.2817C354.57 41.7521 354.294 42.2225 353.74 42.6929C353.215 43.1356 352.855 43.4676 352.661 43.689C352.467 43.9103 352.025 44.104 351.333 44.27C351.278 44.2977 350.821 44.8649 349.963 45.9717L349.133 46.4697L348.718 47.0093C348.663 47.12 348.289 47.2306 347.598 47.3413C347.57 47.3413 347.501 47.4797 347.39 47.7563C347.307 48.033 347.017 48.2267 346.519 48.3374C345.522 49.2505 345.011 49.7624 344.983 49.873L344.111 50.0391C343.945 50.5648 343.807 50.883 343.696 50.9937C343.032 51.1597 342.659 51.4364 342.576 51.8237C342.493 51.8791 342.354 51.9344 342.161 51.9897L341.995 52.1143C341.358 52.6123 340.736 52.9167 340.127 53.0273L339.172 53.2764L338.84 53.7744C338.84 53.9128 338.494 54.0926 337.803 54.314C337.139 54.5353 336.641 54.812 336.309 55.144L335.603 55.6836C334.745 56.0156 334.206 56.32 333.984 56.5967H333.403C333.016 56.5967 332.407 56.8872 331.577 57.4683C330.747 58.0216 330.083 58.2983 329.585 58.2983C327.98 58.2983 326.873 58.1047 326.265 57.7173C325.684 57.3022 325.199 56.8042 324.812 56.2231C324.425 55.6144 324.079 55.1302 323.774 54.7705C323.442 54.4108 323.276 54.1203 323.276 53.8989C323.276 53.7052 323.415 53.5116 323.691 53.3179C323.94 53.1242 324.217 52.7368 324.521 52.1558C324.826 51.547 325.601 51.1597 326.846 50.9937C326.901 50.9937 327.095 50.9106 327.427 50.7446C327.786 50.5786 328.077 50.4956 328.298 50.4956C328.575 50.4956 328.921 50.7446 329.336 51.2427C329.336 51.298 329.391 51.3257 329.502 51.3257L330.166 51.2427C330.47 51.464 330.678 51.5747 330.789 51.5747C331.453 51.5747 332.158 51.2427 332.905 50.5786L333.071 50.4956H333.403C333.486 50.4956 333.625 50.2604 333.818 49.79L334.524 48.3374L335.977 46.4697V46.0547C335.977 45.9717 336.06 45.7227 336.226 45.3076V44.6851C336.226 44.436 336.392 44.2839 336.724 44.2285C337.056 44.1455 337.222 43.9657 337.222 43.689L337.139 43.3569C336.917 43.0526 336.807 42.8174 336.807 42.6514L337.222 41.8213L337.139 40.9497L337.305 40.6177C337.194 40.2303 337.139 40.009 337.139 39.9536L337.305 38.916C337.305 38.8883 337.222 38.6255 337.056 38.1274C336.917 37.6294 336.807 37.3804 336.724 37.3804C336.558 37.3804 336.032 37.8092 335.146 38.667C334.261 39.5247 333.735 40.1335 333.569 40.4932C333.403 40.8529 333.044 41.1849 332.49 41.4893C331.965 41.766 331.605 42.0841 331.411 42.4438C331.217 42.8035 330.982 43.0111 330.706 43.0664L327.925 45.3076L324.895 47.5488C324.674 47.7979 324.535 47.9224 324.48 47.9224C323.456 47.9224 322.944 47.3551 322.944 46.2207C322.944 45.861 323.152 45.2108 323.567 44.27C323.761 44.1593 323.913 44.0763 324.023 44.021C324.106 43.9657 324.148 43.9242 324.148 43.8965C324.148 43.8688 324.12 43.855 324.065 43.855L324.314 44.021H324.397C325.421 43.3293 326.085 42.9281 326.389 42.8174C326.694 42.7067 326.97 42.4023 327.219 41.9043L328.962 40.6592C329.405 40.3271 330.083 39.7184 330.996 38.833C331.909 37.9476 332.49 37.2974 332.739 36.8823Z" fill="#092B5B"/>
</svg>
