<svg width="34" height="18" viewBox="0 0 34 18" fill="none" xmlns="http://www.w3.org/2000/svg">
<path d="M32.6566 1.15663C32.4397 0.937927 32.1817 0.76434 31.8973 0.64588C31.613 0.527419 31.308 0.466431 31 0.466431C30.692 0.466431 30.387 0.527419 30.1026 0.64588C29.8183 0.76434 29.5602 0.937927 29.3433 1.15663L18.6566 11.8433C18.4397 12.062 18.1817 12.2356 17.8973 12.354C17.613 12.4725 17.308 12.5335 17 12.5335C16.692 12.5335 16.387 12.4725 16.1026 12.354C15.8183 12.2356 15.5602 12.062 15.3433 11.8433L4.65664 1.15663C4.43973 0.937927 4.18166 0.76434 3.89732 0.64588C3.61299 0.527419 3.30801 0.466431 2.99998 0.466431C2.69195 0.466431 2.38697 0.527419 2.10263 0.64588C1.81829 0.76434 1.56022 0.937927 1.34331 1.15663C0.908725 1.59381 0.664795 2.18519 0.664795 2.80163C0.664795 3.41806 0.908725 4.00945 1.34331 4.44663L12.0533 15.1566C13.3658 16.4675 15.145 17.2038 17 17.2038C18.855 17.2038 20.6341 16.4675 21.9466 15.1566L32.6566 4.44663C33.0912 4.00945 33.3352 3.41806 33.3352 2.80163C33.3352 2.18519 33.0912 1.59381 32.6566 1.15663Z" fill="#092B5B"/>
</svg>
