<svg width="32" height="32" viewBox="0 0 32 32" fill="none" xmlns="http://www.w3.org/2000/svg">
<g clip-path="url(#clip0_36_1490)">
<path d="M24.8747 1.24001L8.61865 17.496C7.99778 18.1135 7.50556 18.8481 7.1705 19.6571C6.83543 20.4662 6.66418 21.3337 6.66665 22.2093V24C6.66665 24.3536 6.80713 24.6928 7.05718 24.9428C7.30723 25.1929 7.64636 25.3333 7.99999 25.3333H9.79065C10.6663 25.3358 11.5338 25.1646 12.3429 24.8295C13.1519 24.4944 13.8865 24.0022 14.504 23.3813L30.76 7.12535C31.5392 6.34424 31.9768 5.28598 31.9768 4.18268C31.9768 3.07938 31.5392 2.02112 30.76 1.24001C29.9676 0.48254 28.9135 0.0598145 27.8173 0.0598145C26.7211 0.0598145 25.6671 0.48254 24.8747 1.24001ZM28.8747 5.24002L12.6187 21.496C11.8668 22.2433 10.8507 22.6639 9.79065 22.6667H9.33332V22.2093C9.3361 21.1493 9.75674 20.1332 10.504 19.3813L26.76 3.12535C27.0448 2.85329 27.4235 2.70147 27.8173 2.70147C28.2112 2.70147 28.5899 2.85329 28.8747 3.12535C29.1546 3.40603 29.3118 3.78627 29.3118 4.18268C29.3118 4.57909 29.1546 4.95933 28.8747 5.24002Z" fill="#092B5B"/>
<path d="M30.6667 11.972C30.313 11.972 29.9739 12.1125 29.7239 12.3625C29.4738 12.6126 29.3333 12.9517 29.3333 13.3053V20H24C22.9391 20 21.9217 20.4214 21.1716 21.1716C20.4214 21.9217 20 22.9391 20 24V29.3333H6.66667C5.6058 29.3333 4.58839 28.9119 3.83824 28.1618C3.08809 27.4116 2.66667 26.3942 2.66667 25.3333V6.66667C2.66667 5.6058 3.08809 4.58839 3.83824 3.83824C4.58839 3.08809 5.6058 2.66667 6.66667 2.66667H18.7227C19.0763 2.66667 19.4154 2.52619 19.6655 2.27614C19.9155 2.02609 20.056 1.68696 20.056 1.33333C20.056 0.979711 19.9155 0.640573 19.6655 0.390524C19.4154 0.140476 19.0763 0 18.7227 0L6.66667 0C4.89921 0.00211714 3.20474 0.705176 1.95496 1.95496C0.705176 3.20474 0.00211714 4.89921 0 6.66667L0 25.3333C0.00211714 27.1008 0.705176 28.7953 1.95496 30.045C3.20474 31.2948 4.89921 31.9979 6.66667 32H21.7907C22.6666 32.0025 23.5342 31.8313 24.3435 31.4962C25.1528 31.1612 25.8876 30.6689 26.5053 30.048L30.0467 26.504C30.6677 25.8865 31.1601 25.152 31.4953 24.3429C31.8306 23.5339 32.0022 22.6664 32 21.7907V13.3053C32 12.9517 31.8595 12.6126 31.6095 12.3625C31.3594 12.1125 31.0203 11.972 30.6667 11.972ZM24.62 28.1627C24.084 28.6973 23.4062 29.0675 22.6667 29.2293V24C22.6667 23.6464 22.8071 23.3072 23.0572 23.0572C23.3072 22.8071 23.6464 22.6667 24 22.6667H29.2333C29.0684 23.4047 28.6987 24.0812 28.1667 24.6187L24.62 28.1627Z" fill="#092B5B"/>
</g>
<defs>
<clipPath id="clip0_36_1490">
<rect width="32" height="32" fill="white"/>
</clipPath>
</defs>
</svg>
