<svg width="39" height="39" viewBox="0 0 39 39" fill="none" xmlns="http://www.w3.org/2000/svg">
<g clip-path="url(#clip0_36_1495)">
<path d="M12.1956 39C9.25396 38.9981 6.41225 37.9324 4.19486 35.9994C1.97746 34.0664 0.534028 31.3966 0.130909 28.4827C-0.272211 25.5688 0.39219 22.6074 2.00151 20.145C3.61083 17.6826 6.05646 15.8854 8.88712 15.0849C10.9446 14.4957 13.1223 14.4688 15.1937 15.0069L28.0442 2.15966C28.7264 1.47274 29.5382 0.928124 30.4325 0.5574C31.3269 0.186675 32.2859 -0.00277843 33.254 3.07893e-05C34.7775 0.00132174 36.2383 0.607117 37.3156 1.68442C38.3929 2.76173 38.9987 4.22249 39 5.74603C39.0025 6.71419 38.8131 7.67325 38.4427 8.56775C38.0723 9.46225 37.5282 10.2745 36.842 10.9574L35.75 12.0494C35.139 12.6562 34.3134 12.9978 33.4522 13H30.875V14.625C30.875 15.487 30.5326 16.3136 29.9231 16.9231C29.3136 17.5326 28.4869 17.875 27.625 17.875H26V20.4523C26.0011 20.8792 25.9176 21.3022 25.7541 21.6966C25.5907 22.091 25.3506 22.4491 25.0477 22.75L23.9915 23.8063C24.5326 25.8767 24.5062 28.0546 23.9151 30.1113C23.25 32.4545 21.9006 34.5459 20.0397 36.1176C18.1788 37.6893 15.8911 38.6698 13.4696 38.9334C13.0464 38.9774 12.6211 38.9996 12.1956 39ZM12.1956 17.875C10.5319 17.8734 8.90068 18.3362 7.4857 19.2114C6.07071 20.0866 4.9281 21.3393 4.18649 22.8287C3.44487 24.318 3.13369 25.9848 3.28798 27.6413C3.44226 29.2979 4.05589 30.8786 5.05979 32.2053C6.06368 33.5321 7.41798 34.5523 8.97025 35.1511C10.5225 35.7499 12.2111 35.9035 13.8459 35.5947C15.4808 35.2859 16.997 34.5268 18.2238 33.4031C19.4507 32.2793 20.3395 30.8353 20.7902 29.2338C21.2972 27.4732 21.2404 25.598 20.6277 23.8713C20.5278 23.5829 20.511 23.2722 20.5794 22.9748C20.6478 22.6773 20.7986 22.4051 21.0145 22.1894L22.75 20.4523V17.875C22.75 17.0131 23.0924 16.1864 23.7019 15.5769C24.3114 14.9674 25.138 14.625 26 14.625H27.625V13C27.625 12.1381 27.9674 11.3114 28.5769 10.7019C29.1864 10.0924 30.013 9.75003 30.875 9.75003H33.4522L34.5442 8.65803C34.9277 8.27641 35.2317 7.82256 35.4386 7.32273C35.6456 6.8229 35.7514 6.28701 35.75 5.74603C35.7496 5.08446 35.4867 4.45009 35.019 3.98214C34.5514 3.51419 33.9172 3.25089 33.2556 3.25003C32.7143 3.2487 32.178 3.35472 31.6779 3.56197C31.1778 3.76921 30.7237 4.07356 30.342 4.45741L16.8041 17.9937C16.5881 18.2096 16.3155 18.3603 16.0178 18.4284C15.72 18.4965 15.4091 18.4793 15.1206 18.3788C14.1782 18.047 13.1866 17.8767 12.1875 17.875H12.1956ZM8.12499 29.25C8.12499 29.5714 8.2203 29.8856 8.39886 30.1528C8.57741 30.4201 8.8312 30.6283 9.12813 30.7513C9.42506 30.8743 9.7518 30.9065 10.067 30.8438C10.3822 30.7811 10.6718 30.6263 10.899 30.3991C11.1263 30.1718 11.2811 29.8823 11.3438 29.5671C11.4065 29.2518 11.3743 28.9251 11.2513 28.6282C11.1283 28.3312 10.92 28.0775 10.6528 27.8989C10.3856 27.7203 10.0714 27.625 9.74999 27.625C9.31902 27.625 8.90569 27.7962 8.60095 28.101C8.2962 28.4057 8.12499 28.8191 8.12499 29.25Z" fill="#092B5B"/>
</g>
<defs>
<clipPath id="clip0_36_1495">
<rect width="39" height="39" fill="white"/>
</clipPath>
</defs>
</svg>
