<svg width="34" height="34" viewBox="0 0 34 34" fill="none" xmlns="http://www.w3.org/2000/svg">
<g clip-path="url(#clip0_36_1488)">
<path d="M18.4167 1.41667C18.4167 1.04095 18.5659 0.680613 18.8316 0.414936C19.0973 0.14926 19.4576 4.07035e-06 19.8333 4.07035e-06C23.5893 0.00412883 27.1903 1.49801 29.8461 4.15388C32.502 6.80975 33.9959 10.4107 34 14.1667C34 14.5424 33.8507 14.9027 33.5851 15.1684C33.3194 15.4341 32.9591 15.5833 32.5833 15.5833C32.2076 15.5833 31.8473 15.4341 31.5816 15.1684C31.3159 14.9027 31.1667 14.5424 31.1667 14.1667C31.1633 11.1619 29.9682 8.2812 27.8435 6.15652C25.7188 4.03184 22.8381 2.83671 19.8333 2.83334C19.4576 2.83334 19.0973 2.68408 18.8316 2.41841C18.5659 2.15273 18.4167 1.79239 18.4167 1.41667ZM19.8333 8.5C21.3362 8.5 22.7776 9.09703 23.8403 10.1597C24.903 11.2224 25.5 12.6638 25.5 14.1667C25.5 14.5424 25.6493 14.9027 25.9149 15.1684C26.1806 15.4341 26.5409 15.5833 26.9167 15.5833C27.2924 15.5833 27.6527 15.4341 27.9184 15.1684C28.1841 14.9027 28.3333 14.5424 28.3333 14.1667C28.3311 11.913 27.4348 9.75232 25.8413 8.15875C24.2477 6.56518 22.087 5.66892 19.8333 5.66667C19.4576 5.66667 19.0973 5.81593 18.8316 6.0816C18.5659 6.34728 18.4167 6.70761 18.4167 7.08334C18.4167 7.45906 18.5659 7.8194 18.8316 8.08507C19.0973 8.35075 19.4576 8.5 19.8333 8.5ZM32.7151 23.7136C33.5361 24.5368 33.9971 25.652 33.9971 26.8147C33.9971 27.9773 33.5361 29.0925 32.7151 29.9158L31.4259 31.4018C19.8234 42.5099 -8.41075 14.2828 2.52592 2.6435L4.15508 1.22684C4.97926 0.428797 6.08449 -0.0126764 7.23166 -0.00207157C8.37884 0.00853326 9.47572 0.470363 10.285 1.2835C10.3289 1.32742 12.954 4.73734 12.954 4.73734C13.7329 5.55564 14.1665 6.64265 14.1647 7.77241C14.1628 8.90216 13.7257 9.98775 12.9441 10.8035L11.3036 12.8662C12.2115 15.0721 13.5463 17.0769 15.2313 18.7653C16.9164 20.4538 18.9184 21.7926 21.1225 22.7049L23.1979 21.0545C24.0138 20.2735 25.0992 19.8369 26.2286 19.8353C27.358 19.8337 28.4446 20.2673 29.2627 21.046C29.2627 21.046 32.6712 23.6697 32.7151 23.7136ZM30.7657 25.7734C30.7657 25.7734 27.3757 23.1653 27.3317 23.1214C27.0399 22.832 26.6455 22.6697 26.2345 22.6697C25.8235 22.6697 25.4292 22.832 25.1373 23.1214C25.0991 23.1611 22.2417 25.4377 22.2417 25.4377C22.0491 25.5909 21.8199 25.6914 21.5768 25.7292C21.3336 25.7669 21.0847 25.7407 20.8548 25.653C17.9994 24.5899 15.4059 22.9256 13.2499 20.7727C11.0938 18.6199 9.42565 16.0288 8.35833 13.175C8.2637 12.9419 8.23285 12.6878 8.26895 12.4388C8.30505 12.1898 8.4068 11.955 8.56375 11.7583C8.56375 11.7583 10.8403 8.8995 10.8786 8.86267C11.168 8.57082 11.3303 8.17646 11.3303 7.76546C11.3303 7.35447 11.168 6.96011 10.8786 6.66825C10.8347 6.62575 8.22658 3.23284 8.22658 3.23284C7.93036 2.96722 7.54376 2.82497 7.14602 2.83525C6.74828 2.84552 6.36954 3.00754 6.08742 3.28809L4.45825 4.70475C-3.53458 14.3154 20.9327 37.4255 29.3548 29.4667L30.6453 27.9792C30.9478 27.699 31.1294 27.3123 31.1519 26.9007C31.1744 26.489 31.0359 26.0848 30.7657 25.7734Z" fill="#092B5B"/>
</g>
<defs>
<clipPath id="clip0_36_1488">
<rect width="34" height="34" fill="white"/>
</clipPath>
</defs>
</svg>
