<svg width="38" height="38" viewBox="0 0 38 38" fill="none" xmlns="http://www.w3.org/2000/svg">
<g clip-path="url(#clip0_36_1493)">
<path d="M36.4167 31.6667C35.9967 31.6667 35.594 31.8335 35.2971 32.1304C35.0001 32.4273 34.8333 32.8301 34.8333 33.25C34.8333 33.7947 33.7535 34.8333 32.0625 34.8333C31.5875 34.85 31.1147 34.7608 30.6784 34.5721C30.2422 34.3834 29.8534 34.1 29.5403 33.7424C29.6021 33.6415 29.6698 33.5442 29.7429 33.4511C32.3251 30.7431 34.0616 27.341 34.7399 23.6613C34.9407 22.5543 34.742 21.4118 34.1792 20.4376C33.6164 19.4633 32.726 18.7204 31.6667 18.3413V14.25C31.6667 12.5703 30.9994 10.9594 29.8117 9.77166C28.6239 8.58393 27.013 7.91667 25.3333 7.91667V6.33333C25.3333 4.65363 24.6661 3.04272 23.4783 1.85499C22.2906 0.66726 20.6797 0 19 0C17.3203 0 15.7094 0.66726 14.5217 1.85499C13.3339 3.04272 12.6667 4.65363 12.6667 6.33333V7.91667C10.987 7.91667 9.37605 8.58393 8.18832 9.77166C7.00059 10.9594 6.33333 12.5703 6.33333 14.25V18.3207C5.26077 18.6912 4.35628 19.4334 3.78356 20.4131C3.21084 21.3927 3.00773 22.5449 3.211 23.6613C3.90633 27.3455 5.65978 30.7473 8.25708 33.4511C8.33307 33.5466 8.40338 33.6466 8.46767 33.7503C8.15423 34.1091 7.76404 34.3928 7.32605 34.5803C6.88805 34.7678 6.41347 34.8542 5.9375 34.8333C4.21325 34.8333 3.16667 33.7345 3.16667 33.25C3.16667 32.8301 2.99985 32.4273 2.70292 32.1304C2.40599 31.8335 2.00326 31.6667 1.58333 31.6667C1.16341 31.6667 0.76068 31.8335 0.463748 32.1304C0.166815 32.4273 0 32.8301 0 33.25C0 35.8245 2.72017 38 5.9375 38C7.53854 38.0145 9.09134 37.4525 10.3123 36.4167C11.53 37.4337 13.065 37.9929 14.6516 37.9975C16.2381 38.0021 17.7764 37.4519 19 36.442C20.2281 37.4509 21.7694 38.0003 23.3587 37.9956C24.9481 37.991 26.4861 37.4327 27.7083 36.4167C28.9219 37.4469 30.4643 38.0086 32.0562 38C35.2798 38 38 35.8245 38 33.25C38 32.8301 37.8332 32.4273 37.5363 32.1304C37.2393 31.8335 36.8366 31.6667 36.4167 31.6667ZM15.8333 6.33333C15.8333 5.49348 16.167 4.68803 16.7608 4.09416C17.3547 3.5003 18.1601 3.16667 19 3.16667C19.8399 3.16667 20.6453 3.5003 21.2392 4.09416C21.833 4.68803 22.1667 5.49348 22.1667 6.33333V7.91667H15.8333V6.33333ZM12.6667 11.0833H25.3333C26.1732 11.0833 26.9786 11.417 27.5725 12.0108C28.1664 12.6047 28.5 13.4101 28.5 14.25V17.29L20.501 14.6648C19.5286 14.345 18.4793 14.345 17.5069 14.6648L9.5 17.2789V14.25C9.5 13.4101 9.83363 12.6047 10.4275 12.0108C11.0214 11.417 11.8268 11.0833 12.6667 11.0833ZM14.6458 34.8333C14.1166 34.8623 13.5889 34.7537 13.1142 34.5181C12.6394 34.2826 12.2338 33.928 11.9368 33.4891C11.6069 32.6985 11.1538 31.9653 10.5941 31.3167C8.41132 29.0569 6.93122 26.2122 6.33333 23.1277C6.26023 22.7483 6.32584 22.3553 6.51823 22.0202C6.71062 21.6851 7.01698 21.4303 7.3815 21.3022L17.4167 18.0231V33.25C17.4167 33.7947 16.3368 34.8333 14.6458 34.8333ZM23.3542 34.8333C21.6299 34.8333 20.5833 33.7345 20.5833 33.25V18.0247L30.5663 21.3006C30.932 21.4284 31.2397 21.6834 31.4332 22.0191C31.6268 22.3547 31.6933 22.7487 31.6208 23.1293C31.0401 26.2097 29.5756 29.0545 27.4059 31.3167C26.8427 31.9662 26.3892 32.7031 26.0633 33.4986C25.7661 33.9368 25.3602 34.2902 24.8852 34.5242C24.4103 34.7582 23.8827 34.8647 23.3542 34.8333Z" fill="#092B5B"/>
</g>
<defs>
<clipPath id="clip0_36_1493">
<rect width="38" height="38" fill="white"/>
</clipPath>
</defs>
</svg>
