<svg width="164" height="164" viewBox="0 0 164 164" fill="none" xmlns="http://www.w3.org/2000/svg">
<g clip-path="url(#clip0_206_355)">
<circle cx="82" cy="82" r="75" fill="white"/>
<path d="M82 0C36.7838 0 0 36.7838 0 82C0 127.216 36.7838 164 82 164C127.216 164 164 127.216 164 82C164 36.7838 127.216 0 82 0ZM120.711 113.345L117.144 117.445C113.379 121.217 108.418 123 103.477 123C78.0982 123 41 87.8562 41 60.5228C41 55.5823 42.7835 50.6213 46.5555 46.8562L50.6555 43.2892C53.7032 40.2415 58.6505 40.2415 61.6982 43.2892L68.5315 52.1862C71.5792 55.2338 71.5792 60.1812 68.5315 63.2288L62.7163 70.5337C68.8732 85.8677 79.3145 95.8853 93.4663 101.284L100.771 95.4685C103.819 92.4208 108.766 92.4208 111.814 95.4685L120.711 102.302C123.759 105.35 123.759 110.297 120.711 113.345Z" fill="#30CC45"/>
</g>
<defs>
<clipPath id="clip0_206_355">
<rect width="164" height="164" fill="white"/>
</clipPath>
</defs>
</svg>
